<svg width="144" height="48" viewBox="0 0 144 48" fill="none" xmlns="http://www.w3.org/2000/svg">
<path d="M83.2108 40.6722C82.6878 40.1672 82.3168 39.7152 82.1158 39.3102L81.2957 37.3922L79.9748 33.8502L79.9678 33.8642L69.2257 5.26419H60.2677L62.1678 10.7462L54.6268 32.0142C53.5498 34.9972 52.4408 37.6572 51.5748 39.0952C50.7088 40.5332 50.3318 41.0492 48.6468 41.8772V42.6122H57.4988V41.8772C55.2558 41.1312 54.8388 39.2602 54.8388 38.2202C54.8388 37.3342 55.3618 35.2582 56.0858 32.9392L69.9497 32.9572L71.0028 35.9042C71.5818 37.5822 71.8677 38.7542 71.8677 39.4182C71.8677 40.1102 70.7478 41.2822 68.1938 41.8782V42.6132H75.9298V42.6172H85.4207V41.9032C84.4427 41.5842 83.7287 41.1792 83.2097 40.6732L83.2108 40.6722ZM56.6198 31.3112L63.0268 12.9972L69.4058 31.3112H56.6198ZM123.801 29.2742V36.2192C123.801 38.3742 124.038 39.7862 124.483 40.4532C124.779 40.8982 125.387 41.3782 126.291 41.8842L126.344 41.8452V42.6092H125.073H119.647H118.375H117.114V42.6132H114.225H112.953V41.8922C113.858 41.3862 114.518 40.8992 114.815 40.4582C115.203 39.8772 115.433 38.7302 115.486 37.0162V11.1402L102.816 43.1002H101.17L90.0957 11.0722C90.0957 11.0972 90.0918 11.1192 90.0918 11.1442V37.0122C90.1448 38.7262 90.3748 39.8732 90.7628 40.4542C91.0598 40.8992 92.1617 41.6012 93.1367 41.8882V42.6092H91.3528H90.0918V42.6132H87.2027H85.4187V41.8922C86.5097 41.5152 87.4958 40.8992 87.7928 40.4582C88.1818 39.8772 88.4107 38.7302 88.4637 37.0162V10.6272L86.7258 5.55419V5.25319H88.4637V5.24919H89.0538V5.24219H96.9167L106.051 29.9992L115.482 5.39719V5.25419H115.493H115.539L115.542 5.24719H115.726V5.25419H117.503H125.8V5.55219L123.808 10.7042V29.3152L123.801 29.2762V29.2742ZM43.8408 31.4502H39.2168V5.36419L39.2278 5.36019H30.2698L31.4458 8.79519L16.8438 33.0102H31.8068V42.6762H39.2178V33.0102H43.8418L43.8408 31.4502ZM19.5878 31.4502L31.8098 11.1822V31.4502H19.5878ZM49.9408 15.0222L49.7747 14.1652C49.6507 13.5342 49.5308 13.0072 49.3368 12.4942C49.0718 11.7952 48.6058 11.3252 47.9098 11.0602C47.3908 10.8592 46.8428 10.7372 46.3768 10.6412L46.3268 10.6302L45.9627 10.5482L45.4188 10.3972L46.4217 10.1962C46.9307 10.0922 47.4707 9.96719 47.9827 9.75519C48.6287 9.49019 49.0708 9.03419 49.3288 8.36019C49.5268 7.84419 49.6468 7.31719 49.7418 6.82219L49.8438 6.36319L49.9918 5.81419L50.1398 6.57819L50.2348 7.05819C50.3268 7.53036 50.4603 7.99348 50.6338 8.44219C50.753 8.74772 50.936 9.02435 51.1705 9.25367C51.405 9.483 51.6856 9.65976 51.9938 9.77219C52.5058 9.97619 53.0498 10.0982 53.5158 10.1952L54.5788 10.4102L53.5928 10.6292L52.8088 10.8082C52.4083 10.8964 52.0212 11.0373 51.6577 11.2272C51.1847 11.4852 50.8417 11.8792 50.6157 12.4392C50.4007 12.9732 50.2808 13.5332 50.1748 14.0602L50.1608 14.1252L50.0828 14.4802L49.9378 15.0212L49.9408 15.0222Z" fill="white"/>
</svg>
