<svg width="143" height="48" viewBox="0 0 143 48" fill="none" xmlns="http://www.w3.org/2000/svg">
<path d="M93.8336 34.8258L92.1696 36.2878L91.8106 36.5838C91.6796 36.6738 91.6096 36.7068 91.5396 36.7398L91.5736 36.8218L91.9126 36.6888L96.1116 35.7388C98.1206 35.4478 99.8006 34.3798 101.646 33.7108C102.873 33.2658 104.113 33.1018 105.373 33.5788C105.546 33.6448 105.701 33.7558 106 33.9208L101.363 36.1658L101.414 36.3848C101.594 36.3688 101.789 36.3918 101.952 36.3328C104.466 35.4168 107.096 34.8068 109.491 33.5748C110.299 33.1588 111.178 33.2278 112.022 33.4698C112.299 33.5498 112.724 33.7028 112.346 34.2028L109.52 35.5188C109.372 35.6408 109.272 35.7628 109.172 35.8838L107.654 36.6978L107.696 36.8148L108.241 36.6868L115.3 34.9858C115.868 34.8398 116.387 34.5008 116.917 34.2298L122.243 31.3198L116.808 31.6328L116.677 31.6398H111.035C111.063 31.5398 111.055 31.2848 111.175 31.1958C112 30.5798 112.829 30.0678 113.972 30.0658L121.758 29.8298C122.409 29.8068 123.069 29.6548 123.706 29.7228C125.25 29.8868 126.592 29.4048 127.926 28.7318C128.813 28.2838 129.66 27.6068 130.753 27.7818C131.298 27.8729 131.828 28.0448 132.323 28.2918C132.804 28.5318 132.363 28.7648 132.182 28.8848C131.851 29.1058 131.47 29.2528 131.058 29.4558L142.083 29.8468C142.129 29.9308 142.129 30.0278 142.086 30.1398C141.011 30.7088 139.934 31.1218 138.738 31.1228C135.333 31.1278 131.928 31.1178 128.523 31.1348C128.17 31.1368 127.78 31.2068 127.472 31.3648L121.556 34.4908C120.324 35.1608 119.124 35.8858 117.91 36.5858C118.693 36.5378 119.416 36.3558 120.138 36.1678C120.817 35.9918 121.592 35.9568 122.155 35.6018C123.891 34.5078 125.696 33.5878 127.718 33.1728C128.769 32.9568 129.863 32.8178 130.931 32.8488C131.484 32.8648 131.977 32.8648 132.487 32.6728C133.423 32.3122 134.46 32.3136 135.395 32.6768C136.203 32.9768 136.458 33.6108 135.925 34.2698C135.538 34.7486 135.083 35.1675 134.574 35.5128C131.905 37.3028 128.93 38.3458 125.756 38.8858C125.665 38.9018 125.597 39.0478 125.519 39.1338C124.198 39.1338 122.877 39.1338 121.519 39.0848C121.351 38.9818 121.224 38.9018 121.087 38.8798C120.26 38.7478 120.16 38.6438 120.187 37.8478L119.879 37.8908L114.205 38.7228C113.773 38.7748 113.249 38.6088 112.866 38.3828C112.509 38.1728 112.282 37.7488 112.067 37.4988L105.588 38.8858C105.495 38.9068 105.428 39.0488 105.349 39.1338C104.906 39.1338 104.463 39.1338 103.994 39.0938C103.845 38.9535 103.688 38.8235 103.522 38.7048C102.789 38.2068 102.776 38.1188 103.374 37.5168C103.45 37.4408 103.52 37.3588 103.621 37.2568C103.664 37.1868 103.68 37.1398 103.695 37.0928C103.628 37.1238 103.561 37.1548 103.442 37.1898L97.1176 38.8358C96.1086 39.0938 95.1466 38.4468 95.2596 37.6188C95.2176 37.6078 95.1726 37.5808 95.1356 37.5898L89.5776 38.9298C89.5466 38.9378 89.5446 39.0628 89.5296 39.1328H86.1636C85.9876 38.7928 85.8736 38.4528 85.7626 38.1238L81.9026 38.8538C81.0966 38.9838 80.3486 38.6928 79.7366 38.2098C79.5576 38.0688 79.5376 37.5838 79.6176 37.3038C79.8616 36.4558 80.6326 36.0448 81.3386 35.6648C83.3446 34.5848 85.5156 33.9218 87.7456 33.4558C89.1086 33.1708 90.4756 32.8658 91.8576 32.7268C92.8536 32.6258 93.8766 32.7838 94.9126 32.9248L95.2306 34.0098C95.2096 34.0008 95.1886 33.9918 95.1166 33.9248C94.6706 33.8568 94.2036 33.7078 94.1426 34.3318C94.0836 34.3378 94.0246 34.3428 93.9126 34.2958C93.6906 34.2238 93.5186 34.1758 93.3576 34.2008C93.2876 34.29 93.2556 34.4032 93.2686 34.5158C93.4376 34.6438 93.6416 34.7278 93.8326 34.8268L93.8336 34.8258ZM128.78 34.8788C127.48 35.5938 126.017 36.0668 124.902 37.4058C127.868 36.8588 130.248 35.6378 132.281 33.7648L132.16 33.5088L128.78 34.8788ZM89.2706 34.9288C87.6796 35.4208 86.0226 35.7668 84.7146 36.8888C86.8546 36.4618 88.8806 35.7468 90.7526 34.6458C90.2916 34.7238 89.8306 34.8018 89.2696 34.9298L89.2706 34.9288ZM76.0216 8.13381C75.4876 9.51081 74.5936 10.6748 73.2246 11.3458C72.4116 11.7438 71.4726 12.0758 70.5796 12.1028L61.4186 12.1338C59.8456 12.1268 59.4966 13.6698 60.1016 14.4448C60.3826 14.8048 61.0186 15.0728 61.4986 15.0808L72.0446 15.1028C74.6686 15.0838 76.3486 16.7328 76.9766 18.8318C77.7206 21.3188 76.8006 23.3728 74.6876 24.7678C74.1346 25.1328 73.3946 25.4078 72.7376 25.4138L55.2866 25.4428L56.6026 21.8148C56.6586 21.6718 57.0286 21.5788 57.2536 21.5778L68.3926 21.5678H71.2266C72.0616 21.5678 72.6226 21.1218 72.6576 20.4338C72.6936 19.7128 72.0826 19.0448 71.3166 18.9878C71.0326 18.9668 70.7456 18.9848 70.4606 18.9848C67.0776 18.9848 63.6936 19.0028 60.3096 18.9788C57.8056 18.9608 55.1346 16.6648 55.1096 13.8978C55.0856 11.1978 56.2706 9.34581 58.8126 8.31781C58.8476 8.30381 58.8666 8.25181 58.8536 8.17581L76.0226 8.13481L76.0216 8.13381ZM18.2816 8.13381L19.7656 10.6188L24.4486 18.1778L28.5396 24.7788C28.6586 24.9708 28.7476 25.1808 28.8816 25.4418C27.0156 25.4418 25.2056 25.4478 23.3956 25.4298C23.2476 25.4288 23.0436 25.2918 22.9646 25.1608L16.6286 14.7258L15.4046 12.7628L11.9826 18.4648H18.1426C18.4936 19.6628 17.1696 21.6968 15.6386 22.0758C15.1066 22.2078 14.5536 22.3148 14.0076 22.3298C12.7136 22.3668 11.4166 22.3188 10.1226 22.3618C9.8666 22.3698 9.5306 22.5748 9.3846 22.7888L7.9276 25.1288C7.8196 25.2918 7.5306 25.4258 7.3236 25.4288L2.1906 25.4418C2.13262 25.3063 2.12482 25.1546 2.1686 25.0138L5.9506 19.0948L11.6956 9.79081C12.0196 9.26181 12.2636 8.68681 12.5436 8.13281H18.2826L18.2816 8.13381ZM127.83 8.13381C128.201 10.0238 125.985 12.1708 123.92 12.0288C122.417 11.9258 120.9 12.0088 119.341 12.0088V25.4058H114.34V12.0228H106.402C106.512 10.4518 107.2 9.30181 108.52 8.51881C108.68 8.42381 108.83 8.31481 108.947 8.17281L127.83 8.13381ZM37.3966 8.13381L37.4586 21.5458H52.0006L50.5946 25.4198H32.5806V8.19381L37.3966 8.13281V8.13381ZM102.519 8.13381L101.407 11.5388C101.29 11.9068 101.13 12.0188 100.738 12.0178C95.8636 12.0038 90.9886 12.0228 86.1146 11.9998C84.5496 11.9928 82.9426 10.6118 82.6736 8.91081C82.6386 8.68581 82.5866 8.46381 82.5426 8.18681L102.519 8.13281V8.13381ZM82.5426 22.3388V14.8838H100.926C100.513 16.7538 98.2506 18.4818 96.3146 18.4688L87.5886 18.4638V21.5608H102.588L101.206 25.4248H82.5426V22.3388Z" fill="white"/>
<path d="M109.566 35.5137L112.296 34.2257L109.617 35.6147C109.567 35.5617 109.566 35.5377 109.566 35.5137ZM95.2646 34.0197C95.1316 33.6787 95.0336 33.3498 94.9366 32.9688C95.2056 33.1147 95.4736 33.3127 95.9186 33.6427L95.2646 34.0197ZM93.8186 34.7797C93.6396 34.7207 93.4356 34.6377 93.2676 34.5087C93.2306 34.4807 93.3066 34.2017 93.3566 34.1937C93.5176 34.1687 93.6896 34.2167 93.8686 34.2807L93.8186 34.7797Z" fill="white"/>
<path d="M94.1951 34.3397C94.2051 33.7077 94.6731 33.8567 95.1281 33.8927C94.8751 34.0617 94.5601 34.2047 94.1951 34.3397ZM109.52 35.5167C109.568 35.5397 109.569 35.5637 109.571 35.6247C109.468 35.7308 109.347 35.8176 109.213 35.8807C109.272 35.7607 109.372 35.6397 109.52 35.5167ZM91.8891 36.6577C91.7991 36.7277 91.6861 36.7717 91.5731 36.8157L91.5391 36.7337L91.7811 36.6117C91.8311 36.6027 91.8481 36.6177 91.8891 36.6577ZM103.517 37.2047C103.561 37.1487 103.628 37.1177 103.695 37.0867C103.68 37.1337 103.664 37.1807 103.621 37.2507C103.575 37.2587 103.557 37.2447 103.517 37.2047Z" fill="white"/>
</svg>
