<svg width="213" height="71" viewBox="0 0 213 71" fill="none" xmlns="http://www.w3.org/2000/svg">
<g clip-path="url(#clip0_70_1637)">
<path d="M94.9921 36.4106C95.2043 38.0092 95.3986 39.383 95.5928 40.7567C95.7535 40.792 95.9142 40.8273 96.0749 40.8626C96.7067 38.077 97.3531 35.2946 97.9652 32.5046C98.3941 30.5496 98.8892 28.5993 99.1475 26.6192C99.4017 24.6702 100.248 23.8101 102.238 24.0571C103.354 24.1957 104.501 24.082 106 24.082C105.205 28.0128 104.501 31.5787 103.76 35.1364C102.178 42.73 100.545 50.3128 98.9964 57.9135C98.2753 61.4537 96.2722 62.7701 92.9165 61.5625C92.4393 61.3907 92.0171 60.4755 91.9368 59.8556C91.4003 55.7123 90.9628 51.5559 90.4951 47.4035C90.4268 46.7973 90.3691 46.1899 89.7474 45.5733C88.9401 49.3427 88.1326 53.1121 87.3255 56.8817C86.1764 62.2489 85.9809 62.376 80 61.3094C80.4198 59.1539 80.8145 56.9916 81.2644 54.841C83.2288 45.453 85.2546 36.0779 87.1475 26.6753C87.5538 24.657 88.3848 23.7574 90.4607 24.056C91.5008 24.2056 92.5793 24.082 93.9351 24.082C94.2925 28.2446 94.6333 32.2152 94.9921 36.4106Z" fill="#FAFAFA"/>
<path d="M77.7593 47.299C76.8725 51.5444 75.9426 55.5639 75.2058 59.6204C74.8912 61.3528 74.2202 62.1389 72.4485 61.9705C71.0761 61.84 69.6825 61.9444 67.8147 61.9444C68.7075 57.3877 69.5364 53.1571 70.3769 48.8672C68.8969 48.0284 68.3279 48.698 68.0468 50.1436C67.4367 53.2819 66.6588 56.3896 66.154 59.5443C65.8503 61.443 65.0259 62.1607 63.1867 61.9704C61.8936 61.8366 60.5768 61.9445 59.0496 61.9445C59.0496 61.1039 58.9266 60.3613 59.068 59.6761C61.2779 48.9626 63.5294 38.2581 65.7524 27.5474C66.2563 25.1192 67.6141 23.9421 70.0818 24.0022C73.1249 24.0762 76.1714 23.9874 79.2156 24.0303C81.66 24.0648 82.3386 24.8334 81.8533 27.3023C80.5548 33.9088 79.1543 40.4942 77.7593 47.299ZM73.2345 35.747C73.5879 33.8959 73.9413 32.0447 74.2947 30.1936C74.1173 30.0267 73.9398 29.8598 73.7624 29.6929C73.1783 30.1318 72.2028 30.4737 72.0731 31.0253C71.1795 34.8236 70.4626 38.6658 69.6889 42.4939C69.9179 42.6773 70.147 42.8608 70.376 43.0442C70.9197 42.4638 71.7319 41.9745 71.9536 41.2849C72.4871 39.6254 72.744 37.8721 73.2345 35.747Z" fill="#FAFAFA"/>
<path d="M107.524 37.7859C108.32 34.2045 109.082 30.8328 109.773 27.4469C110.254 25.0943 111.633 23.9825 114.04 24.0002C118.257 24.0312 122.476 24.0089 127 24.0089C126.687 25.8416 126.596 27.3661 126.107 28.7508C125.91 29.3082 124.861 29.8398 124.161 29.8961C122.221 30.052 120.254 30.0499 118.311 29.9213C116.774 29.8196 116.271 30.4871 115.987 31.874C114.365 39.8006 112.663 47.7111 110.965 55.7358C112.355 56.3964 113.08 56.0521 113.385 54.4888C114.064 51.015 114.919 47.5742 115.544 44.0919C115.855 42.3648 116.567 41.5694 118.4 41.7361C119.875 41.8701 121.371 41.7632 123.282 41.7632C121.917 48.0489 120.767 53.8967 119.278 59.6578C119.033 60.606 117.347 61.7292 116.251 61.8146C112.708 62.0909 109.127 62.0068 105.566 61.8922C103.315 61.8197 102.674 60.7813 103.146 58.5343C104.583 51.686 106.022 44.8379 107.524 37.7859Z" fill="#F9F9F9"/>
<path d="M58.6326 2.14179C65.8474 1.143 71.7772 5.48411 73.8042 13.1645C76.2821 13.1645 78.7978 13.1645 81.5715 13.1645C81.5715 12.1122 81.5715 11.1149 81.5715 9.8714C83.5339 11.8286 85.2415 13.5316 87 15.2854C85.3376 16.9292 83.6195 18.6281 81.6631 20.5626C81.5999 19.3432 81.5481 18.3433 81.4841 17.1092C75.1934 17.1092 68.947 17.0795 62.702 17.1621C62.1674 17.1692 61.4256 17.811 61.1472 18.3465C58.5149 23.4085 55.9623 28.5114 53.3216 33.7313C54.3611 34.3938 55.3085 34.9977 56.689 35.8776C53.9734 36.635 51.6221 37.2909 49.0797 38C48.3846 35.5432 47.7375 33.256 47 30.6494C48.108 31.0432 48.9921 31.3573 50.0153 31.7209C50.9323 29.9171 51.8492 28.1135 52.8 26.2432C47.9109 22.1796 45.7778 17.1643 47.8605 10.9839C49.5422 5.99362 53.1614 3.05027 58.6326 2.14179ZM51.4282 12.1467C50.3103 16.2272 51.218 19.6921 54.6228 22.6449C55.9169 20.0626 57.1835 17.6794 58.3099 15.2324C58.9642 13.8108 59.7766 13.1421 61.4825 13.2601C64.1673 13.4459 66.8746 13.3095 69.6151 13.3095C68.8244 9.25141 65.7923 6.39507 61.901 5.8342C57.5698 5.20993 53.8389 7.36632 51.4282 12.1467Z" fill="#F7F7F7"/>
<path d="M150.725 45.4199C146.132 45.4606 146.127 45.4594 145.163 49.6891C144.695 51.7387 144.253 53.7935 143.738 56.1223C146.403 56.1223 148.828 56.1223 151.611 56.1223C151.313 57.8612 151.171 59.3442 150.758 60.753C150.61 61.2582 149.814 61.9282 149.301 61.9384C144.681 62.0303 140.059 61.9921 135 61.9921C135.982 57.5177 136.879 53.4306 137.777 49.3439C139.426 41.8375 141.161 34.3469 142.674 26.815C143.115 24.6241 144.037 23.9059 146.326 24.0097C150.315 24.1906 154.319 24.06 159 24.06C157.732 26.2748 159.213 29.1307 156.263 29.8838C154.223 30.4048 151.924 29.9839 149.527 29.9839C148.854 33.0119 148.202 35.946 147.496 39.1233C149.338 39.2086 151.02 39.2864 153.497 39.401C152.555 41.6226 151.754 43.5102 150.725 45.4199Z" fill="#F9F9F9"/>
<path d="M129.258 36.1087C130.058 32.5237 130.71 29.1179 131.568 25.7606C131.739 25.0946 132.644 24.2142 133.309 24.1271C135.063 23.8973 136.87 24.0493 139.142 24.0493C136.277 37.0904 133.489 49.7742 130.608 62.8851C134.061 62.8851 137.405 62.8851 141 62.8851C140.574 64.7613 140.358 66.2226 139.873 67.5969C139.675 68.1591 138.905 68.9227 138.381 68.9324C133.071 69.031 127.758 68.9926 122 68.9926C124.449 57.8481 126.815 47.0764 129.258 36.1087Z" fill="#F9F9F9"/>
</g>
<defs>
<clipPath id="clip0_70_1637">
<rect width="213" height="71" fill="white"/>
</clipPath>
</defs>
</svg>
