<svg width="204" height="198" viewBox="0 0 204 198" fill="none" xmlns="http://www.w3.org/2000/svg">
<g clip-path="url(#clip0_90_51)">
<g clip-path="url(#clip1_90_51)">
<path d="M59.5731 157.116L67.6033 149.658C69.7283 147.684 71.2768 145.17 72.0834 142.384C72.89 139.599 72.9243 136.646 72.1826 133.843L69.3799 123.247L61.3502 130.706C59.2252 132.68 57.6766 135.194 56.87 137.979C56.0634 140.765 56.0292 143.717 56.7709 146.521L59.5731 157.116Z" fill="#FBB540"/>
<path d="M59.5741 157.113L51.0235 163.968C48.761 165.782 46.0479 166.947 43.1744 167.338C40.301 167.729 37.3752 167.332 34.7099 166.189L24.6373 161.871L33.188 155.015C35.4505 153.201 38.1636 152.036 41.0371 151.645C43.9106 151.253 46.8364 151.65 49.5017 152.793L59.5741 157.113Z" fill="#FBB540"/>
<path d="M36.6994 122.1L46.6758 117.56C49.3152 116.358 51.5785 114.462 53.2237 112.074C54.8689 109.686 55.8341 106.896 56.016 104.002L56.7053 93.0639L46.7302 97.603C44.0907 98.8042 41.8274 100.7 40.1822 103.088C38.537 105.477 37.5718 108.267 37.3899 111.161L36.6994 122.1Z" fill="#FBB540"/>
<path d="M36.6953 122.099L26.4172 125.901C23.6973 126.908 20.7551 127.155 17.9052 126.619C15.0553 126.082 12.4047 124.781 10.2369 122.855L2.04506 115.573L12.3232 111.771C15.0431 110.764 17.9853 110.516 20.8353 111.053C23.6852 111.59 26.3357 112.891 28.5033 114.818L36.6953 122.099Z" fill="#FBB540"/>
<path d="M32.1768 83.0415L43.0722 81.8611C45.9553 81.5489 48.6994 80.459 51.0109 78.7079C53.3225 76.9567 55.1146 74.6103 56.1957 71.9194L60.2819 61.7501L49.3866 62.9301C46.5035 63.2426 43.7596 64.3326 41.448 66.0838C39.1365 67.835 37.3443 70.1814 36.263 72.8722L32.1768 83.0415Z" fill="#FBB540"/>
<path d="M32.1789 83.0363L21.226 83.4214C18.3278 83.5235 15.4564 82.8358 12.9187 81.4321C10.3811 80.0283 8.27271 77.9613 6.81905 75.4519L1.32413 65.9713L12.2769 65.5862C15.1752 65.4841 18.0466 66.1716 20.5843 67.5753C23.1219 68.9789 25.2303 71.046 26.6841 73.5553L32.1789 83.0363Z" fill="#FBB540"/>
<path d="M50.9168 38.3554L60.9527 42.7581C63.6084 43.9234 66.5308 44.345 69.4076 43.9778C72.2844 43.6106 75.0072 42.4683 77.2849 40.6732L85.8928 33.89L75.8566 29.4867C73.201 28.3214 70.2786 27.8999 67.4019 28.2672C64.5252 28.6344 61.8025 29.7766 59.5248 31.5717L50.9168 38.3554Z" fill="#FBB540"/>
<path d="M50.9037 38.3562L41.2139 33.2351C38.6499 31.8802 36.5023 29.8538 35.0008 27.3728C33.4994 24.8917 32.7005 22.0492 32.6897 19.1492L32.6484 8.18945L42.3382 13.3105C44.9022 14.6654 47.0498 16.6918 48.5513 19.1728C50.0527 21.6539 50.8516 24.4965 50.8624 27.3965L50.9037 38.3562Z" fill="#FBB540"/>
<path d="M99.8118 168.772L97.0091 158.177C96.2674 155.374 96.3017 152.421 97.1083 149.635C97.9149 146.85 99.4635 144.336 101.588 142.362L109.619 134.904L112.421 145.499C113.163 148.302 113.128 151.255 112.322 154.041C111.515 156.826 109.967 159.34 107.842 161.314L99.8118 168.772Z" fill="#FBB540"/>
<path d="M99.8299 168.768L103.395 179.131C104.338 181.874 106.009 184.308 108.229 186.175C110.45 188.041 113.135 189.269 115.999 189.727L126.821 191.458L123.256 181.094C122.313 178.352 120.642 175.918 118.422 174.052C116.203 172.185 113.517 170.958 110.654 170.5L99.8299 168.768Z" fill="#FBB540"/>
<path d="M137.858 151.392L131.851 142.224C130.262 139.798 129.362 136.986 129.247 134.088C129.133 131.191 129.808 128.316 131.2 125.773L136.462 116.159L142.469 125.326C144.058 127.751 144.958 130.563 145.073 133.461C145.187 136.359 144.512 139.233 143.12 141.777L137.858 151.392Z" fill="#FBB540"/>
<path d="M137.861 151.392L144.517 160.098C146.279 162.401 148.633 164.183 151.329 165.252C154.025 166.321 156.96 166.638 159.822 166.168L170.637 164.39L163.981 155.684C162.22 153.38 159.865 151.598 157.169 150.529C154.473 149.46 151.538 149.144 148.676 149.614L137.861 151.392Z" fill="#FBB540"/>
<path d="M162.56 120.796L153.981 113.976C151.711 112.172 149.974 109.784 148.956 107.069C147.937 104.354 147.676 101.413 148.2 98.5605L150.18 87.7812L158.759 94.6002C161.029 96.4048 162.766 98.7923 163.784 101.508C164.802 104.223 165.064 107.164 164.54 110.016L162.56 120.796Z" fill="#FBB540"/>
<path d="M162.558 120.793L171.611 126.971C174.006 128.606 176.801 129.559 179.696 129.728C182.591 129.898 185.477 129.277 188.047 127.933L197.757 122.855L188.705 116.677C186.31 115.042 183.515 114.089 180.62 113.92C177.725 113.75 174.838 114.371 172.269 115.715L162.558 120.793Z" fill="#FBB540"/>
<path d="M170.604 73.0161L159.768 71.3754C156.901 70.9415 154.205 69.7363 151.969 67.8888C149.734 66.0413 148.043 63.621 147.077 60.8865L143.425 50.5535L154.261 52.1939C157.128 52.6278 159.824 53.833 162.059 55.6805C164.295 57.5279 165.986 59.9483 166.952 62.6826L170.604 73.0161Z" fill="#FBB540"/>
<path d="M170.595 73.0108L181.522 73.8594C184.413 74.0841 187.311 73.5187 189.906 72.2238C192.501 70.9288 194.695 68.9529 196.254 66.5073L202.144 57.2653L191.218 56.4167C188.326 56.192 185.428 56.7573 182.833 58.0523C180.239 59.3473 178.045 61.3232 176.486 63.7688L170.595 73.0108Z" fill="#FBB540"/>
<path d="M111.965 62.2604L112.424 76.4585L126.07 80.4098C126.63 80.5721 127.125 80.9076 127.483 81.3682C127.841 81.8289 128.044 82.3911 128.063 82.9742C128.082 83.5573 127.915 84.1314 127.588 84.6142C127.26 85.097 126.788 85.4637 126.24 85.6618L112.878 90.4855L113.337 104.684C113.356 105.267 113.19 105.841 112.863 106.324C112.535 106.806 112.063 107.173 111.515 107.371C110.966 107.569 110.369 107.589 109.808 107.426C109.248 107.264 108.753 106.929 108.395 106.468L99.6772 95.2509L86.3158 100.075C85.7671 100.273 85.1697 100.292 84.6094 100.13C84.049 99.9677 83.5545 99.6322 83.1965 99.1715C82.8386 98.7109 82.6356 98.1488 82.6168 97.5657C82.5979 96.9826 82.7641 96.4086 83.0916 95.9258L91.0658 84.1695L82.3491 72.9531C81.9911 72.4924 81.7881 71.9302 81.7692 71.3471C81.7504 70.764 81.9166 70.1899 82.2441 69.7071C82.5715 69.2243 83.0435 68.8575 83.5922 68.6594C84.1409 68.4613 84.7383 68.442 85.2987 68.6042L98.9435 72.5551L106.918 60.7989C107.245 60.3162 107.717 59.9495 108.266 59.7515C108.815 59.5534 109.412 59.5341 109.972 59.6963C110.533 59.8586 111.027 60.1941 111.385 60.6546C111.743 61.1152 111.946 61.6773 111.965 62.2604Z" fill="#EA9D2D"/>
<path d="M55.1989 183.4C54.4544 183.186 53.8011 182.733 53.3399 182.11C52.8788 181.488 52.6354 180.731 52.6475 179.956C52.6595 179.182 52.9264 178.433 53.4067 177.825C53.887 177.217 54.5541 176.784 55.3049 176.594L105.082 163.889C116.035 161.093 126.303 156.091 135.256 149.19C144.21 142.289 151.661 133.633 157.154 123.753C162.647 113.872 166.066 102.975 167.201 91.7274C168.337 80.48 167.166 69.1192 163.759 58.3401L155.057 30.81C154.776 29.9183 154.859 28.9511 155.291 28.1213C155.722 27.2914 156.465 26.6669 157.357 26.385C158.248 26.1031 159.216 26.187 160.045 26.6181C160.875 27.0493 161.5 27.7925 161.782 28.6842L170.484 56.2152C174.181 67.9095 175.452 80.2351 174.22 92.4377C172.988 104.64 169.279 116.463 163.32 127.183C157.361 137.902 149.276 147.293 139.562 154.78C129.848 162.267 118.708 167.693 106.824 170.725L57.0475 183.43C56.4397 183.586 55.8013 183.575 55.1989 183.4Z" fill="#EA9D2D"/>
<path d="M76.3787 178.492L71.0419 179.856L65.5705 173.967L70.9115 172.605L76.3787 178.492Z" fill="#D18D28"/>
<path d="M89.4705 193.323C88.8677 193.149 88.3224 192.817 87.8916 192.361L52.6042 155.025C44.1796 146.112 37.6625 135.573 33.4518 124.054C29.241 112.535 27.4252 100.278 28.1154 88.0329C28.8057 75.7877 31.9875 63.8122 37.4661 52.8393C42.9447 41.8665 50.6048 32.127 59.9778 24.217L82.044 5.59523C82.3979 5.2966 82.8072 5.0706 83.2484 4.93013C83.6896 4.78965 84.1542 4.73747 84.6156 4.77654C85.077 4.81562 85.5262 4.94519 85.9375 5.15786C86.3489 5.37054 86.7143 5.66214 87.0129 6.01603C87.3115 6.36993 87.5375 6.77918 87.678 7.22041C87.8185 7.66165 87.8707 8.12623 87.8316 8.58763C87.7925 9.04904 87.6629 9.49823 87.4503 9.90956C87.2376 10.3209 86.946 10.6863 86.5921 10.9849L64.5272 29.6066C55.8875 36.8977 48.8266 45.8752 43.7765 55.9896C38.7265 66.1041 35.7936 77.1427 35.1573 88.4298C34.5211 99.717 36.1949 111.015 40.0762 121.633C43.9576 132.251 49.9649 141.965 57.7305 150.181L93.0178 187.517C93.5506 188.079 93.8833 188.801 93.9646 189.572C94.0458 190.342 93.8712 191.118 93.4675 191.779C93.0638 192.44 92.4537 192.95 91.7313 193.23C91.0089 193.51 90.2145 193.544 89.4708 193.327L89.4705 193.323Z" fill="#EA9D2D"/>
</g>
</g>
<defs>
<clipPath id="clip0_90_51">
<rect width="204" height="197.333" fill="white"/>
</clipPath>
<clipPath id="clip1_90_51">
<rect width="225.663" height="225.663" fill="white" transform="translate(20.8398 -39.4551) rotate(16.1486)"/>
</clipPath>
</defs>
</svg>
