<svg width="204" height="104" viewBox="0 0 204 104" fill="none" xmlns="http://www.w3.org/2000/svg">
<mask id="mask0_70_1371" style="mask-type:luminance" maskUnits="userSpaceOnUse" x="54" y="26" width="96" height="52">
<path d="M54 26.5H150V77.5H54V26.5Z" fill="white"/>
</mask>
<g mask="url(#mask0_70_1371)">
<path d="M112.88 26.5L103.91 61.1L95.443 26.5H83.888L75.418 61.1L66.454 26.5H54L70.038 76.901H80.998L89.664 44.299L98.333 76.901H109.293L125.328 26.5H112.874H112.88ZM133.264 69.101C133.264 73.901 136.848 77.5 141.632 77.5C146.416 77.5 150 73.898 150 69.101C150 64.304 146.416 60.699 141.632 60.699C136.848 60.699 133.264 64.301 133.264 69.101Z" fill="white"/>
</g>
</svg>
