<svg width="143" height="48" viewBox="0 0 143 48" fill="none" xmlns="http://www.w3.org/2000/svg">
<path d="M16.1896 28.5366C15.4896 25.6466 13.5416 23.6096 10.2566 22.2976C9.10257 21.8136 7.97757 21.1436 6.91257 20.5026L6.24157 20.0786C5.81757 19.8366 5.60057 19.5016 5.60057 19.1366C5.60057 18.7416 5.84657 18.4066 6.27157 18.1646C7.00157 17.7356 7.88457 17.2816 8.79657 17.0996C10.7746 16.6416 12.5996 17.2526 13.8176 17.7366C14.3016 17.9486 14.7006 17.9486 14.9126 17.8006C15.2136 17.5846 15.2776 17.1296 15.2476 16.7646C15.2136 16.2466 15.0646 15.6996 14.7896 15.2746C14.1186 14.1496 13.0536 13.4156 11.6576 13.0846C8.49157 12.3546 5.60157 13.0206 3.10957 15.0626C1.83257 16.1236 1.07257 17.5246 1.00857 19.0136C0.919566 20.5036 1.52657 22.0266 2.71457 23.2116C4.41657 24.9476 6.27157 26.1016 8.40157 26.7426C9.43757 27.0436 10.4986 27.5316 11.0156 28.8096L11.1686 29.1446L10.1666 29.4206C8.94857 29.7856 7.82357 29.4796 6.72857 29.1746C6.45257 29.0856 6.18157 29.0216 5.90557 28.9626C5.59957 28.8736 5.29857 28.8396 5.02257 28.8396C3.95757 28.8396 3.07857 29.2976 2.59057 30.1166C1.98357 31.1516 2.22557 32.5226 3.19757 33.5836C4.10957 34.5896 5.59957 35.7736 7.51857 35.6846C9.64957 35.5916 11.4446 35.3196 12.9346 34.8016C15.6126 33.8886 16.8906 31.4276 16.1896 28.5376V28.5366ZM48.9176 14.1196C48.6756 12.9656 47.8526 12.1416 46.7916 12.0226C45.6326 11.8696 44.6016 12.5066 44.1726 13.5716C43.8376 14.4246 43.6256 15.3376 43.5956 16.1906L43.3536 23.2146L43.2606 26.0456L43.2306 26.7756L43.2006 27.3236L42.4116 27.6296L40.9176 25.6816L37.9676 21.8786L36.2956 19.6586L33.2826 15.7326C32.8586 15.1556 32.2806 14.6676 31.6406 14.3026C31.2166 14.0606 30.7286 13.9076 30.2736 13.9076C29.9976 13.9076 29.7266 13.9716 29.4506 14.0606C28.7206 14.3026 28.1436 14.8836 27.8076 15.6736C27.6246 16.1616 27.5066 16.6156 27.4726 17.0406C27.0486 21.9386 27.2006 27.1716 27.9606 33.4996C28.0196 33.9536 28.2026 34.4716 28.5086 34.9596C28.8436 35.5066 29.3616 35.8126 29.8456 35.7786C30.3636 35.7486 30.8216 35.3836 31.1226 34.8066C31.3386 34.3526 31.4876 33.8346 31.4876 33.4056L31.7926 25.7706L31.8516 23.7636C31.8856 23.5516 31.8516 23.3096 31.8516 23.0976V22.0906L32.3996 22.4856C32.7629 22.7738 33.0718 23.1246 33.3116 23.5216L33.4646 23.7046C33.8936 24.3116 34.3176 24.9526 34.7766 25.5596C35.8076 27.0496 36.9026 28.6026 38.0916 29.9736C39.0936 31.1576 40.6466 32.8296 42.4716 33.8656C44.2366 34.8676 45.7566 35.0836 46.8816 34.4726C48.0066 33.8356 48.6476 32.3756 48.7366 30.3046L49.0426 18.5356L49.0726 16.0406C49.1 15.3974 49.0486 14.7533 48.9196 14.1226L48.9176 14.1196ZM78.6386 14.5506C78.3036 13.7276 77.6326 13.2736 76.7496 13.2096C75.7776 13.1506 75.0476 13.5446 74.6526 14.3686C74.3176 14.9756 74.1056 15.6756 74.0116 16.4356C73.8926 17.1956 73.8286 17.9886 73.7696 18.7486L73.4976 21.4566L73.4336 21.9106L72.2156 28.0856C71.9436 29.0616 71.3966 29.6986 70.6666 29.9746C69.8776 30.2756 68.9016 30.0936 67.8996 29.4566C66.3466 28.4206 65.4636 26.9016 65.2806 24.9236L65.0686 22.2456L64.6736 18.1076C64.5806 17.0766 64.4316 16.2526 64.2156 15.5226C63.9436 14.6106 63.2436 14.0626 62.3906 14.1216C61.5376 14.1806 60.9646 14.6396 60.6886 15.5816C60.5656 15.9466 60.4766 16.2816 60.4466 16.5876L60.0516 21.0906L59.9876 22.1556H60.0806V22.4566V23.2796L60.1106 24.9516C60.2636 28.8776 61.9656 31.8566 65.1276 33.8346C67.1396 35.0486 69.3886 35.4136 71.4856 34.8066C73.5826 34.1996 75.2886 32.7096 76.3236 30.6386C76.8116 29.6366 77.2656 28.5716 77.4486 27.5356C78.0554 23.8663 78.5832 20.1845 79.0316 16.4926C79.0906 16.0086 78.9726 15.3386 78.6366 14.5486L78.6386 14.5506ZM109.727 28.5846L109.179 25.3586C109.056 24.7516 108.691 23.6266 107.66 23.3216C105.712 22.7446 103.734 22.9866 101.939 24.0516C101.544 24.2936 101.362 24.6286 101.362 25.0536C101.392 25.5416 101.727 25.9996 102.245 26.2126C102.486 26.3316 102.792 26.3656 103.093 26.4246L103.34 26.4836C103.522 26.5136 103.764 26.5136 103.976 26.5476C104.558 26.5776 105.135 26.6366 105.436 27.0016C105.742 27.4256 105.682 28.0376 105.653 28.6146C105.619 28.8266 105.619 29.0386 105.619 29.2556V29.3146C105.712 30.2866 105.071 30.5916 104.617 30.7746C102.122 31.6276 99.7186 31.3516 97.6816 29.9216C95.6106 28.4916 94.6386 26.5136 94.9106 24.2046C95.1866 21.9506 96.1926 20.1256 97.9236 18.7596C100.997 16.3236 104.129 15.7166 107.444 16.9346C107.749 17.0536 108.055 17.0536 108.267 16.9046C108.449 16.7816 108.539 16.5996 108.573 16.3236C108.602 15.8396 108.479 15.2286 108.237 14.8636C107.507 13.6496 106.26 13.1916 105.135 12.8856C102.486 12.1556 98.9886 12.8556 96.0056 14.7446C92.8136 16.7816 90.6836 19.8246 90.0466 23.3816C89.6176 25.8476 90.4706 29.0096 92.2066 31.5046C93.3016 33.0536 95.2156 35.0016 98.1996 35.4896C100.662 35.9136 102.546 35.8246 104.311 35.2136C104.524 35.1546 104.77 35.0946 105.012 35.0946C105.224 35.0946 105.406 35.1536 105.589 35.2426C106.501 35.7606 107.325 35.9136 107.961 35.6416C108.573 35.3956 109.027 34.7286 109.303 33.7526C109.515 32.9336 109.604 32.0506 109.727 31.1386L109.909 29.8616L109.727 28.5846ZM140.572 28.5846L140.024 25.3586C139.901 24.7516 139.536 23.6266 138.505 23.3216C136.557 22.7446 134.579 22.9866 132.784 24.0516C132.389 24.2936 132.207 24.6286 132.207 25.0536C132.236 25.5416 132.572 25.9996 133.089 26.2126C133.331 26.3316 133.637 26.3656 133.938 26.4246L134.184 26.4836C134.367 26.5136 134.609 26.5136 134.821 26.5476C135.402 26.5776 135.98 26.6366 136.281 27.0016C136.586 27.4256 136.527 28.0376 136.497 28.6146C136.463 28.8266 136.463 29.0386 136.463 29.2556V29.3146C136.557 30.2866 135.916 30.5916 135.462 30.7746C132.966 31.6276 130.564 31.3516 128.527 29.9216C126.456 28.4916 125.484 26.5136 125.755 24.2046C126.031 21.9506 127.037 20.1256 128.769 18.7596C131.842 16.3236 134.974 15.7166 138.288 16.9346C138.594 17.0536 138.9 17.0536 139.112 16.9046C139.294 16.7816 139.383 16.5996 139.417 16.3236C139.447 15.8396 139.324 15.2286 139.082 14.8636C138.352 13.6496 137.104 13.1916 135.98 12.8856C133.331 12.1556 129.834 12.8556 126.85 14.7446C123.659 16.7816 121.528 19.8246 120.892 23.3816C120.463 25.8476 121.316 29.0096 123.052 31.5046C124.147 33.0536 126.061 35.0016 129.045 35.4896C131.506 35.9136 133.391 35.8246 135.156 35.2136C135.368 35.1546 135.615 35.0946 135.856 35.0946C136.069 35.0946 136.251 35.1536 136.434 35.2426C137.346 35.7606 138.17 35.9136 138.806 35.6416C139.417 35.3956 139.871 34.7286 140.147 33.7526C140.359 32.9336 140.449 32.0506 140.572 31.1386L140.754 29.8616L140.572 28.5846Z" fill="white"/>
</svg>
