<svg width="144" height="48" viewBox="0 0 144 48" fill="none" xmlns="http://www.w3.org/2000/svg">
<path fill-rule="evenodd" clip-rule="evenodd" d="M6.23631 9.29688C6.94131 9.29688 7.51631 9.87188 7.51631 10.5759V20.5819C7.51631 20.5819 12.9963 17.1349 17.8473 22.1429C22.6983 27.1509 19.2683 34.4359 15.2533 35.8889C11.2273 37.3419 8.29731 36.0079 7.50531 35.2599C7.50346 35.5804 7.37448 35.8872 7.14668 36.1127C6.91888 36.3383 6.61088 36.4642 6.29031 36.4629H6.16031C5.83974 36.4642 5.53175 36.3383 5.30395 36.1127C5.07615 35.8872 4.94716 35.5804 4.94531 35.2599V10.5759C4.94531 9.87088 5.52031 9.29688 6.23631 9.29688ZM7.47331 23.6929V32.3329C7.47331 32.3329 9.88231 34.9999 13.1593 33.9809C16.1213 33.1789 18.0963 30.0239 17.3913 26.2839C16.5343 22.5119 11.1623 20.0509 7.47331 23.6929ZM31.2163 34.5929C34.8403 34.9399 36.3493 32.5659 37.0653 31.6229C37.8573 30.7559 39.6803 31.4389 39.2463 32.8369C38.8123 34.2349 35.9473 36.7719 33.2563 36.9779C27.1253 37.8239 24.3903 33.0859 23.7293 30.4849C23.0673 27.8939 23.8273 20.5769 31.6073 19.9149C36.7073 19.8609 39.1163 23.3619 40.1803 25.8229C40.6683 26.9399 39.8553 28.1749 38.6503 28.1749H26.0613C25.8443 30.6569 27.5923 34.2349 31.2163 34.5929ZM26.6913 25.6929H37.2493C37.2493 25.6929 35.6103 22.3109 31.8993 22.3649C28.1773 22.4189 26.6913 25.6929 26.6913 25.6929ZM73.5683 34.5929C77.1923 34.9399 78.7013 32.5659 79.4173 31.6229C80.1983 30.7559 82.0323 31.4389 81.5983 32.8369C81.1643 34.2349 78.2883 36.7719 75.6083 36.9779C69.4773 37.8239 66.7323 33.0859 66.0803 30.4849C65.4183 27.8939 66.1783 20.5769 73.9583 19.9149C79.0583 19.8609 81.4673 23.3619 82.5313 25.8229C83.0093 26.9399 82.2053 28.1749 81.0013 28.1749H68.4143C68.1973 30.6569 69.9443 34.2349 73.5683 34.5929ZM69.0323 25.6929H79.6013C79.6013 25.6929 77.9633 22.3109 74.2513 22.3649C70.5293 22.4189 69.0323 25.6929 69.0323 25.6929Z" fill="white"/>
<path d="M97.7541 25.2391C97.4501 24.9031 97.2221 24.5131 96.9081 24.1771C95.7141 22.8761 93.8151 22.1711 92.0681 22.6051C91.0261 22.8651 89.9411 23.4291 89.2681 24.2851C88.5411 25.2061 88.5081 26.2801 88.4981 27.4071L88.5201 30.5941L88.5311 31.3851L88.5201 32.6971V35.5261V35.8081C88.5091 36.4801 87.9991 37.0661 87.3371 37.0871C86.6211 37.1201 86.0351 36.5561 86.0351 35.8511V20.9031C86.0351 20.5706 86.1671 20.2518 86.4022 20.0167C86.6373 19.7817 86.9561 19.6496 87.2886 19.6496C87.621 19.6496 87.9398 19.7817 88.1749 20.0167C88.41 20.2518 88.5421 20.5706 88.5421 20.9031V21.7161C89.9201 20.6541 91.7971 19.9711 94.2931 20.3171C96.7341 20.5011 99.3391 22.8321 99.7291 24.1221C100.131 25.4011 98.4701 26.0301 97.7541 25.2391ZM46.2861 10.0391C46.4492 10.0395 46.6107 10.0721 46.7613 10.135C46.9118 10.1979 47.0485 10.29 47.1634 10.4058C47.2783 10.5217 47.3693 10.659 47.431 10.8101C47.4927 10.9612 47.524 11.1229 47.5231 11.2861V19.3731H50.1271C50.4517 19.3741 50.7628 19.5035 50.9925 19.733C51.2221 19.9625 51.3517 20.2734 51.3531 20.5981C51.3517 20.9227 51.2221 21.2337 50.9925 21.4632C50.7628 21.6927 50.4517 21.822 50.1271 21.8231H47.5231V35.7311C47.524 35.8952 47.4923 36.0578 47.4299 36.2096C47.3675 36.3614 47.2756 36.4993 47.1595 36.6153C47.0435 36.7313 46.9055 36.8231 46.7537 36.8853C46.6018 36.9476 46.4392 36.9792 46.2751 36.9781C45.9444 36.9776 45.6274 36.846 45.3935 36.6123C45.1596 36.3786 45.0279 36.0617 45.0271 35.7311V21.8771H42.4231C41.7291 21.8771 41.1641 21.3131 41.1641 20.6301C41.1649 20.2966 41.2978 19.977 41.5338 19.7414C41.7698 19.5058 42.0896 19.3734 42.4231 19.3731H45.0491L45.0381 11.2861C45.0271 10.5921 45.5911 10.0391 46.2861 10.0391ZM57.4421 10.0391C57.7727 10.0396 58.0897 10.1711 58.3236 10.4048C58.5575 10.6386 58.6893 10.9554 58.6901 11.2861V19.3731H61.2831C61.6077 19.3741 61.9188 19.5035 62.1485 19.733C62.3781 19.9625 62.5077 20.2734 62.5091 20.5981C62.5077 20.9227 62.3781 21.2337 62.1485 21.4632C61.9188 21.6927 61.6077 21.822 61.2831 21.8231H58.6791V35.7311C58.6791 36.0606 58.5482 36.3767 58.3151 36.6097C58.0821 36.8427 57.7661 36.9736 57.4366 36.9736C57.107 36.9736 56.791 36.8427 56.558 36.6097C56.325 36.3767 56.1941 36.0606 56.1941 35.7311V21.8771H53.5791C53.247 21.8771 52.9286 21.7452 52.6938 21.5104C52.459 21.2756 52.3271 20.9571 52.3271 20.6251C52.3271 20.293 52.459 19.9746 52.6938 19.7398C52.9286 19.505 53.247 19.3731 53.5791 19.3731H56.2051L56.1941 11.2861C56.1931 11.122 56.2248 10.9593 56.2872 10.8076C56.3496 10.6558 56.4415 10.5179 56.5576 10.4019C56.6737 10.2859 56.8116 10.1941 56.9635 10.1318C57.1153 10.0696 57.278 10.038 57.4421 10.0391ZM121.684 37.3041C117.18 37.3041 112.914 35.1531 109.677 31.2391C106.439 27.3411 104.572 22.1061 104.397 16.5001C104.382 15.8361 104.793 15.2741 105.323 15.2511C105.853 15.2281 106.305 15.7411 106.329 16.4051C106.637 26.7791 113.389 34.9001 121.684 34.9001C129.986 34.9001 136.738 26.7801 137.047 16.4131C137.07 15.7491 137.514 15.2271 138.052 15.2511C138.582 15.2831 138.994 15.8361 138.978 16.5081C138.804 22.1061 136.928 27.3411 133.699 31.2391C130.461 35.1531 126.195 37.3041 121.684 37.3041Z" fill="white"/>
</svg>
