<svg width="143" height="48" viewBox="0 0 143 48" fill="none" xmlns="http://www.w3.org/2000/svg">
<g clip-path="url(#clip0_70_1584)">
<path d="M54.185 32.583L59.686 26.647L65.186 32.583H69.143L61.664 24.471L69.143 16.398H65.186L59.686 22.373L54.185 16.398H50.267L57.707 24.471L50.267 32.583H54.185ZM19.876 20.949C19.876 18.456 17.858 16.398 15.325 16.398H1V32.543H15.325C17.818 32.543 19.876 30.525 19.876 27.992V27.517C19.882 26.3798 19.4414 25.2857 18.649 24.47C19.401 23.639 19.876 22.571 19.876 21.423V20.949ZM16.948 28.072C16.9386 28.4995 16.7646 28.9068 16.4622 29.2092C16.1598 29.5116 15.7525 29.6856 15.325 29.695H3.928V25.975H15.325C15.7525 25.9844 16.1598 26.1584 16.4622 26.4608C16.7646 26.7632 16.9386 27.1705 16.948 27.598V28.072ZM16.948 21.424C16.9383 21.8513 16.7642 22.2584 16.4619 22.5606C16.1595 22.8627 15.7523 23.0366 15.325 23.046H3.928V19.326H15.325C15.7523 19.3354 16.1595 19.5093 16.4619 19.8114C16.7642 20.1136 16.9383 20.5207 16.948 20.948V21.424ZM30.165 32.583H39.939C42.432 32.583 44.49 30.565 44.49 28.032V20.949C44.49 18.456 42.472 16.398 39.939 16.398H30.165C27.672 16.398 25.614 18.416 25.614 20.949V28.072C25.614 30.526 27.672 32.583 30.165 32.583ZM28.543 20.949C28.5527 20.5219 28.7267 20.1149 29.0288 19.8128C29.3309 19.5107 29.7379 19.3367 30.165 19.327H39.939C40.3663 19.3364 40.7735 19.5103 41.0759 19.8124C41.3782 20.1146 41.5523 20.5217 41.562 20.949V28.072C41.5526 28.4995 41.3786 28.9068 41.0762 29.2092C40.7739 29.5116 40.3665 29.6856 39.939 29.695H30.165C29.7377 29.6853 29.3306 29.5112 29.0284 29.2089C28.7263 28.9065 28.5524 28.4993 28.543 28.072V20.949ZM99.613 27.674C99.613 30.167 101.631 32.225 104.164 32.225H113.938C116.431 32.225 118.489 30.207 118.489 27.674V20.551C118.489 18.058 116.471 16 113.938 16H104.164C101.671 16 99.613 18.018 99.613 20.551V27.674ZM102.542 20.551C102.552 20.1239 102.726 19.7169 103.028 19.4148C103.33 19.1127 103.737 18.9387 104.164 18.929H113.938C114.365 18.9384 114.773 19.1123 115.075 19.4144C115.377 19.7166 115.551 20.1237 115.561 20.551V27.674C115.551 28.1013 115.377 28.5084 115.075 28.8106C114.773 29.1127 114.365 29.2866 113.938 29.296H104.164C103.737 29.2863 103.33 29.1123 103.028 28.8102C102.726 28.5081 102.552 28.1011 102.542 27.674V20.551ZM75 22.647V32.144H89.325C91.818 32.144 93.876 30.126 93.876 27.593V27.197C93.876 26.049 93.401 24.941 92.649 24.15C93.401 23.319 93.876 22.251 93.876 21.103V20.628C93.876 18.135 91.858 16.077 89.325 16.077H75V22.647ZM77.928 18.888H89.325C89.7523 18.8977 90.1594 19.0718 90.4616 19.3741C90.7637 19.6765 90.9376 20.0837 90.947 20.511V20.986C90.9376 21.4133 90.7637 21.8205 90.4616 22.1229C90.1594 22.4252 89.7523 22.5993 89.325 22.609H77.928V18.888ZM77.928 25.576H89.325C89.7521 25.5857 90.1591 25.7597 90.4612 26.0618C90.7633 26.3639 90.9373 26.7709 90.947 27.198V27.673C90.9373 28.1001 90.7633 28.5071 90.4612 28.8092C90.1591 29.1113 89.7521 29.2853 89.325 29.295H77.928V25.576ZM135.11 32.224V18.888H143.143V16.039H135.11H132.26H124.267V18.888H132.26V32.224H135.11Z" fill="white"/>
</g>
<defs>
<clipPath id="clip0_70_1584">
<rect width="143" height="48" fill="white"/>
</clipPath>
</defs>
</svg>
