<svg width="142" height="48" viewBox="0 0 142 48" fill="none" xmlns="http://www.w3.org/2000/svg">
<path d="M34.313 32.5889C31.313 32.5889 28.881 31.6249 27.021 29.6929C25.172 27.7659 24.25 25.5159 24.25 22.9439C24.25 20.0169 25.198 17.6839 27.105 15.9439C29.012 14.2039 31.318 13.3289 34.042 13.2989C36.427 13.2879 38.427 13.8199 40.042 14.9029C41.651 15.9759 42.459 17.4339 42.459 19.2779C42.4676 19.6145 42.4032 19.9491 42.2701 20.2584C42.137 20.5678 41.9384 20.8446 41.688 21.0699C41.177 21.5389 40.376 21.7579 39.292 21.7149C38.5286 21.6777 37.7947 21.4087 37.188 20.9439C36.605 20.4749 36.152 19.9389 35.833 19.3399L34.958 17.5279C34.709 16.9029 34.417 16.3919 34.083 15.9869C33.75 15.5709 33.364 15.3719 32.938 15.3829C32.339 15.4139 31.855 15.7739 31.479 16.4669C31.103 17.1599 30.916 18.0239 30.916 19.0509C30.916 21.5239 31.463 23.5039 32.561 24.9879C33.659 26.4719 35.113 27.2169 36.936 27.2169C38.504 27.2169 39.837 26.5919 40.936 25.3419C41.228 25.0249 41.551 24.9209 41.915 25.0299C42.29 25.1289 42.478 25.3989 42.478 25.8419C42.478 27.7169 41.77 29.3149 40.353 30.6339C38.946 31.9409 36.937 32.5929 34.312 32.5929L34.313 32.5889ZM59.907 25.9439C60.017 25.8029 60.171 25.7019 60.344 25.6569C60.517 25.6119 60.701 25.6249 60.866 25.6949C61.226 25.8199 61.407 26.1019 61.407 26.5279C61.407 27.8199 60.678 29.1529 59.219 30.5279C57.771 31.9029 55.896 32.5909 53.594 32.5909C50.703 32.5909 48.365 31.6899 46.573 29.8829C44.792 28.0799 43.906 25.7269 43.906 22.8199C43.906 20.0279 44.849 17.7469 46.739 15.9649C48.541 14.2208 50.9605 13.2619 53.468 13.2979C55.828 13.2979 57.656 13.8289 58.947 14.8819C60.25 15.9389 60.906 17.1269 60.906 18.4449C60.906 19.3929 60.469 20.1479 59.594 20.7159L52.615 25.2569C53.615 26.5379 54.896 27.1739 56.47 27.1739C57.939 27.1739 59.085 26.7659 59.907 25.9439ZM52.844 15.3809C52.229 15.3809 51.74 15.6929 51.365 16.3179C50.99 16.9329 50.802 17.6619 50.802 18.5059C50.802 20.2569 51.037 21.7869 51.51 23.0899L53.969 21.2779C54.636 20.7939 54.969 20.0899 54.969 19.1739C54.969 18.8409 54.938 18.4859 54.886 18.1109C54.845 17.7359 54.746 17.3349 54.594 16.9029C54.47 16.4899 54.24 16.1169 53.927 15.8199C53.7842 15.6792 53.615 15.5682 53.4291 15.4932C53.2433 15.4182 53.0444 15.3807 52.844 15.3829L52.843 15.3799L52.844 15.3809ZM76.591 13.2979C77.7 13.2979 78.58 13.6829 79.236 14.4429C79.892 15.2029 80.215 16.1829 80.215 17.3599C80.215 20.0839 79.111 21.4439 76.903 21.4439C75.996 21.4439 75.32 21.2469 74.862 20.8399C74.414 20.4389 74.159 19.9959 74.091 19.5069C74.034 19.0229 73.914 18.5859 73.736 18.1949C73.553 17.7939 73.267 17.5909 72.881 17.5909C72.266 17.5909 71.965 18.3939 71.965 19.9869V27.5709C71.9631 28.1126 72.1549 28.6372 72.506 29.0499L73.59 30.2379C73.95 30.6019 74.131 30.9349 74.131 31.2379V31.3829C74.131 31.9239 73.803 32.1949 73.152 32.1949H63.944C63.304 32.1949 62.985 31.9239 62.985 31.3829V31.2379C62.985 30.9049 63.245 30.3829 63.777 29.6749C64.309 28.9669 64.569 28.2679 64.569 27.5709V20.9859C64.569 20.4449 64.408 19.9859 64.09 19.6109C63.7846 19.2507 63.4501 18.9163 63.09 18.6109C62.757 18.3189 62.59 18.0179 62.59 17.6949V17.5499C62.59 17.0909 62.913 16.6949 63.569 16.3619L69.694 13.4659C70.235 13.2579 70.611 13.2469 70.819 13.4249C71.038 13.6079 71.152 13.9249 71.152 14.3839V17.1959C71.996 14.6029 73.808 13.2999 76.589 13.2999L76.588 13.2989L76.591 13.2979ZM96.905 25.9439C97.015 25.8029 97.169 25.7019 97.342 25.6569C97.515 25.6119 97.699 25.6249 97.864 25.6949C98.224 25.8199 98.405 26.1019 98.405 26.5279C98.405 27.8199 97.676 29.1529 96.217 30.5279C94.769 31.9029 92.894 32.5909 90.592 32.5909C87.701 32.5909 85.363 31.6899 83.571 29.8829C81.79 28.0799 80.904 25.7269 80.904 22.8199C80.904 20.0279 81.847 17.7469 83.737 15.9649C85.539 14.2208 87.9585 13.2619 90.466 13.2979C92.826 13.2979 94.654 13.8289 95.945 14.8819C97.248 15.9389 97.904 17.1269 97.904 18.4449C97.904 19.3929 97.467 20.1479 96.592 20.7159L89.613 25.2569C90.613 26.5379 91.894 27.1739 93.468 27.1739C94.937 27.1739 96.083 26.7659 96.905 25.9439ZM89.842 15.3819C89.227 15.3819 88.738 15.6939 88.363 16.3189C87.988 16.9339 87.8 17.6629 87.8 18.5069C87.8 20.2579 88.035 21.7879 88.508 23.0909L90.967 21.2789C91.634 20.7949 91.967 20.0909 91.967 19.1749C91.967 18.8419 91.936 18.4869 91.884 18.1119C91.843 17.7369 91.744 17.3359 91.592 16.9039C91.468 16.4909 91.238 16.1179 90.925 15.8209C90.7822 15.6802 90.613 15.5692 90.4271 15.4942C90.2413 15.4192 90.0424 15.3817 89.842 15.3839L89.841 15.3809L89.842 15.3819ZM108.381 32.5469C105.891 32.5469 103.829 32.1459 102.193 31.3389C100.567 30.5219 99.755 29.4019 99.755 27.9839C99.755 27.0679 100.031 26.3909 100.589 25.9429C101.157 25.4839 101.891 25.2549 102.797 25.2549C103.739 25.2549 104.505 25.5419 105.089 26.1099C105.673 26.6669 106.047 27.2869 106.214 27.9649C106.371 28.6259 106.631 29.2589 106.985 29.8399C107.329 30.4129 107.797 30.6949 108.381 30.6949C109.381 30.6949 109.881 30.1069 109.881 28.9239C109.881 28.0229 109.537 27.2929 108.859 26.7359C108.181 26.1789 107.359 25.7569 106.401 25.4649L103.546 24.4649C102.587 24.0899 101.765 23.4809 101.087 22.6319C100.409 21.7829 100.066 20.6839 100.066 19.3199C100.066 17.5439 100.837 16.1009 102.378 14.9869C103.919 13.8619 105.93 13.2989 108.419 13.2989C110.862 13.2989 112.857 13.7469 114.398 14.6319C115.939 15.5169 116.71 16.6319 116.71 17.9649C116.71 18.6889 116.423 19.3089 115.855 19.8199C115.287 20.3309 114.59 20.5909 113.773 20.5909C113.007 20.5909 112.377 20.4029 111.877 20.0279C111.387 19.6529 111.043 19.2109 110.835 18.6949L110.314 17.1539C110.158 16.6269 109.97 16.1749 109.751 15.7989C109.532 15.4229 109.221 15.2359 108.835 15.2359C108.013 15.2359 107.606 15.8719 107.606 17.1319C107.606 18.1049 107.923 18.8969 108.565 19.5069C109.215 20.1059 109.991 20.5639 110.898 20.8819L113.627 21.9029C114.545 22.2669 115.321 22.8509 115.961 23.6539C116.611 24.4609 116.939 25.4979 116.939 26.7579C116.939 28.4549 116.179 29.8419 114.669 30.9249C113.159 32.0079 111.054 32.5499 108.377 32.5499L108.381 32.5489V32.5469Z" fill="white"/>
</svg>
