<svg width="144" height="48" viewBox="0 0 144 48" fill="none" xmlns="http://www.w3.org/2000/svg">
<path d="M1.46875 21.7792C1.46875 20.4592 1.70775 19.2382 2.18675 18.1172C2.66575 16.9962 3.33375 16.0222 4.19075 15.1972C5.04775 14.3722 6.05475 13.7292 7.20975 13.2672C8.38075 12.7892 9.65975 12.5492 11.0457 12.5492C12.6627 12.5492 14.1227 12.8622 15.4257 13.4892C16.7479 14.1181 17.8825 15.082 18.7167 16.2852L17.3067 17.3492C16.5317 16.3102 15.6077 15.5432 14.5347 15.0482C13.4787 14.5372 12.3248 14.2812 11.0708 14.2812C10.0148 14.2812 9.01675 14.4712 8.07675 14.8502C7.15275 15.2132 6.33675 15.7332 5.62675 16.4092C4.91675 17.0852 4.35675 17.8942 3.94375 18.8342C3.53175 19.7582 3.32475 20.7892 3.32475 21.9272C3.32475 23.0322 3.52275 24.0552 3.91875 24.9952C4.31475 25.9192 4.85875 26.7192 5.55175 27.3952C6.26075 28.0712 7.09375 28.5992 8.05075 28.9792C9.00775 29.3592 10.0467 29.5482 11.1687 29.5482C13.6427 29.5482 15.7218 28.5662 17.4048 26.6032L18.8148 27.6672C17.8908 28.8222 16.7687 29.6962 15.4497 30.2902C14.1467 30.8842 12.6788 31.1812 11.0448 31.1812C9.55975 31.1812 8.22375 30.9422 7.03575 30.4632C5.86475 29.9682 4.85775 29.3002 4.01675 28.4592C3.19175 27.6012 2.55675 26.6032 2.11175 25.4652C1.68275 24.3102 1.46875 23.0812 1.46875 21.7782V21.7792ZM21.0157 24.2292C21.0157 23.2892 21.1887 22.3982 21.5357 21.5572C21.8827 20.7162 22.3608 19.9812 22.9708 19.3552C23.58 18.7129 24.3121 18.1997 25.1238 17.8462C25.9648 17.4672 26.8808 17.2772 27.8708 17.2772C28.8608 17.2772 29.7678 17.4672 30.5928 17.8462C31.4139 18.1952 32.1548 18.7088 32.7697 19.3552C33.3797 19.9822 33.8588 20.7162 34.2048 21.5572C34.5508 22.3982 34.7248 23.2892 34.7248 24.2292C34.7292 25.1454 34.5525 26.0535 34.2048 26.9012C33.8588 27.7262 33.3797 28.4522 32.7697 29.0792C32.1612 29.7163 31.4284 30.2217 30.6168 30.5642C29.7758 30.9272 28.8597 31.1082 27.8697 31.1082C26.8797 31.1082 25.9647 30.9262 25.1227 30.5642C24.2807 30.2022 23.5557 29.7062 22.9447 29.0792C22.3507 28.4522 21.8807 27.7262 21.5347 26.9012C21.187 26.0535 21.0113 25.1454 21.0157 24.2292ZM22.7477 24.2542C22.7477 24.9632 22.8717 25.6402 23.1187 26.2832C23.3727 26.8944 23.7329 27.4557 24.1828 27.9412C24.6448 28.4192 25.1888 28.7992 25.8158 29.0792C26.4428 29.3432 27.1267 29.4752 27.8697 29.4752C28.6127 29.4752 29.2888 29.3432 29.8988 29.0792C30.5258 28.7992 31.0697 28.4192 31.5317 27.9412C31.9927 27.4644 32.3543 26.9008 32.5957 26.2832C32.8597 25.6402 32.9917 24.9632 32.9917 24.2542C32.9917 23.5282 32.8518 22.8442 32.5708 22.2002C32.3068 21.5402 31.9438 20.9712 31.4818 20.4932C31.0198 19.9982 30.4757 19.6102 29.8487 19.3302C29.2217 19.0502 28.5617 18.9092 27.8687 18.9092C27.1597 18.9092 26.4907 19.0492 25.8647 19.3302C25.2547 19.6102 24.7188 19.9982 24.2568 20.4932C23.7834 20.9887 23.4057 21.5674 23.1427 22.2002C22.8787 22.8432 22.7477 23.5282 22.7477 24.2542ZM37.6258 17.6222H39.4077V25.1202C39.4077 26.5882 39.7627 27.6772 40.4717 28.3862C41.1977 29.0952 42.1787 29.4502 43.4167 29.4502C44.0927 29.4502 44.6787 29.3512 45.1737 29.1532C45.6687 28.9382 46.0808 28.6502 46.4108 28.2872C46.7408 27.9082 46.9877 27.4622 47.1527 26.9512C47.3177 26.4232 47.3997 25.8542 47.3997 25.2442V17.6232H49.1818V24.4282C49.1818 26.6552 48.6947 28.3212 47.7217 29.4272C46.7487 30.5332 45.3127 31.0852 43.4157 31.0852C41.5187 31.0852 40.0748 30.5322 39.0858 29.4272C38.1128 28.3222 37.6258 26.6562 37.6258 24.4292V17.6242V17.6222ZM53.0028 35.5622V17.6222H54.6857V20.0222C55.3457 19.0982 56.1128 18.4142 56.9868 17.9682C57.8778 17.5062 58.8507 17.2752 59.9067 17.2752C60.8637 17.2752 61.7548 17.4562 62.5788 17.8192C63.4198 18.1822 64.1458 18.6772 64.7568 19.3042C65.3723 19.939 65.8596 20.6867 66.1917 21.5062C66.5377 22.3312 66.7117 23.2132 66.7117 24.1542C66.7162 25.0704 66.5395 25.9785 66.1917 26.8262C65.8666 27.6435 65.388 28.3909 64.7818 29.0282C64.1718 29.6552 63.4537 30.1582 62.6287 30.5372C61.8207 30.9002 60.9297 31.0812 59.9567 31.0812C57.8617 31.0812 56.1047 30.2232 54.6857 28.5082V35.5602H53.0028V35.5622ZM59.7827 29.5492C60.4813 29.5548 61.1731 29.4113 61.8117 29.1282C62.4547 28.8312 63.0077 28.4432 63.4697 27.9652C63.9465 27.4726 64.3243 26.8931 64.5827 26.2582C64.8454 25.6053 64.9799 24.9079 64.9788 24.2042C64.9788 23.4952 64.8467 22.8262 64.5827 22.2002C64.3357 21.5572 63.9807 20.9962 63.5187 20.5172C63.0523 20.0192 62.4878 19.6232 61.8607 19.3542C61.2337 19.0572 60.5407 18.9092 59.7817 18.9092C59.0397 18.9092 58.3468 19.0492 57.7038 19.3302C57.0768 19.5942 56.5237 19.9652 56.0457 20.4432C55.5837 20.9212 55.2207 21.4912 54.9567 22.1502C54.6881 22.8184 54.5535 23.533 54.5607 24.2532C54.5607 25.0612 54.7008 25.7952 54.9818 26.4552C55.2788 27.1152 55.6667 27.6762 56.1447 28.1382C56.6397 28.5832 57.2008 28.9302 57.8278 29.1772C58.4548 29.4242 59.1067 29.5492 59.7827 29.5492ZM71.2548 12.5492V30.7612H69.5717V12.5492H71.2548ZM74.1547 24.2292C74.1547 23.3382 74.3117 22.4722 74.6247 21.6312C74.9547 20.7902 75.4087 20.0472 75.9857 19.4042C76.5797 18.7612 77.2887 18.2492 78.1137 17.8702C78.9547 17.4742 79.8868 17.2762 80.9098 17.2762C81.8828 17.2762 82.7818 17.4492 83.6068 17.7962C84.4318 18.1432 85.1498 18.6212 85.7598 19.2312C86.3698 19.8412 86.8487 20.5762 87.1947 21.4332C87.5407 22.2742 87.7148 23.1982 87.7148 24.2052V24.3292H75.8867C75.9197 25.0882 76.0597 25.7812 76.3077 26.4082C76.5717 27.0352 76.9267 27.5792 77.3717 28.0412C77.8241 28.491 78.363 28.8445 78.9557 29.0802C79.5827 29.3272 80.2668 29.4512 81.0098 29.4512C81.6528 29.4512 82.2218 29.3692 82.7168 29.2042C83.2118 29.0392 83.6487 28.8162 84.0277 28.5362C84.4237 28.2392 84.7617 27.9092 85.0427 27.5462C85.3397 27.1832 85.6117 26.8042 85.8597 26.4082L87.2698 27.1502C86.6428 28.3712 85.8018 29.3362 84.7458 30.0452C83.7068 30.7382 82.4608 31.0842 81.0098 31.0842C79.9208 31.0842 78.9478 30.9032 78.0898 30.5402C77.2318 30.1612 76.5148 29.6572 75.9368 29.0312C75.3588 28.4052 74.9137 27.6782 74.6007 26.8532C74.3037 26.0122 74.1557 25.1372 74.1557 24.2302L74.1547 24.2292ZM76.0598 22.8432H85.8587C85.5127 21.4742 84.8858 20.4762 83.9778 19.8492C83.0868 19.2222 82.0727 18.9092 80.9337 18.9092C79.7457 18.9092 78.7317 19.2312 77.8897 19.8742C77.0477 20.5172 76.4377 21.5072 76.0587 22.8432H76.0598ZM95.4197 21.0372C94.6777 20.2122 94.1167 19.4782 93.7367 18.8352C93.3567 18.1922 93.1677 17.5322 93.1677 16.8552C93.1677 16.3772 93.2668 15.9482 93.4648 15.5682C93.6798 15.1722 93.9597 14.8342 94.3057 14.5542C94.6687 14.2742 95.0897 14.0592 95.5677 13.9112C96.0457 13.7462 96.5578 13.6642 97.1018 13.6642C97.6788 13.6642 98.2068 13.7462 98.6858 13.9112C99.1648 14.0762 99.5688 14.3072 99.8988 14.6042C100.246 14.8842 100.51 15.2232 100.691 15.6192C100.889 15.9992 100.988 16.4192 100.988 16.8812C100.988 17.2272 100.93 17.5742 100.815 17.9202C100.699 18.2502 100.518 18.5882 100.271 18.9352C100.04 19.2812 99.7258 19.6532 99.3298 20.0482L97.9437 21.3102L99.1318 22.5722L100.172 23.6612L101.236 24.7502L102.522 26.0612L103.784 24.9472L104.626 24.1802L105.813 25.4672L105.071 26.1352L103.735 27.2982L107.1 30.7622H104.626L102.324 28.3872L100.79 29.5002C100.295 29.8302 99.7838 30.1192 99.2558 30.3662C98.7325 30.618 98.1855 30.817 97.6227 30.9602C97.0457 31.1092 96.4108 31.1832 95.7178 31.1832C94.9758 31.1832 94.3237 31.0672 93.7627 30.8372C93.2017 30.6222 92.7318 30.3342 92.3518 29.9712C91.9764 29.5977 91.6816 29.1512 91.4857 28.6592C91.289 28.1543 91.1882 27.6171 91.1888 27.0752C91.1888 26.4812 91.2877 25.9282 91.4857 25.4172C91.7007 24.9062 91.9888 24.4112 92.3518 23.9322C92.7574 23.4261 93.2043 22.9545 93.6878 22.5222L95.4197 21.0372ZM92.9208 26.9762C92.9208 27.2892 92.9868 27.6032 93.1188 27.9162C93.2748 28.2232 93.4844 28.4999 93.7377 28.7332C94.0017 28.9812 94.3147 29.1782 94.6777 29.3272C95.0407 29.4762 95.4447 29.5502 95.8897 29.5502C96.7147 29.5502 97.5477 29.3362 98.3887 28.9072C99.2467 28.4782 100.162 27.8922 101.136 27.1502L100.072 26.0612L99.0078 24.9472L97.8698 23.7592L96.6328 22.3732C95.4948 23.2312 94.5868 24.0232 93.9108 24.7492C93.2508 25.4582 92.9208 26.2012 92.9208 26.9762ZM96.7807 20.0232C97.6217 19.3802 98.2407 18.7942 98.6367 18.2662C99.0487 17.7382 99.2558 17.2682 99.2558 16.8552C99.2558 16.4262 99.0407 16.0632 98.6127 15.7662C98.2007 15.4532 97.6807 15.2962 97.0537 15.2962C96.785 15.297 96.5179 15.3388 96.2617 15.4202C96.0147 15.4862 95.7837 15.5852 95.5687 15.7172C95.3707 15.8492 95.2058 16.0142 95.0738 16.2122C94.957 16.4152 94.8972 16.646 94.9007 16.8802C94.9007 17.5402 95.5278 18.5872 96.7818 20.0232H96.7807ZM109.505 12.9952H114.306C115.18 12.9952 115.997 13.0692 116.755 13.2182C117.531 13.3502 118.207 13.5972 118.785 13.9602C119.361 14.3051 119.831 14.8015 120.145 15.3952C120.475 16.0052 120.64 16.7812 120.64 17.7212C120.64 18.6942 120.459 19.4942 120.096 20.1212C119.755 20.7261 119.26 21.2298 118.661 21.5812C118.067 21.9272 117.374 22.1672 116.582 22.2992C115.807 22.4312 114.999 22.4972 114.157 22.4972H111.287V30.7622H109.505V12.9952ZM111.287 14.7272V20.7652H114.231C114.891 20.7652 115.502 20.7242 116.063 20.6412C116.624 20.5582 117.102 20.4022 117.498 20.1712C117.91 19.9402 118.224 19.6272 118.438 19.2312C118.669 18.8352 118.785 18.3322 118.785 17.7222C118.785 17.1122 118.669 16.6172 118.438 16.2372C118.224 15.8412 117.918 15.5362 117.523 15.3212C117.127 15.0902 116.665 14.9332 116.137 14.8512C115.571 14.7659 115 14.7244 114.429 14.7272H111.287ZM123.298 30.7622V17.6222H124.98V30.7622H123.298ZM122.728 13.5892C122.728 13.1932 122.86 12.8632 123.124 12.5992C123.389 12.3418 123.744 12.1994 124.114 12.2032C124.494 12.2032 124.824 12.3432 125.104 12.6242C125.384 12.8882 125.525 13.2102 125.525 13.5892C125.525 13.9682 125.384 14.2982 125.104 14.5792C124.824 14.8602 124.494 15.0002 124.114 15.0002C123.734 15.0002 123.405 14.8602 123.124 14.5792C122.86 14.2992 122.728 13.9692 122.728 13.5892ZM128.116 24.2292C128.115 23.342 128.274 22.4618 128.586 21.6312C128.901 20.8128 129.362 20.0584 129.947 19.4042C130.541 18.7612 131.25 18.2492 132.075 17.8702C132.916 17.4742 133.848 17.2762 134.871 17.2762C135.844 17.2762 136.743 17.4492 137.568 17.7962C138.393 18.1432 139.111 18.6212 139.721 19.2312C140.343 19.8604 140.832 20.6095 141.156 21.4332C141.503 22.2742 141.676 23.1982 141.676 24.2052V24.3292H129.848C129.881 25.0882 130.021 25.7812 130.268 26.4082C130.532 27.0352 130.887 27.5792 131.332 28.0412C131.784 28.4908 132.323 28.8442 132.916 29.0802C133.543 29.3272 134.228 29.4512 134.97 29.4512C135.613 29.4512 136.182 29.3692 136.677 29.2042C137.172 29.0392 137.609 28.8162 137.989 28.5362C138.385 28.2392 138.723 27.9092 139.003 27.5462C139.3 27.1832 139.573 26.8042 139.82 26.4082L141.23 27.1502C140.604 28.3712 139.762 29.3362 138.706 30.0452C137.667 30.7382 136.422 31.0842 134.97 31.0842C133.881 31.0842 132.908 30.9032 132.05 30.5402C131.192 30.1612 130.475 29.6572 129.897 29.0312C129.319 28.4052 128.874 27.6782 128.561 26.8532C128.264 26.0107 128.113 25.1225 128.116 24.2292ZM130.021 22.8432H139.82C139.474 21.4742 138.847 20.4762 137.939 19.8492C137.049 19.2222 136.034 18.9092 134.896 18.9092C133.708 18.9092 132.693 19.2312 131.852 19.8742C131.011 20.5172 130.4 21.5072 130.021 22.8432Z" fill="white"/>
</svg>
