<svg width="204" height="104" viewBox="0 0 204 104" fill="none" xmlns="http://www.w3.org/2000/svg">
<path d="M15.85 39.5C14.044 39.5 12.391 39.835 10.937 40.493C9.483 41.151 8.225 42.069 7.199 43.224C6.173 44.379 5.377 45.757 4.829 47.322C4.281 48.887 4 50.59 4 52.4C4 54.121 4.263 55.734 4.779 57.191C5.295 58.648 6.042 59.931 6.999 60.992C7.96901 62.063 9.1551 62.9161 10.479 63.495C11.833 64.095 13.355 64.394 15.01 64.394C17.319 64.394 19.404 63.954 21.21 63.087L21.328 63.029V60.392L21.022 60.566C19.372 61.501 17.432 61.974 15.252 61.974C13.839 61.974 12.581 61.716 11.519 61.204C10.4826 60.7134 9.56739 59.9997 8.839 59.114C8.126 58.239 7.573 57.197 7.208 56.026C6.84 54.846 6.655 53.573 6.655 52.239C6.655 50.751 6.862 49.36 7.273 48.106C7.682 46.857 8.281 45.76 9.055 44.845C9.829 43.93 10.791 43.212 11.917 42.697C13.043 42.182 14.357 41.924 15.816 41.924C17.6287 41.918 19.4165 42.346 21.03 43.172L21.328 43.323V40.492L21.197 40.439C19.634 39.816 17.833 39.5 15.85 39.5ZM37.625 54.001C37.138 53.445 36.521 52.906 35.79 52.397C34.967 51.8357 34.1156 51.3173 33.239 50.844L30.9 49.505C30.279 49.126 29.771 48.738 29.392 48.356C29.021 47.982 28.75 47.583 28.583 47.165C28.416 46.747 28.333 46.238 28.333 45.653C28.333 45.042 28.457 44.503 28.701 44.047C28.945 43.591 29.292 43.197 29.72 42.889C30.1837 42.5594 30.7025 42.3153 31.252 42.168C31.84 42.003 32.475 41.921 33.141 41.921C34.934 41.921 36.517 42.317 37.844 43.098L38.153 43.279V40.347L38.024 40.292C36.78 39.767 35.218 39.5 33.383 39.5C32.335 39.5 31.335 39.648 30.411 39.94C29.487 40.232 28.661 40.655 27.968 41.202C27.2762 41.7456 26.7074 42.4296 26.299 43.209C25.888 43.995 25.678 44.895 25.678 45.882C25.678 46.663 25.788 47.37 26.006 47.983C26.224 48.596 26.567 49.182 27.03 49.71C27.484 50.233 28.078 50.749 28.793 51.247C29.6197 51.8099 30.4726 52.3331 31.349 52.815L33.666 54.173C34.305 54.567 34.84 54.965 35.259 55.358C35.665 55.746 35.969 56.164 36.162 56.601C36.355 57.038 36.45 57.564 36.45 58.158C36.45 59.397 36.049 60.322 35.224 60.976C34.393 61.636 33.112 61.971 31.416 61.971C30.978 61.971 30.51 61.93 30.029 61.85C29.539 61.7669 29.0557 61.6483 28.583 61.495C28.1005 61.3363 27.6305 61.1417 27.177 60.913C26.7376 60.6917 26.3192 60.431 25.927 60.134L25.596 59.878V62.992L25.693 63.057C25.997 63.251 26.394 63.434 26.875 63.598C27.345 63.759 27.851 63.902 28.372 64.017L29.922 64.282C30.433 64.347 30.881 64.375 31.252 64.375C32.383 64.375 33.437 64.239 34.385 63.97C35.342 63.701 36.178 63.293 36.874 62.765C37.5755 62.2283 38.1385 61.5315 38.516 60.733C38.905 59.923 39.102 58.97 39.102 57.909C39.102 57.139 38.978 56.427 38.731 55.794C38.484 55.161 38.113 54.561 37.621 54L37.625 54.001ZM56.362 55.796C56.118 55.163 55.744 54.561 55.252 54C54.765 53.444 54.148 52.904 53.416 52.396C52.693 51.896 51.836 51.373 50.866 50.843L48.528 49.504C47.907 49.125 47.399 48.737 47.02 48.355C46.649 47.981 46.378 47.582 46.211 47.164C46.044 46.746 45.961 46.237 45.961 45.652C45.961 45.041 46.084 44.503 46.329 44.046C46.5755 43.5873 46.9237 43.1912 47.347 42.888C47.782 42.572 48.298 42.33 48.879 42.167C49.467 42.002 50.102 41.92 50.768 41.92C52.56 41.92 54.143 42.316 55.471 43.097L55.78 43.278V40.347L55.651 40.292C54.407 39.767 52.845 39.5 51.01 39.5C49.962 39.5 48.962 39.648 48.038 39.94C47.114 40.232 46.288 40.655 45.595 41.202C44.9032 41.7456 44.3344 42.4296 43.926 43.209C43.515 43.995 43.305 44.895 43.305 45.882C43.305 46.663 43.415 47.37 43.633 47.983C43.851 48.596 44.194 49.182 44.657 49.71C45.111 50.233 45.705 50.749 46.42 51.247C47.127 51.737 47.987 52.264 48.976 52.815L51.292 54.173C51.932 54.567 52.467 54.965 52.886 55.359C53.292 55.746 53.596 56.164 53.789 56.601C53.982 57.038 54.077 57.564 54.077 58.158C54.077 59.397 53.677 60.322 52.852 60.976C52.021 61.636 50.74 61.971 49.044 61.971C48.606 61.971 48.138 61.93 47.657 61.85C47.176 61.77 46.689 61.649 46.211 61.495C45.733 61.341 45.262 61.144 44.805 60.913C44.3656 60.6916 43.9473 60.4309 43.555 60.134L43.224 59.879V62.992L43.321 63.057C43.625 63.251 44.023 63.434 44.504 63.598C44.9949 63.7652 45.4946 63.9051 46.001 64.017L47.552 64.282C47.9933 64.3405 48.4378 64.3715 48.883 64.375C50.014 64.375 51.068 64.239 52.016 63.97C52.973 63.701 53.809 63.293 54.505 62.765C55.2065 62.2283 55.7695 61.5315 56.147 60.733C56.537 59.923 56.733 58.971 56.733 57.909C56.733 57.141 56.609 56.429 56.362 55.796ZM104.87 39.906H102.312V63.99H104.87V39.906ZM155.097 59.614C155.076 59.584 140.19 39.907 140.19 39.907H137.506V63.991H140.064L140.042 44.123C140.049 44.134 155.119 63.991 155.119 63.991H157.659V39.906H155.084C155.086 39.906 155.087 59.46 155.097 59.614ZM128.712 59.614C128.692 59.584 113.806 39.907 113.806 39.907H111.122V63.991H113.68L113.656 44.123C113.664 44.134 128.735 63.991 128.735 63.991H131.275V39.906H128.7L128.712 59.614ZM166.454 53.002H176.299V50.598H166.454V42.343H178.32V39.907H163.896V63.99H178.835V61.57H166.454V53.002ZM196.807 56.349L196.059 55.018C195.838 54.6538 195.593 54.3047 195.325 53.973C195.093 53.6843 194.832 53.42 194.546 53.184C194.397 53.0632 194.239 52.9549 194.073 52.86C194.699 52.6842 195.301 52.4316 195.865 52.108C196.515 51.7331 197.095 51.2482 197.58 50.675C198.06 50.1011 198.431 49.4439 198.674 48.736C198.935 47.9692 199.065 47.164 199.059 46.354C199.059 45.293 198.857 44.344 198.464 43.538C198.071 42.732 197.54 42.053 196.884 41.52C196.22 40.9819 195.462 40.5726 194.648 40.313C193.82 40.043 192.949 39.906 192.065 39.906H183.89V63.99H186.448V53.692H190.095C190.52 53.6867 190.943 53.7423 191.352 53.857C191.728 53.9695 192.079 54.1524 192.387 54.396C192.716 54.652 193.038 55.004 193.346 55.434C193.661 55.877 193.991 56.433 194.332 57.092L197.814 63.872L197.874 63.984H200.86L196.807 56.349ZM186.45 42.341H191.564C193.138 42.341 194.354 42.72 195.176 43.466C195.991 44.208 196.404 45.245 196.404 46.552C196.404 47.278 196.283 47.938 196.041 48.515C195.813 49.0742 195.467 49.5779 195.027 49.992C194.594 50.402 194.062 50.718 193.446 50.941C192.83 51.164 192.132 51.274 191.385 51.274H186.448L186.45 42.341ZM60.438 39.906L76.253 63.986L77.626 61.924L63.182 39.906H60.438ZM95.404 39.906L82.347 59.847L72.906 45.305H70.128L82.378 63.988L98.154 39.906H95.404ZM92.007 39.906H89.262L80.974 52.598L82.336 54.679L92.007 39.906Z" fill="white"/>
</svg>
