<svg width="204" height="104" viewBox="0 0 204 104" fill="none" xmlns="http://www.w3.org/2000/svg">
<g clip-path="url(#clip0_70_1427)">
<mask id="mask0_70_1427" style="mask-type:luminance" maskUnits="userSpaceOnUse" x="-4" y="14" width="217" height="76">
<path d="M-4 14.5H213V89.5H-4V14.5Z" fill="white"/>
</mask>
<g mask="url(#mask0_70_1427)">
<path d="M20.9735 49.5778C17.2725 48.9578 13.9135 47.6058 10.6855 45.9008C7.0235 43.9658 3.6395 41.6298 0.4805 38.9678C0.2175 38.7458 -0.0285 38.5038 -0.2745 38.2638C-0.3045 38.2348 -0.2895 38.1588 -0.3125 37.9358C1.5305 37.5768 3.3765 37.1288 5.2485 36.8678C12.4615 35.8628 19.6165 36.3528 26.7015 37.9138C28.5775 38.3268 31.7105 36.9428 32.6495 34.4418C33.0475 33.3818 33.5865 32.3348 34.2535 31.4198C36.1235 28.8548 39.2775 28.1058 42.1165 29.5688C43.9115 30.4938 45.7565 30.8298 47.7705 30.9008C51.4905 31.0318 55.2015 31.4068 58.9155 31.6878C59.0935 31.7018 59.2665 31.7928 59.4415 31.8478L59.4205 32.1148C56.9515 32.1148 54.4805 32.0768 52.0125 32.1318C50.8635 32.1568 49.6875 32.2368 48.5775 32.5058C45.6875 33.2058 43.7465 35.0318 42.8505 37.8348C41.6425 41.6138 40.2095 45.2788 38.0055 48.6178C34.4565 53.9948 29.8865 58.3608 24.5975 62.0228C23.7685 62.5968 22.9205 63.1428 22.0795 63.6978C22.0345 63.7278 21.9695 63.7268 21.7685 63.7738C21.3455 59.1018 21.5125 54.4668 21.9955 49.7918L20.9745 49.5788L20.9735 49.5778ZM38.3075 31.1948C37.7235 31.5698 37.4805 32.0828 37.7835 32.7298C38.0825 33.3658 38.6435 33.5908 39.2955 33.3498C39.9045 33.1248 40.1735 32.6208 40.0415 31.9718C39.9045 31.2958 39.3085 30.9988 38.3075 31.1948ZM71.2955 56.8828L67.8615 55.3448C66.6325 54.7858 65.3415 54.3208 64.2065 53.6108C62.1575 52.3278 61.5115 50.3228 61.7865 48.0198C62.0445 45.8628 63.3915 44.4778 65.3555 43.7548C69.0525 42.3938 72.6335 42.9478 76.0765 44.6828C76.8165 45.0558 77.5045 45.5298 78.3065 46.0118L75.9255 50.3058C74.9135 49.6778 74.0225 48.9658 73.0095 48.5408C71.9675 48.1038 70.8195 47.8568 69.6935 47.6988C69.0225 47.6038 68.2625 47.8098 68.0485 48.6468C67.8315 49.4968 68.3275 50.0398 69.0305 50.3528C70.1335 50.8438 71.2815 51.2368 72.3975 51.7008C73.4615 52.1428 74.5395 52.5648 75.5565 53.0988C78.1245 54.4478 79.0215 56.3308 78.6495 59.3938C78.3485 61.8688 76.7795 63.7158 74.2445 64.3448C70.0055 65.3978 66.0555 64.5458 62.3585 62.3488C61.6725 61.9408 61.0245 61.4688 60.2835 60.9758L63.1035 56.5258C63.8525 57.0608 64.4805 57.6298 65.2105 58.0038C66.4565 58.6418 67.7585 59.1768 69.0545 59.7118C69.3595 59.8378 69.7395 59.8338 70.0805 59.8168C70.7945 59.7818 71.4775 59.6318 71.7945 58.8798C72.1115 58.1278 71.9195 57.4808 71.2955 56.8828ZM84.1635 54.5968L83.1825 54.0938C80.7615 52.8208 79.7215 50.8018 80.0045 48.1338C80.2625 45.6988 81.8235 44.2578 84.0445 43.5888C88.5925 42.2198 92.6835 43.3668 96.5185 46.0458L94.1515 50.3088C93.1575 49.6908 92.2715 48.9738 91.2605 48.5558C90.1915 48.1128 89.0145 47.8698 87.8605 47.7028C87.2195 47.6098 86.4925 47.8348 86.2805 48.6218C86.0525 49.4658 86.5265 50.0238 87.2345 50.3398C88.3365 50.8328 89.4835 51.2288 90.5995 51.6938C91.6635 52.1358 92.7445 52.5528 93.7615 53.0858C96.3425 54.4388 97.2355 56.2938 96.8795 59.3688C96.5895 61.8748 95.0025 63.7248 92.4125 64.3588C88.2015 65.3898 84.2795 64.5378 80.6075 62.3638C79.9185 61.9558 79.2675 61.4818 78.5095 60.9788L81.3275 56.5268C82.0595 57.0498 82.6865 57.6158 83.4145 57.9898C84.6595 58.6298 85.9615 59.1658 87.2545 59.7088C87.5345 59.8268 87.8795 59.8248 88.1945 59.8248C89.2445 59.8248 89.8955 59.4198 90.1105 58.6688C90.3355 57.8818 90.0085 57.0768 89.0995 56.6018C88.2115 56.1378 87.2525 55.8058 86.3185 55.4308L84.1635 54.5968ZM54.0295 58.9798C56.1425 58.6748 57.8775 57.8128 59.3305 55.9858L59.3005 62.1378C59.2925 62.4128 58.9335 62.7578 58.6515 62.9338C56.4405 64.3058 53.9705 64.5148 51.4615 64.3248C47.9435 64.0578 44.8765 62.7848 42.7145 59.9028C38.2385 53.9348 41.3105 45.5018 48.6915 43.5518C52.0135 42.6738 55.3205 42.7118 58.4875 44.2978C59.0915 44.6008 59.3795 44.9518 59.3535 45.6778C59.2895 47.4778 59.3325 49.2818 59.3325 51.0838L59.0445 51.3468C58.9185 51.0988 58.8485 50.7908 58.6565 50.6118C56.6745 48.7628 54.3385 47.9168 51.6635 48.6138C48.8325 49.3518 47.4085 51.7828 47.8535 54.7788C48.2195 57.2398 50.4345 59.0028 53.1755 59.0108C53.4355 59.0118 53.6945 58.9948 54.0295 58.9798ZM105.625 49.9548C105.606 50.0258 105.588 50.0978 105.525 50.2718L104.81 52.6068L105.101 52.7128L105.948 50.8358L109.053 45.9968C110.666 43.9258 112.896 43.1338 115.523 43.6828C116.745 43.9388 117.551 44.8118 117.506 46.0448C117.462 47.2298 117.306 48.4488 116.951 49.5768C115.803 53.2348 114.537 56.8568 113.326 60.4958C113.182 60.9278 113.017 61.3758 113.004 61.8198C112.995 62.1478 113.129 62.6328 113.364 62.7718C113.615 62.9198 114.17 62.8728 114.4 62.6828C114.895 62.2728 115.374 61.7718 115.665 61.2088C116.137 60.2978 116.429 59.2968 116.852 58.3588C116.964 58.1088 117.276 57.9478 117.496 57.7458L117.854 57.9988C117.179 59.5548 116.654 61.1988 115.792 62.6458C114.751 64.3938 112.296 65.1078 110.348 64.5158C109.145 64.1498 108.356 63.2288 108.422 61.9698C108.478 60.9432 108.664 59.9278 108.976 58.9478L112.598 47.9368C112.766 47.4228 112.902 46.8838 112.943 46.3478C113.011 45.4708 112.421 44.9678 111.638 45.3468C110.886 45.7108 110.154 46.2528 109.612 46.8838C107.391 49.4648 105.955 52.5118 104.744 55.6418C103.753 58.1998 102.96 60.8358 102.144 63.4568C101.972 64.0118 101.76 64.1818 101.204 64.1678C99.8815 64.1338 98.5585 64.1568 97.1065 64.1568L98.7565 58.2938L101.959 46.7968C102.072 46.3758 102.009 45.6328 101.739 45.4408C101.138 45.0158 100.418 45.3888 100.108 45.9448C99.4145 47.1878 98.8815 48.5168 98.2515 49.7958C98.1115 50.0808 97.8395 50.3008 97.4635 50.4418C98.0695 48.4068 98.3405 46.2438 99.9785 44.7248C101.175 43.6168 102.668 43.3138 104.26 43.6218C105.473 43.8568 106.244 44.6788 106.21 45.9008C106.176 47.0908 105.915 48.2748 105.705 49.5568C105.663 49.6864 105.636 49.8193 105.625 49.9548ZM171.934 60.2198C171.709 60.3238 171.413 60.3698 171.27 60.5408L169.169 63.1488C168.336 64.0168 167.251 64.4908 166.027 64.6468C163.466 64.9728 161.675 63.6528 161.345 61.0948C161.008 58.4898 161.642 56.0268 162.636 53.6448C164.015 50.3398 165.92 47.3938 168.842 45.2098C169.557 44.676 170.341 44.2417 171.173 43.9188C173.528 43.0118 174.589 43.4318 175.749 45.5968C175.783 45.5688 175.835 45.5478 175.845 45.5138C176.284 44.0588 176.284 44.0758 177.77 43.9688C178.888 43.8878 180.002 43.7538 181.235 43.6318L180.612 45.9098L176.243 60.8308C176.171 61.0778 176.058 61.3368 176.079 61.5818C176.113 61.9838 176.174 62.6798 176.343 62.7168C176.757 62.8078 177.411 62.7448 177.66 62.4708C178.244 61.8278 178.705 61.0528 179.104 60.2758C179.429 59.6448 179.558 58.9178 179.843 58.2628C179.942 58.0348 180.25 57.8958 180.462 57.7158L180.829 57.9838C180.113 59.5838 179.548 61.2758 178.638 62.7588C177.721 64.2538 176.131 64.8308 174.354 64.6618C172.519 64.4868 171.692 63.5128 171.745 61.6878C171.753 61.4298 171.785 61.1738 171.854 60.8298C171.899 60.6304 171.926 60.4272 171.934 60.2228V60.2198ZM166.339 58.8468C166.337 59.6488 166.241 60.4648 166.365 61.2478C166.451 61.7918 166.732 62.6028 167.115 62.7288C167.577 62.8808 168.432 62.6038 168.778 62.2158C169.783 61.0898 170.756 59.8908 171.493 58.5828C173.37 55.2548 174.241 51.5548 175.175 47.8948C175.335 47.2658 175.231 46.5138 175.056 45.8708C174.768 44.8118 173.856 44.4288 172.878 44.9588C172.26 45.2938 171.661 45.7618 171.22 46.3028C168.279 49.9138 166.886 54.1388 166.339 58.8468ZM171.604 59.7548L171.695 60.1878C171.801 60.1238 171.976 60.0798 172.003 59.9908C172.108 59.6568 172.165 59.3088 172.24 58.9658L172.082 58.9098C171.943 59.1438 171.804 59.3788 171.604 59.7548Z" fill="white"/>
<path d="M120.341 63.8353C118.632 62.7733 117.961 61.2113 117.972 59.3593C117.994 55.6113 119.405 52.3243 121.595 49.3453C123.511 46.7393 125.879 44.6373 129.126 43.8863C130.435 43.5833 131.884 43.5813 133.222 43.7693C134.802 43.9913 135.529 45.1853 135.412 46.7753C135.258 48.8633 134.018 50.3063 132.456 51.5223C129.991 53.4413 127.147 54.6263 124.19 55.5633C123.644 55.7363 123.287 55.9513 123.287 56.5803C123.286 57.7793 123.11 58.9953 123.259 60.1733C123.487 61.9753 124.881 62.8433 126.714 62.5073C128.646 62.1533 130.186 61.1493 131.415 59.6563C131.697 59.3143 131.956 59.0133 132.373 59.4823C130.238 63.4813 124.714 66.1423 120.341 63.8353ZM123.984 53.5113L123.6 54.8723L123.832 55.1063C125.302 54.2353 126.906 53.5263 128.213 52.4583C130.431 50.6463 131.62 48.2393 131.454 45.3013C131.4 44.3413 130.973 43.9993 130.124 44.4573C129.283 44.9113 128.469 45.5213 127.84 46.2333C126.009 48.3063 124.863 50.7703 123.984 53.5113ZM154.811 45.9013L155.037 44.8563H151.65C151.604 44.3003 151.774 44.0493 152.303 44.0593L154.644 44.0723C155.176 44.0953 155.403 43.8963 155.537 43.3823L156.794 38.9213C156.935 38.3943 157.181 38.1973 157.745 38.1683L161.97 37.8123L160.196 44.0193H164.668C164.898 44.6093 164.767 44.8533 164.19 44.8473C163.005 44.8343 161.819 44.8593 160.634 44.8363C160.17 44.8273 159.918 44.9283 159.774 45.4323L155.316 60.8563C155.122 61.5313 155 62.2663 155.754 62.7013C156.453 63.1053 157.153 62.9213 157.775 62.4613C159.114 61.4703 159.48 59.9273 160.07 58.5053C160.191 58.2133 160.48 57.9883 160.849 57.8363C160.384 59.8633 159.982 61.8993 158.356 63.3533C157.023 64.5433 155.407 64.8513 153.664 64.6193C151.878 64.3813 150.687 63.2453 150.766 61.4673C150.832 60.0043 151.191 58.5333 151.582 57.1093L154.811 45.9013ZM200.244 48.8153C199.507 49.2293 198.843 49.8143 198.108 49.9213C196.096 50.2143 194.996 48.7863 195.811 46.9213C196.19 46.0553 196.966 45.3613 197.685 44.4293C197.062 44.6973 196.371 44.7923 196.013 45.1853C194.978 46.3223 193.891 47.4793 193.157 48.8083C191.05 52.6183 189.765 56.7503 188.704 60.9513C188.48 61.8393 188.274 62.7333 188.007 63.6083C187.942 63.8233 187.674 64.1283 187.491 64.1333C186.052 64.1763 184.612 64.1573 183.039 64.1573L184.464 59.0463L187.871 46.7153C187.976 46.3223 187.741 45.8393 187.664 45.3983C187.163 45.5233 186.444 45.4873 186.204 45.8053C185.575 46.6383 185.134 47.6143 184.664 48.5553C184.435 49.0133 184.35 49.5413 184.118 49.9963C184.001 50.2243 183.698 50.3593 183.363 50.4343C183.902 48.6173 184.211 46.7573 185.433 45.2833C186.664 43.7983 188.321 43.3383 190.182 43.5883C191.415 43.7543 192.083 44.6303 192.15 46.0353C192.171 46.5216 192.15 47.0087 192.087 47.4913C192.029 47.9573 191.896 48.4153 191.796 48.8763L191.988 48.9783C192.152 48.7603 192.328 48.5503 192.478 48.3233C193.204 47.2273 193.843 46.0623 194.667 45.0443C195.474 44.0483 196.649 43.5823 197.951 43.5293C200.372 43.4303 201.764 45.2993 200.949 47.5733C200.798 47.9953 200.51 48.3703 200.244 48.8133V48.8153ZM150.656 44.9753C152.256 46.6923 151.28 50.0753 148.969 50.8593C148.103 51.1533 147.246 51.1593 146.525 50.5113C145.784 49.8443 145.829 48.9673 146.048 48.1143C146.372 46.8593 147.294 46.0893 148.396 45.5013C148.616 45.3843 148.85 45.2923 149.089 45.1843C148.419 44.3513 147.283 44.0083 146.108 44.5173C145.207 44.9073 144.309 45.4703 143.629 46.1663C141.432 48.4143 140.288 51.2413 139.702 54.2523C139.356 56.0353 139.227 57.8873 139.241 59.7063C139.258 62.0823 141.039 63.2213 143.357 62.5303C144.957 62.0533 146.126 61.0163 147.042 59.6843C147.383 59.1883 147.687 59.0843 148.136 59.4973C146.147 63.0513 142.377 65.3463 138.294 64.5333C135.855 64.0483 134.332 62.3713 134.086 59.7223C133.62 54.7083 136.807 46.8363 143.041 44.2543C144.697 43.5683 146.45 43.2413 148.207 43.6893C149.06 43.9073 149.815 44.5043 150.656 44.9753ZM29.4432 68.9043L26.7032 72.4563L26.3462 69.1313L26.2102 69.1293L26.0122 72.5373C25.9172 73.2753 25.7242 74.0493 25.3702 74.6973C24.2792 76.6991 23.0835 78.6421 21.7882 80.5183V79.6053L21.8182 67.3193C21.8212 66.9853 22.0292 66.5383 22.2922 66.3393L29.4352 61.0363C29.8022 60.7623 30.0832 60.6813 30.5082 60.9353L36.3243 64.3393C36.4153 64.3923 36.4903 64.4713 36.6873 64.6313L33.8492 65.6153C33.6512 65.6733 33.3192 65.5043 33.1342 65.3433C32.7752 65.0323 32.4772 64.6543 32.1542 64.3033L31.9282 64.4623L32.4352 65.4103C32.7562 65.9463 32.7813 66.3653 32.1733 66.7663C31.5113 67.2023 30.9212 67.7453 30.2242 68.3023L29.7522 67.2623C29.5591 66.8305 29.3564 66.4031 29.1442 65.9803L28.9442 66.0703L29.3702 67.4793C29.3982 67.7253 29.4273 67.9713 29.4233 68.3263C29.4121 68.5196 29.4194 68.7135 29.4452 68.9053L29.4432 68.9043ZM23.7032 35.8603L15.6042 35.2973C15.3462 35.2773 14.9582 35.0903 14.8802 34.8873C13.7112 31.8423 12.9622 28.7143 13.1662 25.4233C13.1762 25.2643 13.2722 25.1103 13.3762 24.8203C18.4752 28.1463 23.2262 31.7473 27.4182 36.4543L23.7032 35.8603Z" fill="white"/>
<path d="M29.4183 67.4632C29.2293 67.0142 29.0873 66.5442 28.9453 66.0742L29.1453 65.9843L29.7183 67.2152C29.6313 67.3332 29.5483 67.3882 29.4183 67.4632ZM29.4873 68.8823C29.4293 68.7513 29.4113 68.5953 29.4303 68.3903C29.4883 68.5133 29.5083 68.6853 29.4873 68.8823ZM171.638 59.6793L172.087 58.9062L172.245 58.9623L172.008 59.9873C171.98 60.0763 171.806 60.1192 171.699 60.1842C171.669 60.0402 171.638 59.8943 171.638 59.6793Z" fill="white"/>
<path d="M172.204 59.3131C172.204 59.7411 172.01 60.2591 171.77 60.2591C171.53 60.2591 171.336 59.7401 171.336 59.3131C171.336 58.8861 171.53 58.5391 171.77 58.5391C172.01 58.5391 172.204 58.8851 172.204 59.3131Z" fill="white"/>
<path d="M172.899 59.1412C172.899 59.5692 172.705 60.0872 172.465 60.0872C172.225 60.0872 172.031 59.5682 172.031 59.1412C172.031 58.7142 172.226 58.3672 172.465 58.3672C172.704 58.3672 172.899 58.7142 172.899 59.1412Z" fill="white"/>
</g>
</g>
<defs>
<clipPath id="clip0_70_1427">
<rect width="204" height="103" fill="white" transform="translate(0 0.5)"/>
</clipPath>
</defs>
</svg>
