<svg width="143" height="48" viewBox="0 0 143 48" fill="none" xmlns="http://www.w3.org/2000/svg">
<path d="M112.411 27.4833C112.234 27.3823 112.091 27.2653 111.942 27.4183C111.633 27.7373 111.804 28.8413 112.204 29.0533C112.362 29.1373 112.588 29.1493 112.554 29.3943C112.518 29.6473 112.291 29.7033 112.087 29.7063C111.494 29.7175 110.902 29.7138 110.309 29.6953C110.118 29.6893 109.941 29.5783 109.944 29.3603C109.947 29.1673 110.116 29.0983 110.285 29.0983C110.729 29.0993 110.824 28.7913 110.817 28.4563L110.714 25.7943C110.7 25.4443 110.453 25.3563 110.17 25.2863C110.007 25.2453 109.875 25.1293 109.923 24.9373C109.959 24.7893 110.099 24.7243 110.242 24.7243L113.798 24.7463C114.256 24.7633 114.415 25.3033 114.244 26.0433C113.938 26.1653 113.786 25.9243 113.618 25.7573C113.344 25.4853 113.026 25.3353 112.644 25.3233C112.352 25.3143 112.032 25.2403 111.859 25.5803C111.689 25.9143 111.753 26.2693 111.898 26.5723C112.04 26.8663 112.317 26.7863 112.538 26.6233C112.716 26.4913 112.785 26.2333 113.031 26.1723C113.443 26.5813 113.496 27.4163 113.147 28.1003C112.769 28.0783 112.708 27.6723 112.411 27.4833ZM116.213 27.3423L116.194 27.0703C116.113 26.2913 116.528 25.2963 115.281 25.1173C115.34 24.6993 115.59 24.7063 115.813 24.7063L119.096 24.7233C119.705 24.7373 119.923 25.3143 119.628 26.0703C119.328 26.1303 119.184 25.8873 119.011 25.7253C118.764 25.484 118.436 25.342 118.091 25.3263C117.805 25.3113 117.458 25.2033 117.291 25.5343C117.133 25.8473 117.129 26.2403 117.282 26.5303C117.498 26.9383 117.808 26.7503 118.053 26.4943C118.188 26.3523 118.273 26.0983 118.526 26.1953C118.759 26.2853 118.717 26.5303 118.731 26.7323C118.798 27.6653 118.798 27.6653 118.523 28.1153C118.062 27.9873 117.983 27.2993 117.424 27.3183C117.018 28.0403 117.137 28.7113 117.747 29.0973C117.87 29.1753 117.983 29.2423 117.971 29.4013C117.959 29.5603 117.819 29.6473 117.694 29.6643C117.014 29.7593 116.331 29.7353 115.649 29.6813C115.51 29.6703 115.4 29.5703 115.373 29.4173C115.352 29.2923 115.397 29.1503 115.514 29.1433C116.48 29.0853 116.159 28.3513 116.219 27.8213C116.234 27.6863 116.218 27.5483 116.213 27.3443V27.3423ZM11.7701 27.0733C12.7341 26.6093 13.5331 26.8973 14.1981 27.5393C16.0621 29.3393 17.0711 31.4633 16.5491 34.1283C16.2411 35.7063 16.6991 36.4563 18.2321 36.8703C18.9056 37.059 19.5965 37.1786 20.2941 37.2273L19.2121 36.3003C18.6191 35.8093 18.1541 35.2253 17.8941 34.4963C17.4121 33.1433 18.2281 31.5473 19.6961 30.9533C20.9351 30.4523 22.3811 31.1033 22.9671 32.4243C23.3541 33.2983 23.2251 33.8043 22.4531 34.3653C22.1241 34.6043 21.8211 34.8883 21.4111 35.0273C20.9781 34.6713 21.4511 33.9433 20.8591 33.6643C20.0851 34.4683 20.0941 34.9583 20.9351 35.5673C22.2951 36.5513 23.8721 36.9233 25.5051 37.0373C27.8621 37.2013 30.2021 36.8843 32.5441 36.6793L40.3131 35.9553L47.7321 35.1893L57.9401 34.1353C63.8481 33.6513 69.7631 33.6723 75.6761 33.8043C80.1921 33.9043 84.6981 34.2783 89.1991 34.6883C94.1521 35.1393 99.0801 35.8073 104.033 36.2683C107.305 36.5723 110.583 36.7773 113.858 37.0343C116.041 37.2053 118.062 36.5663 120.032 35.7363C120.793 35.4153 120.988 34.8993 120.701 34.3383C120.488 33.9223 120.254 33.8473 119.842 34.1303C118.882 34.7913 118.869 34.7733 118.203 33.7993C117.714 33.0843 117.739 32.6103 118.303 31.9443C119.288 30.7813 120.992 30.5803 122.184 31.4873C123.386 32.4013 123.629 34.2783 122.714 35.5583C122.174 36.3133 121.344 36.7433 120.705 37.4493C121.62 37.2113 122.549 37.0153 123.447 36.7223C124.327 36.4353 124.649 35.8433 124.565 34.7693C124.482 33.7013 124.305 32.6423 124.545 31.5683C124.885 30.0413 125.628 28.7703 126.829 27.7653C127.321 27.3533 127.903 27.1533 128.523 27.0903C129.158 27.0253 129.61 27.3593 129.936 27.8813C130.772 29.2203 130.719 30.5843 129.937 31.9003C129.262 33.0383 128.492 34.1203 127.763 35.2263L127.347 35.8403L129.488 35.4823C132.096 35.0993 134.647 35.2413 137.041 36.4523C139.063 37.4753 140.12 39.1213 139.989 41.4303C139.884 43.2763 138.425 44.2663 136.58 43.9543C136.043 43.8633 135.328 42.6383 135.398 41.9333C135.465 41.2693 135.947 40.9743 136.551 40.8433C136.729 40.8043 136.912 40.7823 137.087 40.7323C137.628 40.5783 137.837 40.2503 137.62 39.6983C137.142 38.4813 136.279 37.6453 135.085 37.1463C134.03 36.7053 132.93 36.6213 131.598 36.7783C132.007 37.1613 132.332 37.4293 132.615 37.7373C133.606 38.8153 133.726 40.0573 132.953 41.0203C132.151 42.0203 130.868 42.2063 129.613 41.4903C128.216 40.6933 127.015 39.6283 125.777 38.6193C125.417 38.3263 125.177 38.3233 124.768 38.5673C123.425 39.3693 122.869 40.5303 122.923 42.0603C122.936 42.4463 123.133 42.5733 123.412 42.7043C123.754 42.8653 123.929 42.6403 124.083 42.4103C124.183 42.2613 124.234 42.0793 124.305 41.9113C124.646 41.1053 125.08 40.9953 125.786 41.5383C126.592 42.1583 126.891 43.1363 126.529 43.9643C126.054 45.0493 124.869 45.7543 123.843 45.5613C122.064 45.2263 120.843 43.3483 121.181 41.4603C121.337 40.5883 121.686 39.8033 122.252 39.1193L123.296 37.8743C121.969 38.0773 120.79 38.3813 119.581 38.5333C117.276 38.8223 114.975 38.7473 112.674 38.5913L103.734 37.9173L91.5131 37.0183L84.2031 36.5653C79.5511 36.2513 74.8901 36.1853 70.2341 36.2063C65.0281 36.2293 59.8211 36.4063 54.6171 36.6083C50.8091 36.7563 47.0031 37.0043 43.2031 37.2973C40.2491 37.5253 37.3071 37.9173 34.3561 38.1943C29.0751 38.6903 23.7941 39.0033 18.5291 38.0013C18.3551 37.9683 18.1741 37.9773 17.9071 37.9613C18.3321 38.4793 18.7261 38.9143 19.0701 39.3863C20.1761 40.9023 20.1761 43.0443 19.0901 44.4383C17.9401 45.9143 15.8101 45.8313 14.7801 44.2703C14.0741 43.2013 14.3951 41.8963 15.5171 41.2653C16.0321 40.9753 16.4311 41.1503 16.7811 41.5633C17.0551 41.8863 17.2171 42.3193 17.6521 42.4853C18.3771 41.8073 18.4921 41.3393 18.1731 40.4813C18.0173 40.075 17.7908 39.6996 17.5041 39.3723C16.5381 38.2393 16.0831 38.1743 14.8761 39.0143C13.6751 39.8493 12.4761 40.6873 11.1701 41.3533C10.2051 41.8453 8.96112 41.6093 8.21912 40.8273C7.78612 40.3713 7.79712 39.8213 7.93012 39.2813C8.15812 38.3543 8.34012 37.3903 9.29112 36.7743C8.82212 36.4763 8.38012 36.5623 7.98012 36.5963C6.16312 36.7543 4.60712 37.3913 3.68912 39.1023C3.54812 39.3653 3.43412 39.6373 3.39912 39.9383C3.34512 40.3983 3.51612 40.6933 3.99712 40.7653C4.08712 40.7793 4.18012 40.7803 4.26912 40.7983C4.81912 40.9083 5.46812 40.8943 5.59812 41.6333C5.76812 42.5963 5.42012 43.3843 4.68912 43.7303C3.85112 44.1283 3.00512 44.1883 2.23112 43.5943C1.25712 42.8463 0.866124 41.7973 1.04012 40.6223C1.51112 37.4383 3.51612 35.8033 6.76012 35.6463C8.65912 35.5543 10.5461 35.6463 12.4381 35.6693H13.2211C13.3921 35.2543 13.1521 35.0243 13.0171 34.7783C12.2151 33.3163 11.4021 31.8613 10.7191 30.3373C10.0831 28.9163 10.3941 27.8913 11.7701 27.0723V27.0733ZM12.0121 30.7153C12.0871 32.4343 13.8031 34.7693 15.4231 35.2803C15.5791 34.2523 15.5651 33.2393 15.5961 32.2023C15.1251 32.2463 14.7871 32.3033 14.4491 32.3053C13.5721 32.3123 13.2611 31.9763 13.3111 31.0893C13.3301 30.7493 13.4111 30.4103 13.4091 30.0713C13.4071 29.7183 13.3141 29.3673 12.8791 29.3143C12.4811 29.2663 12.2231 29.4763 12.1271 29.8553C12.0661 30.0953 12.0511 30.3473 12.0121 30.7153ZM125.569 33.7693C125.628 34.2803 125.524 34.8053 125.667 35.3213C125.781 35.3083 125.857 35.3203 125.91 35.2913C127.687 34.2943 128.794 32.7973 129.188 30.7983C129.282 30.3223 129.012 29.9153 128.738 29.5423C128.595 29.3483 128.387 29.3543 128.177 29.4183C127.961 29.4843 127.926 29.6593 127.925 29.8533V30.6763C127.918 31.9233 127.717 32.1533 126.504 32.3033C125.377 32.4423 125.352 32.4763 125.569 33.7693ZM10.8171 40.5973C12.4661 40.2073 13.4031 39.0433 14.1471 37.6473C13.0341 36.8193 11.8661 36.8393 11.0271 37.5953C10.5491 38.0253 10.4431 38.4113 10.9091 38.9113C11.0881 39.1033 11.2801 39.3183 11.3131 39.6343C11.0151 40.0753 10.4001 40.0743 10.0361 40.4613C10.2581 40.6343 10.4911 40.5913 10.8171 40.5973ZM127.073 37.1853C126.684 37.3833 126.814 37.6693 126.968 37.9313C127.409 38.6813 127.949 39.3553 128.639 39.8923C129.184 40.3173 129.794 40.5933 130.57 40.5993C129.373 39.9003 129.35 39.5963 130.37 38.7293C130.857 38.3153 130.777 37.9423 130.116 37.6993C129.168 37.3523 128.163 37.3043 127.073 37.1853ZM58.4911 14.1823C58.7921 13.4953 59.2041 12.9083 59.9081 12.5763C60.7431 12.1823 62.0761 12.9123 62.1871 13.8223C62.2071 13.9843 62.1221 14.0833 62.0151 14.1693C61.8911 14.2693 61.7621 14.3673 61.6241 14.4473C60.4081 15.1513 60.4441 15.7543 61.6101 16.7673C62.4031 17.4563 63.4141 17.8233 64.4631 18.0783C64.5581 17.7863 64.3661 17.5833 64.2791 17.3673C62.9831 14.1803 63.2601 11.0563 64.7291 8.02026C65.7251 5.96226 67.4991 5.01226 69.7281 4.81626C71.1601 4.69026 72.5551 4.83126 73.8811 5.40326C75.3301 6.02826 76.2431 7.18026 76.8141 8.60426C78.0481 11.6823 78.1351 14.7753 76.8421 17.8673C76.7911 17.9883 76.7551 18.1143 76.6771 18.3353C77.8651 17.8693 78.9421 17.3823 79.8981 16.6893C80.6361 16.1533 80.5631 15.3223 79.8611 14.8483C79.5551 14.6413 78.9851 14.6113 79.0801 14.0443C79.1841 13.4313 80.0171 12.6743 80.5391 12.6503C81.2891 12.6153 81.9361 13.0593 82.1011 13.7933L82.6771 16.7073C82.8801 16.7983 82.9831 16.6803 83.0931 16.6123C83.9001 16.1123 83.8991 16.1103 83.4041 15.2823C82.8061 14.2823 82.9261 13.9283 83.9161 13.5903C84.3441 13.4443 84.6231 13.5523 84.8301 13.9253L85.6781 15.4903C85.9071 16.0103 86.2491 16.1163 86.7701 16.0283L96.0591 13.9883L98.0491 13.4773C96.3861 12.9383 95.4291 11.7873 94.7311 10.3453C94.3811 9.62426 94.1761 8.91926 94.4991 8.13626C94.5881 7.91926 94.5811 7.70626 94.3691 7.51926C94.1781 7.35226 94.1561 7.11126 94.2971 6.89526C94.4251 6.69926 94.6071 6.81026 94.7881 6.82926C95.3801 6.89226 95.9611 6.79926 96.5871 6.61126C96.8781 7.16426 96.8381 7.77226 96.9251 8.36026C95.9411 8.47326 95.6891 9.03226 95.8411 9.96326C96.0671 11.3513 96.8921 12.1963 98.0231 12.8503C98.2646 13.0005 98.5348 13.0983 98.8165 13.1375C99.0982 13.1766 99.3849 13.1561 99.6581 13.0773C103.321 12.1043 107.018 11.2893 110.785 10.8243C111.394 10.7493 112.008 10.7133 112.765 10.6463C112.359 10.2513 112.017 9.94226 111.702 9.60826C110.786 8.63726 110.289 7.52526 110.675 6.17326C111.029 4.93426 112.579 4.11126 113.805 4.50826C114.52 4.74026 114.781 5.38426 114.952 6.02726C115.113 6.63326 114.646 7.04426 114.331 7.48026C114.166 7.70926 113.968 7.57526 113.791 7.45826C113.562 7.30826 113.345 7.13226 113.099 7.01926C112.853 6.90626 112.543 6.65926 112.315 7.02926C112.125 7.33626 111.922 7.69726 112.266 8.02826L114.755 10.3623C115.052 10.2043 115.183 9.79826 115.391 9.46026C116.076 8.34826 116.745 7.22626 117.945 6.56926C118.521 6.25326 119.121 6.07626 119.785 6.19326C120.959 6.40026 121.582 7.39226 121.216 8.52826C121.05 9.04426 120.812 9.53726 120.591 10.0793C120.969 10.2733 121.322 10.1373 121.654 10.0383C123.179 9.58426 124.287 8.69826 124.635 7.06126C124.837 6.11626 124.605 5.87726 123.662 6.05026C122.991 6.17326 122.715 5.97326 122.483 5.34026C122.216 4.61026 122.501 4.12326 123.039 3.66826C123.586 3.20726 124.102 3.08626 124.779 3.45426C126.711 4.50626 127.188 6.42126 125.956 8.40426C125.087 9.80326 123.725 10.5323 122.246 11.0753C120.751 11.6243 119.19 11.8063 117.602 11.7783C117.4 11.7743 117.198 11.7773 116.839 11.7773L118.636 13.4163C119.082 13.8094 119.49 14.2433 119.855 14.7123C120.707 15.8133 120.663 16.9943 120.139 18.2043C119.891 18.7773 119.406 18.9043 118.83 18.8203C116.754 18.5173 114.973 16.4643 114.823 14.1953C114.676 11.9723 114.302 11.6233 112.057 11.6223C111.83 11.6223 111.603 11.6223 111.315 11.7543L112.027 12.1443C112.518 12.3983 112.972 12.7003 113.341 13.1183C114.007 13.8723 114.138 14.7993 113.653 15.7233C113.188 16.6103 112.512 17.1963 111.424 17.1223C110.597 17.0663 110.069 16.6483 109.867 15.8403C109.774 15.4673 109.7 15.0893 109.612 14.6873C110.123 14.4843 110.615 14.4443 111.11 14.4183C111.31 14.4073 111.548 14.4503 111.634 14.1973C111.673 14.0885 111.682 13.9711 111.659 13.8577C111.637 13.7444 111.584 13.6391 111.507 13.5533C111.174 13.1633 110.73 13.0563 110.234 12.9873C107.761 12.6453 105.377 13.1163 102.992 13.6873L80.7351 19.2043C77.2101 20.1513 73.6781 20.8923 70.0101 20.7913C66.4471 20.6933 63.0041 19.9423 59.5961 18.9423C53.2021 17.0663 46.7671 15.3353 40.3191 13.6553C38.3361 13.1383 36.3791 12.4903 34.3281 12.2503C33.0071 12.0953 31.6821 12.1603 30.3601 12.2013C29.8401 12.2173 29.3961 12.5053 29.2321 13.0583C29.0911 13.5343 29.2991 13.7623 29.7831 13.6893C29.9851 13.6593 30.1851 13.6073 30.3881 13.5923C30.6981 13.5693 31.0551 13.4583 31.2291 13.8473C31.4121 14.2553 31.4971 14.6743 31.2181 15.0853C30.4851 16.1673 29.6831 16.3403 28.3161 15.7103C27.2681 15.2273 26.9781 14.5143 27.3251 13.2763C27.6921 11.9683 27.8831 11.7583 29.5691 10.8553C28.7431 10.7613 28.0091 10.7453 27.2791 10.8573C26.7021 10.9463 26.4491 11.3743 26.3231 11.8963C26.1191 12.7373 25.9761 13.5993 25.7031 14.4173C25.2061 15.9093 24.3231 17.1093 22.7631 17.6263C22.0411 17.8653 21.2571 18.0023 20.6681 17.3123C20.1231 16.6733 20.1031 15.5203 20.5871 14.7373C21.2501 13.6653 22.0921 12.7273 22.8841 11.7523C23.0651 11.5293 23.3101 11.3393 23.3561 10.9853C20.9781 10.6483 18.7531 9.85926 16.6311 8.78426C14.7461 7.82926 13.9531 5.67526 14.7181 3.72126C14.8791 3.31126 15.1061 2.94126 15.4201 2.63526C15.9641 2.10626 16.6091 1.84426 17.3591 2.09726C18.1461 2.36226 18.4391 3.06226 18.6101 3.77926C18.7441 4.33826 18.0051 4.99226 17.3821 4.95026C16.3541 4.87926 16.2001 5.05926 16.4351 6.06026C16.8771 7.93526 18.5151 9.20026 20.3791 9.09026C20.4151 8.73726 20.1491 8.51526 20.0021 8.24826C19.4851 7.30926 19.5141 6.47326 20.1041 5.83326C20.7871 5.09226 21.7001 4.90926 22.6631 5.37126C24.0041 6.01426 24.8291 7.15826 25.5181 8.41926C25.6911 8.73626 25.8511 9.06126 26.0661 9.47726C26.9941 8.88326 27.8941 8.35826 28.6091 7.58526C28.9661 7.20026 28.8481 6.74126 28.6591 6.20026C28.0591 6.50426 27.4661 6.65726 26.8201 6.43426C26.4091 6.29226 26.2391 6.07326 26.2371 5.63926C26.2301 4.34026 26.7661 3.54826 27.8341 3.34626C28.7781 3.16726 29.8971 3.95826 30.2661 5.06426C30.7011 6.37126 30.2631 7.91626 29.1811 8.86226C28.8731 9.13126 28.5531 9.38526 28.0551 9.79826C32.9361 10.1233 37.4321 11.4233 41.9921 12.6703C42.0431 12.6783 42.0381 12.6753 42.0381 12.6753C45.1041 13.6413 48.2091 14.4583 51.3591 15.1033C52.4521 15.3273 53.5451 15.5603 54.6281 15.8283C55.0371 15.9293 55.2541 15.8353 55.4481 15.4663C55.7761 14.8413 56.1601 14.2453 56.5101 13.6313C56.7471 13.2153 57.0541 13.0963 57.4651 13.3723C57.8111 13.6063 58.3091 13.6233 58.4601 14.1633C58.0151 14.6253 57.6051 15.0103 57.1541 15.4353C57.7821 16.0833 58.3511 16.6323 59.0821 17.0493C58.8771 16.0773 58.3201 15.2003 58.4931 14.1803L58.4911 14.1823ZM74.7091 16.8893C74.9351 16.5203 75.1951 16.1723 75.3451 15.7573C76.0431 13.8373 76.1081 11.8893 75.6501 9.90826C74.9361 6.81826 73.0591 5.43626 69.9141 5.69826C67.7611 5.87726 66.0511 7.41926 65.6811 9.55026C65.3951 11.1993 65.3011 12.8543 65.5211 14.5273C65.8111 16.7333 67.4171 18.4773 69.6111 18.8203C71.6201 19.1353 73.2901 18.4533 74.7091 16.8893ZM25.1451 12.7563C25.2391 12.3873 25.3481 12.0193 25.2231 11.6333C23.8541 11.9203 22.3481 13.0953 21.8111 14.2803C21.6471 14.6413 21.5521 15.0133 21.6631 15.4073C21.7321 15.6503 21.8071 15.9093 22.1261 15.9193C22.4221 15.9283 22.4971 15.6853 22.5611 15.4693C22.6148 15.2736 22.6476 15.0728 22.6591 14.8703C22.7361 13.8683 23.2231 13.5513 24.1811 13.8823C24.3881 13.9543 24.5751 14.1223 24.8981 14.0163L25.1441 12.7573L25.1451 12.7563ZM116.275 12.4643C115.874 12.2893 115.604 12.4923 115.633 12.8533C115.691 13.5673 115.858 14.2733 115.973 14.9443C116.253 15.0253 116.407 14.9023 116.577 14.8493C117.571 14.5343 118.055 14.7993 118.276 15.7923C118.33 16.0353 118.336 16.2883 118.39 16.5313C118.429 16.7083 118.498 16.8923 118.74 16.8773C118.924 16.8663 119.011 16.7463 119.075 16.5853C119.284 16.0553 119.27 15.5783 118.842 15.1403L116.275 12.4643ZM118.285 7.37526C117.343 8.14426 116.758 9.20026 116.096 10.1843C115.897 10.4813 116.226 10.7923 116.57 10.6733C117.431 10.3783 118.274 10.0354 119.096 9.64626C119.402 9.50026 119.477 9.19626 119.029 9.01126C118.014 8.59226 117.989 8.52226 118.285 7.37526ZM22.3171 8.87926L24.2001 9.68526C24.4151 9.77726 24.5991 9.74826 24.7481 9.55926C24.8711 9.40226 24.9211 9.22326 24.8051 9.05326L23.1891 6.72326C22.8311 6.91226 22.6581 7.16026 22.4911 7.39526C22.1891 7.82026 21.8521 8.25826 22.3171 8.87926ZM95.9871 8.18326C96.2281 8.02626 96.1621 7.84826 96.0071 7.68326C95.8281 7.49426 95.6241 7.47926 95.2831 7.73626C95.8561 7.56926 95.5971 8.14026 95.9861 8.18226L95.9871 8.18326Z" fill="white"/>
<path d="M105.396 5.27046C105.463 5.59646 105.386 5.90046 105.233 6.19446C105.442 6.49546 105.79 6.50146 106.071 6.62646C107.084 7.07446 107.657 8.11246 107.432 9.11746C107.149 10.3795 105.845 10.9235 104.719 10.2515C104.626 10.1965 104.524 10.1565 104.352 10.0725C104.45 10.8345 104.123 11.3255 103.483 11.4745C102.733 11.6475 101.963 11.4995 101.55 10.7935C101.078 9.98546 100.244 9.48646 99.8456 8.63546C99.8006 8.54046 99.7116 8.44746 99.5766 8.45446C98.8846 9.28946 99.2046 10.5685 100.147 11.3965C99.5716 11.5455 99.0236 11.6155 98.3626 12.0055C98.8286 10.9145 98.3856 10.1065 98.1056 9.29546C97.8236 8.47946 97.8456 7.52446 97.0226 6.82846L98.6146 6.30546C98.2446 7.13146 98.7546 7.70746 98.9276 8.37446C99.0526 7.61046 99.6956 6.97746 99.4006 6.07146L100.787 5.61646C100.798 5.98846 100.597 6.33646 101.044 6.52746C101.286 6.63046 101.367 6.96546 101.185 7.24846C100.964 7.59346 100.675 7.75346 100.265 7.56646C100.193 7.22046 100.651 7.26346 100.658 6.99046C100.139 6.78346 99.9886 6.91146 99.6896 7.90646C101.102 8.30046 101.676 9.69746 102.792 10.7215C102.849 9.91746 103.006 9.36246 103.846 9.53246C103.351 8.28346 103.455 8.07146 104.891 7.38746C104.159 6.92146 103.517 6.34746 103.793 5.41846C104.049 4.55546 104.896 4.38746 105.757 4.18246C105.812 4.75146 106.093 5.28246 105.914 5.91046C105.553 5.85146 105.632 5.49646 105.403 5.27246C105.205 4.95746 105.01 4.81046 104.734 4.96646C104.552 5.06846 104.49 5.23346 104.72 5.43946C104.927 5.38646 105.141 5.21546 105.397 5.27246L105.396 5.27046ZM105.987 8.21046C105.879 8.08446 105.859 7.88046 105.636 7.82346C105.803 8.35946 105.956 8.91846 105.266 9.14046C104.697 9.32346 104.478 8.90246 104.366 8.38446C104.096 8.97646 104.318 9.43546 104.732 9.74246C105.21 10.0965 105.811 9.99446 106.278 9.73546C106.652 9.52846 106.788 9.09446 106.389 8.69846C106.261 8.57146 106.151 8.42746 105.987 8.21046ZM105.344 8.29846C105.315 7.93846 105.13 7.76846 104.595 7.83046C104.982 7.94546 104.861 8.16846 104.916 8.33946C105.008 8.62446 105.164 8.64246 105.344 8.29846ZM35.4456 6.78046C35.0626 7.70846 34.7636 8.62246 34.0316 9.30246C33.2096 10.0665 32.0896 10.2135 31.1346 9.64446C30.0926 9.02346 30.1986 6.85146 31.3056 6.13346C32.0936 5.62246 32.3756 4.88946 32.1166 4.00746C32.3456 3.82146 32.5386 4.08446 32.8106 4.05046C32.8126 3.69546 32.7976 3.23346 33.3746 3.36746C33.7466 3.45346 33.6086 3.72546 33.4956 3.95446C34.8986 4.36046 35.3466 4.99746 35.4446 6.77946L35.4456 6.78046ZM32.9476 5.40746C32.8706 5.68646 32.9556 5.87046 33.2156 6.02746C33.7336 6.34046 34.0336 6.77546 33.7326 7.39746C33.4476 7.98546 32.9726 7.91246 32.4746 7.64046L32.3166 8.15346C32.2036 8.55246 32.0316 9.03846 32.4946 9.25146C32.9226 9.44846 33.2366 9.04146 33.5006 8.73046C34.0396 8.09746 34.1756 7.28246 34.3136 6.52246C34.4156 5.95746 34.3976 5.29246 34.0206 4.74846C33.7446 4.35046 33.3546 4.35946 33.1216 4.78746C33.0376 4.94246 33.0216 5.13446 32.9466 5.40846L32.9476 5.40746ZM31.1116 7.53746C31.9116 7.58046 31.5416 6.94546 31.6616 6.59046C31.2596 6.76046 30.8546 6.92446 31.1116 7.53746ZM31.2386 8.18746H30.7766C30.7856 8.38746 30.7956 8.57846 30.9976 8.72646C31.2056 8.60346 31.4156 8.49646 31.2386 8.18746ZM33.1206 6.95746C33.0706 7.07746 33.0816 7.19146 33.2156 7.22746C33.3496 7.26346 33.4336 7.15546 33.4536 7.04646C33.5276 6.62946 33.2816 6.51746 32.8996 6.46446C32.9616 6.67146 33.3236 6.61446 33.1206 6.95746ZM74.9796 25.6365C74.9316 26.5355 74.7986 27.3715 74.8466 28.2205C74.8716 28.6625 74.9696 28.9805 75.4906 28.9975C75.6716 29.0035 75.8606 29.0645 75.9006 29.2895C75.9236 29.4175 75.8556 29.5375 75.7376 29.5505C74.8296 29.6555 73.9306 29.6155 73.0156 29.4775C73.0606 29.3025 73.0646 29.2255 73.0836 29.2215C74.0666 29.0215 74.0136 28.2775 73.9756 27.5375C73.9486 27.0205 73.9266 26.5035 73.8016 25.9715L72.6276 28.9325C72.5396 29.1505 72.5776 29.5065 72.2526 29.5115C71.9156 29.5175 71.8726 29.1715 71.7716 28.9235L70.7876 26.5185C70.7476 26.4225 70.6646 26.3445 70.5236 26.2845C70.6916 27.3045 69.8256 28.5695 71.3216 29.2355C70.9216 29.6925 69.4736 29.7225 69.0036 29.3105C69.0166 29.2675 69.0216 29.1945 69.0446 29.1885C69.9356 28.9485 70.0946 28.3225 69.9996 27.5035C69.9446 27.0315 70.0076 26.5465 70.0166 26.0675C70.0246 25.6355 69.9256 25.2945 69.3956 25.2715C69.1926 25.2625 68.9366 25.2235 68.9716 24.9445C69.0046 24.6805 69.2596 24.7025 69.4636 24.6935L69.5326 24.6925C71.1286 24.6165 71.1266 24.6165 71.6746 26.1155C71.8926 26.7135 72.0866 27.3235 72.4596 27.9135C72.8066 27.6795 72.8506 27.3005 72.9836 26.9835L73.4986 25.6415C73.8746 24.6515 74.8986 24.3275 75.8836 24.8975C75.8006 25.4065 75.0786 25.0885 74.9806 25.6355L74.9796 25.6365ZM33.0606 28.6395C32.6986 27.8065 32.4616 26.9715 31.8946 26.2845C31.9236 27.3415 31.3846 28.5355 32.6666 29.2765C32.3056 29.6645 30.9926 29.7235 30.3776 29.3795C30.3796 29.3355 30.3656 29.2745 30.3886 29.2495C30.6936 28.9345 31.3416 28.9585 31.3746 28.4055C31.4286 27.5015 31.4196 26.5915 31.3796 25.6855C31.3656 25.3765 31.0456 25.2925 30.7506 25.2725C30.5686 25.2605 30.3496 25.2365 30.3516 24.9935C30.3536 24.7055 30.5976 24.7085 30.8026 24.7025L31.7606 24.6865C32.2756 24.6335 32.5776 24.8485 32.7366 25.3315L33.2356 26.6795L33.8276 28.0855C34.3126 27.3015 34.5286 26.5155 34.8216 25.7665C35.2516 24.6685 36.0486 24.3505 37.2156 24.8685C37.2046 24.9285 37.2036 25.0425 37.1796 25.0475C36.2726 25.2275 36.2536 25.9235 36.2416 26.6315L36.1886 28.0645C36.1596 28.5825 36.2756 28.9715 36.8966 29.0075C37.0776 29.0185 37.2636 29.0965 37.2906 29.3215C37.3056 29.4485 37.2266 29.5575 37.1046 29.5685C36.1966 29.6515 35.2966 29.6175 34.3776 29.4865C34.4276 29.3015 34.4256 29.2335 34.4516 29.2195C35.4286 28.7005 35.4876 28.5605 35.3346 27.4085C35.2776 26.9805 35.2786 26.5455 35.2416 25.9085L34.4206 27.8115L33.7376 29.5545C33.1786 29.4375 33.2346 28.9885 33.0576 28.6395H33.0606ZM53.4086 8.82646C53.8996 8.87746 54.3326 8.95946 54.6876 9.22346C55.3666 9.72846 55.2616 10.5655 54.4826 10.9175C54.2786 11.0095 54.0556 11.0585 53.7596 11.1535C54.2476 12.1895 54.0396 13.3075 54.2506 14.3725C54.3116 14.6825 54.3536 15.0455 54.8566 14.8065C55.0646 14.7075 55.1976 14.8825 55.2156 15.0935C55.2426 15.4125 55.0436 15.5785 54.7626 15.5665C54.1556 15.5405 53.7756 15.1395 53.5006 14.6525C53.3205 14.33 53.2434 13.9601 53.2796 13.5925C53.3806 12.5535 53.1706 11.5365 53.0866 10.5075C52.8456 11.6885 52.2896 12.8135 52.4766 14.1255L51.1336 13.7765C51.9506 12.1505 52.1926 10.4405 52.3966 8.67446L53.4086 8.82746V8.82646ZM47.0476 11.5965C46.6706 10.5985 46.8856 9.65446 47.2976 8.83346C47.9076 7.62146 50.1906 7.67546 50.9586 8.84646C51.8866 10.2605 51.0646 12.4295 49.4356 12.8645C48.4256 13.1345 47.6016 12.7095 47.0476 11.5965ZM48.2016 9.74446C47.9776 10.3055 47.9116 10.8895 47.9476 11.4875C47.9616 11.7195 48.0916 12.0855 48.2946 11.9495C48.9436 11.5155 48.8916 12.1315 49.0486 12.4155C50.0106 11.7805 50.5656 9.89046 50.0976 8.88546C49.9516 9.32346 49.7696 9.74846 49.2216 9.65446C48.7516 9.57446 48.6646 9.20746 48.7456 8.75646C48.7076 9.14846 48.4336 9.37446 48.2016 9.74546V9.74446ZM90.9886 12.2815L89.1956 11.6915C89.4996 12.5965 89.4806 13.4905 90.2206 14.1335C89.8746 14.3795 89.4756 14.3515 89.2006 14.4715C88.9406 12.7395 88.4486 11.1085 87.7096 9.48246C87.9546 9.31846 88.3586 9.22846 88.7506 9.20946C89.1676 9.18946 89.5726 9.32546 89.3626 9.89446C89.2436 10.2185 89.4776 10.3225 89.6506 10.4255L91.2076 11.2555C90.7786 10.3635 90.8366 9.49746 90.1736 8.86646C90.4806 8.58846 90.9176 8.67446 91.2046 8.45446C91.3486 10.2475 91.9886 11.8285 92.5036 13.4705C92.5056 13.4685 92.4696 13.5355 92.4496 13.5315C91.8906 13.4025 91.3506 13.5095 90.7946 13.5915C90.3756 13.6525 90.0226 13.3585 90.0176 12.9045C90.0126 12.3625 90.4246 12.2565 90.9656 12.3105C91.1636 12.4835 91.3386 12.5915 91.2486 12.8125C91.0896 12.9645 90.7656 12.7055 90.6706 13.0745C90.9296 13.2925 91.1866 13.2535 91.3286 12.9685C91.4886 12.6455 91.3236 12.4015 90.9886 12.2815Z" fill="white"/>
<path d="M39.6335 9.1392C38.8665 10.1882 37.8755 10.5672 36.9625 10.1892C35.9705 9.7792 35.4775 8.7642 35.6665 7.5202C35.9315 5.7742 37.2695 4.8732 38.7245 5.4602C39.2355 5.66478 39.6518 6.05267 39.8918 6.54798C40.1319 7.04329 40.1785 7.61035 40.0225 8.1382C39.9245 8.4642 39.7845 8.7772 39.6335 9.1382V9.1392ZM36.8235 7.5522C36.6815 8.0192 36.6845 8.4982 36.7205 8.9772C36.7365 9.1952 36.9225 9.4942 37.0685 9.3692C37.7175 8.8142 37.6115 9.6122 37.8165 9.7912C38.7365 9.1412 39.2915 7.2632 38.8705 6.2782C38.6475 6.7042 38.4655 7.2132 37.8395 6.9912C37.5515 6.8892 37.4275 6.6242 37.5375 6.3192C37.6155 6.1022 37.7485 5.9122 38.0365 5.9572C38.2225 6.0842 37.8525 6.3882 38.2385 6.4642C38.5105 6.2992 38.4925 6.0772 38.2565 5.8942C38.2043 5.84658 38.1412 5.81255 38.0727 5.79514C38.0042 5.77773 37.9325 5.77746 37.8638 5.79437C37.7952 5.81128 37.7318 5.84483 37.6793 5.89207C37.6267 5.93931 37.5866 5.99877 37.5625 6.0652C37.3625 6.5472 36.9295 6.9052 36.8235 7.5522ZM55.6555 27.7392C55.5165 28.5582 55.9865 28.9622 56.6375 29.2322C56.0805 29.7152 54.6375 29.7202 54.1255 29.2482C55.4255 28.9822 55.1565 27.9842 55.1735 27.1222C55.1895 26.2782 55.4805 25.3152 54.1825 25.0072C55.0225 24.4892 55.9555 24.6222 56.4295 25.2452L57.8815 27.2222C58.0395 27.4342 58.1485 27.7082 58.5005 27.7882C58.6325 27.2242 58.5335 26.6742 58.5235 26.1172C58.5105 25.4472 57.9775 25.2692 57.5795 24.8722C58.3135 24.6642 59.0265 24.6782 59.7265 24.7552C60.0145 24.7872 59.9645 25.1092 59.7395 25.1852C58.8325 25.4892 59.0175 26.2172 59.0275 26.8832L59.0705 29.0722C59.0745 29.3032 59.0855 29.5532 58.8105 29.6432C58.5265 29.7362 58.3965 29.5072 58.2755 29.3202C57.7145 28.4592 57.1245 27.6212 56.4635 26.8332C56.2755 26.6092 56.1175 26.3532 55.7815 26.2242C55.5415 26.7012 55.7065 27.2012 55.6555 27.7392ZM83.4795 24.9542C84.3415 24.4492 85.2305 24.6352 85.7275 25.4032C86.2665 26.2382 86.9155 26.9802 87.5985 27.7202C87.5955 26.7092 88.1795 25.5492 86.7395 24.9972C87.0665 24.7392 88.7935 24.5862 88.9925 24.7732C89.2125 24.9802 89.0985 25.1642 88.8625 25.2292C88.2005 25.4132 88.1555 25.9272 88.1585 26.4722C88.1615 27.2482 88.1385 28.0222 88.2565 28.7962C88.3015 29.0902 88.4125 29.4862 88.0035 29.6282C87.6155 29.7622 87.5185 29.3692 87.3595 29.1472L85.5995 26.7862C85.4225 26.5852 85.2845 26.3372 84.9115 26.2002C84.7725 26.7982 84.9555 27.3892 84.8505 27.9452C84.7075 28.7032 85.3845 28.9082 85.8675 29.4092C84.9655 29.6792 84.2205 29.6262 83.4705 29.5142C83.4705 29.3732 83.4555 29.2962 83.4725 29.2882C84.3525 28.8802 84.4545 28.1252 84.3935 27.2822C84.3675 26.9182 84.3835 26.5512 84.3875 26.1862C84.3935 25.6692 84.3415 25.2062 83.6565 25.1902C83.5945 25.1892 83.5345 25.0702 83.4795 24.9542ZM47.3955 28.9132C47.8505 28.7682 48.1555 28.5062 48.4545 28.2152C48.7675 27.9112 48.9915 28.0372 49.0595 28.4412C49.1895 29.2142 48.7395 29.6622 47.9555 29.6252L45.4935 29.5962C45.2555 29.5912 44.9515 29.6942 44.8065 29.4282C44.6465 29.1342 44.8745 28.9132 45.0555 28.7092C45.8745 27.7842 46.4735 26.6982 47.2305 25.7282C47.3285 25.6022 47.4155 25.4652 47.3555 25.2782C46.4765 24.9432 45.9785 25.7522 45.3135 26.0242C44.9255 25.3202 45.1335 24.8132 45.8315 24.6842C46.7365 24.5172 47.6495 24.5912 48.5605 24.6182C48.7635 24.6242 49.0055 24.6202 49.1065 24.8302C49.2275 25.0822 49.0255 25.2652 48.8715 25.4232C48.0535 26.2572 47.3945 27.2162 46.7085 28.1542C46.5625 28.3542 46.3985 28.5522 46.3875 28.8552C46.6805 29.1052 47.0195 28.9602 47.3955 28.9132ZM107.011 24.7602C107.622 24.7642 108.196 24.6242 108.845 24.9612C107.71 25.6962 108.028 26.7712 108.017 27.7562C108.003 28.9852 107.318 29.7752 106.111 29.9162C104.987 30.0462 104.023 29.3172 103.78 28.1702C103.675 27.6702 103.723 27.1692 103.73 26.6682C103.745 25.6042 103.751 25.6042 103.029 25.0592C103.321 24.7022 104.913 24.6362 105.65 25.0442C104.706 25.2032 104.684 25.8212 104.731 26.4892C104.773 27.1022 104.713 27.7312 104.832 28.3262C104.943 28.8882 105.652 29.2592 106.304 29.2142C106.927 29.1702 107.292 28.8352 107.433 28.2142C107.598 27.4882 107.557 26.7602 107.51 26.0342C107.488 25.7012 107.294 25.4602 106.96 25.3122C106.636 25.1692 106.514 24.9542 107.011 24.7602ZM64.3855 25.7112C64.0565 26.0862 63.8915 25.7222 63.6975 25.5952C63.2425 25.2982 62.8405 24.8802 62.2175 25.2082C61.5875 25.5392 61.3915 26.0842 61.4015 26.7452C61.4105 27.3142 61.3885 27.8832 61.5585 28.4422C61.7085 28.9352 62.0305 29.2532 62.5105 29.3092C62.8705 29.3522 63.2475 29.2012 63.4325 28.8372C63.5472 28.6496 63.5893 28.4266 63.5508 28.2101C63.5123 27.9936 63.3959 27.7987 63.2235 27.6622C63.1965 27.6382 63.2025 27.5772 63.1845 27.4952C63.6325 27.1832 64.1375 27.3342 64.6165 27.3682C64.8745 27.3862 64.9335 27.5902 64.8125 27.8272C64.7305 27.9882 64.6385 28.1492 64.5865 28.3212C64.4705 28.7022 64.7695 29.2892 64.3585 29.4602C63.7645 29.7062 63.0795 29.8032 62.4295 29.8242C61.4795 29.8542 60.4885 28.9172 60.3855 27.9272C60.2765 26.8852 60.3075 25.8592 61.2445 25.1182C61.7575 24.7122 62.3175 24.5342 62.9645 24.6692C63.1875 24.7162 63.4265 24.8372 63.6305 24.7942C64.4315 24.6272 64.4545 25.0972 64.3855 25.7102V25.7112ZM80.0705 27.8772L79.2755 27.9402C79.105 27.9246 78.9345 27.9711 78.7956 28.0713C78.6566 28.1715 78.5586 28.3185 78.5195 28.4852C78.3755 28.8832 78.6005 29.0182 78.8615 29.1812C78.9315 29.2252 78.9705 29.3172 79.0765 29.4552C78.4615 29.8512 77.7975 29.7902 77.1755 29.7532C76.8545 29.7342 76.7095 29.3332 77.0645 29.1762C78.1095 28.7152 78.2715 27.7032 78.6585 26.8272L79.3005 25.2442C79.3955 25.0072 79.4885 24.7452 79.8015 24.7672C80.0865 24.7872 80.2235 25.0152 80.3105 25.2612L80.7325 26.4882C81.1165 27.4672 81.3615 28.5162 82.2935 29.2012C82.5745 29.4072 82.2965 29.6332 82.0495 29.6312C81.7275 29.6282 81.4185 29.6872 81.1025 29.7102C80.8435 29.7282 80.5105 29.8412 80.3595 29.5352C80.2115 29.2352 80.6475 29.1702 80.6995 28.8982C80.5205 28.5692 80.5395 28.1072 80.0705 27.8772ZM79.3255 26.6612C79.2385 26.8842 79.0725 27.0922 79.1915 27.3672C79.4425 27.4812 79.6885 27.5412 79.9305 27.3312C79.9705 27.0352 79.8255 26.7992 79.7125 26.5612C79.5955 26.3142 79.4755 26.4512 79.3255 26.6612ZM26.7095 27.9022C26.2785 27.9862 25.8365 27.7832 25.5555 28.2612C25.2205 28.8312 25.7105 29.0632 26.0135 29.4292C25.4175 29.8452 24.7665 29.7062 24.1585 29.7612C24.0055 29.7752 23.8545 29.6412 23.8305 29.4612C23.822 29.3916 23.8365 29.3211 23.8719 29.2606C23.9073 29.2001 23.9616 29.1529 24.0265 29.1262C25.1435 28.7092 25.2285 27.5962 25.6515 26.7192C25.8885 26.2272 26.0575 25.7012 26.2595 25.1922C26.3475 24.9712 26.4685 24.7552 26.7395 24.7752C27.0235 24.7962 27.1615 25.0132 27.2495 25.2662L28.0135 27.3922C28.3155 28.1162 28.5935 28.8752 29.3445 29.2902C28.9525 29.7422 27.7725 29.8272 27.2705 29.4712C27.7465 28.5742 27.5475 27.9552 26.7095 27.9022ZM26.8475 27.3432C26.9295 26.9592 26.7555 26.6652 26.5415 26.3502C26.2345 26.6192 26.0245 26.9212 26.1245 27.2582C26.2095 27.5442 26.5305 27.4592 26.8475 27.3432ZM40.0215 26.8532L40.6515 25.2792C40.7465 25.0452 40.8395 24.7732 41.1425 24.7742C41.4665 24.7762 41.5895 25.0392 41.6855 25.3102C42.0645 26.3832 42.3825 27.4772 42.9615 28.4762C43.1725 28.8392 43.4365 29.1062 43.8155 29.2932C43.3425 29.7282 42.2355 29.8132 41.6635 29.4872C42.1735 28.9792 42.0695 28.4542 41.6485 27.9672C41.4995 27.7952 40.3015 27.9152 40.1435 28.0922C39.6775 28.6162 39.9535 29.0312 40.4425 29.4282C39.8225 29.8532 39.1725 29.7652 38.5675 29.7502C38.2705 29.7422 38.0555 29.3312 38.4225 29.1802C39.4725 28.7482 39.6145 27.7542 40.0225 26.8532H40.0215ZM40.6975 26.6602C40.6055 26.8832 40.4575 27.0952 40.5645 27.3512C40.7275 27.4832 40.9215 27.4932 41.0825 27.4352C41.5025 27.2852 41.2575 26.9932 41.1675 26.7732C41.1025 26.6152 41.1035 26.1262 40.6975 26.6602ZM95.9805 28.8232C96.2185 28.1422 95.7825 27.9232 95.3105 27.7512C94.8625 27.5872 94.3735 27.5522 93.9495 27.3022C93.2845 26.9102 93.0115 26.2912 93.2325 25.6342C93.4705 24.9272 94.1645 24.5002 94.8915 24.6122C95.0935 24.6432 95.2965 24.6942 95.4995 24.6922C96.3245 24.6862 96.5625 24.9952 96.3655 25.8512C96.0665 25.9892 95.9085 25.7442 95.7205 25.5992C95.4855 25.4182 95.2815 25.1852 94.9885 25.1022C94.5325 24.9732 94.1505 25.1292 93.9565 25.5512C93.7525 25.9942 94.0605 26.2322 94.4285 26.3822L95.6465 26.8372C96.6555 27.2412 96.9765 27.7962 96.7155 28.6582C96.4775 29.4442 95.4765 29.9852 94.6255 29.7832C94.2765 29.7002 93.9445 29.5182 93.5645 29.6942C93.3655 29.7872 93.1965 29.6722 93.1455 29.4652C93.0355 29.0242 92.9975 28.5852 93.3285 28.1302C94.1075 28.7952 94.7945 29.7702 95.9805 28.8232ZM98.6115 29.5092C98.5205 29.3532 98.5245 29.2072 98.6355 29.1692C99.4335 28.9002 99.3455 28.2492 99.2865 27.6382C99.2375 27.1302 99.3205 26.6412 99.3785 26.1462C99.4135 25.8462 99.4625 25.5162 99.1335 25.3672C98.8375 25.2332 98.6375 25.4832 98.4245 25.6602C98.1795 25.8642 98.1075 26.2992 97.6695 26.2582C97.3325 25.3612 97.7135 24.7322 98.5955 24.7432C99.4385 24.7532 100.284 24.6712 101.125 24.7982C102.046 24.9372 102.226 25.2092 102.072 26.2452C101.635 26.3612 101.5 25.9662 101.262 25.7562C101.024 25.5462 100.782 25.2622 100.434 25.4112C100.124 25.5432 100.229 25.8862 100.224 26.1492L100.222 27.8612C100.216 28.4142 100.132 28.9972 100.926 29.1032C101.063 29.1212 101.158 29.2562 101.111 29.4172C101.058 29.5942 100.893 29.6832 100.743 29.6762C100.045 29.6412 99.3295 29.8712 98.6105 29.5102L98.6115 29.5092ZM42.0435 12.6882C40.4955 11.8342 40.3085 10.3472 40.2795 8.8082C40.2625 7.9302 40.4185 7.0882 41.1565 6.4782C41.2065 6.4372 41.2655 6.3622 41.2605 6.3072C41.1715 5.2972 41.5705 5.4672 42.1855 5.8742C42.5315 6.1032 42.9375 6.2942 43.4075 6.3212C43.4785 6.8392 43.2595 7.2772 43.0105 7.6672C42.7615 8.0572 42.3325 7.7112 41.9875 7.7492C41.6765 7.7832 41.5105 7.8952 41.4335 8.1392C40.9815 9.5802 40.9945 10.9602 42.0165 12.1932C42.1245 12.3232 42.3265 12.4452 42.0685 12.6632C42.0365 12.6842 42.0415 12.6862 42.0435 12.6882ZM44.7435 12.3822C44.3305 12.0772 43.8365 12.2072 43.3615 12.0082C44.2345 11.1772 44.1775 10.0522 44.4465 9.0452L44.6985 7.9852C44.7535 7.7792 44.8525 7.5042 44.5355 7.4102C44.2855 7.3362 44.0985 7.4852 43.9675 7.6942C43.7925 7.9732 43.7275 8.2812 43.7195 8.6072C43.7145 8.8052 43.7395 9.0212 43.5175 9.1492C43.1985 8.9822 43.2325 8.6892 43.2495 8.4302C43.2645 8.2072 43.3405 7.9862 43.4055 7.7692C43.7365 6.6552 43.7385 6.6522 44.8975 6.8932L46.4915 7.2592C46.9655 7.3862 47.2905 7.5962 46.9785 8.1852C46.8345 8.4562 46.8425 8.8032 46.7355 9.0992C46.6395 9.3642 46.5465 9.6662 46.1515 9.7472C46.0395 9.0582 46.9405 8.1782 45.6885 7.5872C45.5205 9.2382 44.5835 10.6282 44.9155 12.2622C44.9225 12.2942 44.8325 12.3462 44.7445 12.3812L44.7435 12.3822ZM93.9125 11.0072C94.1935 11.6942 94.1755 12.4452 94.5995 12.9462C94.8155 12.9912 94.8885 12.9472 94.9195 12.8472C95.0125 12.5522 95.2035 12.4812 95.4335 12.6712C95.6685 12.8652 95.6475 13.1142 95.4405 13.3272C95.3553 13.4039 95.2543 13.461 95.1445 13.4942C94.5775 13.6952 93.9615 13.7002 93.3865 14.0462C93.5435 12.4652 92.5155 9.1232 91.6735 8.3392C91.7645 7.9492 92.3055 7.9232 92.3785 7.4742C92.4015 7.3292 92.7275 7.3842 92.8255 7.5662C92.9425 7.7832 93.0965 7.9052 93.3375 7.9182C93.0995 9.0202 93.7075 9.9482 93.9125 11.0072ZM52.3045 24.7282C52.6345 24.7302 52.9855 24.6812 53.0275 25.0352C53.0725 25.4132 52.6915 25.3062 52.4755 25.3732C52.1855 25.4622 52.1035 25.6832 52.1035 25.9562V28.4902C52.1015 28.8422 52.2535 29.0522 52.6115 29.0972C52.8225 29.1242 53.0095 29.1842 53.0685 29.4202C52.9395 29.6802 52.7075 29.7112 52.4835 29.7152C51.9359 29.7245 51.3881 29.7241 50.8405 29.7142C50.6045 29.7102 50.3495 29.6622 50.3195 29.3812C50.2935 29.1462 50.5205 29.1112 50.7025 29.0852C51.0605 29.0342 51.1095 28.7512 51.1405 28.4782C51.2415 27.5892 51.1785 26.7022 51.0795 25.8162C51.0425 25.4852 50.8305 25.3632 50.5435 25.2842C50.3895 25.2412 50.2345 25.1342 50.2935 24.9392C50.3495 24.7522 50.5245 24.7202 50.6875 24.7682C51.2135 24.9222 51.7295 24.7892 52.3065 24.7292L52.3045 24.7282ZM102.236 7.3712C101.67 7.1822 101.751 6.6502 101.582 6.2582C101.518 6.1092 101.656 6.0082 101.795 5.9672C101.934 5.9262 102.102 5.9272 102.148 6.0782C102.274 6.4922 102.578 6.8952 102.236 7.3712ZM73.4575 8.5922C73.7455 9.2732 73.7845 9.9292 73.5985 10.5802C73.3685 11.3842 73.2855 12.1802 73.4585 13.0082C73.6015 13.6922 73.3685 14.2572 72.6885 14.5022C72.0025 14.7492 71.8465 15.2282 72.0085 15.8422C72.1825 16.4992 71.8875 16.6502 71.3175 16.6342L69.2675 16.6302C69.5065 15.7632 68.8845 15.3832 68.4615 14.9762C67.7255 14.2702 67.4905 13.4642 67.4705 12.4722L67.3595 9.5372C67.3655 8.5282 67.8415 7.8712 68.7525 7.4692C70.2315 6.8172 72.6935 7.1112 73.4575 8.5922ZM69.6945 11.4302C69.3405 11.2192 69.1295 11.3252 69.1005 11.7282C69.0765 12.0642 69.0905 12.4032 69.0955 12.7412C69.0995 12.9622 69.1685 13.1572 69.4275 13.1672C69.7205 13.1782 69.8185 12.9742 69.8175 12.7242C69.8155 12.3212 69.8865 11.9142 69.6945 11.4302ZM71.3165 11.9062C71.3385 12.2942 71.1375 12.7212 71.4955 13.0492C71.5835 13.1302 71.7305 13.1042 71.7945 12.9982C71.9945 12.6662 71.9315 12.2932 71.8775 11.9462C71.8245 11.6132 71.6105 11.5492 71.3165 11.9052V11.9062Z" fill="white"/>
</svg>
