<svg width="144" height="49" viewBox="0 0 144 49" fill="none" xmlns="http://www.w3.org/2000/svg">
<path d="M28.1569 7.51569C30.9419 7.51569 33.4279 7.90769 35.6239 8.69269C37.8199 9.46669 39.5369 10.4377 40.7849 11.6047C42.0284 12.7532 43.0682 14.1044 43.8599 15.6007C44.6589 17.1087 45.1979 18.5027 45.4669 19.7727C45.7327 21.0045 45.8698 22.2606 45.8759 23.5207C45.8707 24.7684 45.7269 26.0117 45.4469 27.2277C45.1579 28.5077 44.5879 29.8917 43.7399 31.3997C42.8919 32.9077 41.8229 34.2397 40.5449 35.3957C39.2669 36.5517 37.5199 37.5227 35.3039 38.3077C33.0979 39.0817 30.5919 39.4747 27.8069 39.4747H19.1719C20.0699 38.1527 20.5199 36.8927 20.5199 35.6957V11.2957C20.5199 10.7687 20.4099 10.1907 20.1809 9.56069C19.9609 8.93069 19.7319 8.43469 19.5119 8.07369L19.1729 7.51569H28.1569ZM27.8169 38.5247C31.6309 38.5247 34.7549 37.0997 37.1809 34.2497C39.6169 31.3997 40.8349 27.8267 40.8349 23.5207C40.8349 18.8847 39.6369 15.2187 37.2309 12.5137C34.8349 9.81869 31.7299 8.46569 27.9169 8.46569H25.2209V35.6947C25.2209 37.5847 26.0899 38.5237 27.8169 38.5237V38.5247ZM58.7559 39.4787C55.6809 39.4787 53.1349 38.4457 51.1189 36.3707C49.1019 34.3057 48.0139 31.6927 47.8539 28.5437C47.6939 25.4257 48.6229 22.7197 50.6389 20.4177C52.6549 18.1157 55.3809 16.9687 58.8049 16.9687C61.9399 16.9687 64.5249 17.9907 66.5619 20.0247C68.5989 22.0587 69.6969 24.6917 69.8559 27.9037C69.9859 31.2187 69.0269 33.9757 66.9709 36.1747C64.9239 38.3737 62.1899 39.4787 58.7559 39.4787ZM57.5079 18.1037C55.6209 18.1657 54.2529 19.1367 53.4249 21.0157C52.5959 22.8847 52.3669 25.3117 52.7559 28.2957C53.1449 31.2487 54.0139 33.6757 55.3719 35.5957C56.7299 37.5157 58.3269 38.4247 60.1539 38.3317C62.0709 38.2287 63.4479 37.2787 64.2569 35.4717C65.0759 33.6647 65.3049 31.2687 64.9559 28.2947C64.6069 25.2177 63.7379 22.7187 62.3599 20.8187C60.9819 18.9087 59.3649 18.0107 57.5079 18.1037ZM72.9819 23.9617C72.9819 23.4347 72.8719 22.8567 72.6419 22.2267C72.4219 21.5967 72.1929 21.1217 71.9729 20.7807L71.6329 20.2337L77.6829 18.1477V22.4737L77.8029 21.9777C77.8529 21.7817 77.9929 21.4097 78.2319 20.8627C78.4709 20.3157 78.7509 19.8407 79.0709 19.4167C79.3899 19.0037 79.8599 18.6117 80.4689 18.2497C81.0965 17.8793 81.8074 17.6732 82.5359 17.6507C83.6539 17.5887 84.6319 17.6717 85.4709 17.9187C86.2999 18.1667 86.9189 18.4967 87.3179 18.9097C87.7169 19.3227 88.0359 19.7457 88.2759 20.1797C88.5159 20.6137 88.6559 20.9747 88.6849 21.2747L88.7349 21.7187H83.8829C83.8829 21.6567 83.8629 21.5637 83.8329 21.4507C83.7718 21.2467 83.6983 21.0467 83.6129 20.8517C83.5145 20.5911 83.3766 20.3472 83.2039 20.1287C83.0439 19.9327 82.8049 19.7467 82.4849 19.5817C82.1649 19.4167 81.8159 19.3547 81.4269 19.3857C80.2789 19.4477 79.3609 20.4387 78.6919 22.3387C78.0229 24.2487 77.6839 26.4067 77.6839 28.8237V35.7317C77.6839 36.2587 77.8039 36.8367 78.0429 37.4457C78.2819 38.0547 78.5319 38.5507 78.7919 38.9117L79.1319 39.4587H71.6339C72.5319 38.1367 72.9819 36.8877 72.9819 35.7307V23.9617ZM108.463 26.4557H92.9389V26.6517C92.9389 28.8407 93.2179 30.7097 93.7769 32.2687C94.3359 33.8277 95.0649 34.9737 95.9639 35.6967C96.8619 36.4297 97.8509 36.9357 98.9389 37.2147C100.027 37.4937 101.106 37.5347 102.154 37.3177C103.212 37.1007 104.18 36.7597 105.058 36.2957C105.936 35.8317 106.636 35.2737 107.145 34.6027L107.864 35.0467C107.776 35.2208 107.672 35.3867 107.555 35.5427C107.416 35.7397 107.085 36.0897 106.566 36.5857C106.044 37.0901 105.472 37.5397 104.859 37.9277C104.23 38.3297 103.401 38.6817 102.363 38.9917C101.294 39.3095 100.184 39.4695 99.0689 39.4667C95.8339 39.4667 93.1789 38.4757 91.0919 36.4827C89.0059 34.4997 87.9869 31.6607 88.0169 27.9847C88.0469 24.7737 89.0859 22.1297 91.1419 20.0547C93.1889 17.9897 95.7539 16.9467 98.8289 16.9467C101.425 16.9467 103.671 17.7207 105.578 19.2597C107.485 20.7987 108.433 22.8837 108.433 25.4967V26.4567H108.463V26.4557ZM98.3699 17.8537C96.9919 17.8537 95.7949 18.5767 94.7669 20.0117C93.7379 21.4577 93.1499 23.2847 92.9899 25.5047H103.612C103.612 23.1817 103.133 21.3327 102.174 19.9387C101.206 18.5547 99.9379 17.8527 98.3709 17.8527L98.3699 17.8537ZM120.522 12.7847C120.522 12.2577 120.413 11.6797 120.183 11.0497C119.963 10.4197 119.734 9.92369 119.514 9.56269L119.175 9.01569L125.225 6.92969V35.7497C125.225 36.2767 125.334 36.8547 125.564 37.4637C125.784 38.0727 126.014 38.5687 126.233 38.9297L126.573 39.4767H119.175C120.073 38.1547 120.522 36.9057 120.522 35.7487V12.7847ZM111.059 16.0967C111.059 15.5697 110.949 14.9917 110.719 14.3617C110.5 13.7317 110.27 13.2367 110.05 12.8747L109.711 12.3277L115.761 10.2417V35.7567C115.761 36.2837 115.871 36.8617 116.101 37.4707C116.32 38.0797 116.55 38.5757 116.769 38.9367L117.109 39.4837H109.711C110.609 38.1617 111.059 36.9127 111.059 35.7557V16.0967Z" fill="#F7F6F0"/>
</svg>
