<svg xmlns="http://www.w3.org/2000/svg" width="256" zoomAndPan="magnify" viewBox="0 0 192 192" height="256" preserveAspectRatio="xMidYMid meet" xmlns:v="https://vecta.io/nano"><defs><clipPath id="A"><path d="M173.398 69.836h6.75v6.75h-6.75zm0 0" clip-rule="nonzero"/></clipPath><clipPath id="B"><path d="M174.918 71.355h3.711v1.469h-3.711zm0 1.469h2.699v.773h-2.699zm0 .773h3.711v1.469h-3.711zm0 0" clip-rule="nonzero"/></clipPath></defs><path fill="#fff" d="M-19.2-19.2h230.4v230.4H-19.2z"/><path d="M-19.2-19.2h230.4v230.4H-19.2z"/><g clip-path="url(#A)"><path fill="none" d="M179.762 73.211c0 .395-.078.777-.23 1.145s-.367.688-.645.969a3.06 3.06 0 0 1-.969.648c-.367.148-.75.227-1.145.227s-.777-.078-1.145-.227a3.06 3.06 0 0 1-1.617-1.617c-.148-.367-.227-.75-.227-1.145s.078-.777.227-1.145a3.06 3.06 0 0 1 .648-.969c.281-.277.605-.496.969-.645s.75-.23 1.145-.23.777.078 1.145.23.688.367.969.645.496.605.645.969.23.75.23 1.145zm0 0" stroke="#000" stroke-width=".776"/></g><g clip-path="url(#B)"><path fill="none" d="M178.207 73.211a1.4 1.4 0 0 1-.109.551c-.07.176-.176.328-.309.465a1.44 1.44 0 0 1-.469.309 1.38 1.38 0 0 1-.547.109 1.4 1.4 0 0 1-.551-.109c-.176-.07-.328-.176-.465-.309s-.238-.289-.309-.465a1.4 1.4 0 0 1-.109-.551 1.38 1.38 0 0 1 .109-.547 1.44 1.44 0 0 1 .309-.469c.137-.133.289-.238.465-.309a1.4 1.4 0 0 1 .551-.109 1.38 1.38 0 0 1 .547.109 1.44 1.44 0 0 1 .777.777 1.38 1.38 0 0 1 .109.547zm0 0" stroke="#000" stroke-width=".776"/></g><path d="M124.457 200.715H-10.398V-12.352h213.066v213.066h-78.211M75.82 38.609a40.81 40.81 0 0 0-5.434 1.098c-16.754 4.621-29.09 19.426-30.047 37.344-.23 4.348.172 8.648 1.367 12.84 3.328 11.719 10.445 20.359 21.25 25.949 3.684 1.906 7.613 3.113 11.707 3.781 1.863.305 3.742.461 5.633.508 1.141.031 2.27-.008 3.387-.262 5.59-1.281 9.555-6.715 8.383-12.859-1.051-5.5-5.895-8.961-10.766-8.941a18.02 18.02 0 0 1-3.008-.234c-4.832-.797-8.809-3.105-11.852-6.941-2.609-3.289-3.969-7.062-4.055-11.27-.07-3.402.254-6.773.945-10.105 2.047-9.855 6.672-18.305 13.875-25.344 2.039-1.988 4.285-3.723 6.574-5.41.184-.137.359-.285.617-.492-2.906-.047-5.699-.039-8.578.34m44.742 30.652a40.65 40.65 0 0 0-8.43-1.086c-1.047-.027-2.09-.031-3.121.199-4.344.98-7.293 3.582-8.484 7.859-1.195 4.301-.051 8.094 3.223 11.156 2.066 1.93 4.586 2.816 7.41 2.867.859.012 1.727.039 2.574.164 4.598.676 8.473 2.734 11.543 6.227 2.926 3.324 4.516 7.219 4.684 11.645.145 3.789-.27 7.539-1.094 11.238-2.141 9.637-6.777 17.879-13.863 24.75-2.043 1.984-4.305 3.699-6.586 5.395-.121.09-.23.195-.434.367h2.918c2.977.008 5.926-.27 8.836-.906 7.906-1.727 14.742-5.43 20.426-11.18 6.961-7.039 10.871-15.531 11.762-25.391.379-4.152.121-8.281-.832-12.344-2.777-11.844-9.488-20.777-19.996-26.863-3.266-1.891-6.777-3.203-10.535-4.098m31.504-29.207v-1.797h-.684c-13.434 0-26.871-.004-40.305 0a40.27 40.27 0 0 0-6.785.566 40.83 40.83 0 0 0-13.656 4.93c-12.371 7.133-20.16 20.305-20.418 34.57-.02.949-.004 1.918.16 2.848 1.023 5.813 6.488 9.766 12.348 8.977 5.395-.723 9.492-5.375 9.539-10.812.004-.699.027-1.398.105-2.086.543-4.785 2.57-8.832 6.148-12.055 3.484-3.137 7.594-4.797 12.293-4.832l20.18-.016c2.309-.004 4.559-.359 6.75-1.094 7.965-2.668 13.949-10.07 14.324-19.199M44.379 136.531c-2.93 4.023-4.262 8.523-4.066 13.512h.543 40.418c1.91 0 3.813-.121 5.699-.391 4.566-.652 8.926-1.992 13.008-4.156 9.949-5.27 16.719-13.258 20.262-23.949 1.117-3.375 1.715-6.855 1.875-10.406.051-1.184.07-2.391-.078-3.562a10.96 10.96 0 0 0-12.836-9.34c-5.234.902-9.008 5.391-9.098 10.68-.023 1.414-.129 2.816-.437 4.203-1.961 8.754-9.578 14.852-18.559 14.852H61.422c-1.211 0-2.418.063-3.613.277-5.527 1-9.984 3.746-13.43 8.281zm0 0"/><g fill="#fff"><path d="M75.867 38.602c2.832-.371 5.625-.379 8.531-.332l-.617.492c-2.289 1.688-4.535 3.422-6.574 5.41-7.203 7.039-11.828 15.488-13.875 25.344-.691 3.332-1.016 6.703-.945 10.105.086 4.207 1.445 7.98 4.055 11.27 3.043 3.836 7.02 6.145 11.852 6.941a18.02 18.02 0 0 0 3.008.234c4.871-.02 9.715 3.441 10.766 8.941 1.172 6.145-2.793 11.578-8.383 12.859-1.117.254-2.246.293-3.387.262-1.891-.047-3.77-.203-5.633-.508-4.094-.668-8.023-1.875-11.707-3.781-10.805-5.59-17.922-14.23-21.25-25.949-1.195-4.191-1.598-8.492-1.367-12.84.957-17.918 13.293-32.723 30.047-37.344 1.785-.492 3.598-.852 5.48-1.105zm44.742 30.664c3.711.891 7.223 2.203 10.488 4.094 10.508 6.086 17.219 15.02 19.996 26.863.953 4.063 1.211 8.191.832 12.344-.891 9.859-4.801 18.352-11.762 25.391-5.684 5.75-12.52 9.453-20.426 11.18-2.91.637-5.859.914-8.836.906h-2.918c.203-.172.313-.277.434-.367 2.281-1.695 4.543-3.41 6.586-5.395 7.086-6.871 11.723-15.113 13.863-24.75.824-3.699 1.238-7.449 1.094-11.238-.168-4.426-1.758-8.32-4.684-11.645-3.07-3.492-6.945-5.551-11.543-6.227-.848-.125-1.715-.152-2.574-.164-2.824-.051-5.344-.937-7.41-2.867-3.273-3.062-4.418-6.855-3.223-11.156 1.191-4.277 4.141-6.879 8.484-7.859 1.031-.23 2.074-.227 3.121-.199 2.844.074 5.656.422 8.477 1.09zm0 0"/><path d="M152.063 40.105c-.371 9.078-6.355 16.48-14.32 19.148-2.191.734-4.441 1.09-6.75 1.094-6.727 0-13.453-.031-20.18.016-4.699.035-8.809 1.695-12.293 4.832-3.578 3.223-5.605 7.27-6.148 12.055-.078.688-.102 1.387-.105 2.086-.047 5.438-4.145 10.09-9.539 10.813-5.859.789-11.324-3.164-12.348-8.977-.164-.93-.18-1.898-.16-2.848.258-14.266 8.047-27.437 20.418-34.57a40.83 40.83 0 0 1 13.656-4.93 40.27 40.27 0 0 1 6.785-.566h40.305.684l-.004 1.848zM44.402 136.5c3.422-4.504 7.879-7.25 13.406-8.25 1.195-.215 2.402-.277 3.613-.277h19.688c8.98 0 16.598-6.098 18.559-14.852.309-1.387.414-2.789.438-4.203.09-5.289 3.863-9.777 9.098-10.68a10.96 10.96 0 0 1 12.836 9.34c.148 1.172.129 2.379.078 3.563-.16 3.551-.758 7.031-1.875 10.406-3.543 10.691-10.312 18.68-20.262 23.949-4.082 2.164-8.441 3.504-13.008 4.156-1.887.27-3.789.391-5.699.391H40.855h-.543c-.195-4.988 1.137-9.488 4.09-13.543zm0 0"/></g></svg>