<svg width="32" height="32" viewBox="0 0 32 32" fill="none" xmlns="http://www.w3.org/2000/svg">
<rect width="32" height="32" rx="1" fill="black"/>
<path d="M12.0031 5.06947C12.5601 4.99632 13.11 4.99494 13.6821 5.00372C13.6309 5.04455 13.5964 5.07387 13.5602 5.10066C13.1102 5.43274 12.6678 5.7738 12.2667 6.16555C10.8491 7.55024 9.93907 9.2132 9.5366 11.1526C9.40067 11.8076 9.33673 12.4711 9.35044 13.1406C9.36739 13.9688 9.6348 14.7109 10.1482 15.3584C10.747 16.1134 11.5296 16.5674 12.48 16.7243C12.6748 16.7565 12.8748 16.7711 13.0723 16.7703C14.0309 16.7664 14.9842 17.4478 15.1904 18.53C15.4208 19.7389 14.6407 20.8077 13.5409 21.0598C13.3215 21.1101 13.0992 21.1174 12.8747 21.1117C12.5028 21.1023 12.133 21.0719 11.7661 21.0119C10.9611 20.8803 10.1879 20.643 9.46294 20.2679C7.33655 19.1678 5.93633 17.4671 5.28102 15.1619C5.04636 14.3364 4.96667 13.4904 5.01227 12.6348C5.20017 9.10928 7.6283 6.19629 10.9246 5.28669C11.2756 5.18982 11.6324 5.11924 12.0031 5.06947Z" fill="white"/>
<path d="M20.7999 11.1034C21.5307 11.2784 22.2212 11.5366 22.8638 11.9087C24.9317 13.106 26.2523 14.8644 26.7989 17.1946C26.9865 17.9942 27.0369 18.8066 26.9629 19.6236C26.7871 21.5635 26.0177 23.2348 24.6484 24.6198C23.5301 25.751 22.1846 26.4801 20.6293 26.8194C20.0563 26.9444 19.4762 26.9994 18.8903 26.998C18.7072 26.9975 18.524 26.9979 18.3162 26.9979C18.3562 26.9636 18.3776 26.943 18.4012 26.9254C18.85 26.5919 19.2951 26.2542 19.6976 25.8639C21.0917 24.5121 22.0037 22.8901 22.4253 20.9941C22.5871 20.266 22.6686 19.5281 22.6402 18.7824C22.607 17.9116 22.2942 17.1452 21.7191 16.4915C21.1146 15.8043 20.3521 15.3993 19.4475 15.2661C19.2805 15.2416 19.1099 15.2364 18.9407 15.2334C18.3849 15.2237 17.8893 15.0497 17.4827 14.6696C16.8385 14.0673 16.6132 13.3204 16.8489 12.4744C17.0834 11.6323 17.6632 11.1211 18.5184 10.928C18.7209 10.8823 18.9265 10.8831 19.1321 10.8885C19.6923 10.9032 20.2457 10.9714 20.7999 11.1034Z" fill="white"/>
<path d="M26.9967 5.3657C26.9239 7.15153 25.7463 8.60795 24.1785 9.13332C23.7477 9.27768 23.305 9.34803 22.8508 9.34814C21.5271 9.34848 20.2034 9.34236 18.8798 9.35177C17.9555 9.35834 17.1462 9.68542 16.4607 10.3026C15.7566 10.9366 15.3576 11.733 15.2508 12.6742C15.2354 12.81 15.2314 12.9476 15.2302 13.0845C15.2209 14.1547 14.4146 15.0701 13.3536 15.2127C12.2001 15.3677 11.1246 14.5898 10.9236 13.4462C10.8915 13.2632 10.8883 13.0728 10.8917 12.8861C10.9427 10.0784 12.4754 7.48721 14.9095 6.08332C15.7479 5.59973 16.6435 5.27555 17.597 5.11339C18.0383 5.03833 18.4838 5.0015 18.9319 5.00149C21.5756 5.00145 24.2194 5.00147 26.8631 5.00147C26.9055 5.00147 26.9479 5.00147 26.9972 5.00147C26.9972 5.12624 26.9972 5.24071 26.9967 5.3657Z" fill="white"/>
<path d="M5.80861 24.3324C6.48176 23.4462 7.35938 22.906 8.44704 22.7096C8.68165 22.6672 8.91926 22.6545 9.15781 22.6546C10.4491 22.6555 11.7404 22.6551 13.0317 22.655C14.7984 22.6549 16.2976 21.4548 16.6831 19.7321C16.744 19.46 16.7651 19.1837 16.7698 18.9056C16.7872 17.865 17.5295 16.9819 18.5598 16.8039C19.8497 16.581 20.9373 17.4885 21.0854 18.6416C21.115 18.8724 21.111 19.1097 21.1006 19.343C21.0695 20.0412 20.9519 20.7265 20.732 21.3901C20.035 23.4943 18.703 25.0659 16.7449 26.1033C15.9419 26.5288 15.0842 26.7922 14.1854 26.9206C13.8138 26.9737 13.4396 26.9978 13.0641 26.9978C10.413 26.9977 7.76189 26.9977 5.1108 26.9977C5.0786 26.9977 5.04641 26.9977 5.00362 26.9977C4.9655 26.0158 5.2278 25.1305 5.80861 24.3324Z" fill="white"/>
</svg>
