<svg width="143" height="48" viewBox="0 0 143 48" fill="none" xmlns="http://www.w3.org/2000/svg">
<path d="M133.001 22.2097C132.943 22.2451 132.878 22.2664 132.81 22.2717L124.705 22.2727C124.684 22.2727 124.663 22.2657 124.63 22.2607V9.80469H128.392V19.9047H128.65L132.725 19.9057C132.805 19.9057 132.885 19.9257 132.983 19.9437C133.001 20.0321 133.001 20.1233 132.983 20.2117L132.958 21.9567C132.958 21.9857 132.986 22.0157 133.001 22.0447V22.2097ZM133.001 27.8977L129.592 27.9187V37.3347H126.038V27.9247H122.672V25.6857H132.98L133.001 27.8967V27.8977Z" fill="white"/>
<path d="M32.2071 46.6891C31.8921 46.6261 31.5881 46.5911 31.3061 46.4951L29.9391 45.9571C29.2611 45.6871 28.5661 45.6051 27.8331 45.6731C27.2851 45.7251 26.7901 45.8981 26.2921 46.0981C26.2191 46.1271 26.1231 46.1581 26.0551 46.1361L23.9141 45.3921L23.9241 45.3251L24.6501 45.2241C24.8871 45.1701 25.1201 45.0871 25.3481 44.9981L26.4821 44.5341C27.3341 44.2321 28.2141 44.2391 29.1041 44.3111C29.8891 44.3741 30.5741 44.7111 31.2821 45.0011C31.9711 45.2831 32.6841 45.3571 33.4331 45.2901C34.2001 45.2221 34.8521 44.8661 35.5411 44.5961C36.0451 44.3981 36.5711 44.2971 37.1101 44.2761C37.9461 44.2441 38.7771 44.2691 39.5681 44.5911L40.6821 45.0461C41.0031 45.1531 41.3441 45.2031 41.6761 45.2751C41.7691 45.2951 41.8641 45.3071 41.9681 45.3621L41.0661 45.7271L40.1211 46.0581C39.8501 46.1781 39.6171 46.1401 39.3661 46.0181C38.7041 45.6941 37.9911 45.6051 37.2681 45.6461C36.6781 45.6801 36.1131 45.8401 35.5781 46.1021C34.9871 46.3931 34.3711 46.6081 33.6981 46.6701L32.2071 46.6871V46.6891Z" fill="white"/>
<path d="M34.351 1L34.764 1.046L35.173 1.099L33.531 8.11H32.2L30.556 1.095L31.445 1.016L34.351 1ZM10 21.38L10.136 20.798L10.736 17.897C10.745 17.855 10.777 17.818 10.809 17.759L17.409 20.587L17.24 21.64C17.208 21.852 17.07 21.906 16.883 21.913L16.071 21.957L14.826 22.004L12.275 22.141L10.855 22.23L10.022 22.276C10.001 22.093 10.001 21.909 10.015 21.696C10.02 21.596 10.01 21.526 10.001 21.456V21.38H10ZM10 25.711L12.097 25.825L12.932 25.871L14.246 25.919L16.684 26.057C16.847 26.067 17.009 26.1 17.171 26.122L17.376 27.203C17.401 27.336 17.366 27.412 17.218 27.474L14.521 28.623L11.452 29.933L10.724 30.25L10.23 27.781L10.088 26.757C10.083 26.723 10.052 26.694 10.017 26.655C10.001 26.627 10.001 26.607 10.014 26.564C10.019 26.486 10.009 26.43 10 26.374V25.711Z" fill="white"/>
<path d="M133 22.0196C132.985 22.0116 132.957 21.9816 132.957 21.9526L132.982 20.2266L133 22.0196ZM10 21.4696C10.009 21.5206 10.019 21.5906 10.014 21.6696C10 21.6146 10 21.5516 10 21.4696ZM10 26.3916C10.0127 26.4425 10.0174 26.4952 10.014 26.5476C10 26.5066 10 26.4576 10 26.3916Z" fill="white"/>
<path d="M41.6939 34.6086L41.6329 34.6676C41.2959 34.9986 41.2749 35.0086 40.8499 34.8046C40.1349 34.4606 39.3969 34.1716 38.6079 34.0906C38.0189 34.0306 37.4189 34.0606 36.8249 34.0766C36.1959 34.0936 35.5949 34.2576 35.0129 34.4876L33.8859 34.9446C33.1199 35.1766 32.3539 35.1536 31.6179 34.8126C30.8719 34.4676 30.1079 34.1736 29.2879 34.0796C27.9569 33.9286 26.6579 34.0516 25.4259 34.6236C25.3169 34.6746 25.1939 34.7026 25.0969 34.7706C24.7659 35.0016 24.4919 34.9116 24.2239 34.6576L22.9989 33.5126C22.2039 32.6756 21.4869 31.7716 20.9599 30.7416C20.5665 29.9891 20.2185 29.2137 19.9179 28.4196C19.5809 27.5056 19.3509 26.5526 19.2929 25.5726L19.2109 23.2646C19.2469 22.2756 19.4149 21.2976 19.6849 20.3406C19.9289 19.4776 20.2389 18.6396 20.6439 17.8396C21.1419 16.8566 21.7329 15.9346 22.4669 15.1086L23.2869 14.2036C24.1399 13.3816 25.0709 12.6576 26.1049 12.0716C27.2439 11.4256 28.4429 10.9286 29.7199 10.6406C30.3399 10.5006 30.9739 10.4166 31.6049 10.3416C32.0979 10.2826 32.5979 10.2386 33.0929 10.2526C34.3569 10.2876 35.6059 10.4466 36.8229 10.8096C37.6689 11.0616 38.4859 11.3806 39.2679 11.7886C40.1229 12.2346 40.9399 12.7436 41.6669 13.3806L43.1029 14.7316C43.8459 15.5326 44.5069 16.4046 44.9929 17.3876L45.9759 19.6116C46.2949 20.4696 46.5019 21.3636 46.5779 22.2806L46.7049 24.1946C46.6829 25.4366 46.5089 26.6616 46.1559 27.8576C45.8949 28.7406 45.5609 29.5926 45.1269 30.4046C44.6899 31.2216 44.2029 32.0086 43.5889 32.7046L42.2089 34.1766C42.0579 34.3326 41.8759 34.4566 41.6949 34.6066L41.6939 34.6086Z" fill="white"/>
<path d="M98.6026 20.903V9.79897L98.8056 9.78796L104.726 9.79596C105.737 9.81096 106.687 10.098 107.456 10.794C107.876 11.174 108.106 11.668 108.178 12.249C108.246 12.7794 108.164 13.3184 107.94 13.804C107.764 14.195 107.512 14.537 107.168 14.795L106.127 15.519C107.064 15.649 107.963 16.003 108.573 16.873C108.839 17.252 108.942 17.692 109.002 18.158C109.071 18.693 108.991 19.199 108.837 19.692C108.603 20.439 108.09 20.985 107.441 21.401C106.774 21.828 106.042 22.091 105.254 22.174L103.773 22.265L98.8776 22.269H98.6026V20.903ZM103.848 20.172C104.781 19.837 105.246 19.207 105.21 18.245C105.18 17.462 104.74 17.04 104.075 16.85C103.514 16.6876 102.922 16.6616 102.349 16.774V20.314L103.848 20.172ZM104.705 13.849L104.825 13.382C104.906 13.06 104.735 12.39 104.436 12.184C103.787 11.736 103.077 11.724 102.345 11.894V14.754C102.48 14.769 102.611 14.797 102.741 14.795C102.927 14.792 103.114 14.774 103.299 14.752C103.899 14.681 104.396 14.443 104.705 13.849ZM87.2756 10.443C87.8976 10.109 88.5396 9.86897 89.2166 9.75897C89.8666 9.65297 90.5226 9.62496 91.1876 9.69396C91.9016 9.76796 92.5816 9.93496 93.2206 10.253C94.0756 10.679 94.7626 11.303 95.3256 12.075C95.9046 12.869 96.2756 13.754 96.4526 14.711C96.5916 15.466 96.5896 16.232 96.5126 17C96.4326 17.794 96.2336 18.553 95.8676 19.258C95.2326 20.484 94.3206 21.45 93.0586 22.043C92.4076 22.349 91.7166 22.532 90.9886 22.553L90.2026 22.594C88.8106 22.54 87.5136 22.182 86.4266 21.277C85.5036 20.508 84.8456 19.544 84.4786 18.389C84.3076 17.851 84.1806 17.307 84.1606 16.74L84.1206 15.612C84.1796 14.374 84.5456 13.239 85.2946 12.237C85.8315 11.5159 86.5046 10.9071 87.2756 10.445V10.443ZM92.3386 18.267L92.5766 16.576C92.6026 15.986 92.5406 15.391 92.4946 14.8C92.4544 14.2996 92.3125 13.8126 92.0776 13.369C91.6326 12.52 90.8206 12.15 89.8836 12.373C89.0816 12.564 88.6736 13.13 88.4026 13.828C88.0906 14.634 88.0506 15.481 88.0706 16.339C88.0856 16.976 88.1376 17.603 88.3076 18.217C88.5746 19.184 89.2326 20.009 90.4566 19.959C91.5276 19.915 92.0796 19.209 92.3386 18.267ZM92.9666 26.634C93.3115 26.9222 93.574 27.2965 93.7276 27.719C93.9036 28.177 93.9866 28.656 93.9496 29.139C93.8436 30.506 93.2336 31.562 91.9856 32.202C91.9336 32.228 91.8776 32.246 91.7986 32.279L94.5376 37.202L93.6026 37.304L92.0506 37.482L90.9106 37.572C90.8739 37.5692 90.8384 37.5577 90.8071 37.5384C90.7758 37.5191 90.7496 37.4925 90.7306 37.461L88.9796 32.996C88.9236 32.854 88.8476 32.771 88.6696 32.79C88.4526 32.812 88.2326 32.795 87.9936 32.795V37.338H84.4456V25.688H84.6466L90.5446 25.699C91.4396 25.715 92.2746 25.994 92.9656 26.635L92.9666 26.634ZM90.1706 28.12L89.9246 27.974C89.3366 27.693 88.7196 27.764 88.1056 27.842C88.0606 27.848 87.9936 27.942 87.9926 27.995L87.9876 30.883L88.4096 30.931C88.9116 31.036 89.3876 30.931 89.8196 30.697C90.3016 30.436 90.5356 29.978 90.5786 29.441C90.6166 28.967 90.5886 28.498 90.1696 28.121L90.1706 28.12ZM63.0236 20.772C62.3646 20.19 61.8226 19.535 61.4626 18.739C61.2056 18.171 61.0216 17.581 60.9776 16.959C60.9406 16.44 60.8956 15.915 60.9376 15.4C61.0216 14.36 61.3746 13.407 62.0056 12.564C62.6746 11.671 63.5326 11.005 64.5206 10.509C65.2676 10.134 66.0586 9.86896 66.8966 9.79796L68.9696 9.71296C69.4669 9.72965 69.9612 9.79733 70.4446 9.91497C70.7886 9.99397 71.1096 10.177 71.4576 10.321L70.9486 11.538L70.5776 12.409C70.5356 12.502 70.5106 12.581 70.3366 12.549C69.7386 12.439 69.1316 12.308 68.5296 12.314C67.2886 12.326 66.2446 12.822 65.5146 13.852C65.1636 14.347 64.9596 14.916 64.8886 15.531C64.7896 16.389 64.8456 17.223 65.1626 18.034C65.2989 18.3953 65.509 18.7243 65.7795 18.9999C66.05 19.2756 66.3749 19.4919 66.7336 19.635C67.3166 19.884 67.9256 19.942 68.5696 19.897V16.688H72.3636V16.897L72.3616 19.493L72.3126 21.828C72.3106 21.887 72.2446 21.983 72.1926 21.996L70.2136 22.451C69.3076 22.617 68.3846 22.65 67.4696 22.586C66.0866 22.488 64.8026 22.051 63.6486 21.269C63.4336 21.123 63.2436 20.941 63.0256 20.773L63.0236 20.772ZM113.135 14.663L114.514 11.261L115.067 9.94196C115.097 9.87296 115.203 9.79496 115.274 9.79496L118.299 9.78796L123.067 22.27H121.416C120.679 22.27 119.943 22.267 119.206 22.273C119.069 22.274 119.006 22.243 118.959 22.094L118.103 19.478C118.071 19.38 118.052 19.306 117.92 19.306L114.212 19.309L113.039 22.211C113.02 22.258 112.945 22.311 112.896 22.311L110.01 22.315L113.135 14.663ZM117.096 16.151L116.226 13.54L114.855 17.299H117.45L117.096 16.151ZM79.5496 33.59C79.7806 30.956 79.5686 28.334 79.6726 25.7H82.7036V25.91L82.6946 32.788C82.6836 33.715 82.5276 34.627 82.0706 35.463C81.7366 36.073 81.2756 36.551 80.6746 36.896C80.0586 37.25 79.3976 37.467 78.6896 37.526L77.2306 37.61C76.1726 37.566 75.1456 37.391 74.2466 36.758C73.8495 36.4836 73.5115 36.1325 73.2525 35.7252C72.9935 35.318 72.8187 34.8629 72.7386 34.387C72.6276 33.795 72.6006 33.181 72.5966 32.577L72.5906 25.949V25.694H76.1436V25.947L76.1476 33.099C76.1496 33.559 76.2316 34.009 76.4596 34.423C76.5587 34.6151 76.7053 34.7788 76.8853 34.8985C77.0654 35.0182 77.2731 35.09 77.4886 35.107C78.0156 35.159 78.5226 35.09 78.9516 34.713C79.2746 34.429 79.4166 34.065 79.5166 33.669C79.5216 33.648 79.5326 33.628 79.5506 33.591L79.5496 33.59ZM105.436 26.875V25.704H108.944V25.945L108.953 33.118C108.958 33.715 109.037 34.339 109.537 34.763C109.739 34.935 110.02 35.069 110.281 35.106C110.822 35.182 111.362 35.111 111.783 34.71C112.1 34.4052 112.302 34.0004 112.355 33.564C112.412 33.149 112.442 32.7308 112.447 32.312L112.451 25.959V25.702H115.504V25.95L115.493 32.918C115.478 33.952 115.264 34.953 114.645 35.833C114.127 36.569 113.437 37.058 112.586 37.296C112.07 37.44 111.529 37.503 110.996 37.575C110.677 37.618 110.349 37.636 110.028 37.621C109.16 37.579 108.308 37.452 107.519 37.049C106.475 36.515 105.849 35.655 105.581 34.536C105.483 34.127 105.445 33.696 105.442 33.274L105.436 26.875ZM65.9386 32.565V31.138C66.2966 31.019 66.6406 30.938 66.9546 30.791C67.5096 30.532 67.8046 30.075 67.9056 29.464C67.9796 29.019 67.9146 28.64 67.5916 28.32C67.3656 28.096 67.0656 28.027 66.7726 27.969C66.2846 27.872 65.7956 27.907 65.3036 28.029V37.335H61.7626V25.698L61.9506 25.688L67.9166 25.699C68.7817 25.7115 69.6158 26.0227 70.2776 26.58C71.0396 27.208 71.3496 28.019 71.3636 28.981C71.3756 29.85 71.2076 30.657 70.6736 31.367C70.1236 32.098 69.3806 32.539 68.5226 32.787C68.0576 32.921 67.5726 32.996 67.0916 33.063C66.7216 33.115 66.3436 33.113 65.9406 33.136V32.567L65.9386 32.565ZM103.307 36.139C102.889 36.699 102.342 37.057 101.719 37.308C101.152 37.537 100.562 37.634 99.9496 37.682C98.6804 37.7929 97.4061 37.5364 96.2786 36.943C96.2066 36.906 96.1406 36.857 96.0726 36.813C95.7056 36.573 95.7176 36.579 95.9436 36.203L96.7006 34.857C96.7316 34.801 96.7386 34.733 96.7646 34.643L97.2906 34.967C97.8396 35.242 98.3966 35.515 99.0316 35.482C99.5186 35.456 99.9706 35.297 100.145 34.791C100.289 34.369 100.213 33.942 99.9706 33.555C99.6166 32.986 99.1176 32.56 98.6066 32.142L97.8326 31.458L96.8616 30.436C96.5016 29.992 96.3426 29.46 96.2676 28.891C96.2151 28.4784 96.2515 28.0593 96.3746 27.662C96.5676 27.019 97.0066 26.563 97.5856 26.243C98.2616 25.87 98.9926 25.716 99.7606 25.638C100.938 25.517 102.023 25.798 103.086 26.245L103.383 26.38L102.43 28.284C101.827 27.918 101.178 27.795 100.493 27.836C100.115 27.859 99.8436 28.038 99.7766 28.38C99.7456 28.541 99.7826 28.768 99.8816 28.892C100.148 29.2225 100.439 29.5324 100.753 29.819L102.035 30.938C102.469 31.357 102.894 31.794 103.268 32.266C103.655 32.757 103.872 33.3607 103.886 33.986C103.903 34.525 103.901 35.064 103.655 35.562C103.558 35.759 103.43 35.94 103.306 36.141L103.307 36.139ZM75.6416 9.78796H78.0026V19.893H82.5986V22.257H74.2426V9.78796H75.6416ZM16.4966 37.385C15.9776 37.572 15.4666 37.711 14.9266 37.719C14.7556 37.721 14.5846 37.756 14.4136 37.758C14.3486 37.759 14.2586 37.724 14.2236 37.675L13.2656 36.298L13.3026 36.247C13.4866 36.282 13.6706 36.34 13.8566 36.346C14.6576 36.375 15.4506 36.36 16.1956 35.989C16.8026 35.687 17.4346 35.43 18.1126 35.359C18.6086 35.308 19.1146 35.346 19.6166 35.346C20.5166 35.346 21.2976 35.748 22.0986 36.084C22.4976 36.251 22.9156 36.323 23.3476 36.354C24.2896 36.423 25.1496 36.173 25.9856 35.764C26.5116 35.507 27.0816 35.397 27.6706 35.338C28.5156 35.254 29.3396 35.314 30.1396 35.58C30.6466 35.748 31.1246 36.003 31.6296 36.176C32.2696 36.395 32.9326 36.372 33.6016 36.312C34.2456 36.254 34.7916 35.947 35.3676 35.712C35.8696 35.507 36.3856 35.362 36.9316 35.346L37.8996 35.307C38.5956 35.345 39.2866 35.454 39.9126 35.776C40.7966 36.231 41.7286 36.449 42.7126 36.337C43.1586 36.286 43.6076 36.15 44.0226 35.974C44.6476 35.709 45.2676 35.425 45.9456 35.358C46.4496 35.308 46.9626 35.34 47.4716 35.348C48.2986 35.36 49.0286 35.699 49.7636 36.027C50.2186 36.231 50.6996 36.358 51.2016 36.345L52.4316 36.259C52.4816 36.255 52.5326 36.265 52.6266 36.271L51.8566 37.434C51.6526 37.781 51.3886 37.81 51.0336 37.725C50.6606 37.636 50.2646 37.639 49.8956 37.541C49.5016 37.436 49.1166 37.28 48.7436 37.112C48.1886 36.862 47.6226 36.723 47.0086 36.705C46.1606 36.68 45.3886 36.884 44.6296 37.249C44.0376 37.534 43.3996 37.674 42.7316 37.728C41.8396 37.8 40.9826 37.705 40.1486 37.396L38.9026 36.899C37.8036 36.575 36.7206 36.615 35.6676 37.113C34.9576 37.449 34.2216 37.673 33.4216 37.728C32.3746 37.799 31.3736 37.679 30.4396 37.207C29.5776 36.771 28.6686 36.621 27.7306 36.729C27.2506 36.784 26.7716 36.955 26.3236 37.146C25.6316 37.44 24.9396 37.665 24.1806 37.727C23.0546 37.819 21.9966 37.64 20.9936 37.128C20.1716 36.709 19.2886 36.654 18.3976 36.724C17.8146 36.77 17.2806 37.025 16.7536 37.272L16.4966 37.385Z" fill="white"/>
<path d="M26.7844 38.4553C27.4974 38.2773 28.2074 38.2833 28.9134 38.3143C29.5814 38.3433 30.2184 38.5393 30.8154 38.8353C31.5544 39.2013 32.3274 39.3903 33.1504 39.3543C33.7824 39.3263 34.3834 39.1613 34.9524 38.8843C35.7167 38.5045 36.5579 38.3051 37.4114 38.3013C38.2064 38.2993 38.9804 38.3743 39.7214 38.6743L40.8514 39.1493C41.4384 39.3333 42.0424 39.3683 42.6664 39.3283C43.4084 39.2813 44.0334 38.9403 44.6944 38.6793C45.2744 38.4503 45.8744 38.3213 46.5014 38.3063C47.3174 38.2863 48.1224 38.3293 48.8904 38.6323L50.3984 39.2733L49.4134 40.3133C49.3764 40.3503 49.2384 40.3073 49.1574 40.2753L48.2304 39.8933C47.6124 39.6823 46.9804 39.6543 46.3274 39.7093C45.6374 39.7683 45.0514 40.0893 44.4224 40.3103C43.9774 40.4663 43.5154 40.5983 43.0504 40.6673C42.5984 40.7343 42.1314 40.7353 41.6724 40.7183C40.9734 40.6913 40.3094 40.4963 39.6814 40.1863C38.9294 39.8143 38.1364 39.6273 37.2974 39.6793C36.7374 39.7143 36.1884 39.8223 35.6864 40.0883C34.6184 40.6553 33.4704 40.8063 32.2864 40.7173C31.5544 40.6623 30.8614 40.4273 30.2054 40.0953C29.4974 39.7373 28.7364 39.6353 27.9584 39.6823C27.3524 39.7183 26.7804 39.9043 26.2314 40.1703C25.4844 40.5323 24.6974 40.7273 23.8574 40.7293C23.1024 40.7313 22.3604 40.6833 21.6504 40.4043L20.3924 39.8913C19.7914 39.6843 19.1734 39.6543 18.5344 39.7073C17.8894 39.7603 17.3254 40.0033 16.7584 40.2653C16.5904 40.3433 16.4584 40.3653 16.3174 40.1933L15.4844 39.2533L16.1084 39.0123L17.6954 38.4343C18.3904 38.2413 19.1094 38.2923 19.8244 38.3443C20.6554 38.4053 21.3754 38.7863 22.1274 39.0823C22.7624 39.3313 23.4224 39.3733 24.1074 39.3303C24.8724 39.2833 25.5164 38.9273 26.1994 38.6623L26.7844 38.4573V38.4553Z" fill="white"/>
<path d="M36.2097 41.4091L37.8587 41.2821C38.6007 41.2911 39.3337 41.4331 39.9977 41.7831C40.8637 42.2391 41.7797 42.3881 42.7397 42.3171C43.3207 42.2741 43.8517 42.0491 44.3747 41.8111C44.9649 41.5411 45.5958 41.3708 46.2417 41.3071C46.9097 41.2391 47.5557 41.3081 48.2627 41.4251L47.2227 42.2741C47.1537 42.3311 47.0797 42.3841 47.0187 42.4501C46.7767 42.7131 46.4357 42.6511 46.1367 42.7331L44.7777 43.1621C44.1337 43.4341 43.4867 43.6331 42.7827 43.6981C41.9588 43.7765 41.1275 43.6911 40.3367 43.4471C39.9047 43.3141 39.5077 43.0651 39.0777 42.9221C38.7177 42.8021 38.3347 42.7201 37.9567 42.6931C37.3227 42.6471 36.6857 42.6661 36.0817 42.9121L34.6947 43.4701C34.3327 43.5861 33.9457 43.6301 33.5657 43.6811C33.283 43.7218 32.9971 43.7369 32.7117 43.7261C31.9697 43.6901 31.2397 43.5811 30.5687 43.2331C29.6989 42.7797 28.7157 42.59 27.7397 42.6871C27.2307 42.7331 26.7547 42.9141 26.2927 43.1301C25.6337 43.4381 24.9537 43.6401 24.2157 43.6981C23.3997 43.7621 22.6087 43.7011 21.8377 43.4511C21.3997 43.3091 20.9897 43.0811 20.5547 42.9291C20.2307 42.8161 19.8887 42.7191 19.5487 42.6971C19.2982 42.69 19.0583 42.5943 18.8717 42.4271L17.7467 41.5161C17.7257 41.4991 17.7147 41.4711 17.6797 41.4201C18.3197 41.3051 18.9287 41.2421 19.5607 41.3011C20.1417 41.3561 20.6977 41.4711 21.2377 41.6811L22.5067 42.1791C23.0997 42.3751 23.7147 42.3381 24.3287 42.2851C25.0147 42.2261 25.5967 41.8781 26.2177 41.6371C26.6797 41.4581 27.1557 41.3281 27.6577 41.3141L28.4437 41.2731C29.2887 41.2901 30.1097 41.4471 30.8607 41.8411C31.6987 42.2801 32.5917 42.3951 33.5057 42.3031C33.9507 42.2581 34.3857 42.0821 34.8147 41.9361L36.2097 41.4091ZM120.248 37.3511H117.528V25.7031H121.055V37.3511H120.248Z" fill="white"/>
<path d="M49.4541 27.8755L48.6361 27.5085C48.5711 27.4755 48.4981 27.3655 48.5061 27.3005L48.6851 26.2615C48.6981 26.1995 48.7731 26.1385 48.8341 26.1005C48.8881 26.0675 48.9631 26.0575 49.0291 26.0545L50.3191 26.0055L52.8231 25.8685L54.2881 25.7785L55.6621 25.6885C55.7371 25.6835 55.8121 25.6875 55.9221 25.6875C55.8141 27.2545 55.5441 28.7725 55.1191 30.2985L49.4531 27.8745L49.4541 27.8755ZM54.3421 18.0035L54.8931 17.7615C55.0341 17.6895 55.1161 17.6965 55.1551 17.8675L55.5971 19.8155L55.8681 21.5915C55.8981 21.8055 55.9011 22.0235 55.9191 22.2715C55.6811 22.2715 55.4561 22.2805 55.2311 22.2695L53.7431 22.1815L51.2381 22.0435L49.7271 21.9535L48.8471 21.9015C48.8109 21.8926 48.7774 21.875 48.7495 21.8502C48.7217 21.8255 48.7002 21.7944 48.6871 21.7595L48.4801 20.5195L54.3411 18.0045L54.3421 18.0035ZM46.8871 16.3635L46.4271 15.5955C46.3401 15.4705 46.3581 15.4025 46.4571 15.3105L48.6561 13.2495L49.4641 12.4875L50.7071 11.2915L51.4491 10.5925C51.5361 10.5085 51.6001 10.4875 51.6841 10.6055C52.5451 11.8085 53.2701 13.0885 53.9061 14.4215C53.9121 14.4345 53.9091 14.4515 53.9151 14.5275L47.0131 16.6135L46.8851 16.3635H46.8871ZM38.5741 1.6875C39.8341 1.9485 42.5041 2.9315 42.8911 3.2705L38.9491 9.2795L37.6721 8.8215L37.8371 7.3735L38.0041 6.0345L38.1561 4.7385L38.3291 3.3325L38.4771 2.0125C38.4901 1.9035 38.5291 1.7985 38.5741 1.6875ZM46.9471 9.7495L44.6231 11.4805L43.8341 12.0775C43.6411 12.2545 43.5241 12.1635 43.3801 12.0375L42.5841 11.3575L45.8341 4.9215C47.1281 5.7905 48.3101 6.7765 49.4051 7.9045L46.9471 9.7495ZM25.8851 7.8945L22.8591 3.2975C24.2711 2.6175 25.6971 2.0765 27.2231 1.6945L28.0701 8.8655L26.8181 9.3365L25.8851 7.8955V7.8945ZM19.4001 15.6905L18.9241 16.5285C18.8861 16.5875 18.7401 16.6265 18.6631 16.6055L16.5951 15.9885L12.3541 14.7095C12.2261 14.6705 12.1011 14.6185 11.9591 14.5665L12.0521 14.3075C12.6455 13.0563 13.343 11.8571 14.1371 10.7225C14.2261 10.5945 14.2861 10.6015 14.3831 10.6965L15.4161 11.6845L17.1121 13.2895L18.5501 14.6375L19.3751 15.4155C19.4611 15.4965 19.5241 15.5745 19.3991 15.6925L19.4001 15.6905ZM19.5571 5.2715L19.9431 4.9995L23.2021 11.4495L22.2051 12.2995L16.4151 7.9695C17.3961 6.9915 18.4221 6.0805 19.5581 5.2705L19.5571 5.2715ZM12.7051 33.1795L16.7281 31.9655L18.6891 31.3785C18.7441 31.3625 18.8531 31.3985 18.8821 31.4445L19.4121 32.3615C19.4421 32.4175 19.4281 32.5425 19.3851 32.5845L18.1651 33.7335C17.9141 33.9845 17.6511 34.1545 17.2961 34.2475C16.7621 34.3875 16.2431 34.5955 15.7341 34.8125C14.925 35.1655 14.0093 35.1849 13.1861 34.8665C12.975 34.7877 12.7677 34.6989 12.5651 34.6005C12.5031 34.5705 12.4381 34.5145 12.4081 34.4535L11.9141 33.4215L12.7071 33.1785L12.7051 33.1795ZM46.4901 32.7035C46.3621 32.6325 46.3461 32.5535 46.4171 32.4395L46.9711 31.5115C47.0281 31.4115 47.0711 31.3745 47.2001 31.4135L51.2241 32.6325L53.8091 33.4025C53.8581 33.4175 53.9031 33.4405 53.9641 33.4655C53.8101 33.7915 53.6981 34.1385 53.4941 34.4185C53.3671 34.5935 53.1071 34.6805 52.8961 34.7835C52.2131 35.1165 51.4871 35.1445 50.7571 35.0175C50.4741 34.9685 50.1991 34.8405 49.9351 34.7165C49.3271 34.4305 48.6971 34.2235 48.0341 34.1125C47.9621 34.1005 47.8931 34.0335 47.8351 33.9785L46.4891 32.7045L46.4901 32.7035Z" fill="white"/>
</svg>
