<svg width="144" height="48" viewBox="0 0 144 48" fill="none" xmlns="http://www.w3.org/2000/svg">
<path d="M58.5853 20.7989C59.5813 20.4779 60.2453 19.7109 60.8663 18.9569C61.5903 18.0789 62.2223 17.1159 62.8133 16.1399C63.2623 15.3979 63.5943 14.5839 63.9523 13.7899C64.0033 13.6779 63.9343 13.4869 63.8743 13.3529C63.3373 12.1549 63.7123 11.2989 64.3153 10.7729C64.5953 10.5289 65.5673 10.4379 65.8313 10.6369C66.2923 10.9859 66.3623 11.4409 66.1443 11.9569C66.0393 12.2059 65.9073 12.4469 65.8383 12.7059C65.7963 12.8629 65.7863 13.0949 65.8723 13.2099C66.7363 14.3469 67.4973 15.5329 67.7353 16.9739C67.8053 17.4009 67.8183 17.8369 67.8733 18.4519L69.3693 16.1879C69.9603 15.1359 70.4983 14.0559 71.4183 13.2389C72.4403 12.3309 73.5993 11.8799 74.9823 12.2199C75.6383 12.3809 76.1523 13.3019 75.9253 13.9179C75.8083 14.2369 75.2093 14.4799 74.8893 14.3029C74.5593 14.1209 74.5253 13.8399 74.6933 13.5029C74.7523 13.3829 74.7173 13.2169 74.7253 13.0719C74.5623 13.1159 74.3403 13.1079 74.2453 13.2139C73.7533 13.7629 73.2373 14.3029 72.8343 14.9159C72.0333 16.1359 71.4433 17.4619 71.2073 18.9159C71.1423 19.3129 71.1193 19.7339 71.1783 20.1289C71.2853 20.8379 71.8423 21.0859 72.5303 20.8159C73.4463 20.4559 74.1723 19.8309 74.7723 19.0919C75.3983 18.3199 75.9413 17.4759 76.4703 16.6309C76.8333 16.0509 77.0663 15.3879 77.4363 14.8119C78.2643 13.5219 79.3053 12.4839 80.8823 12.1359C81.7913 11.9349 82.6173 12.1419 82.9853 12.7719C83.1443 13.0429 83.2663 13.3859 83.2523 13.6889C83.2423 13.9089 83.0153 14.2409 82.8193 14.2979C82.5893 14.3649 82.1583 14.2709 82.0503 14.0989C81.9143 13.8819 82.0173 13.5149 82.0863 13.1919C81.8383 12.7989 81.5883 13.1069 81.3673 13.3149C80.3653 14.2579 79.7073 15.4369 79.1813 16.6849C78.7493 17.7109 78.3683 18.7729 78.5203 19.9109C78.5663 20.2509 78.7703 20.7039 79.0363 20.8349C79.2413 20.9369 79.7733 20.7069 79.9543 20.4679C80.6093 19.6059 81.1783 18.6789 81.7763 17.7819C80.9173 17.1189 80.9483 16.2369 81.3683 15.6239C81.6123 15.2689 82.2003 15.0669 82.6293 15.2429C82.9973 15.3939 83.1153 15.7089 83.0663 16.1009L82.9673 17.1779C83.9883 17.1299 84.9323 16.6989 85.3293 15.4919C85.9093 13.7259 86.7393 12.0429 87.4623 10.3239C87.4823 10.2769 87.4873 10.2229 87.5123 10.1199C86.0813 10.0829 84.6803 10.0549 83.3343 10.5559C82.9513 10.6989 82.6363 10.9179 82.5983 11.4059C82.5721 11.4896 82.5247 11.5652 82.4608 11.6253C82.3969 11.6854 82.3185 11.7279 82.2333 11.7489C82.0873 11.7509 81.8713 11.5889 81.8043 11.4439C81.4243 10.6159 81.7873 9.40189 82.5973 9.01789C83.136 8.76432 83.7166 8.61147 84.3103 8.56689C85.3103 8.49489 86.3183 8.54789 87.3233 8.54689C87.6093 8.54689 87.9843 8.65389 88.1603 8.51289C88.3673 8.34689 88.4283 7.97189 88.5053 7.67589C88.6103 7.27189 88.6713 6.85689 88.7793 6.29789C89.2703 5.96689 89.9573 5.92589 90.5673 6.36089C91.1023 6.74289 91.1933 7.34389 90.9843 7.98689C90.8973 8.25289 90.8993 8.54889 90.8393 8.99089L94.7663 8.52189C95.0783 8.47589 95.4203 8.30989 95.5023 7.88089C95.5163 7.80489 95.8783 7.69289 95.9923 7.75589C96.4743 8.02489 96.4593 8.79189 95.9393 8.98389C94.9943 9.33289 94.0283 9.65389 93.0443 9.86389C92.1733 10.0489 91.2663 10.0659 90.3163 10.1639C89.0073 13.7619 86.7873 17.0349 85.7453 20.7999L85.9783 20.9839C86.2593 20.7619 86.6143 20.5919 86.8093 20.3099C87.7363 18.9679 88.6633 17.6209 89.5063 16.2259C90.1273 15.1969 90.6203 14.0889 91.5373 13.2669C92.5553 12.3549 93.7073 11.8939 95.0923 12.2219C95.8233 12.3949 96.3123 13.2949 96.0453 13.9899C95.9263 14.2999 95.4323 14.4849 95.0633 14.3159C94.7163 14.1569 94.6713 13.8739 94.8243 13.5309C94.8823 13.4009 94.8723 13.2409 94.8933 13.0949C94.7163 13.1389 94.5013 13.1339 94.3693 13.2359C93.5883 13.8339 93.1063 14.6679 92.6343 15.5079C91.8873 16.8379 91.3093 18.2189 91.3053 19.7759C91.3023 20.8099 91.9473 21.2189 92.8553 20.7379C94.7843 19.7159 95.9733 18.0279 96.8543 16.1079C97.6623 14.3469 98.4133 12.5599 99.1473 10.7669C99.8084 9.14178 100.439 7.5045 101.039 5.85589C101.135 5.59289 101.016 5.25689 101.031 4.95689C101.038 4.81889 101.09 4.62289 101.19 4.55789C102.147 3.93689 104.116 4.04089 104.44 5.52489C104.583 6.17789 104.594 6.94589 104.39 7.57289C103.826 9.30789 103.138 11.0029 102.459 12.6979C102.083 13.6389 101.628 14.5489 101.174 15.5269C101.133 15.6309 101.128 15.6809 101.122 15.7309L101.279 15.6409C101.982 15.0559 102.646 14.4149 103.397 13.9019C104.3 13.2839 105.816 13.1059 106.462 14.1189C106.798 14.6449 107.032 15.3099 107.082 15.9309C107.218 17.6369 106.755 19.2489 106.049 20.7919L104.016 25.1899C103.919 25.4009 103.813 25.6329 103.809 25.8559C103.805 26.1069 103.855 26.5339 103.983 26.5759C104.225 26.6559 104.602 26.6009 104.812 26.4489C105.212 26.1579 105.572 25.7889 105.881 25.3999C107.298 23.6199 108.569 21.7429 109.591 19.7049C109.713 19.4629 109.811 19.2079 109.907 18.9539C110.082 18.4959 110.417 18.4709 110.796 18.6409C111.206 18.8249 111.119 19.1139 110.96 19.4499C110.001 21.4759 108.883 23.4149 107.509 25.1779C106.753 26.1479 105.879 27.0839 104.888 27.7989C103.199 29.0189 101.721 28.2329 101.317 26.2159C100.997 24.6219 101.429 23.1309 102.004 21.6979C102.737 19.8679 103.608 18.0939 104.403 16.2879C104.502 16.0629 104.538 15.7959 104.54 15.5469C104.543 15.0959 104.199 14.8709 103.815 15.1199C103.207 15.5139 102.555 15.9039 102.089 16.4409C101.038 17.6499 99.9563 18.8669 99.1353 20.2289C98.2343 21.7229 97.5933 23.3769 96.8773 24.9779C96.6294 25.5409 96.4417 26.1285 96.3173 26.7309C96.2343 27.1229 96.2913 27.5499 96.3173 27.9579C96.3413 28.3409 96.2043 28.4749 95.8103 28.4779L88.1533 28.5879C86.3679 28.6354 84.5834 28.7094 82.8003 28.8099L77.8033 29.1449L72.2953 29.6939C70.8413 29.8419 69.3823 29.9479 67.9363 30.1509C65.5793 30.4829 63.2253 30.8399 60.8823 31.2589C58.2243 31.7339 55.5633 32.2129 52.9363 32.8309C50.0863 33.5009 47.2623 34.2909 44.4483 35.1049C40.9503 36.1159 37.5413 37.3829 34.2123 38.8669C30.7403 40.4149 27.3393 42.0939 24.1863 44.2309C22.6983 45.2389 21.2603 46.3209 19.8073 47.3789C18.9323 48.0169 17.8843 47.7979 17.2443 46.9509C16.8413 46.4189 17.0723 45.4979 17.7303 44.7719C18.5293 43.8899 19.5283 43.2809 20.5493 42.7199C22.7623 41.5039 24.9603 40.2469 27.2413 39.1719C29.6953 38.0149 32.2123 36.9779 34.7503 36.0159C37.0313 35.1519 39.3543 34.3749 41.7013 33.7139C44.7643 32.8509 47.8613 32.1039 50.9593 31.3749C52.9693 30.9019 55.0013 30.5139 57.0353 30.1579C58.8443 29.8419 60.6683 29.6139 62.4883 29.3619L68.3373 28.5929C69.7373 28.4339 71.1483 28.3629 72.5533 28.2469L77.8063 27.8079C78.5213 27.7528 79.2375 27.7151 79.9543 27.6949L84.5513 27.5829L93.2663 27.4679C93.3393 27.4669 93.4113 27.4539 93.5153 27.4429C93.4433 27.0999 93.3263 26.7739 93.3163 26.4449C93.2743 25.0489 93.8373 23.7839 94.2453 22.4909C94.4883 21.7199 94.8183 20.9759 95.1453 20.1229C94.5603 20.5839 94.0923 21.0309 93.5523 21.3599C92.5403 21.9779 91.4783 22.2899 90.2953 21.7439C89.2483 21.2609 88.9893 20.3559 88.8573 19.3499C88.8463 19.2629 88.8553 19.1729 88.8553 19.0919C88.2483 19.8019 87.6743 20.5299 87.0383 21.1969C86.6273 21.6279 86.1453 22.0029 85.4873 22.0159C84.7033 22.0319 84.2683 21.6919 84.0663 20.9409C83.7653 19.8169 84.1133 18.7869 84.4813 17.7549C84.4923 17.7229 84.4913 17.6859 84.4923 17.6739C83.9333 17.7479 83.3643 17.7999 82.8093 17.9139C82.6553 17.9459 82.4883 18.1419 82.4163 18.3019C81.8933 19.4709 81.1713 20.4869 80.2263 21.3549C79.2183 22.2799 77.5163 22.2849 76.7393 21.2909C76.2183 20.6249 76.0623 19.8149 76.0393 18.8609L75.6123 19.3319C74.6103 20.4539 73.6153 21.5509 72.0423 21.9249C70.4043 22.3149 68.7733 21.3459 68.7103 19.3299C68.7053 19.1819 68.7093 19.0339 68.7093 18.9349C68.0283 19.5849 67.3593 20.2929 66.6173 20.9139C65.8433 21.5629 64.9113 21.9859 63.9163 22.1019C62.9623 22.2129 62.1793 21.5729 62.0513 20.6359C61.9783 20.1019 62.1053 19.5409 62.1803 18.9319C62.2194 18.8652 62.2561 18.7972 62.2903 18.7279C62.2593 18.7219 62.2013 18.7069 62.2003 18.7099C62.1803 18.7749 62.1663 18.8409 62.1513 18.9079C61.8383 19.2339 61.5003 19.5409 61.2153 19.8899C60.0293 21.3469 58.5263 22.1439 56.6293 22.1209C56.0244 22.1149 55.4202 22.0769 54.8193 22.0069C54.0323 21.9139 53.5453 21.0579 53.7663 20.2929C53.9003 19.8289 54.1623 19.7019 54.5803 19.8529C55.0113 20.0089 55.1533 20.3779 54.9613 20.7839C54.9173 20.8769 54.8453 20.9569 54.7863 21.0429L54.8823 21.1949C55.1313 21.0599 55.4183 20.9669 55.6233 20.7829C56.7243 19.7939 57.3303 18.4809 57.9083 17.1609C58.3063 16.2519 58.5433 15.2989 58.4663 14.2929C58.4523 14.1149 58.4223 13.9289 58.3513 13.7679C58.1003 13.2019 57.7153 13.0459 57.2403 13.4239C56.7473 13.8149 56.2343 14.2609 55.9323 14.7959C55.1963 16.0999 54.5683 17.4659 53.9123 18.8149C53.5393 19.5809 53.1913 20.3599 52.8413 21.1369L50.5003 26.4049C50.3493 26.7599 50.3673 27.1939 50.3453 27.5929C50.3253 27.9349 49.7933 28.2359 49.3433 28.1299C48.7723 27.9959 48.3673 27.4639 48.3393 26.8529C48.2823 25.6079 48.8033 24.5079 49.2353 23.3999C49.9663 21.5279 50.7743 19.6869 51.5483 17.8319C51.5603 17.8029 51.5453 17.7619 51.5423 17.7009L49.9013 17.9499L48.3363 20.4539C47.5333 21.6589 46.1053 22.2689 45.0013 21.9629C44.0313 21.6939 43.3783 20.6279 43.3413 19.6789C43.2463 17.2399 44.0733 15.1249 45.7893 13.4019C46.6933 12.4939 47.8243 12.0069 49.1533 12.1059C49.9863 12.1679 50.6703 13.1209 50.4383 13.9229C50.3303 14.2959 49.9233 14.4749 49.5013 14.3009C49.1713 14.1649 49.0433 13.9169 49.1703 13.5529C49.2233 13.4029 49.2223 13.2339 49.2463 13.0739C49.0593 13.1369 48.8283 13.1509 48.6923 13.2719C47.4163 14.4089 46.6483 15.8739 46.1323 17.4689C45.9003 18.1869 45.7913 18.9499 45.6843 19.7009C45.6493 19.9489 45.7613 20.2369 45.8663 20.4819C46.0773 20.9749 46.6163 21.0829 46.9543 20.6539C47.5603 19.8849 48.1033 19.0669 48.6643 18.2629C48.7773 18.1009 48.8513 17.9119 48.9463 17.7319C48.2363 17.2069 48.1143 16.2029 48.6663 15.5049C49.0153 15.0629 49.4953 15.1899 49.8903 15.2699C50.0823 15.3089 50.2953 15.7309 50.3193 15.9959C50.3553 16.3789 50.2293 16.7779 50.1723 17.1699C51.0443 17.2869 52.0473 16.7379 52.3893 15.9049C52.7123 15.1189 53.0243 14.3269 53.2993 13.5229C53.3923 13.2499 53.3243 12.9249 53.3953 12.6399C53.4343 12.4829 53.5823 12.2939 53.7293 12.2319C54.7093 11.8179 55.4873 12.2589 55.8293 13.3809L56.8873 12.6259C57.7593 12.0219 58.6683 12.0929 59.5853 12.5029C60.5373 12.9289 60.8563 13.7739 60.9063 14.7129C60.9873 16.2289 60.4823 17.6119 59.7373 18.9049C59.3853 19.5159 58.9503 20.0779 58.5043 20.7119C58.4373 20.7979 58.4183 20.8349 58.4003 20.8719L58.5893 20.8009L58.5853 20.7989ZM63.9113 15.8269L62.4583 18.5109C63.4353 17.9089 63.8703 17.8419 64.1313 18.3159C64.2433 18.5179 64.1863 18.9309 64.0433 19.1329C63.7313 19.5729 63.3793 19.3239 63.0493 18.9969C62.9423 19.3209 62.7503 19.6189 62.7753 19.8979C62.8083 20.2759 62.9263 20.7069 63.1583 20.9919C63.4353 21.3329 63.8563 21.2559 64.2263 20.9909C65.0213 20.4219 65.3843 19.6089 65.4683 18.6839C65.6003 17.2299 65.2023 15.8769 64.5383 14.5639C64.3192 14.9794 64.1101 15.4002 63.9113 15.8259V15.8269ZM8.92429 9.39589C10.4933 8.74289 12.1133 8.35889 13.8263 8.48789C15.5193 8.61489 17.0633 9.12689 18.3443 10.2859L21.4773 13.1459L22.7273 10.3019C23.8963 7.98789 25.7013 6.42189 28.2523 5.78389C29.0457 5.56721 29.8778 5.5319 30.6867 5.68061C31.4957 5.82931 32.2608 6.1582 32.9253 6.64289C33.8513 7.29689 34.1333 8.32589 33.9373 9.38489C33.6073 11.1749 32.7923 12.7579 31.4713 14.0329C30.0733 15.3829 28.4253 16.2479 26.4473 16.4259C25.8893 19.1309 25.4363 21.8679 24.2203 24.5609L30.1733 24.7869L31.7493 19.7239C32.5403 17.4959 33.7963 15.5139 35.2863 13.6899L37.9213 10.7319C39.8233 8.88589 41.9373 7.30589 44.2273 5.95989C47.2693 4.17189 50.5253 2.91789 53.9623 2.18689C55.5773 1.84289 57.2523 1.77389 58.9003 1.58589C60.2353 1.43289 61.5733 1.49889 62.8613 1.83589C63.6083 2.03089 64.4003 2.37289 64.9593 2.88289C65.6443 3.50589 65.3143 4.99389 64.4293 5.53389C63.7153 5.96889 62.9113 6.26889 62.1253 6.56889C61.9273 6.64489 61.6183 6.53289 61.4113 6.41789C61.3513 6.38489 61.4033 5.98789 61.5133 5.83889C62.6413 4.30789 61.6423 3.50689 60.3383 3.15689C58.3023 2.60989 56.3383 3.07789 54.3893 3.69689C51.3043 4.67589 48.5423 6.22089 46.0353 8.26189C43.2343 10.5419 40.9753 13.2609 39.1933 16.3959C37.8289 18.7779 36.7709 21.3227 36.0443 23.9699C36.3903 23.9069 36.6803 23.8809 36.9533 23.7999C38.7153 23.2759 40.4053 22.5879 41.9033 21.4969C42.2763 21.2259 42.6413 21.1469 42.9863 21.4719C43.2563 21.7259 43.1123 22.1879 42.6913 22.5249C40.8813 23.9749 38.7643 24.7579 36.5433 25.2809C35.6213 25.4979 35.6203 25.4439 35.5243 26.5729C35.3273 28.8909 35.5543 31.1509 36.3793 33.3399C36.5853 33.8869 36.4183 34.3289 35.8743 34.5679C34.4713 35.1829 33.0313 35.1559 31.6103 34.6529C31.3473 34.5599 31.1013 34.2329 30.9793 33.9559C30.0473 31.8359 30.0163 29.5839 30.0783 27.3249C30.0893 26.9299 30.1693 26.5369 30.2193 26.1329L23.6503 25.9089C22.6873 27.6429 21.5823 29.3559 20.0813 30.7699C18.1403 32.5969 15.9493 34.0199 13.2603 34.3859C11.7663 34.5889 10.2423 34.4899 9.02929 33.3529C7.91329 32.3059 7.62329 31.0009 7.96429 29.5599C8.58329 26.9479 10.3613 25.3459 12.7183 24.2999C14.3053 23.5949 15.9923 23.4339 17.7073 23.5169C18.1393 23.5379 18.5683 23.6219 19.1143 23.6919C19.4623 22.5109 19.8783 21.3339 20.1473 20.1239C20.5173 18.4609 20.7783 16.7729 21.0793 15.0939C21.0983 14.9899 21.1023 14.8289 21.0413 14.7739C19.6223 13.4859 18.2393 12.1509 16.7493 10.9489C15.7253 10.1229 14.4533 9.75989 13.1223 9.83089C11.0863 9.93989 9.28729 11.2679 8.92229 13.4339C8.89229 13.6119 8.82629 13.7869 8.81829 13.9659C8.78229 14.7279 8.66929 14.9159 7.88429 15.0389C7.37629 15.1179 6.82629 15.1459 6.33029 15.0369C5.18529 14.7849 5.33029 14.5839 5.39429 13.5599C5.40929 13.3139 5.39429 13.1439 5.62029 12.7419C4.89529 12.6559 7.02429 12.6939 6.33029 12.6369C9.10529 12.7689 7.84529 12.0349 6.33029 11.9019C9.12829 12.1129 8.24029 12.8249 6.33029 12.6369C6.07729 12.6119 5.87329 12.7569 5.62029 12.7419C5.05329 12.7079 5.90929 12.9279 5.95929 12.3949C6.01029 11.8489 5.87129 12.1919 6.17729 12.2409C8.00429 12.5309 6.58329 12.6619 6.33029 12.6369C7.95929 12.9169 4.70029 12.1199 6.33029 12.3949C7.11629 12.5269 5.93729 12.5369 6.72529 12.6509C6.89129 12.6749 5.55329 12.8729 5.62029 12.7419C6.34495 11.4048 7.42144 10.2913 8.73329 9.52189L8.92529 9.39489L8.92429 9.39589ZM11.0903 26.8549L10.3693 27.5789C9.44429 28.5409 9.12929 29.7169 9.27829 31.0039C9.33729 31.5129 9.56029 31.9929 10.0543 32.3199C10.8743 32.8619 11.6923 32.7859 12.5143 32.4049C13.9363 31.7449 15.0113 30.6669 15.9643 29.4529C16.9173 28.2389 17.7903 26.9769 18.2973 25.4899C18.4493 25.0449 18.3153 24.9569 17.9283 24.9579C17.0913 24.9609 16.2503 24.9009 15.4193 24.9709C13.8053 25.1069 12.3593 25.6929 11.0903 26.8549ZM28.0053 10.4989L26.6013 15.0989C27.1553 14.9489 27.5253 14.8749 27.8773 14.7499C30.2963 13.8929 31.7843 12.1449 32.4913 9.73689C32.8293 8.58589 32.2323 7.38489 31.0043 7.60789C30.6313 7.67744 30.2744 7.81506 29.9513 8.01389C29.0333 8.58389 28.4503 9.43689 28.0053 10.4989ZM117.633 35.8139C117.784 37.4739 117.35 38.7649 115.795 39.4979L117.861 42.6439C116.3 43.0829 115.831 42.9039 115.143 41.6579C115.101 41.5809 115.074 41.4949 115.04 41.4129C114.398 39.8369 113.223 39.3659 111.533 39.8639V42.7529H109.73V32.7889L115.291 33.0699C116.443 33.1689 117.752 34.6429 117.633 35.8139ZM111.51 34.6419V38.1129L114.173 38.1089C114.632 38.1051 115.073 37.9312 115.41 37.6207C115.748 37.3103 115.958 36.8856 116 36.4289C116.088 35.6719 115.578 34.8779 114.648 34.7069C113.665 34.5259 112.64 34.5739 111.51 34.6419ZM132.567 36.8609C131.829 35.1229 132.487 33.3319 134.589 32.9329C135.904 32.6829 137.296 32.7179 138.6 33.3779C139.305 33.7339 139.508 34.0539 139.038 34.7129C138.889 34.9219 138.796 35.1699 138.683 35.3909L136.232 34.5789C135.93 34.4919 135.528 34.4259 135.278 34.5549C134.895 34.7529 134.37 35.1099 134.342 35.4359C134.315 35.7549 134.767 36.2639 135.129 36.4369C135.997 36.8529 136.96 37.0659 137.841 37.4599C139.151 38.0459 139.65 38.9559 139.51 40.2699C139.396 41.3399 138.483 42.3149 137.286 42.6189C135.464 43.0809 133.778 42.7609 132.226 41.7099C131.714 41.3629 131.818 40.0249 132.398 39.7789C132.532 39.7219 132.795 39.8429 132.94 39.9569C133.94 40.7409 135.066 41.1749 136.326 40.9669C136.742 40.8979 137.338 40.5159 137.413 40.1779C137.486 39.8509 137.089 39.2199 136.735 39.0369C135.937 38.6229 135.006 38.4719 134.193 38.0819C133.613 37.8039 133.137 37.3119 132.567 36.8609ZM94.2743 41.1599C96.2863 40.5529 96.2863 40.5529 96.2983 38.5379V37.7789H97.7443L97.7183 41.2999C97.7063 41.5409 97.4033 41.8589 97.1543 41.9809C94.8663 43.1069 91.8993 43.3299 89.9943 41.0739C87.7993 38.4769 88.5493 34.4839 91.9423 33.2039C94.1143 32.3849 96.1063 32.8049 97.9853 34.2279L96.9073 35.6119C95.3003 34.3799 93.6403 33.9639 91.9083 35.1769C90.9133 35.8739 90.3863 37.6219 90.7313 38.7269C91.1483 40.0609 92.6503 41.1149 94.2753 41.1589L94.2743 41.1599ZM122.516 42.0249V32.8839H124.295V40.9199H128.418V42.7749C126.576 42.7749 124.722 42.7879 122.87 42.7459C122.747 42.7429 122.634 42.3339 122.516 42.0249ZM102.82 42.5219L102.81 32.8839H104.557V42.8079L102.82 42.5219Z" fill="white"/>
</svg>
