<svg width="143" height="48" viewBox="0 0 143 48" fill="none" xmlns="http://www.w3.org/2000/svg">
<g clip-path="url(#clip0_70_1563)">
<mask id="mask0_70_1563" style="mask-type:luminance" maskUnits="userSpaceOnUse" x="17" y="-3" width="108" height="55">
<path d="M17 -3H125V51.439H17V-3Z" fill="white"/>
</mask>
<g mask="url(#mask0_70_1563)">
<path d="M78.8938 33.2202L78.8678 23.5642C78.8518 22.6572 79.1588 22.4382 80.0058 22.4702L84.8098 22.4872L84.9208 24.2522C86.8058 22.2522 89.0168 21.6672 91.5518 22.1382C93.7008 22.5372 95.4168 23.6102 96.7518 25.3182C99.4478 28.7652 99.1858 34.0512 96.1898 37.3322C93.9868 39.7452 89.3268 41.3862 84.9628 38.0112V47.6992H78.8948V33.2192L78.8938 33.2202ZM86.6018 34.2392C88.1908 35.0782 89.7098 34.9682 91.0618 33.7782C92.2688 32.7152 92.6168 31.3422 92.1408 29.8062C91.6448 28.2052 90.1608 27.1462 88.5168 27.1512C86.9488 27.1562 85.4688 28.2272 84.9398 29.7382C84.3678 31.3722 84.9168 32.9452 86.6028 34.2382L86.6018 34.2392Z" fill="white"/>
<path d="M59.314 24.7399C59.649 25.7009 60.156 26.5859 60.189 27.4889L60.265 36.8149V39.3029H54.242L54.238 30.7499C54.237 30.2759 54.218 29.7979 54.15 29.3299C53.925 27.7769 53.141 27.0139 51.676 26.8779C51.0143 26.8213 50.3531 26.9928 49.8023 27.3639C49.2515 27.735 48.8441 28.2834 48.648 28.9179C48.476 29.5029 48.424 30.1409 48.419 30.7559L48.409 39.3309H42.5V22.4859L47.963 22.5129C48.116 22.5169 48.348 22.8809 48.39 23.1069C48.461 23.4929 48.41 23.9009 48.41 24.5669C49.946 22.7709 51.785 22.1189 53.922 22.1579C56.095 22.1979 57.912 22.9309 59.314 24.7399Z" fill="white"/>
<path d="M74.8916 29.7338C78.1196 31.7668 77.3786 36.9568 74.1806 38.7058C70.8696 40.5168 67.4696 40.4078 64.0506 39.0188C63.4206 38.7628 62.8196 38.4338 62.1406 38.1078L64.2096 34.0878C65.6576 34.5728 67.0366 35.0938 68.4536 35.4768C68.9416 35.6088 69.5826 35.5208 70.0446 35.3018C70.4316 35.1178 70.8906 34.5978 70.8906 34.2268C70.8896 33.8808 70.3896 33.3768 69.9976 33.2208C69.0216 32.8298 67.9826 32.5948 66.9676 32.3018C65.2676 31.8118 63.8166 31.0288 63.5446 29.0658C63.2276 26.7778 63.7446 24.7388 65.7376 23.3638C68.1126 21.7258 70.7926 21.6258 73.5226 22.1218C74.4816 22.2958 75.4106 22.6318 76.4726 22.9278L74.5896 26.5838C73.1476 26.4328 71.8406 26.2058 70.5356 26.2138C70.1536 26.2158 69.7766 26.8878 69.3976 27.2528C69.7586 27.5858 70.0646 28.0608 70.4906 28.2258C71.9116 28.7748 73.3746 29.2128 74.8906 29.7358L74.8916 29.7338Z" fill="white"/>
<path d="M112.695 22.4911C114.78 22.4791 114.78 22.4791 114.913 25.0651C116.615 22.7511 118.77 21.8711 121.488 22.2611V27.6581C120.388 27.5761 119.3 27.3541 118.238 27.4461C116.393 27.6061 115.335 28.5571 115.114 30.3941C114.884 32.3061 114.918 34.2511 114.862 36.1821L114.856 39.3131H108.875L108.815 38.2171L108.797 23.6411C108.79 22.7471 109.02 22.3811 109.959 22.4671C110.829 22.5461 111.711 22.4891 112.695 22.4911Z" fill="white"/>
<path d="M39.8441 36.0771V39.3181H34.0391V22.5781H39.8441V36.0771Z" fill="white"/>
<path d="M106.551 39.094L100.627 39.459L100.572 38.26L100.532 23.773C100.518 22.676 100.882 22.412 101.904 22.468C103.392 22.55 104.889 22.489 106.559 22.489L106.551 39.094Z" fill="white"/>
<path d="M27.0765 12.7724C27.6655 12.9374 28.1885 13.0484 28.6465 13.2864L33.0155 15.6944C33.5675 16.0444 33.8995 16.7404 34.3395 17.2884C30.7285 19.7964 25.5975 19.6524 22.1945 17.5164C20.9415 16.7304 20.9845 14.9224 22.3515 14.2964C23.8185 13.6244 25.4305 13.2704 27.0765 12.7724ZM37.2765 11.3724C36.9745 12.2614 36.8515 13.2264 35.6835 13.2034C35.3945 13.1974 34.9565 13.0384 34.8455 12.8194C32.9305 9.03145 32.9905 5.24245 35.0505 1.53845C35.8915 0.0264488 37.4395 0.0554488 38.3515 1.52845C39.3004 3.05147 39.8207 4.80237 39.8575 6.59645C39.8675 6.98345 39.6485 7.40845 39.4435 7.76345C38.7555 8.95445 38.0265 10.1214 37.2745 11.3724H37.2765Z" fill="white"/>
<path d="M44.4317 18.3033L40.3117 16.1683C39.5377 15.8513 39.4607 15.2843 39.4377 14.7233C39.4267 14.4503 39.8737 14.0473 40.2037 13.8903C43.6047 12.2643 47.0227 12.3103 50.4317 13.8863C51.3197 14.2973 52.1327 14.7913 52.1237 15.9373C52.1147 17.0833 51.2987 17.6423 50.3937 17.9543C49.0267 18.4253 47.6217 18.8403 46.1987 19.0623C45.6817 19.1433 45.0697 18.6033 44.4317 18.3033Z" fill="white"/>
<path d="M47.6998 8.12691L46.7178 10.0499C45.9938 11.2789 45.1718 12.2299 43.4898 12.2409C42.4068 12.2479 41.2448 12.6639 40.2708 13.1819C39.2218 13.7399 38.3898 13.7149 37.5078 12.9969C38.2728 8.72391 42.2468 5.33091 45.9708 4.51191C47.2158 4.23791 48.3008 5.30891 48.1488 6.58191C48.0898 7.07991 47.8728 7.55891 47.6998 8.12691Z" fill="white"/>
<path d="M32.9398 8.72751C33.3118 10.0765 33.4878 11.4235 34.0698 12.5645C34.6208 13.6455 34.4358 14.3815 33.6928 15.2185C29.5528 14.0035 26.8068 11.3255 25.4288 7.23151C25.1598 6.43251 25.1738 5.63451 25.8508 5.00151C26.4768 4.41651 27.2348 4.27851 27.9818 4.65651C29.4338 5.39251 30.8948 6.13151 32.2468 7.02651C32.6498 7.29351 32.7068 8.08451 32.9408 8.72651L32.9398 8.72751ZM35.9128 19.1755C35.6288 19.9365 35.4258 20.6485 35.0708 21.2725C34.8908 21.5895 34.4468 21.9185 34.0988 21.9445C33.3798 21.9985 33.3778 22.3625 33.2748 22.9315C33.1608 23.5595 32.9048 24.3635 32.4328 24.6875C31.0668 25.6255 29.5888 26.4165 28.0988 27.1525C27.3188 27.5375 26.3088 27.5715 25.8218 26.7555C25.4618 26.1525 25.3428 25.2375 25.4918 24.5405C25.6908 23.6045 26.2138 22.7255 26.6658 21.8575C27.3938 20.4575 28.4118 19.6165 30.1548 19.5265C31.3798 19.4625 32.6138 18.9085 33.7708 18.4055C34.7868 17.9645 35.3748 18.3525 35.9128 19.1775V19.1755Z" fill="white"/>
<path d="M106.939 17.1304L103.575 20.0944L100.779 18.0344L105.517 12.2344L109.323 14.9924L106.939 17.1304ZM40.5092 23.3164L39.1332 18.7654C38.8032 17.9764 39.0692 17.4544 39.4702 17.0044C39.6592 16.7924 40.3132 16.8404 40.6862 16.9704C43.2722 17.8724 45.2972 19.4774 46.8222 21.9974H41.9062V25.3424C41.0122 24.8794 40.4392 24.3804 40.5092 23.3164Z" fill="white"/>
<path d="M35.7119 21.8324C35.8549 21.2284 36.0819 20.7234 36.1969 20.1934C36.4529 19.0094 37.1769 18.4924 38.4409 18.5424L39.7739 21.9194C38.3409 21.9194 37.0429 21.9194 35.7119 21.8324Z" fill="white"/>
</g>
</g>
<defs>
<clipPath id="clip0_70_1563">
<rect width="143" height="48" fill="white"/>
</clipPath>
</defs>
</svg>
