<svg width="235" height="106" viewBox="0 0 235 106" fill="none" xmlns="http://www.w3.org/2000/svg">
<path fill-rule="evenodd" clip-rule="evenodd" d="M0.589844 1.01953H8.14303V82.7758H0.589844V1.01953ZM82.6795 23.7913V82.7758H75.2369V72.6673C68.4979 80.7393 60.7969 84.7752 52.1323 84.7752C43.4677 84.7752 36.155 81.6836 30.1929 75.4999C24.2322 69.3163 21.2505 61.948 21.2505 53.3947C21.2505 44.8412 24.2502 37.5099 30.2482 31.4003C36.2476 25.2909 43.4303 22.2362 51.7991 22.2362C61.4258 22.2362 69.2389 26.3462 75.2369 34.5662V23.7913H82.6795ZM68.9057 36.5102C73.4219 41.1386 75.6806 46.8223 75.6806 53.5612C75.6806 60.5224 73.3859 66.2987 68.7938 70.89C64.203 75.4814 58.704 77.777 52.2981 77.777C45.8923 77.777 40.3947 75.3889 35.8025 70.6123C31.2117 65.8357 28.9157 60.1892 28.9157 53.6723C28.9157 47.1554 31.1744 41.5089 35.6919 36.7323C40.2095 31.9558 45.7444 29.5675 52.2981 29.5675C58.8519 29.5675 64.3882 31.8817 68.9057 36.5102ZM99.8967 23.7913H107.451V34.5662C113.449 26.3462 121.262 22.2362 130.889 22.2362C139.183 22.2362 146.33 25.2909 152.328 31.4003C158.326 37.5099 161.326 44.8597 161.326 53.4501C161.326 62.0405 158.363 69.409 152.439 75.5555C146.514 81.7021 139.406 84.7752 131.112 84.7752C122.077 84.7752 114.19 80.7393 107.451 72.6673V104.326H99.8967V23.7913ZM146.941 36.6212C151.494 41.3237 153.771 46.9703 153.771 53.5612C153.771 60.3002 151.457 66.021 146.829 70.7234C142.201 75.4259 136.684 77.777 130.278 77.777C123.872 77.777 118.373 75.463 113.782 70.8344C109.19 66.206 106.896 60.4853 106.896 53.6723C106.896 46.8593 109.135 41.1386 113.615 36.5102C118.095 31.8817 123.632 29.5675 130.223 29.5675C136.814 29.5675 142.386 31.9187 146.941 36.6212ZM234.306 23.7913V82.7758H226.863V72.6673C220.124 80.7393 212.423 84.7752 203.758 84.7752C195.094 84.7752 187.781 81.6836 181.82 75.4999C175.858 69.3163 172.878 61.948 172.878 53.3947C172.878 44.8412 175.878 37.5099 181.876 31.4003C187.874 25.2909 195.058 22.2362 203.425 22.2362C213.052 22.2362 220.865 26.3462 226.863 34.5662V23.7913H234.306ZM220.532 36.5102C225.049 41.1386 227.308 46.8223 227.308 53.5612C227.308 60.5224 225.012 66.2987 220.421 70.89C215.829 75.4814 210.331 77.777 203.926 77.777C197.52 77.777 192.021 75.3889 187.43 70.6123C182.838 65.8357 180.543 60.1892 180.543 53.6723C180.543 47.1554 182.801 41.5089 187.318 36.7323C191.836 31.9558 197.372 29.5675 203.926 29.5675C210.479 29.5675 216.014 31.8817 220.532 36.5102Z" fill="white"/>
</svg>
