<svg width="144" height="49" viewBox="0 0 144 49" fill="none" xmlns="http://www.w3.org/2000/svg">
<path d="M42.2116 23.3349C42.2116 17.8579 46.5356 13.5149 51.9056 13.5149C54.8506 13.5149 57.1786 14.7899 58.6996 16.8199V15.0029C58.6996 14.1809 59.3706 13.5149 60.1976 13.5149C61.0246 13.5149 61.6956 14.1809 61.6956 15.0029V31.6199C61.6956 32.4419 61.0246 33.1079 60.1976 33.1079C59.3706 33.1079 58.6996 32.4419 58.6996 31.6199V29.8019C57.1786 31.8319 54.8506 33.1069 51.9056 33.1069C46.5356 33.1069 42.2116 28.7639 42.2116 23.3349ZM58.6996 23.3819C58.6996 19.2749 55.5146 16.4909 51.9056 16.4909C48.2966 16.4909 45.2066 19.4639 45.2066 23.3349C45.2066 27.2059 48.1986 30.1329 51.9056 30.1329C55.6126 30.1329 58.6996 27.3479 58.6996 23.3819ZM85.4376 31.6199V3.90988C85.4376 3.08788 86.1086 2.42188 86.9356 2.42188C87.7626 2.42188 88.4336 3.08788 88.4336 3.90988V31.6189C88.4336 32.4409 87.7626 33.1069 86.9356 33.1069C86.1086 33.1069 85.4376 32.4419 85.4376 31.6199ZM93.8436 23.4289C93.8436 17.9519 97.9776 13.5149 103.206 13.5149C107.778 13.5149 111.515 16.9129 112.377 21.4299C112.577 22.4709 111.738 23.4289 110.673 23.4289H96.6966C96.6966 27.1589 99.6416 30.1319 103.206 30.1319C105.405 30.1319 107.381 29.0079 108.558 27.4279C108.833 27.0589 109.256 26.8259 109.719 26.8259C110.838 26.8259 111.482 28.0739 110.846 28.9909C109.161 31.4219 106.445 33.1039 103.208 33.1039C97.9816 33.1039 93.8456 28.7139 93.8456 23.4259L93.8436 23.4289ZM109.238 20.6909C108.194 18.1899 105.959 16.4889 103.204 16.4889C100.449 16.4889 98.1676 18.2359 97.1686 20.6909H109.238ZM117.415 37.7479C117.705 37.745 117.99 37.8248 118.237 37.9779C118.482 38.1308 118.679 38.3508 118.805 38.6119C119.873 40.9249 122.158 42.4669 124.747 42.4669C128.311 42.4669 131.446 39.4939 131.446 35.6689V30.9339C129.878 32.4929 128.454 33.1059 126.316 33.1059C121.564 33.1059 117.906 29.5639 117.906 24.7979V15.0019C117.906 14.1799 118.576 13.5139 119.402 13.5139C120.228 13.5139 120.9 14.1799 120.9 15.0019V24.7979C120.9 27.7249 123.228 30.0859 126.316 30.0859C129.118 30.0859 131.446 27.7259 131.446 25.0829V15.0049C131.446 14.1829 132.117 13.5169 132.944 13.5169C133.771 13.5169 134.441 14.1829 134.441 15.0049V35.7209C134.441 41.1509 129.975 45.4459 124.749 45.4459C120.981 45.4459 117.613 43.1779 116.049 39.8469C115.589 38.8699 116.331 37.7499 117.417 37.7499L117.415 37.7479ZM33.8496 14.7609C32.4796 13.7239 30.8106 13.1499 29.0886 13.1239C29.0276 13.1239 28.9676 13.1199 28.9066 13.1199H28.8846L28.6886 13.1239C27.0526 13.1569 25.3396 13.6289 24.1346 14.4739C23.4246 14.9469 22.7916 15.5449 22.2616 16.2459C21.7626 15.5869 21.1616 15.0099 20.4816 14.5359C20.4616 14.5219 20.4416 14.5069 20.4176 14.4939C19.2076 13.6349 17.5616 13.1529 15.9096 13.1219C15.8386 13.1219 15.7646 13.1179 15.6916 13.1179H15.6636L15.5096 13.1219C13.7894 13.1488 12.1223 13.7213 10.7486 14.7569C8.88556 16.1679 7.85156 18.3689 7.85156 20.8579V31.6659C7.85156 32.0699 8.01256 32.4569 8.30056 32.7419C8.58896 33.0277 8.97855 33.188 9.38456 33.188C9.79058 33.188 10.1802 33.0277 10.4686 32.7419C10.7556 32.4569 10.9176 32.0689 10.9176 31.6659V21.0019C10.9176 18.4239 12.9726 16.3029 15.5796 16.1719L15.8086 16.1659H15.8326C18.5366 16.1929 20.7006 18.3599 20.7006 21.0029V31.6419C20.7006 32.0547 20.8645 32.4506 21.1565 32.7425C21.4484 33.0344 21.8443 33.1984 22.2571 33.1984C22.6699 33.1984 23.0658 33.0344 23.3577 32.7425C23.6496 32.4506 23.8136 32.0547 23.8136 31.6419V21.0019C23.8136 18.3549 25.9776 16.1909 28.6816 16.1649H28.7286L28.9346 16.1709C31.5416 16.3019 33.5966 18.4229 33.5966 21.0009V31.6649C33.5966 32.0689 33.7576 32.4559 34.0456 32.7409C34.334 33.0267 34.7235 33.187 35.1296 33.187C35.5356 33.187 35.9252 33.0267 36.2136 32.7409C36.5006 32.4559 36.6626 32.0689 36.6626 31.6649V20.8589C36.6626 18.3709 35.7056 16.1729 33.8426 14.7609H33.8496ZM54.3486 45.4399V38.4859H55.4106V39.4249C55.6966 38.8039 56.3566 38.3189 57.2656 38.3189C58.1746 38.3189 58.8336 38.7719 59.3226 39.4759C59.5852 39.1105 59.9326 38.8143 60.335 38.6127C60.7374 38.4112 61.1826 38.3104 61.6326 38.3189C63.0496 38.3189 64.3146 39.2249 64.3146 40.9659V45.4409H63.2526V41.1169C63.2526 39.9259 62.4936 39.3739 61.5656 39.3739C60.6376 39.3739 59.8626 39.9599 59.8626 41.0999V45.4409H58.8006V41.0999C58.8006 39.9599 58.0066 39.3739 57.0976 39.3739C56.1026 39.3739 55.4106 40.0779 55.4106 41.2509V45.4399H54.3476H54.3486ZM72.2806 43.3319H73.3766C72.8886 44.6229 71.6896 45.6109 70.1886 45.6109C68.2816 45.6109 66.7806 44.1369 66.7806 42.0419C66.7806 39.9469 68.2816 38.3219 70.1376 38.3219C72.1946 38.3219 73.5956 40.0809 73.5956 42.1599H67.8096C67.8606 43.6679 68.9566 44.5229 70.1876 44.5229C71.1336 44.5229 71.8746 44.0189 72.2776 43.3319H72.2806ZM67.9966 41.2039H72.3816C72.0796 40.1979 71.2686 39.4119 70.1886 39.4119C69.1086 39.4119 68.3006 40.1329 67.9966 41.2039ZM82.8386 35.4559V45.4429H81.7766V44.4199C81.5566 44.8389 80.6286 45.6079 79.2806 45.6079C77.3576 45.6079 75.7896 44.1159 75.7896 41.9729C75.7896 39.8299 77.3576 38.3199 79.4156 38.3199C81.0516 38.3199 81.6586 39.1409 81.7776 39.3079V35.4549H82.8396L82.8386 35.4559ZM81.7766 42.1589V41.7739C81.7766 40.4169 80.6286 39.4119 79.3146 39.4119C78.0006 39.4119 76.8856 40.3999 76.8856 41.9769C76.8856 43.5539 77.9656 44.5239 79.3146 44.5239C80.6636 44.5239 81.7766 43.4359 81.7766 42.1609V42.1589ZM87.5466 45.4429H86.4846V39.5439H85.8096V38.4889H87.5466V45.4429ZM86.1296 36.2599C86.1296 36.1542 86.1506 36.0497 86.1913 35.9522C86.2319 35.8547 86.2915 35.7662 86.3666 35.6919C86.5184 35.5404 86.7241 35.4554 86.9386 35.4554C87.153 35.4554 87.3587 35.5404 87.5106 35.6919C87.5856 35.7662 87.6452 35.8547 87.6859 35.9522C87.7265 36.0497 87.7475 36.1542 87.7476 36.2599C87.7434 36.4727 87.6567 36.6755 87.5057 36.8256C87.3548 36.9756 87.1514 37.0611 86.9386 37.0639C86.8326 37.0639 86.7266 37.0429 86.6286 37.0029C86.5307 36.9625 86.4417 36.9034 86.3666 36.8289C86.2916 36.7539 86.2316 36.6659 86.1916 36.5679C86.1507 36.4703 86.1297 36.3656 86.1296 36.2599ZM97.3626 43.0139C96.8406 44.7729 95.4066 45.6119 93.9546 45.6119C92.0476 45.6119 90.4456 44.1199 90.4456 41.9769C90.4456 39.8339 92.0816 38.3239 93.9546 38.3239C95.4896 38.3239 96.8566 39.2459 97.3626 40.9379H96.2496C95.8106 39.8499 94.9346 39.4129 93.9556 39.4129C92.6396 39.4129 91.5446 40.5189 91.5446 41.9779C91.5446 43.5189 92.6406 44.5249 93.9556 44.5249C94.9676 44.5249 95.8446 44.0719 96.2496 43.0159L97.3626 43.0139ZM106.608 38.4059V45.4449H105.545V44.4229C105.326 44.8419 104.399 45.6119 103.05 45.6119C101.127 45.6119 99.5586 44.1879 99.5586 41.9769C99.5586 39.8819 100.974 38.3239 103.083 38.3239C103.995 38.3239 105.006 38.6089 105.545 39.3459V38.4089H106.608V38.4069V38.4059ZM105.545 42.1589V41.7739C105.545 40.4169 104.533 39.4119 103.083 39.4119C101.633 39.4119 100.654 40.4849 100.654 41.9769C100.654 43.6199 101.801 44.5239 103.083 44.5239C104.465 44.5239 105.545 43.4349 105.545 42.1609V42.1589ZM110.959 45.4429H109.897V35.4559H110.959V45.4429ZM68.1326 31.6199V14.9239C68.1326 14.1019 68.8036 13.4359 69.6306 13.4359C70.4576 13.4359 71.1286 14.1019 71.1286 14.9239V16.8359C72.1276 15.1839 74.3136 12.7759 77.8756 12.7759H78.6586C79.4856 12.7759 80.1566 13.4419 80.1566 14.2639C80.1566 15.0859 79.4856 15.7519 78.6586 15.7519H77.8756C74.2166 15.7519 71.1286 18.9629 71.1286 22.5029V31.6209C71.1286 32.4429 70.4576 33.1089 69.6306 33.1089C68.8036 33.1089 68.1326 32.4419 68.1326 31.6199Z" fill="white"/>
</svg>
