<svg width="142" height="82" viewBox="0 0 142 82" fill="none" xmlns="http://www.w3.org/2000/svg">
<path d="M77.8162 6L58.8775 16.5796V6L39.9387 22L21 38L39.9387 30.7728V38L58.8775 27.3768V38L74.5727 29.2271L74.5509 20.4979L77.8162 18.6258V6Z" fill="white"/>
<path d="M96.7593 16.5796V6L77.8203 16.5796V38L96.7593 27.3768V38L115.698 27.3768V6L96.7593 16.5796Z" fill="white"/>
<path d="M21 58.3678V46.0902C21 45.7855 21.1743 45.6113 21.4793 45.6113H23.5035C23.7432 45.6113 23.9393 45.7202 24.0693 45.9379L28.7714 53.6004L33.4517 45.9379C33.5824 45.7419 33.7785 45.6113 34.0182 45.6113H36.0206C36.3256 45.6113 36.4992 45.7855 36.4992 46.0902V58.3895C36.4992 58.6943 36.3256 58.8684 36.0206 58.8684H34.3661C34.0617 58.8684 33.8874 58.6943 33.8874 58.3895V49.7909L29.8165 56.3215C29.6858 56.5174 29.4897 56.6481 29.2507 56.6481H28.2056C27.9659 56.6481 27.7705 56.5392 27.6398 56.3215L23.5907 49.8127V58.3678C23.5907 58.6725 23.4164 58.8467 23.1121 58.8467H21.4575C21.1743 58.8467 21 58.6725 21 58.3678Z" fill="white"/>
<path d="M43.4234 58.3678V55.1896L37.6551 46.1773C37.4372 45.8508 37.5898 45.6113 37.9594 45.6113H39.8972C40.1369 45.6113 40.3323 45.7202 40.463 45.9379L44.73 52.7515L48.9745 45.9379C49.1052 45.7419 49.3013 45.6113 49.541 45.6113H51.4562C51.8266 45.6113 51.9785 45.8508 51.7831 46.1773L46.0141 55.1896V58.3678C46.0141 58.6725 45.8398 58.8467 45.5354 58.8467H43.8592C43.5759 58.8467 43.4016 58.6725 43.4234 58.3678Z" fill="white"/>
<path d="M52.3964 54.8627C52.3746 54.5362 52.5489 54.3838 52.8532 54.3838H54.5295C54.8345 54.3838 54.9871 54.558 55.0088 54.8627C55.1178 55.9512 55.6182 56.3648 56.837 56.3648H60.5164C61.9312 56.3648 62.4534 56.0165 62.4534 54.928C62.4534 53.8396 61.9748 53.6001 60.7118 53.513L56.5326 53.1866C53.6369 52.9688 52.5053 52.0328 52.5053 49.5512C52.5053 47.0695 53.724 45.6328 56.9895 45.6328H60.3856C63.346 45.6328 64.6737 46.9607 64.8044 49.6165C64.8262 49.943 64.6519 50.0954 64.3476 50.0954H62.6495C62.3445 50.0954 62.1927 49.9212 62.1709 49.6165C62.0619 48.528 61.5608 48.1144 60.3638 48.1144H56.9677C55.5311 48.1144 55.0088 48.4627 55.0088 49.5512C55.0088 50.5743 55.4875 50.8355 56.7498 50.9444L60.9296 51.2709C63.7811 51.4886 64.9788 52.49 64.9788 54.9498C64.9788 57.4096 63.7593 58.8682 60.4728 58.8682H56.7716C53.833 58.8464 52.5271 57.5185 52.3964 54.8627Z" fill="white"/>
<path d="M70.4816 58.3678V48.1147H66.4325C66.1274 48.1147 65.9531 47.9406 65.9531 47.6358V46.0902C65.9531 45.7855 66.1274 45.6113 66.4325 45.6113H77.1425C77.4475 45.6113 77.6211 45.7855 77.6211 46.0902V47.6576C77.6211 47.9623 77.4475 48.1365 77.1425 48.1365H73.0934V58.3895C73.0934 58.6943 72.9191 58.8684 72.6147 58.8684H70.9384C70.6552 58.8467 70.4816 58.6725 70.4816 58.3678Z" fill="white"/>
<path d="M79.1016 58.3678V46.0902C79.1016 45.7855 79.2759 45.6113 79.5809 45.6113H89.8341C90.1384 45.6113 90.3127 45.7855 90.3127 46.0902V47.6358C90.3127 47.9406 90.1384 48.1147 89.8341 48.1147H81.6923V51.01H86.9601C87.2651 51.01 87.4395 51.1841 87.4395 51.4889V52.8603C87.4395 53.1651 87.2651 53.3392 86.9601 53.3392H81.6923V56.3868H89.8341C90.1384 56.3868 90.3127 56.561 90.3127 56.8657V58.4113C90.3127 58.716 90.1384 58.8902 89.8341 58.8902H79.5809C79.2759 58.8467 79.1016 58.6725 79.1016 58.3678Z" fill="white"/>
<path d="M101.998 55.1025L104.219 58.2589C104.436 58.5855 104.284 58.8249 103.914 58.8249H101.955C101.715 58.8249 101.519 58.7378 101.388 58.5202L99.3423 55.3637H94.771V58.3678C94.771 58.6725 94.5967 58.8467 94.2917 58.8467H92.6161C92.311 58.8467 92.1367 58.6725 92.1367 58.3678V46.0902C92.1367 45.7855 92.311 45.6113 92.6161 45.6113H99.4077C103.239 45.6113 104.719 47.2222 104.719 50.3787V50.6617C104.741 52.9473 104.001 54.5147 101.998 55.1025ZM102.107 50.4004C102.107 48.4413 101.258 48.093 99.2116 48.093H94.771V52.8821H99.2334C101.236 52.8821 102.128 52.5338 102.128 50.6399L102.107 50.4004Z" fill="white"/>
<path d="M111.081 58.3678V55.1896L105.313 46.1773C105.117 45.8508 105.247 45.6113 105.639 45.6113H107.577C107.816 45.6113 108.012 45.7202 108.142 45.9379L112.409 52.7515L116.654 45.9379C116.785 45.7419 116.981 45.6113 117.22 45.6113H119.136C119.505 45.6113 119.658 45.8508 119.462 46.1773L113.672 55.1896V58.3678C113.672 58.6725 113.497 58.8467 113.192 58.8467H111.539C111.234 58.8467 111.081 58.6725 111.081 58.3678Z" fill="white"/>
<path d="M44.8555 74.8388V62.5395C44.8555 62.2347 45.0298 62.0605 45.3348 62.0605H47.0111C47.3154 62.0605 47.4897 62.2347 47.4897 62.5395V67.5027H54.5864V62.5395C54.5864 62.2347 54.7607 62.0605 55.065 62.0605H56.7631C57.0682 62.0605 57.2418 62.2347 57.2418 62.5395V74.8388C57.2418 75.1435 57.0682 75.3177 56.7631 75.3177H55.065C54.7607 75.3177 54.5864 75.1435 54.5864 74.8388V69.8102H47.4897V74.8388C47.4897 75.1435 47.3154 75.3177 47.0111 75.3177H45.3348C45.0298 75.2959 44.8555 75.1435 44.8555 74.8388Z" fill="white"/>
<path d="M64.124 74.8385V71.6602L58.3557 62.648C58.1596 62.3215 58.2904 62.082 58.6819 62.082H60.6196C60.8586 62.082 61.0547 62.1909 61.1854 62.4086L65.4517 69.2222L69.6969 62.4086C69.8276 62.2127 70.0237 62.082 70.2627 62.082H72.1787C72.5484 62.082 72.7009 62.3215 72.5048 62.648L66.7801 71.6602V74.8385C66.7801 75.1433 66.6058 75.3174 66.3007 75.3174H64.6251C64.2983 75.2957 64.124 75.1433 64.124 74.8385Z" fill="white"/>
<path d="M73.6367 74.8388V62.5395C73.6367 62.2347 73.8103 62.0605 74.1154 62.0605H80.907C84.7382 62.0605 86.0666 63.6715 86.0666 66.8061V67.2197C86.0666 70.2456 84.7382 71.8782 80.907 71.8782H76.2485V74.817C76.2485 75.1218 76.0742 75.2959 75.7699 75.2959H74.0936C73.7885 75.2959 73.6367 75.1435 73.6367 74.8388ZM80.6898 69.4184C82.6268 69.4184 83.4323 69.0048 83.4323 67.198V66.8061C83.4323 64.9123 82.6486 64.564 80.6898 64.564H76.2267V69.4184H80.6898Z" fill="white"/>
<path d="M88 74.8388V62.5395C88 62.2347 88.1743 62.0605 88.4786 62.0605H98.7318C99.0368 62.0605 99.2111 62.2347 99.2111 62.5395V64.085C99.2111 64.3898 99.0368 64.564 98.7318 64.564H90.5907V67.4592H95.8586C96.1636 67.4592 96.3372 67.6334 96.3372 67.9381V69.3095C96.3372 69.6143 96.1636 69.7884 95.8586 69.7884H90.5907V72.8361H98.7318C99.0368 72.8361 99.2111 73.0102 99.2111 73.315V74.8605C99.2111 75.1653 99.0368 75.3395 98.7318 75.3395H88.4786C88.1525 75.3177 88 75.1435 88 74.8388Z" fill="white"/>
</svg>
