<svg width="143" height="48" viewBox="0 0 143 48" fill="none" xmlns="http://www.w3.org/2000/svg">
<path d="M71.9256 21.009L71.7416 22.43L71.5756 23.686L71.3436 25.317L71.1766 26.573L70.9446 28.204L70.7776 29.485L70.5906 30.759L70.4286 32.017L70.2466 33.293L70.0796 34.549L69.8486 36.18L69.6816 37.412L69.6316 37.773H60.8656V11.269H65.9896V31.546L66.0216 31.547L66.1916 30.124L66.3876 28.68L66.4906 27.75L66.6866 26.232L66.8406 24.776L67.0346 23.355L67.1886 21.972L67.3786 20.526L67.4866 19.622L67.6836 18.056L67.8376 16.649L68.0326 15.229L68.1866 13.895L68.3826 12.377L68.4916 11.267H77.3606V31.638L77.3946 31.639L77.5646 30.149L77.7596 28.729L77.9136 27.347L78.1056 25.902L78.2126 24.924L78.4056 23.455L78.5126 22.477L78.7056 21.008L78.8116 20.03L79.0046 18.561L79.1106 17.583L79.3046 16.114L79.4106 15.136L79.6056 13.667L79.7086 12.786L79.8736 11.27H90.7246V32.783H95.3076V37.769H85.6496V11.623L85.6146 11.621L85.2946 13.513L84.9066 15.592L84.5966 17.447L84.2666 19.296L83.9996 20.843L83.6836 22.647L83.4016 24.239L83.1306 25.786L82.8536 27.355L82.5906 28.904L82.2546 30.802L81.9376 32.582L81.6556 34.175L81.3846 35.722L81.1076 37.291C81.0856 37.417 81.0826 37.546 81.0506 37.668C81.0386 37.714 80.9696 37.753 80.9186 37.779C80.8856 37.796 80.8376 37.782 80.7956 37.782H72.4606H72.2716V18.819L72.2396 18.818L72.0226 20.473L71.9256 21.009ZM119.307 32.497L116.768 24.877V37.771H111.639V11.268L111.828 11.258L116.541 11.253C116.72 11.252 116.799 11.305 116.853 11.469L118.682 16.982L120.319 21.912L121.048 24.005V11.271H126.177V37.772L125.989 37.783C124.419 37.784 122.848 37.781 121.277 37.786C121.115 37.787 121.049 37.747 120.995 37.581L119.307 32.497ZM47.9336 16.835V37.768L47.7336 37.78C46.1626 37.781 44.5916 37.779 43.0206 37.783C42.8606 37.783 42.7916 37.748 42.7376 37.58L41.4906 33.838L39.8946 29.043L38.5526 25.011C38.5486 25 38.5326 24.992 38.5036 24.968V37.771H33.3776V11.256H33.5546L38.2926 11.254C38.4426 11.254 38.5096 11.285 38.5616 11.445L40.0536 15.926L41.6496 20.721L42.7856 24.117V11.27H47.9316V16.835H47.9336ZM127.786 30.539V11.269L128.009 11.257L134.143 11.269C135.38 11.296 136.601 11.504 137.738 12.037C138.319 12.2997 138.836 12.6867 139.252 13.1706C139.668 13.6545 139.973 14.2236 140.146 14.838C140.314 15.388 140.434 15.96 140.493 16.53C140.567 17.2944 140.602 18.062 140.6 18.83L140.592 31.553C140.582 32.767 140.352 33.964 139.764 35.064C139.365 35.8139 138.754 36.4293 138.007 36.833C137.269 37.242 136.472 37.456 135.641 37.591C134.831 37.723 134.018 37.785 133.197 37.783L128.06 37.782H127.786V30.539ZM135.517 23.125L135.46 17.854C135.45 17.32 135.266 16.827 134.748 16.552C134.182 16.251 133.556 16.259 132.935 16.248V32.821L134.274 32.642C134.854 32.545 135.24 32.22 135.367 31.645C135.433 31.344 135.509 31.037 135.51 30.732L135.517 23.125ZM108.883 26.028L109.083 27.665L109.329 29.464L109.483 30.846L109.728 32.645L109.882 34.052L110.077 35.422L110.23 36.756L110.344 37.766H105.231L105.141 36.575L104.945 34.469L104.895 33.527C104.89 33.357 104.848 33.268 104.642 33.271L102.243 33.276L102.148 34.572L101.953 36.629L101.903 37.571C101.9 37.709 101.87 37.78 101.709 37.78L96.8216 37.775C96.8066 37.775 96.7926 37.763 96.7616 37.751L96.8676 36.736L97.0116 35.671L97.2016 34.275L97.3116 33.273L97.5006 31.876L97.6106 30.875L97.7996 29.478L97.9096 28.476L98.0986 27.079L98.2086 26.077L98.3986 24.68L98.5076 23.728L98.6976 22.283L98.8066 21.331L98.9966 19.885L99.1056 18.933L99.2956 17.488L99.4046 16.536L99.5946 15.09L99.7036 14.138L99.8936 12.692L100.002 11.764L100.059 11.262H107.029L107.134 11.949L107.382 13.87L107.585 15.68L107.83 17.479L107.984 18.886L108.178 20.256L108.333 21.663L108.525 23.034L108.631 23.964L108.825 25.433L108.88 26.03L108.883 26.028ZM103.097 22.636L103.048 23.138L102.899 25.035L102.796 26.626L102.702 27.459L102.658 28.27H104.454L104.345 26.891L104.293 25.973L104.096 23.843L103.946 21.921L103.747 19.326L103.645 17.637L103.572 16.908L103.397 18.819L103.247 20.667L103.097 22.636ZM56.9616 11.253H59.2416V16.237H54.6816V22.012H59.2426V27.004H54.6806V32.779H59.2416V37.765H49.5926V11.253H56.9616ZM10.4626 11.976C11.6066 11.462 12.7656 11.049 13.9976 10.867L15.7176 10.672L16.8776 10.625C17.7872 10.6586 18.6925 10.7663 19.5846 10.947C20.8926 11.216 22.1376 11.65 23.2926 12.295C24.0604 12.7281 24.7966 13.215 25.4956 13.752C26.0796 14.197 26.6166 14.711 27.1206 15.243C27.8166 15.976 28.4036 16.795 28.9106 17.668C29.4566 18.609 29.8996 19.594 30.1836 20.638C30.3714 21.324 30.5163 22.021 30.6176 22.725C30.7146 23.408 30.7816 24.104 30.7656 24.792C30.7376 26.026 30.5976 27.256 30.1946 28.435L29.2726 30.759C28.8608 31.6397 28.3291 32.4591 27.6926 33.194L26.3726 34.629C25.5526 35.404 24.6436 36.07 23.6536 36.629C22.4706 37.297 21.2166 37.791 19.8926 38.1C19.3584 38.2282 18.8151 38.3155 18.2676 38.361L15.7006 38.45C14.8816 38.406 14.0656 38.238 13.2566 38.086C12.0986 37.868 11.0146 37.431 9.97561 36.897C9.04361 36.417 8.16161 35.856 7.38161 35.156L5.89861 33.743C5.24961 33.044 4.70861 32.263 4.22861 31.44C3.70633 30.5454 3.28923 29.5934 2.98561 28.603C2.75261 27.844 2.60261 27.071 2.48761 26.286C2.35461 25.372 2.35161 24.454 2.41561 23.546C2.47761 22.665 2.63561 21.778 2.87261 20.926C3.11461 20.059 3.45961 19.212 3.84061 18.393C4.28961 17.428 4.90161 16.551 5.59061 15.728C6.73761 14.359 8.09061 13.234 9.67661 12.382L10.4606 11.976H10.4626ZM4.99261 29.969L5.51661 30.928C6.24631 32.1224 7.16413 33.1912 8.23461 34.093C8.98257 34.7269 9.80015 35.2737 10.6716 35.723C11.6706 36.235 12.7236 36.61 13.8246 36.848C14.6753 37.0377 15.544 37.1353 16.4156 37.139C16.9316 37.139 17.4466 37.083 17.9626 37.047C18.8436 36.985 19.6946 36.781 20.5316 36.514C21.7076 36.138 22.7976 35.6 23.8176 34.911C24.8573 34.2073 25.7891 33.3561 26.5836 32.384C27.4916 31.279 28.1716 30.054 28.6636 28.723C29.0656 27.636 29.3076 26.512 29.3676 25.364C29.4086 24.585 29.3606 23.794 29.2686 23.018C29.1856 22.315 29.0236 21.617 28.8376 20.932C28.5886 20.017 28.1816 19.163 27.7046 18.338C27.2164 17.4913 26.6278 16.7067 25.9516 16.001C25.5456 15.579 25.1156 15.169 24.6436 14.821C23.9781 14.3338 23.2882 13.8809 22.5766 13.464C21.7486 12.976 20.8386 12.66 19.9086 12.41C19.0146 12.169 18.1046 12.011 17.1776 11.996C16.5748 11.9808 15.9715 11.9985 15.3706 12.049C14.7766 12.104 14.1846 12.205 13.6006 12.328C12.4416 12.572 11.3586 13.014 10.3226 13.58C9.37414 14.0971 8.49653 14.7348 7.71161 15.477C7.25744 15.8959 6.84177 16.3548 6.46961 16.848C5.9633 17.5303 5.50135 18.2445 5.08661 18.986C4.59683 19.87 4.24956 20.8258 4.05761 21.818C3.90503 22.6251 3.80416 23.4411 3.75561 24.261C3.69561 25.248 3.82661 26.227 4.04061 27.196C4.24802 28.1554 4.56824 29.0869 4.99461 29.971L4.99261 29.969ZM19.5496 31.908C19.5726 31.983 19.5846 32.063 19.6196 32.132L20.7366 34.358C20.8256 34.532 20.8266 34.629 20.6146 34.716C20.2826 34.853 19.9666 35.028 19.6076 35.205L16.5646 29.017L13.5386 35.193L12.4326 34.68C12.2606 34.604 12.3206 34.464 12.3296 34.351C12.3466 34.138 12.3916 33.927 12.4236 33.715L12.5566 32.819L12.6906 31.379L11.3316 34.151L10.0826 33.57L13.1126 27.382L6.30561 28.911L5.99961 27.596L8.85861 25.911L8.85061 25.874L5.76161 26.565L5.45161 25.251L12.2666 23.717L6.80361 19.448L7.36161 18.74C7.65861 18.396 7.66661 18.393 8.11661 18.556L10.5856 19.47C10.6006 19.475 10.6186 19.471 10.6596 19.487C10.7106 19.505 10.7386 19.507 10.7656 19.508L10.7176 19.443L9.38761 18.394L8.32061 17.563L9.10161 16.597C9.13161 16.562 9.26061 16.556 9.30161 16.588L11.3946 18.238L13.6566 19.977L14.6536 20.78V13.94L15.9186 13.948C15.9856 13.951 16.0806 14.052 16.1056 14.127L17.0526 16.996C17.0636 17.03 17.0716 17.065 17.1126 17.096V13.95H18.4576V20.795L21.3316 18.536L23.8136 16.598C23.8596 16.563 23.9986 16.567 24.0316 16.605L24.7326 17.464C24.7706 17.516 24.7366 17.656 24.6906 17.726L23.1056 20.08C23.0936 20.098 23.0946 20.126 23.1316 20.2L25.4876 18.374L26.3436 19.437L20.8676 23.721L27.6936 25.249L27.3786 26.552L24.0126 26.858L24.0116 26.89L27.1476 27.594L26.8346 28.908L20.0236 27.383L23.0566 33.562L21.8106 34.145L19.5886 31.862C19.5496 31.834 19.5326 31.828 19.5156 31.821L19.5516 31.905L19.5496 31.908ZM21.6446 20.043L20.6536 20.817L19.3766 21.817C19.3406 21.844 19.2346 21.844 19.2096 21.815L18.6046 21.068C18.4896 20.926 18.3706 20.818 18.1526 20.837C17.8556 20.862 17.5546 20.852 17.2566 20.837C17.2158 20.8292 17.1773 20.812 17.1441 20.7869C17.111 20.7617 17.0841 20.7292 17.0656 20.692L16.5126 19.061L16.0456 17.686L16.0016 17.695V20.845C15.6196 20.845 15.2546 20.837 14.8906 20.851C14.7893 20.8575 14.6937 20.9005 14.6216 20.972L13.9826 21.756C13.9036 21.866 13.8636 21.879 13.7346 21.831L10.8206 20.763L10.7396 20.757L10.8096 20.848L13.1216 22.642C13.1516 22.666 13.1486 22.781 13.1176 22.821L12.4926 23.588C12.4096 23.688 12.3626 23.771 12.4116 23.927C12.5116 24.242 12.5606 24.573 12.6176 24.9C12.6276 24.958 12.5956 25.058 12.5496 25.085L11.2246 25.861L9.79961 26.697L9.81261 26.735L12.8956 26.05L13.1596 27.117C13.1856 27.277 13.2366 27.348 13.3836 27.408L14.2136 27.79C14.3386 27.843 14.3886 27.908 14.3686 28.039L14.2676 28.797L14.0906 30.05L13.9586 31.093L14.0086 31.103L15.3636 28.337L16.5766 28.913L17.5286 28.44C17.6816 28.36 17.7886 28.371 17.9136 28.501L19.6636 30.276L20.0436 30.692L20.0936 30.711C20.0816 30.683 20.0696 30.656 20.0536 30.592L18.7316 27.88L19.7276 27.417C19.9056 27.347 19.9696 27.235 20.0046 27.072L20.2086 26.196C20.2266 26.132 20.3086 26.046 20.3696 26.039L21.5416 25.934L22.9136 25.834L23.5446 25.759L23.5466 25.712L20.5036 25.03C20.5036 24.978 20.4946 24.928 20.5046 24.882L20.7296 23.914C20.7466 23.826 20.7226 23.705 20.6696 23.634L20.0466 22.866C19.9746 22.777 19.9426 22.707 20.0366 22.582L20.7806 21.476L21.7316 20.055L21.7376 19.975L21.6446 20.043ZM23.0646 20.225L22.9986 20.25C23.0176 20.254 23.0366 20.259 23.0646 20.225Z" fill="white"/>
</svg>
