<svg width="144" height="48" viewBox="0 0 144 48" fill="none" xmlns="http://www.w3.org/2000/svg">
<mask id="mask0_70_1508" style="mask-type:luminance" maskUnits="userSpaceOnUse" x="2" y="10" width="141" height="28">
<path d="M142.024 10.7656H2.03125V37.5728H142.024V10.7656Z" fill="white"/>
</mask>
<g mask="url(#mask0_70_1508)">
<path d="M142.027 25.5211V27.2275C141.994 27.2387 141.996 27.2665 141.995 27.2929C141.971 27.8068 141.911 28.3177 141.867 28.8301C141.855 28.9593 141.815 28.9965 141.684 28.9961C140.296 28.991 138.909 28.993 137.521 28.993C135.735 28.993 133.95 28.9921 132.165 28.9903C132.048 28.9903 132.011 29.0128 132.014 29.137C132.023 29.4586 132.014 29.7804 132.056 30.1006C132.09 30.5236 132.216 30.9343 132.423 31.3042C132.751 31.8353 133.248 32.0316 133.851 31.9912C134.397 31.9547 134.744 31.6385 134.965 31.1633C135.088 30.8954 135.165 30.6082 135.191 30.3145C135.201 30.2127 135.219 30.1637 135.353 30.1759C136.305 30.2631 137.257 30.337 138.21 30.4147C139.36 30.5088 140.511 30.6056 141.662 30.6968C141.756 30.7043 141.773 30.7264 141.756 30.8204C141.67 31.3323 141.545 31.8373 141.383 32.3311C140.573 34.7554 138.968 36.3779 136.512 37.1426C135.345 37.5052 134.145 37.6009 132.929 37.5658C131.79 37.5477 130.66 37.3612 129.575 37.0125C128.378 36.6315 127.297 35.953 126.435 35.0408C126.167 34.7482 125.921 34.437 125.698 34.1093C125.705 34.1826 125.708 34.2184 125.713 34.2541C125.816 35.0563 125.918 35.8591 126.025 36.6608C126.031 36.6794 126.032 36.6989 126.03 36.7181C126.027 36.7372 126.021 36.7557 126.011 36.7724C126.002 36.7891 125.988 36.8036 125.973 36.8151C125.957 36.8266 125.94 36.8348 125.921 36.8392C125.37 37.0664 124.797 37.2337 124.21 37.338C123.498 37.468 122.776 37.5461 122.052 37.5716L121.051 37.5699C120.273 37.5483 119.499 37.4485 118.741 37.2724C116.723 36.7728 115.327 35.5912 114.678 33.5896C114.392 32.6728 114.251 31.717 114.261 30.7569C114.254 28.4071 114.255 26.0575 114.263 23.7077C114.263 23.5553 114.218 23.5259 114.075 23.5268C113.075 23.5328 112.075 23.5328 111.075 23.5268C110.951 23.5268 110.915 23.5536 110.916 23.683C110.92 25.7377 110.917 27.7925 110.921 29.8472C110.909 30.2871 110.952 30.7265 111.048 31.1558C111.161 31.6061 111.415 31.9243 111.884 32.0386C112.192 32.1158 112.514 32.1275 112.827 32.0729C113.029 32.0372 113.229 31.9844 113.435 31.9386C113.446 32.0129 113.458 32.0812 113.467 32.1502C113.548 32.8203 113.629 33.4905 113.71 34.1608C113.821 35.065 113.932 35.9689 114.045 36.8725C114.049 36.8862 114.05 36.9008 114.048 36.915C114.046 36.9293 114.041 36.9429 114.033 36.9549C114.025 36.9669 114.014 36.977 114.002 36.9847C113.99 36.9922 113.976 36.997 113.962 36.9988C113.736 37.0659 113.514 37.1472 113.287 37.2074C112.427 37.4224 111.546 37.5442 110.661 37.571L109.725 37.5702C108.957 37.5476 108.195 37.4367 107.452 37.2397C105.794 36.7717 104.56 35.8007 103.86 34.2055C103.384 33.1177 103.215 31.965 103.21 30.789C103.199 28.4389 103.207 26.0886 103.207 23.7385C103.204 23.7015 103.204 23.6644 103.206 23.6275C103.215 23.5478 103.179 23.5289 103.104 23.5299C102.814 23.5336 102.524 23.5348 102.233 23.5299C102.132 23.528 102.136 23.5695 102.154 23.646C102.231 23.9909 102.289 24.3399 102.328 24.6912C102.494 26.0786 102.413 27.4621 102.261 28.8447C102.248 28.9641 102.205 28.9983 102.083 28.9977C101.094 28.9921 100.104 28.9945 99.1148 28.9945C96.9367 28.9945 94.7586 28.9932 92.5805 28.9907C92.4355 28.9907 92.4023 29.0279 92.4057 29.1674C92.4056 29.4997 92.4235 29.8319 92.4595 30.1623C92.5051 30.5945 92.6448 31.0116 92.8684 31.3844C93.3399 32.1312 94.8189 32.3449 95.3397 31.211C95.4722 30.9296 95.5556 30.6277 95.5864 30.3183C95.5982 30.1913 95.6384 30.1632 95.7643 30.18C96.0088 30.2119 96.2562 30.2202 96.5024 30.2407C97.4764 30.3202 98.4505 30.4001 99.4244 30.4804C100.308 30.5534 101.19 30.6263 102.073 30.6992C102.148 30.7053 102.167 30.7178 102.154 30.8029C102.055 31.4212 101.897 32.0286 101.681 32.6167C100.839 34.8744 99.2813 36.3887 96.9718 37.1221C96.0932 37.3892 95.1832 37.5401 94.2653 37.5711L93.3292 37.5738C93.2975 37.5704 93.2658 37.5649 93.234 37.5639C92.1915 37.5391 91.157 37.3747 90.1583 37.0749C89.0285 36.7523 87.9929 36.1624 87.1399 35.3551C86.2867 34.5479 85.641 33.547 85.2575 32.4375C85.2373 32.3825 85.2383 32.3115 85.1748 32.2752C85.0219 33.0557 84.7121 33.797 84.264 34.4544C83.4882 35.5774 82.4192 36.3211 81.1667 36.8236C79.4609 37.5073 77.6796 37.6475 75.8658 37.5429C74.7755 37.4983 73.6974 37.2982 72.6638 36.949C71.4622 36.5221 70.4354 35.8517 69.6948 34.7917C69.1543 33.9955 68.8046 33.0856 68.673 32.1326C68.6402 31.9248 68.6427 31.9245 68.8491 31.9015C69.4418 31.8355 70.0343 31.7696 70.6268 31.7037C71.55 31.6001 72.4733 31.4963 73.3965 31.3923C74.0051 31.324 74.6141 31.2613 75.2218 31.1853C75.3576 31.1681 75.3956 31.2121 75.4088 31.3342C75.4343 31.5255 75.4818 31.7132 75.5506 31.8936C75.7956 32.5844 76.2977 32.9276 77.0244 32.8931C77.3087 32.8797 77.5498 32.781 77.6741 32.4991C77.7516 32.3236 77.7742 32.1289 77.7389 31.9405C77.7035 31.7519 77.6121 31.5785 77.4763 31.443C77.2895 31.265 77.0694 31.1252 76.8287 31.0317C76.1352 30.7363 75.3994 30.5783 74.6748 30.385C73.6741 30.118 72.6816 29.8291 71.7611 29.3399C70.2738 28.5494 69.3439 27.3536 69.079 25.6368C69.0571 25.7187 69.0411 25.7685 69.0303 25.8194C68.9614 26.1495 68.894 26.4799 68.8251 26.8101C68.3986 28.8537 67.9719 30.8973 67.5451 32.941C67.2619 34.2982 66.9792 35.6557 66.6972 37.0134C66.6807 37.0929 66.6653 37.1483 66.5506 37.1477C63.4959 37.143 60.4413 37.1426 57.3866 37.1463C57.2805 37.1463 57.2481 37.1139 57.2447 37.0134C57.2364 36.912 57.2229 36.811 57.2044 36.7109C57.0475 35.5803 56.8907 34.4495 56.7338 33.3189C56.5891 32.2737 56.4449 31.2284 56.3012 30.1829C56.1553 29.127 56.0089 28.0712 55.8623 27.0153C55.795 26.5268 55.7289 26.0382 55.6598 25.5499C55.6524 25.498 55.6643 25.4262 55.5694 25.4291C55.4807 25.4312 55.5021 25.4996 55.4933 25.5445C55.4725 25.6549 55.4599 25.7671 55.4445 25.8785C55.2686 27.1575 55.0925 28.4366 54.9163 29.7157C54.7599 30.8461 54.6025 31.976 54.4439 33.1059C54.2631 34.4062 54.0809 35.7063 53.907 37.0074C53.8905 37.1317 53.8461 37.1469 53.7383 37.1468C50.8072 37.144 47.8761 37.1444 44.9451 37.1478C44.8288 37.1478 44.7943 37.1116 44.7703 37.0049C44.0792 33.9787 43.3859 30.9532 42.6904 27.9284C42.6432 27.723 42.5923 27.5183 42.5433 27.3131C42.4872 27.8235 42.4357 28.3261 42.3864 28.8293C42.3719 28.9769 42.3211 28.9963 42.1919 28.9961C39.0457 28.9928 35.8996 28.9919 32.7534 28.9935C32.7158 28.9956 32.678 28.9954 32.6405 28.9927C32.5523 28.9815 32.5313 29.022 32.5345 29.1035C32.5402 29.2535 32.5304 29.4042 32.5371 29.5543C32.5615 30.0965 32.6125 30.6351 32.8523 31.1341C32.9674 31.3998 33.1603 31.6244 33.4054 31.7787C33.6507 31.933 33.9369 32.0096 34.2264 31.9984C34.7974 32.0058 35.1946 31.7322 35.4526 31.2387C35.5989 30.9457 35.6887 30.6277 35.717 30.3014C35.729 30.1911 35.7553 30.1664 35.8699 30.1765C36.8166 30.2605 37.7643 30.3353 38.7117 30.4134C39.8624 30.5083 41.013 30.6054 42.1644 30.6953C42.2748 30.704 42.2942 30.7368 42.276 30.8359C42.2092 31.2155 42.1235 31.5916 42.0189 31.9626C41.228 34.6846 39.4953 36.468 36.7393 37.228C35.9649 37.4301 35.1703 37.5456 34.3703 37.5721L33.4342 37.5713C32.6236 37.5453 31.8172 37.4453 31.0249 37.2724C29.8291 37.0214 28.7052 36.5043 27.7369 35.7595C26.4348 34.7307 25.6415 33.3723 25.1738 31.8047C25.0153 31.2381 24.8875 30.6634 24.7912 30.083V30.1793C24.7912 32.4437 24.7916 34.7082 24.7922 36.9729C24.7922 37.0778 24.7957 37.1434 24.6464 37.1431C21.57 37.1378 18.4936 37.1373 15.417 37.1414C15.376 37.1469 15.3343 37.1369 15.3002 37.1132C15.266 37.0896 15.2418 37.0543 15.2324 37.0139C14.751 35.7783 14.267 34.5438 13.7803 33.3103C12.4109 29.8213 11.0411 26.3326 9.67093 22.844C9.65265 22.7974 9.64767 22.7374 9.58582 22.6991V36.9131C9.58353 36.9506 9.58381 36.9882 9.58663 37.0257C9.59927 37.1157 9.55517 37.1314 9.4757 37.1306C9.29849 37.1286 9.12116 37.1388 8.94394 37.1389C6.68516 37.1416 4.42638 37.1445 2.16758 37.1477C2.04779 37.1477 2.03044 37.1093 2.03219 37.0032C2.03851 36.6169 2.03461 36.2305 2.03461 35.8442C2.03461 27.5428 2.03349 19.2415 2.03125 10.9403C2.03125 10.8005 2.06177 10.7665 2.20416 10.7666C5.34513 10.7715 8.4861 10.7719 11.627 10.7681C11.6731 10.7606 11.7203 10.7703 11.7596 10.7955C11.7988 10.8206 11.8274 10.8594 11.8399 10.9043C12.3218 12.1108 12.8077 13.3159 13.2974 14.5194C14.5924 17.7215 15.888 20.9234 17.184 24.125C17.1997 24.1633 17.1929 24.2248 17.261 24.2323V24.0528C17.261 19.6849 17.2598 15.317 17.2575 10.949C17.2575 10.8046 17.2907 10.7662 17.4386 10.7665C19.8266 10.7718 22.2146 10.7718 24.6025 10.7665C24.7549 10.7665 24.7949 10.7968 24.7948 10.9545C24.7898 15.8644 24.7884 20.7744 24.7908 25.6842V25.9636C24.8894 25.3891 25.0167 24.8198 25.1724 24.258C26.0851 21.1904 28.0778 19.2286 31.1905 18.4217C32.2917 18.1491 33.4254 18.0295 34.5593 18.0665C35.4837 18.0738 36.4042 18.1881 37.3022 18.407C38.5526 18.7271 39.6731 19.2833 40.5725 20.2304C40.7227 20.3886 40.8621 20.5571 41.0085 20.7231C41.0233 20.6819 41.0213 20.6367 41.003 20.5971C40.8538 19.9448 40.709 19.2916 40.5512 18.6413C40.5181 18.5051 40.5577 18.4953 40.6749 18.4955C43.0844 18.4984 45.4939 18.4979 47.9034 18.494C48.0317 18.494 48.0648 18.5391 48.0783 18.6504C48.1245 19.0497 48.1758 19.4483 48.2272 19.847C48.3511 20.8089 48.4757 21.7706 48.6008 22.7323C48.7149 23.6145 48.8288 24.4967 48.9426 25.3791C49.066 26.3356 49.189 27.2923 49.3118 28.2488C49.4161 29.0566 49.5214 29.8644 49.6275 30.6721C49.634 30.7212 49.6181 30.781 49.7069 30.7772C49.7892 30.7738 49.7842 30.7184 49.7915 30.6673C49.9424 29.5953 50.0932 28.5234 50.2439 27.4515C50.4425 26.0345 50.6407 24.6174 50.8388 23.2004C51.0509 21.688 51.2657 20.1759 51.4736 18.6629C51.492 18.5293 51.5357 18.4938 51.6719 18.494C54.4417 18.4988 57.2114 18.5 59.9811 18.4976C60.0079 18.4994 60.0349 18.4994 60.0617 18.4976C60.129 18.4889 60.1548 18.5138 60.1623 18.5832C60.1798 18.7428 60.2077 18.9013 60.2304 19.0603C60.4097 20.3066 60.5885 21.5528 60.7668 22.799C60.9427 24.0242 61.1187 25.2493 61.2951 26.4743C61.4948 27.8637 61.6946 29.253 61.8943 30.6424C61.9044 30.7119 61.8955 30.7776 62.0043 30.7793C62.113 30.7809 62.0907 30.7094 62.0973 30.6525C62.2453 29.3747 62.3926 28.097 62.5394 26.8193C62.6843 25.552 62.8284 24.2847 62.9714 23.0173C63.1383 21.5583 63.3075 20.0996 63.4719 18.6404C63.4835 18.5372 63.5006 18.4951 63.6184 18.4953C65.8881 18.4993 68.1578 18.4996 70.4274 18.4963C70.527 18.4963 70.5565 18.512 70.533 18.6199C70.3963 19.2475 70.2665 19.8767 70.1354 20.5056C70.0854 20.7455 70.0384 20.986 69.9899 21.2263C70.2264 20.9307 70.4798 20.6492 70.749 20.383C71.6565 19.532 72.754 18.9092 73.9507 18.5665C76.0103 17.9395 78.0972 17.9207 80.1957 18.3318C81.1446 18.5019 82.0432 18.8825 82.8254 19.4455C84.1441 20.4178 84.7698 21.7874 85.0556 23.3492C85.0691 23.4218 85.0366 23.427 84.9818 23.4345C84.7903 23.4614 84.5995 23.4928 84.4084 23.5204C82.5056 23.7933 80.6031 24.0672 78.7005 24.3421C78.5863 24.3587 78.5661 24.3243 78.5449 24.2305C78.4841 23.9253 78.3704 23.633 78.2087 23.3671C78.1058 23.1923 77.9549 23.0507 77.7737 22.9592C77.5925 22.8677 77.3888 22.8301 77.1869 22.851C77.0127 22.8499 76.8446 22.9152 76.717 23.0337C76.5893 23.1521 76.5117 23.3148 76.5 23.4883C76.4712 23.8619 76.6583 24.1209 76.9543 24.3175C77.2699 24.5109 77.6131 24.6557 77.9721 24.7465C78.7802 24.9831 79.6089 25.1395 80.4212 25.3605C81.3446 25.6118 82.2458 25.9175 83.063 26.4292C83.6472 26.7887 84.1521 27.2631 84.547 27.8233C84.5661 27.6623 84.5605 27.5045 84.5669 27.3472C84.6014 26.1032 84.8241 24.8716 85.2273 23.6943C85.6503 22.4174 86.3905 21.2686 87.3787 20.3551C88.3668 19.4415 89.5706 18.7931 90.8779 18.4705C92.1058 18.1485 93.3754 18.0133 94.6437 18.0695C95.6217 18.0878 96.593 18.2341 97.5331 18.5047C98.828 18.8954 99.9479 19.5569 100.796 20.63C100.954 20.8292 101.095 21.0412 101.264 21.2746V21.0893C101.264 20.2683 101.266 19.4472 101.261 18.6263C101.261 18.5206 101.289 18.4933 101.394 18.4944C101.943 18.4996 102.491 18.4922 103.04 18.5002C103.171 18.502 103.21 18.4742 103.209 18.3366C103.202 17.2849 103.209 16.2331 103.201 15.1814C103.201 15.042 103.245 14.9943 103.375 14.9618C105.534 14.4227 107.693 13.8807 109.85 13.3356C110.202 13.2471 110.554 13.1593 110.918 13.0682V13.2631C110.918 14.9588 110.917 16.6545 110.915 18.3501C110.915 18.471 110.944 18.5006 111.065 18.4999C112.07 18.4945 113.076 18.4945 114.082 18.4999C114.22 18.5007 114.263 18.4738 114.262 18.3264C114.254 17.2854 114.261 16.2448 114.254 15.2034C114.253 15.0557 114.289 14.9951 114.44 14.9572C116.475 14.4491 118.507 13.9361 120.539 13.4185C120.996 13.3028 121.453 13.189 121.928 13.0701V13.2581C121.928 14.943 121.927 16.6279 121.925 18.3128C121.925 18.4537 121.951 18.5008 122.105 18.5002C123.1 18.4922 124.095 18.4983 125.09 18.4934C125.211 18.4928 125.25 18.5177 125.249 18.6476C125.244 19.9247 125.246 21.2018 125.246 22.4789V22.6772C125.278 22.6305 125.287 22.6185 125.295 22.6059C125.308 22.583 125.323 22.56 125.335 22.5362C126.398 20.4921 128.068 19.1922 130.259 18.5335C131.495 18.178 132.779 18.0201 134.063 18.0654C135.101 18.0715 136.133 18.2186 137.132 18.5024C138.847 19.0168 140.191 20 141.035 21.6063C141.593 22.6663 141.849 23.8089 141.965 24.9907C141.963 25.1694 141.984 25.3476 142.027 25.5211ZM124.888 23.5301C123.949 23.5301 123.025 23.5333 122.102 23.5268C121.962 23.5257 121.923 23.5553 121.924 23.7014C121.929 25.5949 121.924 27.4873 121.93 29.3805C121.92 29.8357 121.961 30.2905 122.051 30.7368C122.182 31.3131 122.444 31.7809 123.063 31.9471C123.572 32.0664 124.103 32.0599 124.609 31.928C124.699 31.9082 124.666 31.8573 124.654 31.8081C124.593 31.5699 124.525 31.3334 124.471 31.0936C124.219 29.9082 124.116 28.696 124.166 27.4854C124.19 26.5374 124.314 25.5947 124.537 24.6731C124.633 24.2904 124.753 23.9139 124.888 23.5301ZM33.899 25.3233C34.3025 25.3233 34.7044 25.3233 35.107 25.3233C35.1796 25.3233 35.2377 25.3304 35.2462 25.2236C35.2894 24.8456 35.2774 24.4633 35.2102 24.0888C35.11 23.6175 34.901 23.2201 34.3862 23.1075C33.6708 22.9509 33.1427 23.2136 32.8654 23.8344C32.687 24.2826 32.5901 24.7588 32.5792 25.241C32.5722 25.3439 32.6364 25.3215 32.6911 25.3224C33.0937 25.3234 33.4963 25.3238 33.899 25.3233ZM93.7704 25.3233C94.1737 25.3233 94.5763 25.3204 94.9792 25.3255C95.0713 25.3266 95.1096 25.3084 95.1182 25.2078C95.1587 24.8561 95.151 24.5005 95.0957 24.1509C95.0237 23.7629 94.8871 23.4057 94.5104 23.2022C94.3562 23.1193 94.1865 23.0693 94.0119 23.0553C93.8373 23.0413 93.6617 23.0636 93.4962 23.1208C93.3306 23.178 93.1788 23.2688 93.0502 23.3876C92.9217 23.5064 92.8191 23.6504 92.7491 23.8108C92.5661 24.2576 92.4657 24.7339 92.4533 25.2166C92.4458 25.3215 92.4978 25.3251 92.5775 25.3239C92.975 25.3218 93.3727 25.3233 93.7704 25.3233ZM133.379 25.3233C133.776 25.3233 134.174 25.3182 134.572 25.3263C134.686 25.3288 134.722 25.2881 134.727 25.1849C134.758 24.8377 134.747 24.4881 134.698 24.1431C134.609 23.6799 134.426 23.2695 133.927 23.1264C133.309 22.9488 132.691 23.1265 132.377 23.762C132.148 24.2234 132.095 24.7225 132.054 25.2251C132.047 25.3216 132.096 25.3248 132.17 25.3243C132.573 25.322 132.976 25.3233 133.379 25.3233Z" fill="white"/>
<path d="M30.1435 13.7802C30.1435 12.8522 30.1458 11.9241 30.1408 10.9961C30.1408 10.8739 30.1656 10.8328 30.2966 10.8361C30.678 10.8459 31.0601 10.8447 31.4417 10.8361C31.5621 10.8336 31.5949 10.8647 31.5938 10.9865C31.5874 11.6463 31.5931 12.3061 31.5884 12.966C31.5877 13.0811 31.6019 13.1366 31.7399 13.1287C31.9658 13.1153 31.9663 13.126 31.9663 12.8975C31.9663 12.259 31.9689 11.6207 31.9642 10.9824C31.9634 10.8749 31.9855 10.8338 32.1039 10.8361C32.4963 10.8439 32.8888 10.8428 33.2813 10.8361C33.3833 10.8344 33.4054 10.8647 33.4053 10.962C33.4024 12.8502 33.4024 14.7385 33.4053 16.6268C33.4053 16.7173 33.382 16.7454 33.2896 16.7442C32.8917 16.7395 32.4937 16.738 32.0959 16.7442C31.9839 16.746 31.9642 16.706 31.9647 16.6054C31.9685 15.8919 31.9636 15.1784 31.9696 14.465C31.9706 14.342 31.9427 14.3007 31.8137 14.3071C31.5914 14.3179 31.591 14.3095 31.591 14.5395C31.591 15.2262 31.5886 15.9129 31.5935 16.5995C31.5944 16.7099 31.5674 16.7463 31.4524 16.7442C31.0653 16.7372 30.678 16.7365 30.2911 16.7442C30.1709 16.7467 30.1397 16.7173 30.1406 16.5947C30.146 15.6581 30.1435 14.7189 30.1435 13.7802Z" fill="white"/>
<path d="M34.0511 13.8082C34.0511 12.8803 34.055 11.9523 34.0469 11.0245C34.0456 10.8758 34.0899 10.8499 34.2264 10.8516C34.893 10.8587 35.5596 10.8587 36.2263 10.8516C36.3457 10.8506 36.3823 10.8785 36.3783 11.0013C36.3683 11.296 36.3668 11.5915 36.3783 11.886C36.3838 12.0215 36.3335 12.043 36.2158 12.0382C36.0119 12.0296 35.8073 12.04 35.6032 12.0337C35.516 12.031 35.4946 12.0606 35.4957 12.1432C35.5002 12.4166 35.5013 12.6903 35.4957 12.9637C35.4936 13.0535 35.5268 13.0692 35.6065 13.0672C35.8107 13.0622 36.0153 13.071 36.2193 13.0633C36.3268 13.0592 36.3702 13.0819 36.3671 13.2014C36.3584 13.5068 36.359 13.8129 36.3671 14.1184C36.3699 14.2303 36.329 14.2521 36.2283 14.2487C36.0242 14.2419 35.8196 14.2506 35.6156 14.2448C35.529 14.2423 35.4945 14.259 35.4959 14.356C35.5018 14.726 35.5007 15.0963 35.4959 15.4662C35.4949 15.5496 35.5168 15.576 35.6023 15.5737C35.828 15.5676 36.054 15.5754 36.2795 15.5697C36.3659 15.5675 36.3884 15.5965 36.3871 15.679C36.3829 15.9954 36.381 16.3119 36.388 16.6283C36.3903 16.7351 36.3477 16.7492 36.2555 16.7492C35.5674 16.746 34.8791 16.745 34.1912 16.75C34.0791 16.7508 34.0472 16.7211 34.0478 16.6076C34.0538 15.6748 34.0511 14.7416 34.0511 13.8082Z" fill="white"/>
<path d="M27.2406 14.3863C27.2406 13.6514 27.2382 12.9165 27.2432 12.1817C27.2439 12.071 27.2186 12.0339 27.1029 12.039C26.8937 12.049 26.6836 12.0378 26.474 12.0438C26.3886 12.0463 26.3666 12.0196 26.3673 11.9363C26.372 11.614 26.3732 11.2926 26.3673 10.9708C26.3653 10.8721 26.4049 10.8592 26.4884 10.8594C27.4723 10.8616 28.4562 10.8616 29.4401 10.8594C29.5268 10.8594 29.5629 10.8784 29.5611 10.9745C29.5551 11.2909 29.5539 11.6075 29.5611 11.9238C29.5638 12.0313 29.5217 12.0467 29.43 12.0439C29.2417 12.038 29.0535 12.0514 28.8653 12.039C28.7274 12.0299 28.6873 12.0642 28.688 12.2107C28.6946 13.6375 28.692 15.0644 28.692 16.4913C28.692 16.7538 28.692 16.7538 28.4352 16.7538C28.0803 16.7538 27.7254 16.7501 27.3707 16.7563C27.2662 16.758 27.2363 16.7306 27.2363 16.6234C27.2426 15.8775 27.2406 15.1314 27.2406 14.3863Z" fill="white"/>
</g>
</svg>
