<svg width="136" height="46" viewBox="0 0 136 46" fill="none" xmlns="http://www.w3.org/2000/svg">
<path d="M24.3038 26.7052L15.8758 31.3572C12.3898 33.2812 7.91782 32.1352 5.90582 28.8022C3.89382 25.4692 5.09282 21.1932 8.57682 19.2692L17.0048 14.6172L19.4368 18.6462L11.0088 23.2982C9.84682 23.9392 9.44782 25.3642 10.1178 26.4762C10.7878 27.5882 12.2788 27.9682 13.4408 27.3282L21.8698 22.6762L24.3018 26.7052H24.3038Z" fill="white"/>
<path d="M35.1633 26.0837L26.7353 30.7357L24.3033 26.7067L32.7313 22.0547C33.8933 21.4137 34.2923 19.9887 33.6223 18.8767C32.9523 17.7647 31.4613 17.3837 30.2993 18.0247L21.8713 22.6767L19.4393 18.6477L27.8673 13.9957C31.3523 12.0717 35.8253 13.2177 37.8373 16.5507C39.8493 19.8837 38.6503 24.1597 35.1663 26.0837H35.1653H35.1633ZM27.4803 8.83469L17.0043 14.6187L14.5703 10.5897L25.0483 4.80469L27.4803 8.83469Z" fill="white"/>
<path d="M29.1668 34.7657L18.6898 40.5487L16.2578 36.5187L26.7338 30.7347L29.1658 34.7637L29.1668 34.7657ZM54.1098 17.2117C52.9258 17.2117 51.8698 16.9727 50.9408 16.4967C50.0358 16.0117 49.2868 15.2857 48.7798 14.4007C48.2518 13.4957 47.9878 12.4237 47.9878 11.1867V10.8297C47.9878 9.59169 48.2518 8.52769 48.7798 7.63969C49.2878 6.75469 50.0368 6.02869 50.9408 5.54369C51.8698 5.05269 52.9258 4.80469 54.1098 4.80469C55.2938 4.80469 56.3498 5.05069 57.2788 5.54369C58.1938 6.02269 58.9518 6.74969 59.4638 7.63969C59.9918 8.52869 60.2558 9.59169 60.2558 10.8297V11.1867C60.2558 12.4247 59.9918 13.4957 59.4638 14.4007C58.9518 15.2907 58.1938 16.0177 57.2788 16.4967C56.3498 16.9727 55.2938 17.2117 54.1098 17.2117ZM54.1098 15.0207C55.1978 15.0207 56.0788 14.6797 56.7508 13.9977C57.4398 13.2997 57.7828 12.3387 57.7828 11.1157V10.9017C57.7828 9.67969 57.4468 8.72669 56.7748 8.04369C56.1028 7.34569 55.2148 6.99669 54.1098 6.99669C53.0368 6.99669 52.1578 7.34569 51.4688 8.04369C50.7968 8.72669 50.4608 9.67869 50.4608 10.9017V11.1157C50.4608 12.3377 50.7968 13.2977 51.4688 13.9977C52.1578 14.6807 53.0368 15.0207 54.1098 15.0207ZM62.3758 16.8777V5.13869H64.8008V6.90069H65.1848C65.4098 6.42469 65.8088 5.98069 66.3848 5.56769C66.9608 5.15469 67.8178 4.94869 68.9538 4.94869C69.8498 4.94869 70.6418 5.14669 71.3308 5.54369C72.0348 5.94069 72.5868 6.50469 72.9878 7.23469C73.3878 7.94969 73.5878 8.81369 73.5878 9.83069V16.8787H71.1148V10.0207C71.1148 9.00469 70.8598 8.25869 70.3468 7.78269C69.8338 7.29169 69.1298 7.04369 68.2338 7.04369C67.2088 7.04369 66.3848 7.37769 65.7608 8.04369C65.1518 8.71069 64.8488 9.67869 64.8488 10.9497V16.8797H62.3758V16.8777ZM81.6118 17.2117C80.4118 17.2117 79.3628 16.9657 78.4668 16.4727C77.5698 15.9647 76.8658 15.2577 76.3538 14.3537C75.8568 13.4337 75.6098 12.3697 75.6098 11.1637V10.8777C75.6098 9.65569 75.8588 8.59169 76.3538 7.68769C76.8508 6.76769 77.5378 6.06069 78.4188 5.56869C79.3148 5.06069 80.3468 4.80669 81.5158 4.80669C82.6518 4.80669 83.6448 5.06069 84.4928 5.56869C85.3492 6.05256 86.0492 6.77157 86.5098 7.64069C86.9898 8.52969 87.2298 9.56869 87.2298 10.7597V11.6877H78.1298C78.1618 12.7197 78.5068 13.5447 79.1618 14.1647C79.8338 14.7677 80.6668 15.0697 81.6588 15.0697C82.5878 15.0697 83.2838 14.8627 83.7478 14.4517C84.2278 14.0387 84.5968 13.5627 84.8518 13.0237L86.8928 14.0707C86.6688 14.5147 86.3408 14.9837 85.9088 15.4757C85.4928 15.9677 84.9408 16.3807 84.2518 16.7137C83.5628 17.0467 82.6838 17.2137 81.6108 17.2137L81.6118 17.2117ZM78.1548 9.80569H84.7098C84.6458 8.91669 84.3258 8.22669 83.7498 7.73369C83.1738 7.22569 82.4218 6.97169 81.4928 6.97169C80.5638 6.97169 79.8048 7.22569 79.2118 7.73369C78.6358 8.22469 78.2818 8.91669 78.1548 9.80569ZM53.4148 40.5477C51.9098 40.5477 50.6618 40.2137 49.6698 39.5477C48.6778 38.8817 48.0688 37.8727 47.8458 36.5237L50.1508 35.9767C50.2788 36.6277 50.4948 37.1437 50.7988 37.5237C51.0904 37.8952 51.4816 38.1761 51.9268 38.3337C52.3918 38.4927 52.8868 38.5727 53.4148 38.5727C54.1998 38.5727 54.7998 38.4217 55.2158 38.1207C55.6478 37.8187 55.8638 37.4297 55.8638 36.9537C55.8638 36.4777 55.6638 36.1287 55.2638 35.9067C54.8638 35.6847 54.2718 35.5017 53.4868 35.3597L52.6708 35.2177C51.9218 35.0897 51.1888 34.8827 50.4858 34.5997C49.8298 34.3297 49.3098 33.9577 48.9258 33.4797C48.5418 33.0017 48.3498 32.3917 48.3498 31.6467C48.3498 30.5357 48.7658 29.6777 49.5978 29.0747C50.4308 28.4547 51.5348 28.1467 52.9108 28.1467C54.2388 28.1467 55.3278 28.4487 56.1758 29.0517C57.0238 29.6147 57.6248 30.4737 57.8568 31.4577L55.5518 32.0997C55.4078 31.3847 55.1048 30.8847 54.6398 30.5997C54.1758 30.2977 53.5998 30.1477 52.9108 30.1477C52.2388 30.1477 51.7108 30.2747 51.3268 30.5287C50.9428 30.7677 50.7508 31.1077 50.7508 31.5517C50.7508 32.0277 50.9338 32.3767 51.3028 32.5987C51.6868 32.8207 52.1998 32.9877 52.8398 33.0987L53.6798 33.2407C54.4728 33.3697 55.2528 33.5687 56.0088 33.8357C56.7138 34.0897 57.2648 34.4557 57.6648 34.9317C58.0808 35.4077 58.2888 36.0427 58.2888 36.8357C58.2888 38.0097 57.8488 38.9227 56.9688 39.5737C56.0888 40.2247 54.9018 40.5497 53.4138 40.5497L53.4148 40.5477ZM65.7168 40.5477C64.5808 40.5477 63.5488 40.3087 62.6198 39.8327C61.712 39.36 60.955 38.6422 60.4348 37.7607C59.9068 36.8557 59.6428 35.7687 59.6428 34.4977V34.1877C59.6428 32.9167 59.9068 31.8377 60.4348 30.9487C60.9545 30.0669 61.7117 29.3489 62.6198 28.8767C63.5751 28.3778 64.6392 28.1239 65.7168 28.1377C66.8528 28.1377 67.8218 28.3447 68.6218 28.7577C69.4218 29.1707 70.0618 29.7187 70.5428 30.4007C71.0333 31.0704 71.3619 31.8446 71.5028 32.6627L69.1018 33.1627C69.0285 32.6584 68.8573 32.1733 68.5978 31.7347C68.3428 31.3057 67.9808 30.9657 67.5178 30.7117C67.0548 30.4577 66.4688 30.3307 65.7648 30.3307C65.1095 30.3221 64.4635 30.4862 63.8918 30.8067C63.3399 31.1163 62.8897 31.5793 62.5958 32.1397C62.2748 32.7107 62.1158 33.4107 62.1158 34.2357V34.4507C62.1158 35.2757 62.2748 35.9827 62.5958 36.5697C62.8897 37.1301 63.3399 37.5931 63.8918 37.9027C64.4684 38.208 65.1125 38.3635 65.7648 38.3547C66.8048 38.3547 67.5968 38.0927 68.1418 37.5687C68.6868 37.0287 69.0298 36.3467 69.1738 35.5207L71.5748 36.0677C71.3835 36.8751 71.0326 37.636 70.5428 38.3057C70.0628 38.9887 69.4218 39.5357 68.6218 39.9487C67.8218 40.3447 66.8528 40.5437 65.7168 40.5437V40.5477ZM73.4668 40.2137V23.5467H75.9398V30.1427H76.3238C76.5018 29.8177 76.7278 29.5207 76.9958 29.2617C77.2988 28.9757 77.6918 28.7447 78.1718 28.5707C78.6688 28.3807 79.2928 28.2847 80.0448 28.2847C80.9408 28.2847 81.7328 28.4827 82.4218 28.8797C83.1268 29.2757 83.6778 29.8407 84.0788 30.5707C84.4778 31.2857 84.6788 32.1497 84.6788 33.1667V40.2147H82.2058V33.3597C82.2058 32.3437 81.9508 31.5977 81.4378 31.1217C80.9258 30.6287 80.2208 30.3827 79.3248 30.3827C78.2998 30.3827 77.4768 30.7167 76.8518 31.3827C76.2438 32.0487 75.9398 33.0177 75.9398 34.2887V40.2187L73.4668 40.2177V40.2137ZM92.7038 40.5477C91.5038 40.5477 90.4548 40.3017 89.5588 39.8087C88.6618 39.3007 87.9578 38.5937 87.4458 37.6897C86.9488 36.7697 86.7018 35.7057 86.7018 34.4997V34.2137C86.7018 32.9917 86.9498 31.9277 87.4458 31.0237C87.9118 30.1337 88.6298 29.3977 89.5108 28.9037C90.4068 28.3957 91.4388 28.1417 92.6078 28.1417C93.7438 28.1417 94.7368 28.3957 95.5848 28.9037C96.4412 29.3876 97.1411 30.1066 97.6018 30.9757C98.0818 31.8647 98.3218 32.9037 98.3218 34.0947V35.0227H89.2218C89.2538 36.0547 89.5978 36.8797 90.2538 37.4997C90.9258 38.1027 91.7588 38.4047 92.7508 38.4047C93.6798 38.4047 94.3758 38.1977 94.8398 37.7847C95.3198 37.3717 95.6888 36.8957 95.9438 36.3567L97.9848 37.4037C97.7608 37.8477 97.4328 38.3167 97.0008 38.8087C96.5848 39.3007 96.0318 39.7137 95.3438 40.0477C94.6558 40.3817 93.7758 40.5487 92.7028 40.5487L92.7038 40.5477ZM89.2468 33.1417H95.8018C95.7378 32.2527 95.4178 31.5627 94.8418 31.0697C94.2658 30.5617 93.5138 30.3077 92.5848 30.3077C91.6558 30.3077 90.8968 30.5617 90.3038 31.0697C89.7278 31.5607 89.3748 32.2527 89.2478 33.1417H89.2468ZM100.339 40.2137V28.4757H102.764V29.8567H103.148C103.372 29.4437 103.732 29.0787 104.228 28.7607C104.724 28.4427 105.397 28.2847 106.245 28.2847C107.126 28.2847 107.831 28.4677 108.359 28.8317C108.886 29.1627 109.31 29.6327 109.583 30.1887H109.967C110.239 29.6487 110.631 29.1957 111.142 28.8317C111.67 28.4677 112.414 28.2847 113.376 28.2847C114.144 28.2847 114.824 28.4437 115.417 28.7607C116.01 29.0627 116.482 29.5227 116.835 30.1417C117.186 30.7447 117.363 31.4987 117.363 32.4037V40.2137H114.889V32.5947C114.889 31.8797 114.689 31.3327 114.289 30.9517C113.905 30.5547 113.353 30.3567 112.632 30.3567C111.864 30.3567 111.247 30.6027 110.782 31.0957C110.317 31.5887 110.086 32.2937 110.086 33.2147V40.2157H107.613V32.5967C107.613 31.8817 107.413 31.3347 107.013 30.9537C106.629 30.5567 106.077 30.3587 105.356 30.3587C104.588 30.3587 103.971 30.6047 103.506 31.0977C103.041 31.5907 102.81 32.2957 102.81 33.2167V40.2177H100.337L100.339 40.2167V40.2137ZM123.639 40.5477C122.791 40.5477 122.031 40.4057 121.358 40.1187C120.701 39.8327 120.173 39.4127 119.772 38.8567C119.388 38.3007 119.196 37.6267 119.196 36.8317C119.196 36.0217 119.388 35.3557 119.772 34.8307C120.182 34.2837 120.739 33.8627 121.38 33.6157C122.068 33.3467 122.844 33.2107 123.71 33.2107H127.311V32.4487C127.311 31.7657 127.103 31.2187 126.687 30.8057C126.271 30.3927 125.631 30.1867 124.766 30.1867C123.917 30.1867 123.269 30.3847 122.82 30.7817C122.365 31.1907 122.053 31.7337 121.932 32.3297L119.627 31.5907C119.819 30.9557 120.124 30.3847 120.539 29.8757C120.971 29.3517 121.54 28.9307 122.243 28.6137C122.946 28.2967 123.796 28.1377 124.788 28.1377C126.324 28.1377 127.533 28.5267 128.413 29.3047C129.293 30.0827 129.733 31.1857 129.733 32.6147V37.4487C129.733 37.9247 129.958 38.1637 130.405 38.1637H131.413V40.2117H129.564C129.004 40.2117 128.548 40.0697 128.196 39.7827C127.844 39.4957 127.668 39.1087 127.668 38.6157V38.5447H127.308C127.18 38.7837 126.988 39.0617 126.732 39.3787C126.476 39.6957 126.1 39.9737 125.604 40.2127C125.107 40.4347 124.452 40.5467 123.635 40.5467L123.639 40.5477ZM123.999 38.5227C124.991 38.5227 125.792 38.2447 126.4 37.6887C127.009 37.1177 127.312 36.3397 127.312 35.3557V35.1167H123.855C123.199 35.1167 122.671 35.2587 122.27 35.5457C121.87 35.8147 121.67 36.2197 121.67 36.7607C121.661 37.0087 121.713 37.2557 121.822 37.4797C121.931 37.7044 122.093 37.899 122.294 38.0467C122.71 38.3637 123.278 38.5227 123.999 38.5227Z" fill="white"/>
</svg>
