<svg width="204" height="104" viewBox="0 0 204 104" fill="none" xmlns="http://www.w3.org/2000/svg">
<path d="M128.129 79.3712V58.0472L106.805 79.3712H128.129ZM124.19 75.4322H115.896L124.19 67.1382V75.4322ZM70 21.2422V42.5662L91.324 21.2422H70ZM73.939 25.1812H82.233L73.939 33.4752V25.1812ZM105.286 41.3062V25.1812H97.883V40.9892L97.307 41.0992C96.496 41.2549 95.7092 41.5172 94.967 41.8792L93.947 42.3752V21.2422H108.812L117.082 29.5132L114.19 32.4062L109.227 27.4442V37.3692L105.285 41.3072L105.286 41.3062ZM128.129 40.5612V55.4272H106.997L107.493 54.4082C107.855 53.6642 108.117 52.8762 108.273 52.0642L108.383 51.4892H124.192V44.0852H108.067L112.006 40.1472H121.931L116.968 35.1852L119.86 32.2922L128.129 40.5612ZM103.165 58.7382L104.185 58.2422V79.3722H89.319L81.048 71.1012L83.941 68.2082L88.903 73.1712V63.2462L92.842 59.3082V75.4332H100.246V59.6242L100.822 59.5142C101.634 59.3602 102.421 59.0992 103.165 58.7382ZM81.163 65.4302L78.271 68.3232L70 60.0532V45.1872H91.132L90.636 46.2062C90.274 46.9492 90.012 47.7372 89.856 48.5502L89.745 49.1252H73.937V56.5292H90.061L86.123 60.4672H76.198L81.163 65.4302ZM104.814 50.3072C104.814 51.832 104.208 53.2943 103.13 54.3724C102.051 55.4505 100.589 56.0562 99.064 56.0562C98.3089 56.0561 97.5612 55.9073 96.8636 55.6183C96.166 55.3293 95.5322 54.9057 94.9983 54.3717C93.92 53.2933 93.3144 51.8307 93.3145 50.3057C93.3146 48.7807 93.9206 47.3182 94.999 46.24C96.0774 45.1617 97.54 44.5561 99.065 44.5562C100.589 44.5591 102.05 45.166 103.128 46.2439C104.205 47.3219 104.812 48.783 104.814 50.3072Z" fill="white"/>
</svg>
