<svg width="144" height="48" viewBox="0 0 144 48" fill="none" xmlns="http://www.w3.org/2000/svg">
<path d="M83.9744 26.533L83.2174 20.69L82.8984 16.132C82.8734 15.802 82.7674 15.478 82.3854 15.145L80.5044 26.489H75.9844L78.6864 9.07796H86.0744L86.8434 20.457L87.1584 20.476L90.1114 10.328C90.4024 9.23096 90.8754 8.93096 91.9514 8.98196L97.9294 9.00696L96.4404 26.496H91.9044L92.7374 15.292L92.4534 15.198C92.3224 15.468 92.1554 15.726 92.0654 16.009L89.0814 25.49C88.8344 26.308 88.4634 26.655 87.5824 26.593C86.4224 26.512 85.2524 26.562 83.9744 26.533Z" fill="white"/>
<path d="M96.3744 46.3062H88.6484V28.8042L89.9664 28.7422L99.3704 28.7612C100.476 28.7832 101.618 28.9192 102.672 29.2402C106.471 30.3982 107.787 35.0212 104.236 37.4542C105.678 38.1372 106.648 39.1722 106.869 40.7862C107.275 43.7422 105.647 45.7832 102.41 46.1142C100.457 46.3142 98.4774 46.2502 96.3744 46.3062ZM95.2124 38.9712H93.5014V42.7812L100.373 42.7582C101.469 42.7212 102.025 41.9892 102.034 40.8722C102.044 39.6872 101.341 39.1542 100.284 39.0932L95.2124 38.9712ZM101.473 34.1382C101.544 33.1342 101.051 32.3532 100.113 32.3022L93.5004 32.2642V35.9172L100.095 35.8992C100.997 35.8762 101.384 35.2072 101.473 34.1382Z" fill="white"/>
<path d="M74.9742 41.758C76.1862 42.016 77.3212 42.434 78.4292 42.37C80.5502 42.246 81.5602 41.116 81.6192 38.967L81.6652 30.368V28.832H86.4732L86.5402 30.12V39.66C86.5222 43.35 84.8712 45.579 81.2112 46.088C78.7722 46.427 76.2012 46.385 73.7622 46.023C70.6232 45.556 68.8942 43.494 68.7822 40.401C68.6442 36.602 68.7492 32.795 68.7492 28.747C70.2042 28.747 71.6182 28.697 73.0212 28.796C73.2572 28.813 73.6242 29.476 73.6312 29.845L73.6622 38.579C73.6642 39.776 73.8312 40.913 74.9742 41.758Z" fill="white"/>
<path d="M103.129 18.3922L101.289 17.3582C98.4482 15.3482 98.5472 11.9702 101.508 10.0862C103.532 8.79715 105.811 8.66815 108.121 8.75615C110.818 8.85915 113.861 10.0342 115.598 11.6962L113.183 14.9122L110.587 13.4642C108.927 12.6202 107.158 12.4202 105.36 12.8452C104.916 12.9502 104.562 13.4352 104.166 13.7462C104.497 14.0762 104.769 14.5562 105.168 14.7122L110.963 16.8502C112.253 17.4172 113.552 18.1432 114.579 19.0892C116.878 21.2072 116.299 24.4752 113.519 25.8862C109.814 27.7662 102.719 26.8722 99.6332 24.0722C99.3662 23.8302 99.2372 23.1252 99.3882 22.7902C99.8252 21.8202 100.438 20.9302 101.008 19.9652C102.015 20.6782 102.869 21.5582 103.908 21.9542C105.506 22.5622 107.216 22.9402 108.911 23.1942C109.447 23.2742 110.088 22.6462 110.681 22.3422C110.278 21.8602 109.969 21.1652 109.453 20.9352C107.411 20.0222 105.304 19.2552 103.129 18.3942V18.3922ZM48.4372 42.1392C50.8462 42.0352 52.7822 41.0582 54.7142 39.6052L57.1842 43.1652C54.8572 45.4442 52.0932 46.5782 49.0142 46.5162C46.8162 46.4722 44.5072 46.1682 42.4652 45.4012C38.9792 44.0922 37.0612 41.3802 37.0942 37.5192C37.1282 33.6522 38.9772 30.8742 42.5182 29.4802C47.2002 27.6362 51.7432 28.2521 55.9952 30.9321C56.4012 31.1881 56.7392 31.5542 57.1972 31.9442L54.6782 35.2531C52.3222 33.4331 49.7362 32.6451 46.8482 32.9391C43.7182 33.2571 41.9352 35.0262 41.9882 37.7682C42.0322 40.0702 43.5642 41.6642 46.1692 42.0512C46.8732 42.1562 47.5982 42.1202 48.4382 42.1392H48.4372Z" fill="white"/>
<path d="M58.2822 26.174L58.3673 10.85V9.06703C62.7593 9.06703 67.0163 8.92403 71.2583 9.11503C74.3113 9.25303 76.0703 11.412 76.1523 14.487C76.2403 17.803 74.6013 19.801 71.0973 20.392L63.5293 20.506L63.2892 24.14C63.2542 24.883 63.2822 25.63 63.2822 26.534C61.6212 26.534 60.0862 26.534 58.4412 26.423C58.3142 26.266 58.2982 26.22 58.2822 26.174ZM64.7982 12.469H63.3722V16.97C65.3712 16.97 67.2852 17.055 69.1882 16.942C70.5632 16.86 71.2503 15.853 71.1763 14.422C71.1113 13.174 70.3983 12.524 68.9423 12.48C67.6493 12.441 66.3542 12.47 64.7982 12.469Z" fill="white"/>
<path d="M49.17 5.309L43.359 5.425C42.778 5.46 41.967 5.718 41.688 6.152L26.963 29.365C28.604 30.675 28.513 31.56 26.657 32.318C26.165 32.519 25.51 32.315 24.929 32.298C24.949 31.77 24.79 31.14 25.018 30.729L33.097 16.473C35.207 12.876 37.465 9.367 39.792 5.6C39.004 5.6 38.415 5.555 37.834 5.607L18.788 7.329C18.507 7.355 18.153 7.495 17.959 7.375C17.591 7.147 17.315 6.769 17 6.453C17.295 6.22 17.566 5.829 17.889 5.779C20.269 5.408 22.652 4.986 25.05 4.804L39.904 3.872C40.419 3.836 40.937 3.43 41.398 3.113C41.859 2.796 42.254 2.375 42.678 2L43.808 3.614L52.559 3.601L67.012 3.151C67.558 3.139 68.114 3.62 68.665 3.873C68.293 4.266 67.99 4.8 67.536 5.024C66.589 5.492 65.6 6.4 64.55 5.022C64.345 4.753 63.568 4.887 63.056 4.901L49.171 5.309H49.17Z" fill="white"/>
<path d="M58.3125 28.9342L63.2665 28.6562V42.8822H67.4745V46.1913H58.3395L58.3315 29.2652L58.3125 28.9342Z" fill="white"/>
<path d="M42.6712 19.8614C44.4192 19.5184 44.4192 19.5184 45.2162 23.3334L47.7072 20.8084L51.8142 17.0674C52.1412 16.8054 53.1522 16.9124 53.4542 17.2274C53.8292 17.6184 54.1092 18.5944 53.8742 18.9784C53.3192 19.8874 52.5172 20.7044 51.6582 21.3484C51.0832 21.7794 50.1962 21.7674 49.5332 22.1164C49.1602 22.3124 48.9592 22.8364 48.6812 23.2134C49.0712 23.4104 49.5762 23.8744 49.8352 23.7634L55.3542 21.1714C55.7692 20.9764 56.2252 20.8694 56.6632 20.7214C56.5452 21.1814 56.5802 21.8394 56.2842 22.0674C54.9812 23.0674 53.6682 24.1194 52.2002 24.8254C49.8002 25.9814 48.7102 25.5534 47.2652 23.3354C43.8362 25.1504 43.8362 25.1504 43.0662 21.0194L39.2742 24.9004C38.8512 25.3334 38.4032 26.0854 37.8002 25.3294C37.5352 24.9974 37.5722 24.1384 37.8202 23.7274L46.2752 10.0044C46.4862 9.66841 47.1872 9.28741 47.4502 9.40441C48.1682 9.72141 48.0662 10.3504 47.6752 10.9784L42.3802 19.5914C42.4222 19.7814 42.5472 19.8214 42.6712 19.8614Z" fill="white"/>
</svg>
