<svg width="131" height="70" viewBox="0 0 131 70" fill="none" xmlns="http://www.w3.org/2000/svg">
<path d="M39.8893 46.6946L36.8384 40.021C36.4088 39.0252 35.8572 38.5114 34.693 38.5841C33.1073 38.6831 31.5088 38.6577 29.9199 38.5882C28.8067 38.5396 28.3938 38.9237 28.4194 40.0678C28.4822 42.8459 28.4478 45.6265 28.4282 48.4057C28.4243 48.9455 28.391 49.5099 28.2314 50.019C27.8829 51.1297 27.1018 51.7597 25.9029 51.7583C24.6889 51.757 23.9526 51.0635 23.606 49.9747C23.4447 49.4683 23.4373 48.8985 23.4368 48.3573L23.4297 18.1471C23.4302 15.8481 23.7296 15.512 26.024 15.5536C30.2944 15.631 34.5682 15.3354 38.8361 15.7529C43.8168 16.2402 47.3508 18.8567 48.6838 23.4792C50.0456 28.2017 49.0023 32.3837 45.3037 35.7778C44.1798 36.8093 42.7052 37.2134 41.3199 37.953C42.8289 41.7188 44.5313 45.2828 46.347 48.791C47.183 50.4065 48.0661 52.0069 49.0574 53.53C51.1045 56.6756 55.1301 56.9528 57.6987 54.1922C58.8625 52.9412 60.0649 52.7381 61.1683 53.6057C62.1596 54.385 62.3651 55.6502 61.5248 56.7614C59.3521 59.6353 56.3628 60.8723 52.8365 60.6792C49.097 60.4747 46.3823 58.5779 44.4901 55.3371C42.8592 52.5434 41.2703 49.7344 39.889 46.694M28.4372 22.0379L28.4486 33.2237C28.4511 33.826 28.28 34.63 29.2788 34.61C32.4026 34.5468 35.5458 34.9305 38.647 34.3316C42.1949 33.6467 44.1842 30.8144 44.1233 26.6521C44.0723 23.1642 41.9004 20.6346 38.4595 20.0227C35.7988 19.5496 33.118 19.8507 30.4469 19.7872C28.4407 19.7396 28.4399 19.7804 28.4372 22.0379ZM53.1727 30.2845C58.4962 26.435 65.3172 26.9663 69.2972 31.4737C74.3497 37.1956 72.6 47.5627 65.9318 50.6422C58.9757 53.8542 50.3052 50.5828 49.2842 41.6026C48.7888 37.2459 49.7514 33.3932 53.173 30.2848M66.3568 34.8542C64.5143 32.1641 61.8411 31.5956 58.8911 32.1548C56.2198 32.6612 54.6292 34.4798 54.0029 37.0923C53.6195 38.6913 53.5938 40.3226 53.87 41.9597C54.3634 44.8858 56.6084 47.1917 59.309 47.4927C63.0378 47.9083 65.7149 46.6068 66.8475 43.7256C68.0033 40.7853 67.9413 37.865 66.3573 34.8539L66.3568 34.8542ZM78.415 37.186L78.418 45.6511C78.4197 47.4826 78.4213 47.4843 80.3132 47.4867L85.9003 47.4941C87.4802 47.5121 88.3055 48.2094 88.3063 49.4675C88.3074 50.7423 87.504 51.4548 85.914 51.4666C82.5527 51.49 79.1912 51.4889 75.83 51.4633C74.4375 51.4532 73.9089 50.9517 73.9043 49.5698L73.9097 30.8653C73.9176 29.1169 74.8767 28.0685 76.2702 28.1052C77.572 28.1394 78.4036 29.2093 78.4134 30.9055L78.4148 37.186H78.415ZM94.5092 45.6156C94.277 47.1159 94.8168 47.5988 96.2201 47.5165C98.166 47.4025 100.124 47.4698 102.076 47.5007C103.565 47.5242 104.352 48.2337 104.348 49.4587C104.343 50.6783 103.567 51.4343 102.084 51.4532L91.7306 51.4628C90.4389 51.4537 89.9946 50.926 89.9892 49.4117L89.9791 34.1252L89.9875 30.5768C90.032 29.1287 90.9476 28.132 92.1949 28.1005C93.4964 28.0677 94.4876 29.0833 94.4961 30.6085L94.5092 45.6153V45.6156ZM110.592 43.4751L110.577 48.6633C110.537 50.343 109.52 51.4909 108.2 51.4387C106.909 51.3876 106.082 50.3069 106.08 48.6163L106.081 30.8669C106.084 29.1226 107.009 28.0532 108.4 28.1046C109.717 28.1533 110.575 29.2632 110.584 31.0504L110.592 43.4751H110.592Z" fill="white"/>
</svg>
