<svg width="1997" height="319" viewBox="0 0 1997 319" fill="none" xmlns="http://www.w3.org/2000/svg">
<mask id="mask0_27_83" style="mask-type:luminance" maskUnits="userSpaceOnUse" x="0" y="-148" width="1998" height="601">
<path d="M1997.71 -147.91H0.552246V452.561H1997.71V-147.91Z" fill="white"/>
</mask>
<g mask="url(#mask0_27_83)">
<mask id="mask1_27_83" style="mask-type:luminance" maskUnits="userSpaceOnUse" x="604" y="20" width="289" height="289">
<path d="M604.093 20.4248H892.376V308.708H604.093V20.4248Z" fill="white"/>
</mask>
<g mask="url(#mask1_27_83)">
<path d="M765.651 164.696L892.531 308.967L748.364 185.381L604.093 308.967L730.973 164.696L604.093 20.4248L748.364 147.305L892.635 20.4248L765.651 164.696Z" fill="white"/>
</g>
<mask id="mask2_27_83" style="mask-type:luminance" maskUnits="userSpaceOnUse" x="1" y="-148" width="612" height="600">
<path d="M1.80615 -147.417H612.798V451.801H1.80615V-147.417Z" fill="white"/>
</mask>
<g mask="url(#mask2_27_83)">
<mask id="mask3_27_83" style="mask-type:luminance" maskUnits="userSpaceOnUse" x="0" y="-148" width="613" height="601">
<path d="M612.797 -147.91H0.552246V452.561H612.797V-147.91Z" fill="white"/>
</mask>
<g mask="url(#mask3_27_83)">
<path d="M136.244 310.389C208.825 310.389 253.679 278.58 253.679 221.09C253.679 175.012 225.952 148.509 157.447 135.05L132.168 130.158C88.9475 121.184 75.4891 110.583 75.4891 87.3396C75.4891 65.3209 92.6153 51.4601 127.684 51.4601C173.757 51.4601 189.664 68.9945 191.699 99.9816H245.119C243.078 45.3432 208.417 7.01465 126.868 7.01465C57.1383 7.01465 19.2179 40.859 19.2179 88.9723C19.2179 141.576 56.3219 166.446 112.593 177.053L137.061 181.945C181.506 190.913 196.592 201.106 196.592 223.941C196.592 251.261 175.797 265.944 135.836 265.944C97.0995 265.944 66.9231 253.71 66.1125 208.04H11.8765C12.2846 274.912 58.771 310.389 136.244 310.389Z" fill="white"/>
<path d="M317.29 68.997V20.8779H266.32V68.997H317.29ZM317.698 303.866V93.459H266.32V303.866H317.698Z" fill="white"/>
<path d="M394.358 303.866V13.542H342.979V303.866H394.358Z" fill="white"/>
<mask id="mask4_27_83" style="mask-type:luminance" maskUnits="userSpaceOnUse" x="396" y="93" width="217" height="211">
<path d="M396.45 93.4561H612.664V303.915H396.45V93.4561Z" fill="white"/>
</mask>
<g mask="url(#mask4_27_83)">
<path d="M538.3 149.73C527.291 184.799 515.874 221.909 505.267 257.38C494.666 222.311 483.248 184.799 472.239 150.138L451.853 93.459H396.806L474.688 303.866H533.81L612.106 93.459H558.686L538.3 149.73Z" fill="white"/>
</g>
</g>
</g>
<mask id="mask5_27_83" style="mask-type:luminance" maskUnits="userSpaceOnUse" x="882" y="-148" width="1115" height="600">
<path d="M882.126 -147.417H1996.36V451.801H882.126V-147.417Z" fill="white"/>
</mask>
<g mask="url(#mask5_27_83)">
<mask id="mask6_27_83" style="mask-type:luminance" maskUnits="userSpaceOnUse" x="882" y="-148" width="1116" height="601">
<path d="M1997.71 -147.91H882.126V452.561H1997.71V-147.91Z" fill="white"/>
</mask>
<g mask="url(#mask6_27_83)">
<path d="M1016.56 310.389C1089.14 310.389 1133.99 278.58 1133.99 221.09C1133.99 175.012 1106.26 148.509 1037.76 135.05L1012.48 130.158C969.26 121.184 955.802 110.583 955.802 87.3396C955.802 65.3209 972.928 51.4601 1008 51.4601C1054.07 51.4601 1069.98 68.9945 1072.01 99.9816H1125.43C1123.39 45.3432 1088.73 7.01465 1007.18 7.01465C937.451 7.01465 899.531 40.859 899.531 88.9723C899.531 141.576 936.635 166.446 992.906 177.053L1017.37 181.945C1061.82 190.913 1076.9 201.106 1076.9 223.941C1076.9 251.261 1056.11 265.944 1016.15 265.944C977.413 265.944 947.236 253.71 946.425 208.04H892.189C892.598 274.912 939.084 310.389 1016.56 310.389Z" fill="white"/>
<path d="M1252.25 93.4575H1210.65V32.2939H1159.68V93.4575H1127.06V133.419H1159.68V251.67C1159.68 290.406 1180.88 305.089 1225.33 305.089C1233.49 305.089 1243.27 304.681 1252.25 303.865V264.312H1234.71C1217.59 264.312 1210.65 259.828 1210.65 245.961V133.419H1252.25V93.4575Z" fill="white"/>
<path d="M1403.93 211.302C1403.93 248.82 1379.46 264.313 1357.04 264.313C1330.54 264.313 1317.49 251.263 1317.49 224.352V93.459H1266.11V232.918C1266.11 283.072 1295.87 308.759 1339.5 308.759C1369.68 308.759 1391.7 293.673 1405.57 273.282V303.866H1455.31V93.459H1403.93V211.302Z" fill="white"/>
<path d="M1630.65 120.784C1616.37 100.392 1594.76 88.5663 1565.81 88.5663C1507.51 88.5663 1471.21 131.793 1471.21 198.665C1471.21 265.538 1507.51 308.759 1565.81 308.759C1595.99 308.759 1618.01 295.708 1632.28 274.506V303.866H1682.02V13.542H1630.65V120.784ZM1577.64 266.354C1544.61 266.354 1523.82 244.743 1523.82 200.292C1523.82 155.847 1544.61 130.977 1577.64 130.977C1611.07 130.977 1631.87 154.22 1631.87 198.665C1631.87 243.111 1611.07 266.354 1577.64 266.354Z" fill="white"/>
<path d="M1760.72 68.997V20.8779H1709.75V68.997H1760.72ZM1761.13 303.866V93.459H1709.75V303.866H1761.13Z" fill="white"/>
<path d="M1884.27 308.759C1948.3 308.759 1991.11 265.538 1991.11 198.666C1991.11 131.794 1948.3 88.5669 1884.27 88.5669C1820.25 88.5669 1777.03 131.794 1777.03 198.666C1777.03 265.538 1820.25 308.759 1884.27 308.759ZM1884.27 266.355C1850.84 266.355 1829.64 243.111 1829.64 198.666C1829.64 154.22 1850.84 130.977 1884.27 130.977C1917.3 130.977 1938.91 154.22 1938.91 198.666C1938.91 243.111 1917.3 266.355 1884.27 266.355Z" fill="white"/>
</g>
</g>
</g>
</svg>
