<svg width="1952" height="389" viewBox="0 0 1952 389" fill="none" xmlns="http://www.w3.org/2000/svg">
<path d="M148.008 361.093C103.207 361.093 68.4483 351.051 43.7307 330.968C19.322 310.885 6.96316 282.151 6.65419 244.766H68.2938C68.6028 268.247 75.5546 285.086 89.1493 295.282C103.053 305.478 123.291 310.576 149.862 310.576C171.49 310.576 188.02 306.56 199.452 298.526C210.884 290.184 216.6 278.289 216.6 262.84C216.6 249.864 211.656 239.977 201.769 233.179C192.191 226.382 174.58 220.357 148.935 215.104L121.128 209.543C50.3735 196.257 14.9964 162.888 14.9964 109.437C14.9964 81.0112 25.8104 58.4564 47.4383 41.772C69.0662 24.7786 99.0364 16.2819 137.349 16.2819C180.914 16.2819 213.819 25.551 236.065 44.0893C258.62 62.6275 270.515 88.581 271.751 121.95H211.038C209.802 103.103 203.468 89.1989 192.037 80.2388C180.914 71.2787 162.993 66.7986 138.276 66.7986C119.119 66.7986 104.443 70.3518 94.2473 77.4581C84.0513 84.5644 78.9533 94.6059 78.9533 107.583C78.9533 120.868 83.5879 131.064 92.857 138.171C102.435 145.277 119.274 151.302 143.374 156.246L172.108 161.807C210.729 169.531 238.537 181.118 255.53 196.566C272.832 211.706 281.483 232.716 281.483 259.596C281.483 291.729 269.743 316.756 246.261 334.676C222.779 352.287 190.028 361.093 148.008 361.093ZM353.652 83.483H296.184V28.7952H353.652V83.483ZM354.116 353.678H295.72V114.535H354.116V353.678ZM441.032 353.678H382.636V23.6972H441.032V353.678ZM604.505 178.491L627.678 114.535H688.39L599.407 353.678H532.206L443.686 114.535H506.252L529.425 178.955C540.239 212.633 552.752 253.262 566.965 300.844C578.397 262.531 590.91 221.747 604.505 178.491Z" fill="white"/>
<path d="M828.485 361.093C783.684 361.093 748.925 351.051 724.207 330.968C699.799 310.885 687.44 282.151 687.131 244.766H748.77C749.079 268.247 756.031 285.086 769.626 295.282C783.53 305.478 803.767 310.576 830.339 310.576C851.967 310.576 868.496 306.56 879.928 298.526C891.36 290.184 897.076 278.289 897.076 262.84C897.076 249.864 892.133 239.977 882.246 233.179C872.668 226.382 855.056 220.357 829.412 215.104L801.604 209.543C730.85 196.257 695.473 162.888 695.473 109.437C695.473 81.0112 706.287 58.4564 727.915 41.772C749.543 24.7786 779.513 16.2819 817.825 16.2819C861.39 16.2819 894.296 25.551 916.541 44.0893C939.096 62.6275 950.992 88.581 952.227 121.95H891.515C890.279 103.103 883.945 89.1989 872.513 80.2388C861.39 71.2787 843.47 66.7986 818.752 66.7986C799.596 66.7986 784.92 70.3518 774.724 77.4581C764.528 84.5644 759.43 94.6059 759.43 107.583C759.43 120.868 764.064 131.064 773.334 138.171C782.912 145.277 799.751 151.302 823.85 156.246L852.584 161.807C891.206 169.531 919.013 181.118 936.007 196.566C953.309 211.706 961.96 232.716 961.96 259.596C961.96 291.729 950.219 316.756 926.737 334.676C903.256 352.287 870.505 361.093 828.485 361.093ZM1096.34 114.535V159.026H1049.07V288.33C1049.07 296.055 1051.08 301.462 1055.09 304.551C1059.42 307.641 1066.52 309.186 1076.41 309.186H1096.34V353.678C1083.67 354.914 1073.48 355.532 1065.75 355.532C1039.8 355.532 1020.8 350.743 1008.75 341.164C997.006 331.277 991.136 315.674 991.136 294.355V159.026H954.06V114.535H991.136V45.0162H1049.07V114.535H1096.34ZM1268.64 248.473V114.535H1327.04V353.678H1270.49V318.919C1252.27 345.799 1227.24 359.239 1195.42 359.239C1169.77 359.239 1149.38 351.824 1134.24 336.993C1119.41 321.854 1111.99 300.535 1111.99 273.036V114.535H1170.39V263.304C1170.39 293.583 1185.37 308.723 1215.34 308.723C1230.17 308.723 1242.69 303.47 1252.88 292.965C1263.39 282.151 1268.64 267.32 1268.64 248.473ZM1526.51 145.586V23.6972H1584.91V353.678H1528.36V320.309C1510.75 346.262 1485.57 359.239 1452.82 359.239C1419.76 359.239 1393.65 347.807 1374.5 324.943C1355.03 302.08 1345.3 271.801 1345.3 234.106C1345.3 195.794 1355.03 165.36 1374.5 142.805C1393.34 120.251 1419.45 108.973 1452.82 108.973C1484.95 108.973 1509.52 121.177 1526.51 145.586ZM1405.09 235.96C1405.09 260.678 1410.49 279.37 1421.31 292.038C1432.12 304.706 1447.11 311.04 1466.26 311.04C1485.42 311.04 1500.56 304.397 1511.68 291.111C1522.49 277.825 1527.9 258.824 1527.9 234.106C1527.9 209.388 1522.49 190.387 1511.68 177.101C1500.87 163.815 1485.73 157.172 1466.26 157.172C1447.41 157.172 1432.43 164.124 1421.31 178.028C1410.49 191.932 1405.09 211.242 1405.09 235.96ZM1671.43 83.483H1613.97V28.7952H1671.43V83.483ZM1671.9 353.678H1613.5V114.535H1671.9V353.678ZM1933.07 234.106C1933.07 271.801 1921.95 302.08 1899.7 324.943C1877.46 347.807 1848.11 359.239 1811.65 359.239C1775.19 359.239 1745.84 347.807 1723.59 324.943C1701.04 302.389 1689.76 272.11 1689.76 234.106C1689.76 196.103 1701.04 165.824 1723.59 143.269C1745.84 120.405 1775.19 108.973 1811.65 108.973C1848.11 108.973 1877.46 120.251 1899.7 142.805C1921.95 165.36 1933.07 195.794 1933.07 234.106ZM1765.77 291.111C1776.89 304.397 1792.18 311.04 1811.65 311.04C1831.11 311.04 1846.25 304.397 1857.07 291.111C1868.19 277.516 1873.75 258.515 1873.75 234.106C1873.75 209.697 1868.19 190.85 1857.07 177.565C1846.25 163.97 1831.11 157.172 1811.65 157.172C1792.18 157.172 1776.89 163.815 1765.77 177.101C1754.95 190.387 1749.55 209.388 1749.55 234.106C1749.55 258.824 1754.95 277.825 1765.77 291.111Z" fill="white"/>
</svg>
