<svg width="313" height="115" viewBox="0 0 313 115" fill="none" xmlns="http://www.w3.org/2000/svg">
<mask id="mask0_6_2" style="mask-type:luminance" maskUnits="userSpaceOnUse" x="0" y="0" width="313" height="114">
<path d="M313 0H0V113.513H313V0Z" fill="white"/>
</mask>
<g mask="url(#mask0_6_2)">
<mask id="mask1_6_2" style="mask-type:luminance" maskUnits="userSpaceOnUse" x="-5" y="-12" width="322" height="154">
<path d="M316.001 -11.8282H-4.82588V141.406H316.001V-11.8282Z" fill="white"/>
</mask>
<g mask="url(#mask1_6_2)">
<mask id="mask2_6_2" style="mask-type:luminance" maskUnits="userSpaceOnUse" x="114" y="-6" width="79" height="129">
<path d="M192.896 -5.94394H114.984V122.575H192.896V-5.94394Z" fill="white"/>
</mask>
<g mask="url(#mask2_6_2)">
<path d="M166.464 88.4617L162.213 73.3606L146.574 75.236L145.901 90.9332L127.744 93.114L136.277 11.8226L159.848 8.99063L187.63 85.9201L166.464 88.4617ZM147.045 62.8602L158.832 61.4442L148.932 26.7694L148.45 26.8283L147.045 62.8602Z" fill="white"/>
</g>
<mask id="mask3_6_2" style="mask-type:luminance" maskUnits="userSpaceOnUse" x="180" y="16" width="70" height="126">
<path d="M180.655 16.1822H249.386V141.208H180.655V16.1822Z" fill="white"/>
</mask>
<g mask="url(#mask3_6_2)">
<mask id="mask4_6_2" style="mask-type:luminance" maskUnits="userSpaceOnUse" x="180" y="16" width="70" height="126">
<path d="M249.386 16.1822H180.655V141.406H249.386V16.1822Z" fill="white"/>
</mask>
<g mask="url(#mask4_6_2)">
<path d="M183.876 108.393L203.123 68.2308L189.202 28.8706L211.45 30.1247L217.559 57.3997L226.69 30.9817L245.554 32.0409L227.422 69.7206L241.924 111.659L219.794 110.416L213.494 82.159L204.196 109.537L183.876 108.393Z" fill="white"/>
</g>
</g>
<mask id="mask5_6_2" style="mask-type:luminance" maskUnits="userSpaceOnUse" x="-5" y="-1" width="70" height="129">
<path d="M-4.67647 -0.0585327H64.1401V127.283H-4.67647V-0.0585327Z" fill="white"/>
</mask>
<g mask="url(#mask5_6_2)">
<mask id="mask6_6_2" style="mask-type:luminance" maskUnits="userSpaceOnUse" x="-5" y="-1" width="70" height="129">
<path d="M64.1414 -0.0585327H-4.82588V127.283H64.1414V-0.0585327Z" fill="white"/>
</mask>
<g mask="url(#mask6_6_2)">
<path d="M32.8489 95.6556C26.351 96.3989 21.2213 95.7876 17.4608 93.821C13.6992 91.8518 10.9114 88.7983 9.09734 84.6592C7.28507 80.5181 6.04929 75.5592 5.39004 69.7824L21.157 67.9835C21.8062 73.6799 22.8497 77.4818 24.2868 79.3885C25.7231 81.2965 28.0465 82.0659 31.2564 81.6987C33.8235 81.4068 35.6054 80.4729 36.604 78.8958C37.6016 77.3199 37.9584 75.287 37.6742 72.7983C37.4361 70.7144 36.9948 69.1609 36.3502 68.1384C35.7048 67.1159 34.8607 66.2974 33.8162 65.6816C32.3303 64.7942 28.7012 63.6246 22.9297 62.1727C20.1714 61.5107 17.6851 60.7374 15.471 59.852C13.257 58.9675 11.4401 57.9974 10.0205 56.9428C8.08312 55.6188 6.37018 53.5996 4.8825 50.8854C3.39204 48.1711 2.42201 44.8482 1.97331 40.9147C1.15959 33.7751 2.65279 27.8142 6.45291 23.033C10.2558 18.2499 15.9675 15.4226 23.588 14.5519C29.526 13.8751 34.3136 14.345 37.9501 15.9605C41.5884 17.5769 44.3752 20.4493 46.3099 24.5777C48.2462 28.7043 49.6089 34.2173 50.3959 41.117L34.868 42.8897C34.3918 38.7172 33.7877 35.5551 33.0548 33.4046C32.3211 31.2549 31.3465 29.8425 30.1309 29.1677C28.9173 28.4909 27.3882 28.2583 25.5447 28.4688C23.4556 28.707 21.8686 29.5998 20.7855 31.1464C19.7042 32.6938 19.3052 34.7102 19.5902 37.1964C19.855 39.5236 20.3166 41.2595 20.9768 42.4042C21.636 43.5472 22.4084 44.4335 23.2938 45.0633C24.2593 45.6867 25.712 46.3129 27.6521 46.9427C29.594 47.5735 31.8632 48.2281 34.4598 48.9067C37.3874 49.6303 39.8258 50.3484 41.7751 51.0619C43.7243 51.7736 45.5393 52.7234 47.222 53.9122C51.7972 56.9649 54.5013 62.1424 55.3353 69.4439C56.1416 76.5033 54.6604 82.4006 50.8924 87.1377C47.1263 91.8735 41.1112 94.7128 32.8489 95.6556Z" fill="white"/>
</g>
</g>
<mask id="mask7_6_2" style="mask-type:luminance" maskUnits="userSpaceOnUse" x="167" y="11" width="16" height="15">
<path d="M167.472 11.0039H182.772V25.5976H167.472V11.0039Z" fill="white"/>
</mask>
<g mask="url(#mask7_6_2)">
<mask id="mask8_6_2" style="mask-type:luminance" maskUnits="userSpaceOnUse" x="165" y="-12" width="48" height="47">
<path d="M182.783 -11.6962L212.676 6.88529L195.71 34.1786L165.818 15.5971L182.783 -11.6962Z" fill="white"/>
</mask>
<g mask="url(#mask8_6_2)">
<mask id="mask9_6_2" style="mask-type:luminance" maskUnits="userSpaceOnUse" x="165" y="-12" width="48" height="47">
<path d="M182.783 -11.6962L212.676 6.88529L195.71 34.1786L165.818 15.5971L182.783 -11.6962Z" fill="white"/>
</mask>
<g mask="url(#mask9_6_2)">
<path d="M168.349 13.2271C168.433 13.1618 168.483 13.1057 168.396 13C168.306 12.8906 168.341 12.8216 168.489 12.7821C168.553 12.7646 168.615 12.7425 168.68 12.7278C168.741 12.7149 168.803 12.7094 168.887 12.6984C168.897 12.5412 168.834 12.3904 168.745 12.247C168.735 12.2304 168.706 12.2248 168.699 12.2083C168.616 12.018 168.52 11.8304 168.458 11.6328C168.405 11.4608 168.495 11.3606 168.676 11.3284C168.735 11.3183 168.788 11.2834 168.868 11.2484C168.847 11.2907 168.831 11.3155 168.826 11.3431C168.822 11.3651 168.826 11.3983 168.84 11.4102C168.855 11.4222 168.892 11.4231 168.908 11.4121C169.072 11.3127 169.071 11.311 169.223 11.3073C169.2 11.2834 169.17 11.2622 169.153 11.2328C169.123 11.1868 169.101 11.1371 169.077 11.0884C169.126 11.0903 169.188 11.0728 169.225 11.0949C169.575 11.2999 169.921 11.5086 170.264 11.7238C170.512 11.8791 170.753 12.0428 170.992 12.2092C171.04 12.2414 171.071 12.2994 171.096 12.3536C171.143 12.4657 171.116 12.5329 170.953 12.5035C170.973 12.5623 170.988 12.6037 171.01 12.6699C171.099 12.589 171.166 12.5292 171.235 12.4657C171.365 12.5457 171.532 12.6386 171.685 12.7508C171.738 12.7894 171.753 12.8777 171.786 12.943C171.778 12.9577 171.771 12.9724 171.763 12.9871C171.84 12.9843 171.917 12.9797 171.996 12.9807C172.019 12.9807 172.051 12.9908 172.064 13.0073C172.147 13.1223 172.251 13.2115 172.376 13.2776C172.448 13.3154 172.531 13.3595 172.569 13.4239C172.68 13.6077 172.889 13.6629 173.03 13.8036C173.243 14.0151 173.463 14.2192 173.678 14.427C173.753 14.4969 173.829 14.5649 173.9 14.6384C174.107 14.8554 174.312 15.0752 174.519 15.2922C174.639 15.4172 174.762 15.5405 174.881 15.6664C174.915 15.7032 174.936 15.7519 174.97 15.7897C175.03 15.8604 175.095 15.9275 175.16 15.9938C175.188 16.0241 175.225 16.0462 175.249 16.0784C175.428 16.3009 175.6 16.527 175.782 16.7468C175.893 16.8792 176.018 16.9997 176.13 17.1302C176.366 17.4042 176.595 17.6819 176.83 17.955C177.129 18.3034 177.433 18.6482 177.731 18.9976C177.88 19.1714 178.017 19.3562 178.168 19.5291C178.28 19.6578 178.415 19.7663 178.523 19.8978C178.651 20.0541 178.76 20.2251 178.89 20.4081C178.932 20.431 179.019 20.4541 179.071 20.5111C179.286 20.74 179.485 20.9855 179.701 21.2144C179.962 21.4903 180.261 21.734 180.495 22.03C180.788 22.4024 181.189 22.6709 181.458 23.0626C181.504 23.1297 181.553 23.1932 181.596 23.2502C181.574 23.2989 181.522 23.366 181.535 23.3871C181.581 23.4561 181.664 23.5637 181.711 23.5545C181.937 23.5094 181.95 23.6796 182.012 23.8083C182.044 23.8735 182.085 23.9342 182.122 23.9968C182.22 24.1614 182.316 24.3268 182.417 24.4905C182.504 24.6339 182.652 24.7434 182.665 24.9309C182.671 25.0321 182.699 25.1323 182.696 25.2316C182.696 25.2794 182.655 25.3493 182.613 25.3659C182.577 25.3805 182.498 25.3502 182.469 25.3144C182.388 25.2096 182.329 25.2096 182.235 25.3052C182.156 25.3879 181.993 25.3511 181.917 25.2454C181.831 25.1259 181.715 25.0946 181.574 25.0845C181.578 25.1213 181.576 25.1323 181.582 25.1406C181.609 25.1857 181.638 25.2298 181.666 25.2739C181.613 25.2693 181.551 25.2803 181.507 25.2583C181.414 25.215 181.332 25.1544 181.216 25.0826C181.43 25.0119 181.418 24.8721 181.391 24.7121C181.261 24.7544 181.195 24.702 181.129 24.588C181.054 24.4611 180.932 24.3618 180.827 24.2533C180.813 24.2386 180.781 24.2386 180.736 24.2248C180.838 24.3986 180.985 24.4749 180.963 24.6468C180.961 24.6634 181.021 24.7075 181.049 24.7056C181.198 24.6946 181.189 24.8334 181.245 24.908C181.247 24.9098 181.197 24.9704 181.173 24.9687C181.04 24.9594 180.915 24.93 180.908 24.8178C180.788 24.7213 180.705 24.6468 180.615 24.5834C180.549 24.5374 180.468 24.5126 180.404 24.4648C179.982 24.1503 179.562 23.8322 179.14 23.5159C178.974 23.3917 178.803 23.2722 178.636 23.1481C178.329 22.9182 178.019 22.6929 177.718 22.4557C177.502 22.2847 177.299 22.098 177.09 21.9178C176.964 21.8075 176.836 21.6954 176.709 21.585C176.446 21.3579 176.178 21.1372 175.921 20.9046C175.675 20.683 175.441 20.4495 175.201 20.2223C175.031 20.0614 174.857 19.9061 174.69 19.7424C174.621 19.6762 174.567 19.5962 174.505 19.5226C174.493 19.507 174.486 19.4804 174.47 19.4739C174.213 19.3719 174.068 19.1411 173.879 18.959C173.655 18.743 173.426 18.5305 173.205 18.3099C172.944 18.0506 172.688 17.7858 172.434 17.521C172.388 17.4741 172.367 17.4023 172.32 17.3619C172.242 17.2957 172.14 17.2571 172.068 17.1872C171.957 17.0778 171.867 16.9454 171.756 16.8342C171.628 16.7036 171.486 16.584 171.351 16.4599C171.196 16.3183 171.045 16.1712 170.884 16.036C170.567 15.7721 170.242 15.5166 169.923 15.2545C169.869 15.2094 169.828 15.1497 169.776 15.1028C169.701 15.0357 169.621 14.9759 169.545 14.9115C169.435 14.8205 169.324 14.7304 169.218 14.6348C169.08 14.5106 168.941 14.3856 168.811 14.2523C168.714 14.153 168.629 14.0417 168.539 13.9351C168.535 13.9314 168.534 13.9231 168.531 13.9222C168.308 13.8882 168.229 13.6877 168.092 13.5507C167.98 13.4376 167.826 13.3669 167.708 13.2584C167.637 13.1921 167.589 13.0928 167.551 13.0009C167.516 12.9163 167.581 12.897 167.654 12.9007C167.749 12.9062 167.844 12.9053 167.938 12.9117C167.966 12.9145 167.998 12.9282 168.02 12.9458C168.129 13.0358 168.236 13.1306 168.349 13.2271ZM171.576 16.0425C171.62 16.0949 171.652 16.1473 171.695 16.1878C171.821 16.3045 171.952 16.4176 172.081 16.5316C172.11 16.5583 172.14 16.5877 172.174 16.6089C172.283 16.6779 172.418 16.7183 172.415 16.8884C172.415 16.9151 172.466 16.95 172.501 16.9702C172.587 17.019 172.64 17.0318 172.656 16.8902C172.671 16.7486 172.59 16.6889 172.511 16.619C172.314 16.4443 172.112 16.2742 171.914 16.1013C171.903 16.0921 171.898 16.0747 171.89 16.0618C171.775 15.8788 171.771 15.8788 171.578 16.0434L171.576 16.0425ZM172.652 17.0456C172.73 17.1569 172.794 17.2525 172.865 17.3417C172.879 17.3564 172.935 17.3555 172.956 17.3408C173.019 17.2948 173.004 17.0797 172.943 16.9905C172.865 16.8764 172.811 16.9647 172.749 17.007C172.729 17.0208 172.703 17.0263 172.652 17.0465V17.0456ZM171.447 15.9441C171.459 15.956 171.47 15.9689 171.48 15.9799C171.528 15.9533 171.595 15.9377 171.619 15.8972C171.636 15.8696 171.604 15.7897 171.57 15.7629C171.489 15.6977 171.395 15.649 171.274 15.5736C171.282 15.6609 171.274 15.739 171.303 15.7988C171.317 15.8273 171.404 15.819 171.465 15.8282C171.461 15.8567 171.454 15.9009 171.447 15.9432L171.447 15.9441ZM181.43 24.4381C181.418 24.4501 181.405 24.4638 181.393 24.4758C181.495 24.5779 181.597 24.6799 181.713 24.7939C181.729 24.611 181.614 24.4786 181.43 24.4381ZM168.4 13.3402C168.479 13.4018 168.531 13.4487 168.59 13.4873C168.614 13.5029 168.651 13.5011 168.681 13.5075C168.687 13.4698 168.711 13.4128 168.696 13.3981C168.625 13.331 168.544 13.2749 168.456 13.2087C168.432 13.2676 168.412 13.3126 168.4 13.3402ZM180.586 24.0703C180.472 24.0244 180.386 23.9903 180.296 23.9535C180.314 24.1641 180.383 24.2009 180.586 24.0703ZM171.8 13.3797C171.833 13.3852 171.867 13.3917 171.9 13.3972C171.916 13.3347 171.931 13.2712 171.948 13.2078C171.903 13.1977 171.859 13.1867 171.813 13.1756C171.809 13.2436 171.805 13.3117 171.8 13.3797ZM172.277 15.6351C172.314 15.454 172.251 15.3805 172.021 15.3593C172.119 15.4642 172.189 15.5395 172.277 15.6351ZM173.247 16.4535C173.209 16.3836 173.181 16.322 173.143 16.2659C173.13 16.2457 173.097 16.2347 173.072 16.2282C173.063 16.2264 173.041 16.2539 173.037 16.2705C173.023 16.356 173.152 16.4682 173.248 16.4535H173.247ZM171.187 14.4987C171.171 14.5125 171.156 14.5272 171.141 14.5419C171.159 14.6458 171.173 14.7534 171.386 14.6927C171.304 14.6127 171.245 14.5557 171.187 14.4987ZM173.118 17.4106C173.091 17.4254 173.063 17.4391 173.035 17.453C173.066 17.4943 173.089 17.5504 173.129 17.5706C173.16 17.5863 173.225 17.5669 173.253 17.5393C173.269 17.5247 173.253 17.452 173.23 17.4272C173.209 17.406 173.156 17.4152 173.118 17.4106ZM171.096 15.3584C171.112 15.4559 171.126 15.5405 171.141 15.6241L171.21 15.6085C171.19 15.5276 171.171 15.4476 171.152 15.3676C171.15 15.3657 171.142 15.3667 171.096 15.3584ZM172.642 16.0315C172.717 15.8733 172.684 15.7832 172.545 15.7336C172.576 15.8301 172.606 15.9211 172.642 16.0315ZM182.1 25.1213C182.004 25.0486 181.921 24.9861 181.817 24.908C181.849 25.102 181.95 25.1433 182.1 25.1213Z" fill="white"/>
</g>
</g>
</g>
<mask id="mask10_6_2" style="mask-type:luminance" maskUnits="userSpaceOnUse" x="186" y="0" width="7" height="21">
<path d="M186.541 0.64743H192.19V20.6549H186.541V0.64743Z" fill="white"/>
</mask>
<g mask="url(#mask10_6_2)">
<mask id="mask11_6_2" style="mask-type:luminance" maskUnits="userSpaceOnUse" x="165" y="-12" width="48" height="47">
<path d="M182.783 -11.6962L212.676 6.88529L195.71 34.1786L165.818 15.5971L182.783 -11.6962Z" fill="white"/>
</mask>
<g mask="url(#mask11_6_2)">
<mask id="mask12_6_2" style="mask-type:luminance" maskUnits="userSpaceOnUse" x="165" y="-12" width="48" height="47">
<path d="M182.783 -11.6962L212.676 6.88529L195.71 34.1786L165.818 15.5971L182.783 -11.6962Z" fill="white"/>
</mask>
<g mask="url(#mask12_6_2)">
<path d="M189.332 15.2415C189.095 15.3142 189.11 15.1587 189.081 15.0273C189.005 14.688 188.91 14.3533 188.839 14.014C188.788 13.7694 188.762 13.5194 188.729 13.2702C188.687 12.9585 188.676 12.6449 188.58 12.3388C188.531 12.1889 188.538 12.016 188.544 11.8551C188.547 11.753 188.575 11.6372 188.732 11.6216C188.729 11.6565 188.723 11.6841 188.726 11.7098C188.729 11.742 188.738 11.7742 188.751 11.8037C188.754 11.8091 188.8 11.8073 188.803 11.799C188.816 11.7687 188.829 11.7328 188.827 11.7006C188.819 11.5949 188.806 11.4892 188.792 11.3834C188.789 11.3604 188.775 11.3237 188.762 11.3209C188.737 11.3163 188.702 11.3246 188.682 11.3412C188.638 11.3751 188.603 11.4175 188.562 11.457C188.642 11.5572 188.623 11.6041 188.471 11.6391C188.414 11.4882 188.499 11.3899 188.595 11.2951C188.636 11.2538 188.679 11.2134 188.721 11.1729C188.673 11.126 188.624 11.0791 188.571 11.0276C188.532 11.1315 188.501 11.2124 188.46 11.3227C188.384 11.2124 188.299 11.1471 188.353 11.0286C188.361 11.0129 188.356 10.9899 188.351 10.9725C188.307 10.8483 188.263 10.7242 188.221 10.601C188.167 10.4419 188.091 10.2874 188.066 10.1247C188.044 9.96193 187.933 9.79185 188.073 9.61897C188.108 9.57575 188.102 9.448 188.063 9.40656C187.925 9.25669 187.885 9.08387 187.848 8.89167C187.819 8.73536 187.73 8.59104 187.765 8.42185C187.558 8.17266 187.597 7.84258 187.482 7.56216C187.426 7.42605 187.38 7.28358 187.345 7.13919C187.324 7.05555 187.266 6.92774 187.453 6.94884C187.468 6.95069 187.487 6.91391 187.506 6.89459C187.482 6.88267 187.453 6.85418 187.437 6.85966C187.272 6.91671 187.235 6.81465 187.219 6.68958C187.187 6.4358 187.164 6.18111 187.123 5.92918C187.084 5.69196 187.021 5.45841 186.976 5.22211C186.96 5.14488 186.966 5.06489 186.961 4.98581C186.96 4.95639 186.971 4.92145 186.959 4.89846C186.84 4.67871 186.775 4.44884 186.811 4.19691C186.815 4.17484 186.807 4.14082 186.792 4.12795C186.694 4.04428 186.686 3.96797 186.822 3.89165C186.769 3.82361 186.721 3.76752 186.68 3.705C186.661 3.67374 186.653 3.63236 186.651 3.59466C186.649 3.58639 186.699 3.56064 186.713 3.568C186.744 3.58639 186.769 3.61857 186.811 3.65811C186.871 3.64891 186.954 3.63512 187.073 3.61489C186.969 3.51835 186.894 3.4503 186.816 3.37675C186.793 3.39514 186.776 3.41537 186.755 3.42364C186.726 3.43467 186.693 3.43652 186.661 3.44203C186.671 3.40709 186.666 3.35468 186.688 3.33813C186.936 3.15516 186.946 2.87932 186.984 2.61267C186.992 2.5621 187.004 2.51153 187.017 2.46096C187.05 2.3304 187.076 2.198 187.119 2.07019C187.166 1.92768 187.266 1.79251 187.272 1.65092C187.28 1.47806 187.386 1.35853 187.424 1.20866C187.447 1.12038 187.416 1.01649 187.447 0.932814C187.47 0.863859 187.539 0.780184 187.604 0.762717C187.698 0.736052 187.82 0.696515 187.877 0.860181C187.912 0.961322 187.947 1.04315 187.933 1.16085C187.919 1.28129 187.977 1.41002 188.008 1.53506C188.012 1.55254 188.035 1.5746 188.051 1.57644C188.307 1.59391 188.308 1.82837 188.409 1.98193C188.484 2.09502 188.574 2.21546 188.687 2.28259C188.893 2.40488 188.97 2.74876 188.805 2.92253C188.785 2.9446 188.78 2.97954 188.765 3.01448C188.994 3.01632 189.016 3.03563 189.056 3.2471C189.06 3.27193 189.057 3.30779 189.072 3.32158C189.286 3.51099 189.108 3.71695 189.097 3.91463C189.097 3.93762 189.072 3.95693 189.079 4.00658C189.137 3.97348 189.197 3.94038 189.278 3.89349C189.247 3.95509 189.228 3.99279 189.217 4.01302C189.294 4.0875 189.364 4.15369 189.431 4.21806C189.345 4.29254 189.289 4.33943 189.234 4.38632C189.243 4.40195 189.253 4.41758 189.262 4.43413C189.322 4.42218 189.384 4.40931 189.477 4.39092C189.488 4.46815 189.49 4.5509 189.511 4.62906C189.548 4.76054 189.598 4.88927 189.638 5.02167C189.682 5.17154 189.735 5.30946 189.625 5.47221C189.524 5.623 189.718 5.53381 189.725 5.59634C189.774 5.72414 189.839 5.84918 189.869 5.98159C189.889 6.07078 189.862 6.17192 189.858 6.26754C189.858 6.30616 189.853 6.37144 189.871 6.3797C190.074 6.47991 190.017 6.67581 190.049 6.83856C190.055 6.87164 190.068 6.90473 190.08 6.93596C190.149 7.107 190.217 7.27803 190.288 7.44811C190.322 7.53085 190.374 7.61086 190.396 7.6973C190.467 7.98786 190.55 8.27746 190.583 8.57172C190.607 8.79057 190.679 8.99099 190.733 9.1997C190.745 9.24566 190.725 9.29991 190.733 9.34957C190.765 9.53807 190.74 9.75876 190.806 9.91138C190.869 10.0604 190.931 10.2139 190.973 10.3693C191.035 10.5918 191.07 10.8235 191.113 11.0515C191.149 11.2519 191.184 11.4533 191.211 11.6556C191.224 11.7613 191.217 11.8708 191.225 11.9774C191.23 12.0463 191.247 12.1144 191.26 12.1824C191.265 12.2073 191.288 12.2367 191.281 12.2542C191.207 12.4381 191.276 12.621 191.284 12.8031C191.288 12.9107 191.325 13.0164 191.34 13.123C191.374 13.3593 191.398 13.5975 191.434 13.8338C191.507 14.3092 191.594 14.7836 191.66 15.2599C191.718 15.6764 191.76 16.0957 191.8 16.514C191.81 16.6235 191.784 16.7356 191.779 16.8469C191.777 16.8744 191.786 16.9039 191.794 16.9305C191.808 16.9683 191.835 17.0023 191.842 17.0409C191.874 17.2634 191.899 17.4859 191.931 17.7085C191.94 17.7673 191.968 17.8243 191.977 17.8831C191.999 18.0266 192.016 18.1709 192.033 18.3162C192.034 18.33 192.019 18.3512 192.025 18.3594C192.194 18.604 192.157 18.8936 192.169 19.1621C192.181 19.4324 192.128 19.7119 192.072 19.9795C192.032 20.1588 191.895 20.1845 191.74 20.0751C191.522 19.9207 191.425 19.9427 191.3 20.1772C191.276 20.2222 191.26 20.2728 191.233 20.3151C191.207 20.3574 191.176 20.4043 191.135 20.4282C190.999 20.51 190.642 20.3978 190.584 20.2498C190.404 19.7873 190.233 19.323 190.057 18.8578C189.994 18.6895 189.921 18.524 189.869 18.3521C189.833 18.2334 189.825 18.1056 189.795 17.9346C189.654 17.8298 189.526 17.3323 189.628 17.2018C189.588 17.1375 189.532 17.0869 189.519 17.0262C189.467 16.7761 189.434 16.5233 189.38 16.2731C189.342 16.0902 189.268 15.9145 189.24 15.7306C189.222 15.6175 189.253 15.4962 189.269 15.3794C189.274 15.3427 189.299 15.3086 189.33 15.2442L189.332 15.2415ZM190.732 11.2519C190.501 11.2749 190.483 11.2943 190.534 11.4947C190.548 11.548 190.597 11.5921 190.621 11.6445C190.638 11.6823 190.648 11.7264 190.648 11.7678C190.652 11.9342 190.63 12.1052 190.658 12.2679C190.683 12.3994 190.708 12.519 190.668 12.6523C190.618 12.8197 190.672 12.9245 190.829 12.986C190.806 13.0706 190.764 13.1562 190.76 13.2426C190.754 13.3685 190.77 13.4973 190.792 13.6214C190.796 13.649 190.864 13.6655 190.904 13.6867C190.919 13.6472 190.947 13.6085 190.947 13.5709C190.943 13.4146 190.933 13.26 190.922 13.1037C190.917 13.0467 190.889 12.987 190.899 12.9328C190.92 12.793 190.983 12.6541 190.831 12.542C190.811 12.5273 190.818 12.4647 190.823 12.4252C190.833 12.3553 190.848 12.2855 190.861 12.2155C190.889 12.0749 190.883 11.9498 190.747 11.9222C190.771 11.8137 190.793 11.7154 190.815 11.6124C190.516 11.5453 190.752 11.3816 190.733 11.2529L190.732 11.2519ZM190.083 11.6924C189.967 11.8037 189.981 12.3075 190.099 12.382C190.152 12.1512 190.155 11.9324 190.083 11.6924ZM190.294 13.5239C190.303 13.4724 190.311 13.4531 190.309 13.4329C190.297 13.3097 190.286 13.1874 190.268 13.0652C190.265 13.0467 190.232 13.0164 190.218 13.0192C190.192 13.0238 190.149 13.0495 190.15 13.066C190.153 13.2021 190.159 13.3391 190.177 13.4743C190.18 13.4936 190.247 13.5056 190.294 13.5239ZM187.287 4.78904C187.206 4.81203 187.112 4.81295 187.1 4.84421C187.073 4.92053 187.08 5.00972 187.085 5.09339C187.087 5.11546 187.133 5.14579 187.163 5.15223C187.179 5.15591 187.216 5.12649 187.227 5.10442C187.255 5.04558 187.277 4.98397 187.293 4.92145C187.302 4.88834 187.291 4.85065 187.287 4.78904ZM188.069 8.3961C188.017 8.49542 187.973 8.57262 187.937 8.65262C187.928 8.67378 187.939 8.71974 187.956 8.72988C187.975 8.7418 188.017 8.73447 188.037 8.71885C188.102 8.66645 188.163 8.60666 188.233 8.54227C188.184 8.49816 188.147 8.46597 188.069 8.3961ZM188.459 10.9237C188.517 10.8318 188.577 10.7407 188.629 10.646C188.638 10.6267 188.627 10.5817 188.609 10.5678C188.592 10.555 188.553 10.5596 188.528 10.5688C188.35 10.6396 188.422 10.7821 188.459 10.9237ZM189.983 11.6096C190.139 11.4267 190.102 11.3503 189.982 11.1379C189.955 11.2777 189.927 11.4046 189.91 11.5333C189.908 11.5535 189.952 11.5793 189.983 11.6106V11.6096ZM187.563 7.42605C187.664 7.41872 187.736 7.41133 187.842 7.4031C187.782 7.32674 187.751 7.28817 187.729 7.26057C187.759 7.19803 187.784 7.14748 187.809 7.09782C187.79 7.08768 187.771 7.0785 187.752 7.06837C187.697 7.17043 187.643 7.27344 187.562 7.42605H187.563ZM190.17 12.5557C190.01 12.6256 190.115 12.7599 190.086 12.8527C190.076 12.8785 190.134 12.9254 190.162 12.9621C190.17 12.9557 190.178 12.9484 190.187 12.941C190.182 12.8178 190.176 12.6955 190.17 12.5557ZM188.383 10.373C188.397 10.3932 188.411 10.4134 188.426 10.4337C188.467 10.4024 188.515 10.3757 188.547 10.338C188.562 10.3196 188.549 10.2774 188.549 10.2461C188.493 10.2893 188.438 10.3306 188.382 10.3739L188.383 10.373ZM188.322 9.88747C188.325 9.86541 188.328 9.84425 188.33 9.82219C188.311 9.77528 188.293 9.72842 188.268 9.6852C188.265 9.68246 188.193 9.70726 188.193 9.71644C188.195 9.76699 188.202 9.82124 188.226 9.86446C188.236 9.88377 188.288 9.88014 188.322 9.88747ZM191.71 18.0018C191.673 17.9493 191.645 17.9116 191.594 17.8399C191.573 17.9557 191.558 18.0339 191.539 18.1388C191.608 18.0845 191.652 18.0486 191.71 18.0018Z" fill="white"/>
</g>
</g>
</g>
<mask id="mask13_6_2" style="mask-type:luminance" maskUnits="userSpaceOnUse" x="200" y="3" width="9" height="22">
<path d="M200.894 3.94189H208.897V24.1848H200.894V3.94189Z" fill="white"/>
</mask>
<g mask="url(#mask13_6_2)">
<mask id="mask14_6_2" style="mask-type:luminance" maskUnits="userSpaceOnUse" x="165" y="-12" width="48" height="47">
<path d="M182.783 -11.6962L212.676 6.88529L195.71 34.1786L165.818 15.5971L182.783 -11.6962Z" fill="white"/>
</mask>
<g mask="url(#mask14_6_2)">
<mask id="mask15_6_2" style="mask-type:luminance" maskUnits="userSpaceOnUse" x="165" y="-12" width="48" height="47">
<path d="M182.783 -11.6962L212.676 6.88529L195.71 34.1786L165.818 15.5971L182.783 -11.6962Z" fill="white"/>
</mask>
<g mask="url(#mask15_6_2)">
<path d="M201.776 18.5199C201.844 18.3213 201.919 18.1254 201.976 17.9241C202.035 17.7209 202.077 17.514 202.128 17.297C202.056 17.2823 202.014 17.274 201.956 17.262C201.978 17.1526 201.973 17.0405 202.123 17.0083C202.204 16.9908 202.316 16.7224 202.303 16.6028C202.285 16.6093 202.267 16.6157 202.25 16.6193C202.215 16.6258 202.179 16.6332 202.144 16.6332C202.138 16.6332 202.121 16.5871 202.125 16.5826C202.154 16.5578 202.186 16.5329 202.221 16.5191C202.268 16.4998 202.354 16.5026 202.362 16.4759C202.39 16.3941 202.408 16.2994 202.392 16.2166C202.361 16.0493 202.341 15.892 202.438 15.7376C202.466 15.6944 202.473 15.6346 202.478 15.5813C202.491 15.4682 202.479 15.3487 202.51 15.242C202.522 15.1969 202.617 15.1749 202.674 15.1427C202.698 15.0976 202.72 15.0388 202.758 14.9937C202.857 14.8742 202.865 14.729 202.766 14.6085C202.702 14.5294 202.723 14.3032 202.816 14.192C202.832 14.2481 202.839 14.2986 202.863 14.3391C202.876 14.363 202.917 14.3713 202.946 14.3869C202.957 14.3574 202.984 14.3143 202.974 14.3014C202.932 14.2472 202.977 14.1359 202.857 14.1276C202.846 14.1267 202.826 13.9989 202.844 13.9391C202.918 13.6817 203.007 13.4288 203.084 13.1723C203.123 13.0445 203.187 12.9939 203.34 12.9893C203.41 12.855 203.481 12.7226 203.549 12.5902C203.63 12.4367 203.624 12.3815 203.5 12.194C203.674 12.2069 203.725 12.0901 203.766 11.9503C203.653 11.8897 203.686 11.8216 203.764 11.7416C203.956 11.5485 204.054 11.3039 204.126 11.0456C204.168 10.8948 204.226 10.7486 204.263 10.5978C204.287 10.5022 204.287 10.3992 204.3 10.276C204.641 10.0921 204.742 9.75922 204.7 9.34639C204.974 9.44016 204.927 9.17261 205.008 9.06042C205.091 8.94459 205.131 8.79382 205.169 8.65313C205.177 8.62094 205.102 8.5658 205.056 8.5106C205.058 8.5097 205.099 8.4821 205.137 8.48395C205.243 8.48943 205.251 8.4536 205.213 8.36442C205.188 8.30648 205.189 8.2375 205.175 8.14927C205.239 8.18051 205.282 8.20167 205.304 8.21181C205.333 8.03893 205.359 7.86604 205.392 7.69507C205.399 7.65918 205.426 7.61048 205.455 7.5976C205.552 7.55987 205.574 7.48726 205.586 7.39527C205.611 7.21047 205.742 7.06984 205.81 6.90888C205.885 6.72866 206.067 6.57235 206.004 6.34068C205.994 6.30389 205.996 6.24873 206.018 6.22114C206.131 6.07036 206.155 5.89198 206.197 5.71544C206.226 5.59039 206.298 5.47454 206.357 5.35868C206.4 5.27226 206.486 5.20605 206.397 5.08653C206.37 5.04975 206.44 4.93941 206.467 4.8631C206.509 4.73897 206.547 4.61392 206.593 4.49164C206.634 4.37854 206.661 4.24614 206.853 4.27188C206.823 4.18637 206.801 4.12293 206.778 4.05949C206.783 4.05121 206.79 4.04477 206.795 4.0365C206.823 4.06408 206.85 4.09443 206.881 4.1165C206.956 4.16614 207.027 4.30222 207.121 4.13396C207.128 4.12201 207.193 4.12109 207.199 4.13213C207.286 4.30407 207.424 4.20936 207.546 4.20752C207.583 4.2066 207.635 4.22407 207.656 4.25165C207.738 4.35556 207.822 4.46129 207.881 4.57898C207.914 4.64519 207.898 4.73529 207.904 4.81436C208.124 4.76471 208.155 4.69943 208.109 4.4714C208.074 4.29763 208.215 4.25257 208.355 4.19833C208.355 4.25074 208.357 4.29303 208.357 4.3344C208.371 4.32521 208.381 4.31694 208.394 4.30774C208.483 4.41624 208.575 4.5229 208.663 4.63415C208.677 4.65254 208.692 4.69208 208.683 4.70495C208.569 4.86218 208.695 5.03687 208.642 5.20238C208.593 5.35868 208.601 5.53155 208.556 5.68969C208.479 5.95726 208.375 6.21655 208.29 6.48228C208.226 6.68551 208.182 6.89326 208.116 7.09649C208.047 7.31253 207.966 7.52308 207.889 7.73645C207.87 7.78885 207.852 7.84029 207.835 7.89275C207.796 8.01317 207.764 8.13455 207.719 8.25318C207.638 8.47018 207.557 8.68807 207.463 8.89952C207.377 9.09076 207.266 9.27008 207.182 9.46132C207.132 9.57811 207.114 9.71051 207.077 9.83374C207.059 9.88977 207.037 9.95231 206.998 9.99279C206.892 10.1013 206.808 10.207 206.8 10.3734C206.795 10.4672 206.718 10.5573 206.657 10.6824C206.649 10.7173 206.646 10.801 206.607 10.8617C206.489 11.0428 206.413 11.2313 206.359 11.4446C206.297 11.6892 206.154 11.9126 206.05 12.1462C206.009 12.2381 205.973 12.3319 205.941 12.4275C205.876 12.6289 205.8 12.8284 205.755 13.0335C205.707 13.2541 205.62 13.449 205.509 13.6458C205.434 13.7764 205.46 13.9602 205.422 14.1157C205.389 14.2563 205.331 14.3924 205.282 14.5294C205.262 14.5864 205.234 14.6407 205.218 14.6995C205.146 14.9597 205.077 15.2208 205.008 15.4811C205.005 15.4912 205.005 15.505 205 15.5096C204.707 15.7118 204.826 16.0833 204.657 16.3426C204.578 16.463 204.578 16.6322 204.537 16.7784C204.507 16.8841 204.47 16.9881 204.434 17.0929C204.43 17.1076 204.416 17.1205 204.414 17.1333C204.38 17.4644 204.165 17.7319 204.092 18.05C204.087 18.0739 204.075 18.1043 204.084 18.1236C204.144 18.256 204.049 18.3378 203.994 18.4389C203.923 18.5696 203.869 18.7111 203.828 18.8536C203.752 19.1194 203.697 19.3915 203.616 19.6554C203.584 19.7556 203.513 19.8301 203.509 19.9589C203.506 20.0949 203.401 20.2273 203.356 20.3662C203.324 20.4673 203.32 20.5758 203.298 20.6815C203.271 20.8186 203.248 20.9592 203.206 21.0935C203.123 21.3518 203.025 21.6056 202.942 21.864C202.916 21.9431 202.918 22.0313 202.913 22.1159C202.894 22.4441 202.72 22.7163 202.596 23.0078C202.568 23.0731 202.549 23.142 202.524 23.2092C202.509 23.2459 202.497 23.3011 202.468 23.314C202.253 23.4105 202.158 23.5916 202.069 23.7985C202.015 23.9273 201.892 24.0265 201.794 24.135C201.782 24.1489 201.721 24.1461 201.714 24.1332C201.691 24.0928 201.658 24.0275 201.675 23.9999C201.729 23.9107 201.733 23.8353 201.685 23.7434C201.668 23.7121 201.695 23.656 201.707 23.6128C201.726 23.5457 201.747 23.4795 201.768 23.4059C201.711 23.3977 201.648 23.4031 201.641 23.3857C201.579 23.2367 201.458 23.234 201.323 23.2257C201.204 23.2183 201.138 23.1503 201.136 23.0105C201.135 22.9232 201.08 22.8359 201.052 22.7467C201.042 22.7163 201.036 22.6841 201.035 22.6529C201.033 22.6226 201.046 22.5913 201.042 22.5628C201.015 22.3458 200.965 22.1306 200.959 21.9136C200.954 21.6902 200.987 21.4631 201.008 21.2387C201.024 21.0668 201.048 20.8958 201.068 20.7238C201.086 20.5795 201.099 20.4342 201.123 20.2899C201.146 20.1574 201.17 20.0242 201.211 19.8972C201.225 19.8559 201.295 19.8292 201.342 19.8016C201.381 19.7796 201.427 19.7658 201.469 19.7483C201.439 19.7078 201.416 19.6545 201.374 19.6288C201.254 19.5543 201.34 19.4541 201.34 19.3695C201.34 19.3079 201.381 19.2462 201.406 19.1838C201.62 19.2123 201.61 19.2104 201.632 18.9842C201.643 18.8629 201.709 18.7451 201.747 18.6247C201.759 18.5879 201.764 18.5493 201.772 18.5116V18.5153L201.776 18.5199Z" fill="white"/>
</g>
</g>
</g>
<mask id="mask16_6_2" style="mask-type:luminance" maskUnits="userSpaceOnUse" x="186" y="2" width="2" height="2">
<path d="M186.541 2.52997H187.011V3.00073H186.541V2.52997Z" fill="white"/>
</mask>
<g mask="url(#mask16_6_2)">
<mask id="mask17_6_2" style="mask-type:luminance" maskUnits="userSpaceOnUse" x="165" y="-12" width="48" height="47">
<path d="M182.783 -11.6962L212.676 6.88529L195.71 34.1786L165.818 15.5971L182.783 -11.6962Z" fill="white"/>
</mask>
<g mask="url(#mask17_6_2)">
<mask id="mask18_6_2" style="mask-type:luminance" maskUnits="userSpaceOnUse" x="165" y="-12" width="48" height="47">
<path d="M182.783 -11.6962L212.676 6.88529L195.71 34.1786L165.818 15.5971L182.783 -11.6962Z" fill="white"/>
</mask>
<g mask="url(#mask18_6_2)">
<path d="M186.672 2.53122C186.675 2.58179 186.679 2.63144 186.681 2.69212C186.74 2.67742 186.774 2.66822 186.808 2.65903C186.816 2.66822 186.822 2.67742 186.829 2.68569C186.756 2.76844 186.682 2.85119 186.609 2.93487L186.571 2.9082C186.589 2.78316 186.608 2.65811 186.626 2.53306C186.64 2.53214 186.656 2.53214 186.671 2.53122H186.672Z" fill="white"/>
</g>
</g>
</g>
<mask id="mask19_6_2" style="mask-type:luminance" maskUnits="userSpaceOnUse" x="201" y="17" width="2" height="2">
<path d="M201.601 17.5941H202.072V18.0648H201.601V17.5941Z" fill="white"/>
</mask>
<g mask="url(#mask19_6_2)">
<mask id="mask20_6_2" style="mask-type:luminance" maskUnits="userSpaceOnUse" x="165" y="-12" width="48" height="47">
<path d="M182.783 -11.6962L212.676 6.88529L195.71 34.1786L165.818 15.5971L182.783 -11.6962Z" fill="white"/>
</mask>
<g mask="url(#mask20_6_2)">
<mask id="mask21_6_2" style="mask-type:luminance" maskUnits="userSpaceOnUse" x="165" y="-12" width="48" height="47">
<path d="M182.783 -11.6962L212.676 6.88529L195.71 34.1786L165.818 15.5971L182.783 -11.6962Z" fill="white"/>
</mask>
<g mask="url(#mask21_6_2)">
<path d="M201.766 17.8716C201.781 17.7981 201.797 17.7245 201.812 17.651C201.83 17.6491 201.847 17.6482 201.865 17.6463C201.887 17.696 201.934 17.7502 201.926 17.7953C201.918 17.8376 201.854 17.8698 201.814 17.9065C201.798 17.8955 201.782 17.8836 201.766 17.8726L201.766 17.8716Z" fill="white"/>
</g>
</g>
</g>
<mask id="mask22_6_2" style="mask-type:luminance" maskUnits="userSpaceOnUse" x="201" y="18" width="1" height="1">
<path d="M201.367 18.3012H201.838V18.772H201.367V18.3012Z" fill="white"/>
</mask>
<g mask="url(#mask22_6_2)">
<mask id="mask23_6_2" style="mask-type:luminance" maskUnits="userSpaceOnUse" x="165" y="-12" width="48" height="47">
<path d="M182.783 -11.6962L212.676 6.88529L195.71 34.1786L165.818 15.5971L182.783 -11.6962Z" fill="white"/>
</mask>
<g mask="url(#mask23_6_2)">
<mask id="mask24_6_2" style="mask-type:luminance" maskUnits="userSpaceOnUse" x="165" y="-12" width="48" height="47">
<path d="M182.783 -11.6962L212.676 6.88529L195.71 34.1786L165.818 15.5971L182.783 -11.6962Z" fill="white"/>
</mask>
<g mask="url(#mask24_6_2)">
<path d="M201.775 18.515C201.714 18.5324 201.651 18.5499 201.541 18.5802C201.578 18.4929 201.603 18.4313 201.628 18.3697C201.678 18.4193 201.726 18.4681 201.775 18.5177V18.515Z" fill="white"/>
</g>
</g>
</g>
<mask id="mask25_6_2" style="mask-type:luminance" maskUnits="userSpaceOnUse" x="244" y="6" width="72" height="127">
<path d="M244.208 6.06097H315.915V132.461H244.208V6.06097Z" fill="white"/>
</mask>
<g mask="url(#mask25_6_2)">
<mask id="mask26_6_2" style="mask-type:luminance" maskUnits="userSpaceOnUse" x="244" y="6" width="72" height="127">
<path d="M315.999 6.06097H244.208V132.461H315.999V6.06097Z" fill="white"/>
</mask>
<g mask="url(#mask26_6_2)">
<path d="M253.297 102.874L266.758 60.4209L247.489 23.3849L269.696 21.5275L279.546 47.6808L284.905 20.2513L303.731 18.6736L291.024 58.5084L311.23 98.0194L289.145 99.8693L278.972 72.7671L273.573 101.175L253.297 102.874Z" fill="white"/>
</g>
</g>
<mask id="mask27_6_2" style="mask-type:luminance" maskUnits="userSpaceOnUse" x="49" y="6" width="79" height="130">
<path d="M127.455 6.53162H49.5438V135.286H127.455V6.53162Z" fill="white"/>
</mask>
<g mask="url(#mask27_6_2)">
<path d="M57.3677 98.3814L67.5997 19.3484L92.1049 22.5223L100.425 74.2804L100.546 74.2957L105.198 24.2178L121.531 26.3326L111.3 105.366L91.4833 102.799L79.8654 41.5736L79.7474 41.5552L73.7048 100.497L57.3677 98.3814Z" fill="white"/>
</g>
</g>
</g>
</svg>
