<svg width="213" height="71" viewBox="0 0 213 71" fill="none" xmlns="http://www.w3.org/2000/svg">
<g clip-path="url(#clip0_70_1534)">
<mask id="mask0_70_1534" style="mask-type:luminance" maskUnits="userSpaceOnUse" x="0" y="0" width="213" height="71">
<path d="M213 0H0V71H213V0Z" fill="white"/>
</mask>
<g mask="url(#mask0_70_1534)">
<path d="M16.1678 29.2183C15.4145 27.1691 13.9831 26.1447 11.8738 26.1447C10.7739 26.1447 9.87741 26.4686 9.18434 27.1165C8.50636 27.7493 8.16736 28.495 8.16736 29.3539C8.16736 30.2427 8.43101 30.966 8.95834 31.5234C9.50076 32.0809 10.1712 32.5857 10.9698 33.0377C11.7834 33.4896 12.6497 33.9189 13.5688 34.3259C14.5029 34.7326 15.3693 35.2449 16.1678 35.8626C16.9814 36.4654 17.6519 37.2036 18.1792 38.0775C18.7216 38.9362 18.9928 40.0436 18.9928 41.3997C18.9928 42.59 18.7668 43.6748 18.3148 44.6541C17.8628 45.6335 17.2225 46.4846 16.3938 47.2079C15.5651 47.9162 14.5707 48.466 13.4106 48.8578C12.2655 49.2494 10.9848 49.4453 9.56856 49.4453C8.27281 49.4453 7.1202 49.2947 6.11073 48.9934C5.10127 48.692 4.34039 48.3379 3.82812 47.931C4.05413 47.0874 4.24998 46.3264 4.41572 45.6486C4.58146 44.9554 4.72459 44.2097 4.84513 43.4112H5.52314C5.61353 43.9233 5.77927 44.413 6.02034 44.88C6.27647 45.3471 6.61547 45.7615 7.03735 46.1232C7.4592 46.4697 7.94888 46.7484 8.50636 46.9592C9.07889 47.1551 9.72676 47.2532 10.45 47.2532C11.8512 47.2532 12.8908 46.8991 13.5688 46.1908C14.2619 45.4678 14.6084 44.6089 14.6084 43.6144C14.6084 42.7105 14.3447 41.9721 13.8174 41.3997C13.3051 40.8272 12.6572 40.3225 11.8738 39.8854C11.0903 39.4485 10.2315 39.0192 9.29734 38.5972C8.36321 38.1754 7.50442 37.6706 6.72093 37.0831C5.95253 36.4954 5.30466 35.7723 4.77733 34.9134C4.24998 34.0396 3.98632 32.9247 3.98632 31.5686C3.98632 30.3332 4.20478 29.2407 4.64172 28.2915C5.09372 27.3273 5.68886 26.5287 6.42712 25.8959C7.16541 25.2632 8.00914 24.781 8.95834 24.4495C9.92263 24.103 10.9396 23.9297 12.0094 23.9297C13.2901 23.9297 14.4125 24.0879 15.3768 24.4043C16.3411 24.7058 17.1697 25.1351 17.8628 25.6925C17.6368 26.235 17.4485 26.7624 17.2978 27.2747C17.1471 27.7868 16.9513 28.4346 16.7102 29.2183H16.1678ZM34.3384 49.4453C32.8317 49.4453 31.4154 49.272 30.0895 48.9255C28.7787 48.5789 27.6336 48.0291 26.6542 47.2758C25.6749 46.5072 24.9065 45.543 24.3489 44.3828C23.7916 43.2077 23.5129 41.7689 23.5129 40.0662C23.5129 39.117 23.5129 38.2732 23.5129 37.5351C23.528 36.7818 23.5355 36.0887 23.5355 35.4559C23.5355 34.808 23.5429 34.1903 23.558 33.6026C23.573 32.9999 23.5806 32.3822 23.5806 31.7494C23.5806 29.836 23.5655 28.284 23.5355 27.0938C23.5205 25.8884 23.4903 24.992 23.445 24.4043C23.9121 24.4495 24.3942 24.4873 24.8914 24.5174C25.3887 24.5474 25.8783 24.5625 26.3605 24.5625C26.8426 24.5625 27.3323 24.5474 27.8295 24.5174C28.3267 24.4873 28.8089 24.4495 29.2759 24.4043C29.1705 25.5645 29.0875 26.6794 29.0272 27.7493C28.9671 28.8038 28.9142 29.836 28.869 30.8453C28.839 31.8548 28.8164 32.8568 28.8013 33.8513C28.7862 34.8457 28.7787 35.855 28.7787 36.8796C28.7787 39.0642 28.9369 40.8197 29.2533 42.1454C29.5697 43.4562 30.0292 44.4733 30.632 45.1964C31.2346 45.9197 31.9728 46.4019 32.8468 46.6428C33.7356 46.884 34.7602 47.0045 35.9204 47.0045C37.3366 47.0045 38.444 46.6504 39.2425 45.9423C40.0561 45.219 40.6738 44.2623 41.0958 43.0722C41.5176 41.8818 41.7737 40.5257 41.8642 39.0041C41.9545 37.4672 41.9998 35.8626 41.9998 34.1903C41.9998 32.5631 41.9771 30.9358 41.9319 29.3086C41.8868 27.6663 41.8189 26.0315 41.7286 24.4043C42.3916 24.5099 42.9942 24.5625 43.5365 24.5625C43.8531 24.5625 44.1468 24.5474 44.418 24.5174C44.7042 24.4873 45.0055 24.4495 45.3219 24.4043C45.2769 24.9166 45.2241 25.6173 45.1637 26.5061C45.1036 27.3801 45.0508 28.3971 45.0055 29.5571C44.9605 30.7022 44.9227 31.9753 44.8926 33.3767C44.8624 34.7627 44.8473 36.2242 44.8473 37.7612C44.8473 41.8894 43.9585 44.8725 42.1806 46.7107C40.4027 48.5338 37.7886 49.4453 34.3384 49.4453ZM51.5597 31.5007C51.5597 29.8735 51.5371 28.5025 51.4918 27.3876C51.4465 26.2576 51.4015 25.2632 51.3562 24.4043C51.9588 24.5099 52.5013 24.5625 52.9835 24.5625C53.4505 24.5625 53.9855 24.5099 54.5881 24.4043C57.1645 27.252 59.7258 30.077 62.272 32.8795C64.8185 35.6817 67.4098 38.5069 70.0465 41.3544V34.8005C70.0465 33.6403 70.039 32.4952 70.0239 31.3652C70.0239 30.2352 70.0088 29.1957 69.9786 28.2465C69.9487 27.2971 69.9185 26.4835 69.8883 25.8056C69.8733 25.1276 69.8431 24.6605 69.798 24.4043C70.3856 24.5099 70.9205 24.5625 71.4026 24.5625C71.8697 24.5625 72.4044 24.5099 73.0072 24.4043C72.9016 26.1371 72.8189 27.7266 72.7585 29.173C72.7135 30.6194 72.6607 31.9904 72.6003 33.2862C72.5553 34.5819 72.5176 35.8326 72.4874 37.0378C72.4723 38.2433 72.4572 39.4711 72.4421 40.7216C72.4421 41.9573 72.4421 43.2528 72.4421 44.6089V48.9934L71.6964 48.8578C71.4703 48.8276 71.2294 48.8125 70.9731 48.8125C70.5211 48.8125 70.0616 48.8729 69.5946 48.9934C67.1386 46.0855 64.615 43.2002 62.0235 40.3376C59.4471 37.4596 56.7726 34.5744 54.0005 31.6816C53.9553 33.0377 53.9326 34.4237 53.9326 35.8399V39.9759C53.9326 41.4072 53.9402 42.62 53.9553 43.6144C53.9704 44.6089 53.9855 45.4527 54.0005 46.1458C54.0305 46.8387 54.0531 47.4038 54.0682 47.8407C54.0984 48.2776 54.1286 48.6619 54.1587 48.9934C53.8723 48.9481 53.5861 48.9028 53.2999 48.8578C53.0136 48.8276 52.7423 48.8125 52.4862 48.8125C51.9739 48.8125 51.4241 48.8729 50.8364 48.9934C50.8666 48.8276 50.9043 48.4509 50.9495 47.8633C50.9946 47.2607 51.0474 46.5148 51.1077 45.626C51.1679 44.7369 51.2207 43.7276 51.2659 42.5976C51.311 41.4676 51.3562 40.2772 51.4015 39.0267C51.4616 37.776 51.4993 36.5104 51.5144 35.2298C51.5446 33.9491 51.5597 32.7062 51.5597 31.5007ZM89.4828 29.2183C88.7293 27.1691 87.298 26.1447 85.1886 26.1447C84.0888 26.1447 83.1924 26.4686 82.4993 27.1165C81.8212 27.7493 81.4822 28.495 81.4822 29.3539C81.4822 30.2427 81.746 30.966 82.2732 31.5234C82.8157 32.0809 83.4862 32.5857 84.2847 33.0377C85.0983 33.4896 85.9645 33.9189 86.8838 34.3259C87.8178 34.7326 88.684 35.2449 89.4828 35.8626C90.2962 36.4654 90.9667 37.2036 91.4941 38.0775C92.0366 38.9362 92.3077 40.0436 92.3077 41.3997C92.3077 42.59 92.0816 43.6748 91.6297 44.6541C91.1777 45.6335 90.5374 46.4846 89.7087 47.2079C88.88 47.9162 87.8855 48.466 86.7256 48.8578C85.5805 49.2494 84.2998 49.4453 82.8833 49.4453C81.5878 49.4453 80.4352 49.2947 79.4256 48.9934C78.4161 48.692 77.6553 48.3379 77.143 47.931C77.3691 47.0874 77.5648 46.3264 77.7305 45.6486C77.8963 44.9554 78.0396 44.2097 78.1601 43.4112H78.8381C78.9284 43.9233 79.0942 44.413 79.3351 44.88C79.5914 45.3471 79.9304 45.7615 80.3522 46.1232C80.7742 46.4697 81.2639 46.7484 81.8212 46.9592C82.3939 47.1551 83.0415 47.2532 83.7649 47.2532C85.166 47.2532 86.2057 46.8991 86.8838 46.1908C87.5767 45.4678 87.9232 44.6089 87.9232 43.6144C87.9232 42.7105 87.6596 41.9721 87.1322 41.3997C86.6199 40.8272 85.9721 40.3225 85.1886 39.8854C84.4052 39.4485 83.5463 39.0192 82.6122 38.5972C81.6781 38.1754 80.8192 37.6706 80.0358 37.0831C79.2674 36.4954 78.6196 35.7723 78.0922 34.9134C77.5648 34.0396 77.3012 32.9247 77.3012 31.5686C77.3012 30.3332 77.5197 29.2407 77.9566 28.2915C78.4086 27.3273 79.0039 26.5287 79.742 25.8959C80.4802 25.2632 81.324 24.781 82.2732 24.4495C83.2375 24.103 84.2545 23.9297 85.3242 23.9297C86.6049 23.9297 87.7273 24.0879 88.6916 24.4043C89.6559 24.7058 90.4846 25.1351 91.1777 25.6925C90.9516 26.235 90.7635 26.7624 90.6128 27.2747C90.4619 27.7868 90.2662 28.4346 90.0251 29.2183H89.4828ZM96.4661 34.258C96.4661 33.2635 96.4585 32.3445 96.4435 31.5007C96.4435 30.6421 96.4284 29.8134 96.3984 29.0148C96.3833 28.2163 96.3532 27.448 96.3079 26.7096C96.2777 25.9563 96.2327 25.1879 96.1723 24.4043C96.5792 24.4495 97.0161 24.4873 97.4832 24.5174C97.9653 24.5474 98.5078 24.5625 99.1104 24.5625C99.9391 24.5625 100.798 24.5401 101.687 24.4948C102.591 24.4345 103.465 24.4043 104.308 24.4043C105.996 24.4043 107.314 24.5325 108.263 24.7886C109.213 25.0297 109.966 25.3836 110.523 25.8507C111.277 26.4686 111.827 27.1615 112.173 27.9301C112.535 28.6834 112.716 29.6024 112.716 30.6871C112.716 32.0281 112.49 33.1883 112.038 34.1677C111.586 35.1319 110.953 35.9229 110.139 36.5406C109.326 37.1432 108.354 37.5879 107.224 37.8741C106.109 38.1603 104.888 38.3034 103.563 38.3034H101.754C101.754 40.0813 101.77 41.8667 101.8 43.6597C101.83 45.4376 101.905 47.2155 102.026 48.9934C101.634 48.9481 101.197 48.9028 100.715 48.8578C100.248 48.8276 99.713 48.8125 99.1104 48.8125C98.5078 48.8125 97.9653 48.8276 97.4832 48.8578C97.0161 48.9028 96.5792 48.9481 96.1723 48.9934C96.2327 48.2099 96.2777 47.4489 96.3079 46.7107C96.3532 45.9574 96.3833 45.1815 96.3984 44.3828C96.4284 43.5843 96.4435 42.7558 96.4435 41.8969C96.4585 41.038 96.4661 40.1115 96.4661 39.117V34.258ZM107.088 31.2296C107.088 30.3408 106.983 29.5873 106.772 28.9696C106.576 28.3519 106.305 27.8622 105.958 27.5005C105.627 27.124 105.227 26.8527 104.76 26.6869C104.293 26.5212 103.811 26.4384 103.314 26.4384H102.5C102.229 26.4384 102.003 26.446 101.822 26.4611C101.792 28.1484 101.77 29.8285 101.754 31.5007C101.754 33.1581 101.754 34.8155 101.754 36.4729C102.342 36.4729 102.952 36.4201 103.585 36.3148C104.218 36.1941 104.791 35.9456 105.303 35.5688C105.83 35.1921 106.259 34.6649 106.591 33.9868C106.922 33.3088 107.088 32.3898 107.088 31.2296ZM136.039 35.9078C136.039 34.3711 135.851 32.9924 135.474 31.7721C135.097 30.5515 134.57 29.5121 133.892 28.6532C133.214 27.7943 132.393 27.1313 131.428 26.6643C130.479 26.1973 129.432 25.9638 128.287 25.9638C127.082 25.9638 125.997 26.2576 125.033 26.8451C124.068 27.4329 123.255 28.2239 122.592 29.2183C121.929 30.2125 121.424 31.3802 121.078 32.7213C120.731 34.0621 120.558 35.4936 120.558 37.0152C120.558 38.9136 120.754 40.5182 121.145 41.829C121.552 43.1248 122.102 44.172 122.795 44.9705C123.488 45.7691 124.287 46.349 125.191 46.7107C126.095 47.0724 127.044 47.2532 128.038 47.2532C129.108 47.2532 130.125 47.0271 131.09 46.5751C132.069 46.1232 132.92 45.43 133.643 44.4959C134.382 43.5619 134.962 42.3866 135.384 40.9704C135.821 39.5539 136.039 37.8665 136.039 35.9078ZM114.704 36.6988C114.704 34.936 115.028 33.2862 115.676 31.7494C116.339 30.1974 117.266 28.8416 118.456 27.6814C119.646 26.5061 121.085 25.5871 122.773 24.9241C124.46 24.2612 126.336 23.9297 128.4 23.9297C130.269 23.9297 132.031 24.1935 133.689 24.7207C135.346 25.2481 136.777 26.0391 137.983 27.0938C139.188 28.1333 140.137 29.4517 140.83 31.0488C141.538 32.6458 141.892 34.5218 141.892 36.6762C141.892 38.4239 141.554 40.0738 140.875 41.6258C140.213 43.1776 139.278 44.541 138.073 45.7163C136.868 46.8764 135.429 47.7879 133.756 48.4509C132.099 49.1138 130.276 49.4453 128.287 49.4453C126.404 49.4453 124.641 49.1968 122.999 48.6996C121.356 48.2024 119.918 47.4416 118.682 46.4169C117.462 45.3772 116.49 44.0589 115.767 42.4618C115.059 40.8497 114.704 38.9287 114.704 36.6988ZM151.294 37.8062C151.294 40.3826 151.302 42.6049 151.317 44.4733C151.347 46.3415 151.43 47.8483 151.565 48.9934C151.174 48.9481 150.737 48.9028 150.255 48.8578C149.788 48.8276 149.253 48.8125 148.65 48.8125C148.047 48.8125 147.505 48.8276 147.023 48.8578C146.556 48.9028 146.119 48.9481 145.712 48.9934C145.772 48.2099 145.817 47.4489 145.847 46.7107C145.893 45.9574 145.923 45.1815 145.938 44.3828C145.968 43.5843 145.983 42.7558 145.983 41.8969C145.998 41.038 146.006 40.1115 146.006 39.117V34.258C146.006 33.2635 145.998 32.3445 145.983 31.5007C145.983 30.6421 145.968 29.8134 145.938 29.0148C145.923 28.2163 145.893 27.448 145.847 26.7096C145.817 25.9563 145.772 25.1879 145.712 24.4043C146.119 24.4495 146.556 24.4873 147.023 24.5174C147.505 24.5474 148.047 24.5625 148.65 24.5625C149.253 24.5625 149.788 24.5474 150.255 24.5174C150.737 24.4873 151.174 24.4495 151.565 24.4043C151.49 24.8713 151.437 25.5119 151.407 26.3253C151.377 27.124 151.347 28.0355 151.317 29.0601C151.302 30.0845 151.294 31.1843 151.294 32.3596V35.7496C152.108 34.8155 152.974 33.7834 153.893 32.6534C154.812 31.5234 155.701 30.4235 156.56 29.3539C157.419 28.284 158.195 27.3046 158.888 26.4158C159.581 25.5267 160.078 24.8565 160.379 24.4043C160.711 24.4495 161.042 24.4873 161.374 24.5174C161.705 24.5474 162.037 24.5625 162.368 24.5625C162.7 24.5625 163.039 24.5474 163.385 24.5174C163.732 24.4873 164.108 24.4495 164.515 24.4043C164.244 24.6605 163.867 25.0446 163.385 25.5569C162.918 26.0692 162.391 26.6419 161.803 27.2747C161.231 27.8924 160.628 28.5553 159.995 29.2633C159.362 29.9565 158.745 30.6496 158.142 31.3425C157.554 32.0206 157.012 32.6534 156.515 33.2411C156.018 33.8136 155.611 34.2881 155.294 34.6649C156.063 35.8251 156.906 37.1057 157.826 38.5069C158.76 39.908 159.679 41.2792 160.583 42.62C161.502 43.961 162.353 45.1964 163.137 46.3264C163.935 47.4564 164.568 48.3455 165.035 48.9934C164.342 48.9481 163.724 48.9028 163.182 48.8578C162.639 48.8276 162.104 48.8125 161.577 48.8125C161.065 48.8125 160.553 48.8276 160.04 48.8578C159.528 48.9028 159.008 48.9481 158.481 48.9934C157.291 47.1101 156.1 45.2417 154.91 43.3886C153.72 41.5202 152.537 39.6595 151.362 37.8062H151.294ZM167.792 34.258C167.792 33.2635 167.785 32.3445 167.77 31.5007C167.77 30.6421 167.755 29.8134 167.724 29.0148C167.709 28.2163 167.679 27.448 167.634 26.7096C167.604 25.9563 167.559 25.1879 167.498 24.4043C168.583 24.4194 169.645 24.4495 170.685 24.4948C171.725 24.5401 172.779 24.5625 173.849 24.5625C174.738 24.5625 175.574 24.5625 176.358 24.5625C177.156 24.5474 177.879 24.5325 178.527 24.5174C179.19 24.5023 179.755 24.4873 180.222 24.4722C180.704 24.442 181.066 24.4194 181.307 24.4043C181.262 24.6153 181.224 24.8338 181.194 25.0597C181.179 25.2858 181.172 25.5645 181.172 25.8959C181.172 26.2727 181.179 26.574 181.194 26.8001C181.224 27.0109 181.262 27.2445 181.307 27.5005C180.614 27.4553 179.853 27.4102 179.024 27.365C178.211 27.3046 177.42 27.252 176.651 27.2068C175.883 27.1615 175.19 27.1313 174.572 27.1165C173.955 27.0863 173.51 27.0712 173.239 27.0712C173.149 28.367 173.096 29.6627 173.081 30.9585C173.081 32.2391 173.081 33.5349 173.081 34.8457C174.618 34.8155 176.011 34.7778 177.262 34.7326C178.512 34.6875 179.815 34.6272 181.172 34.5517C181.096 34.9587 181.043 35.2675 181.013 35.4785C180.998 35.6893 180.991 35.9154 180.991 36.1563C180.991 36.3522 181.006 36.5482 181.036 36.7441C181.081 36.94 181.126 37.2338 181.172 37.6254C178.444 37.3995 175.748 37.2863 173.081 37.2863C173.081 38.0549 173.073 38.8233 173.058 39.5916C173.043 40.3451 173.035 41.1059 173.035 41.8743C173.035 43.4112 173.073 44.8951 173.149 46.3264C174.504 46.3264 175.853 46.2889 177.194 46.2135C178.55 46.1383 179.921 46.0176 181.307 45.8518C181.262 46.1232 181.224 46.3641 181.194 46.5751C181.179 46.7861 181.172 47.0799 181.172 47.4564C181.172 47.8332 181.179 48.1345 181.194 48.3606C181.224 48.5713 181.262 48.7823 181.307 48.9934C180.659 48.9632 179.868 48.9255 178.934 48.8804C178 48.8352 176.712 48.8125 175.07 48.8125C173.623 48.8125 172.448 48.8201 171.544 48.8352C170.655 48.8502 169.939 48.8653 169.397 48.8804C168.869 48.9104 168.47 48.9255 168.199 48.9255C167.928 48.9405 167.694 48.9632 167.498 48.9934C167.559 48.2099 167.604 47.4489 167.634 46.7107C167.679 45.9574 167.709 45.1815 167.724 44.3828C167.755 43.5843 167.77 42.7558 167.77 41.8969C167.785 41.038 167.792 40.1115 167.792 39.117V34.258ZM186.256 31.5007C186.256 29.8735 186.234 28.5025 186.189 27.3876C186.144 26.2576 186.098 25.2632 186.053 24.4043C186.656 24.5099 187.198 24.5625 187.68 24.5625C188.147 24.5625 188.682 24.5099 189.285 24.4043C191.861 27.252 194.423 30.077 196.969 32.8795C199.515 35.6817 202.107 38.5069 204.744 41.3544V34.8005C204.744 33.6403 204.736 32.4952 204.721 31.3652C204.721 30.2352 204.706 29.1957 204.676 28.2465C204.645 27.2971 204.615 26.4835 204.585 25.8056C204.57 25.1276 204.54 24.6605 204.495 24.4043C205.083 24.5099 205.617 24.5625 206.099 24.5625C206.566 24.5625 207.101 24.5099 207.704 24.4043C207.599 26.1371 207.516 27.7266 207.456 29.173C207.41 30.6194 207.357 31.9904 207.297 33.2862C207.252 34.5819 207.214 35.8326 207.184 37.0378C207.169 38.2433 207.154 39.4711 207.139 40.7216C207.139 41.9573 207.139 43.2528 207.139 44.6089V48.9934L206.393 48.8578C206.167 48.8276 205.926 48.8125 205.67 48.8125C205.218 48.8125 204.759 48.8729 204.291 48.9934C201.836 46.0855 199.312 43.2002 196.72 40.3376C194.144 37.4596 191.47 34.5744 188.697 31.6816C188.652 33.0377 188.63 34.4237 188.63 35.8399V39.9759C188.63 41.4072 188.637 42.62 188.652 43.6144C188.667 44.6089 188.682 45.4527 188.697 46.1458C188.727 46.8387 188.75 47.4038 188.765 47.8407C188.795 48.2776 188.825 48.6619 188.855 48.9934C188.569 48.9481 188.283 48.9028 187.997 48.8578C187.71 48.8276 187.439 48.8125 187.183 48.8125C186.671 48.8125 186.121 48.8729 185.533 48.9934C185.564 48.8276 185.601 48.4509 185.646 47.8633C185.692 47.2607 185.744 46.5148 185.804 45.626C185.865 44.7369 185.917 43.7276 185.963 42.5976C186.008 41.4676 186.053 40.2772 186.098 39.0267C186.159 37.776 186.196 36.5104 186.211 35.2298C186.241 33.9491 186.256 32.7062 186.256 31.5007Z" fill="white"/>
</g>
</g>
<defs>
<clipPath id="clip0_70_1534">
<rect width="213" height="71" fill="white"/>
</clipPath>
</defs>
</svg>
