<svg width="143" height="48" viewBox="0 0 143 48" fill="none" xmlns="http://www.w3.org/2000/svg">
<path d="M11.2386 15.3979C14.8586 15.3979 16.0506 15.7179 18.6136 16.0789C18.8776 16.1199 18.9226 16.2369 18.9226 16.3989L18.7036 23.3849C18.7036 23.7049 18.3496 23.7049 18.3496 23.3849C18.3496 18.5529 16.4946 15.7179 11.2786 15.7179C7.65856 15.7179 5.18556 17.1149 5.18556 19.1929C5.18556 21.9109 8.63156 22.9479 12.1666 24.0649C15.8766 25.2229 19.7206 26.4629 19.7206 30.0149C19.7206 33.5669 16.2746 36.1679 11.8126 36.1679C7.25956 36.1679 5.05056 35.1669 3.28556 34.7299C3.06656 34.6889 2.97656 34.5269 2.97656 34.1709C2.97656 33.5719 3.24056 32.6929 3.24056 27.0629C3.24056 26.7019 3.59456 26.7019 3.59456 27.0629C3.59456 32.7689 5.53956 35.8069 11.8126 35.8069C16.0956 35.8069 17.5566 34.0089 17.5566 31.8139C17.5566 29.0599 14.1056 28.0189 10.5306 26.9419C6.82056 25.8239 3.06556 24.5439 3.06556 21.3529C3.06556 17.2379 7.56856 15.3989 11.2386 15.3989V15.3979ZM23.9146 20.7359C23.9146 17.3009 23.2966 17.3819 21.0876 17.7389C20.7386 17.7799 20.7386 17.4189 21.0876 17.3829C23.2966 17.0219 24.9766 16.3419 26.4776 15.5849C26.6126 15.5039 27.2756 15.6659 27.2756 15.8639V28.4849C27.2756 33.4339 29.7936 34.9939 32.4866 34.9939C35.2736 34.9939 37.0846 33.9169 39.2036 31.3609V20.7359C39.2036 17.3009 38.5856 17.3819 36.3766 17.7389C36.0226 17.7799 36.0226 17.4189 36.3766 17.3829C38.5856 17.0219 40.2216 16.3419 41.7226 15.5849C41.8576 15.5039 42.5156 15.6659 42.5156 15.8639V31.0399C42.5156 35.0689 42.6946 35.4299 44.8596 35.4299C44.9074 35.4299 44.9533 35.4489 44.9872 35.4827C45.021 35.5166 45.0401 35.5625 45.0401 35.6104C45.0401 35.6582 45.021 35.7042 44.9872 35.738C44.9533 35.7719 44.9074 35.7909 44.8596 35.7909C42.1226 35.7909 40.3516 36.0699 39.1156 36.1919C38.7616 36.2279 38.7616 36.0699 38.7616 35.8309C38.7616 35.5919 39.1606 34.0729 39.2056 31.8369C36.9516 34.5499 34.3886 36.1909 31.0326 36.1909C27.0586 36.1909 23.9166 34.3519 23.9166 28.0819V20.7349L23.9146 20.7359ZM67.5206 31.8549C67.5206 35.3659 68.1386 35.4469 69.6446 35.4069C69.9986 35.4069 69.9986 35.7679 69.6446 35.7679C69.2906 35.7679 66.4186 35.6869 65.7106 35.6869L61.9556 35.7679C61.6016 35.7679 61.6016 35.4069 61.9556 35.4069C63.7656 35.4069 64.2546 35.1279 64.2546 31.6159L64.2096 23.1059C64.1646 18.1569 61.5566 16.5969 58.8646 16.5969C56.0826 16.5969 54.2666 17.7149 52.1926 20.2299V35.4059H54.4916C54.8456 35.4059 54.8456 35.7669 54.4916 35.7669C54.1376 35.7669 51.8386 35.6859 51.1306 35.6859L46.8916 35.7669C46.5376 35.7669 46.5376 35.4059 46.8916 35.4059C48.7916 35.4059 48.8816 34.9279 48.8816 31.0159V20.7129C48.8816 19.5549 47.8646 18.5129 46.8476 17.6749C46.7126 17.5579 46.7576 17.4769 46.8476 17.4359C47.6406 17.1569 49.3206 16.4399 50.0736 15.7589C50.1586 15.6779 50.2036 15.6779 50.3376 15.7999C51.1306 16.5209 52.0576 18.1169 52.1476 19.7529C54.4016 17.0399 56.9196 15.3989 60.3206 15.3989C64.2996 15.3989 67.5206 17.2379 67.5206 23.5079V31.8559V31.8549ZM76.6256 15.8669L82.5896 15.8259C84.0456 15.7849 84.1356 15.8259 84.1356 15.9069C84.1356 16.1459 83.3426 16.9439 81.9716 18.0619C81.6176 18.0619 78.0376 18.0209 76.5366 18.0209V30.5599C76.5366 33.4359 77.5536 34.9549 79.4086 34.9549C81.1736 34.9549 82.8986 33.4769 83.9166 30.8039C84.0466 30.4839 84.6646 30.7229 84.4896 31.0429C83.0736 33.6389 80.5156 36.1949 77.4636 36.1949C74.5066 36.1949 73.2246 34.5139 73.2246 30.6829V18.0209H70.7916C70.7516 18.0209 70.7066 17.9039 70.7916 17.8229L76.4466 11.9539C76.5366 11.8729 76.6256 11.8319 76.6256 11.9899V15.8669ZM87.9796 20.7329C87.9796 17.6949 87.3616 17.5779 85.1526 18.0149C84.7986 18.0959 84.6686 17.7759 85.0176 17.6949C87.2266 17.2579 88.8176 16.5009 90.5426 15.4189C90.6726 15.3419 91.3356 15.4999 91.3356 15.6989V31.3939C91.3356 34.8289 91.5156 35.4279 93.9886 35.4279C94.3426 35.4279 94.3426 35.7889 93.9886 35.7889C92.7076 35.7889 90.4086 35.7079 89.7456 35.7079L85.2876 35.7889C84.9336 35.7889 84.9336 35.4279 85.2876 35.4279C87.8056 35.4279 87.9806 34.8279 87.9806 31.3939V20.7339L87.9796 20.7329ZM89.4806 7.79688C90.7626 7.79688 91.8246 8.75288 91.8246 9.91088C91.8246 11.0689 90.7626 11.9889 89.4806 11.9889C88.1986 11.9889 87.1866 11.0699 87.1866 9.91088C87.1866 8.75188 88.1986 7.79688 89.4806 7.79688ZM106.934 35.8849C106.889 35.9619 106.844 35.9619 106.759 35.9619H106.051C105.961 35.9619 105.916 35.9619 105.872 35.8849L98.8056 21.2269C96.6416 16.7149 95.7536 16.1559 93.8986 16.1969C93.5896 16.1969 93.5896 15.8359 93.8986 15.8359L98.3166 15.9169L102.825 15.8759C103.179 15.8759 103.179 16.1959 102.825 16.1959C100.262 16.1959 100.042 16.6739 101.723 20.1079L107.861 32.8859L112.987 21.8249C114.752 17.8719 113.87 16.1949 111.087 16.2359C110.733 16.2359 110.733 15.8749 111.087 15.8749L115.017 15.9159L118.771 15.8349C119.081 15.8349 119.081 16.1959 118.771 16.1959C116.697 16.1549 115.151 18.2329 113.386 22.0649L106.934 35.8849Z" fill="white"/>
<path fill-rule="evenodd" clip-rule="evenodd" d="M117.984 31.7334C117.984 29.0604 120.856 26.4234 129.029 23.5484L132.699 22.2684C132.519 17.2784 131.108 15.7594 127.971 15.7594C124.082 15.7594 123.244 18.9144 122.272 20.1944C121.873 20.7124 121.474 20.9114 120.282 20.9114C119.22 20.9114 118.517 20.5504 118.517 19.9914C118.517 19.5134 118.956 18.7564 120.063 18.1164C121.828 17.0794 125.538 15.3984 128.675 15.3984C133.008 15.3984 136.144 17.4354 136.144 22.6684C136.144 25.3454 135.79 29.8574 135.79 31.4124C135.79 33.6884 136.099 34.8064 137.027 34.8064C137.82 34.8064 138.927 33.4094 139.41 32.6114C139.635 32.2914 140.163 32.6114 139.944 32.9314C139.236 33.8504 136.453 36.1674 134.728 36.1674C133.053 36.1674 132.21 35.1264 132.21 33.3324C132.21 32.2914 132.3 30.8944 132.389 30.0554C131.193 31.8944 126.555 36.2034 123.464 36.2034C119.928 36.2034 117.984 34.1714 117.984 31.7334ZM125.673 34.4514C128.146 34.4514 132.08 30.4574 132.474 29.1374C132.519 28.6194 132.738 26.6624 132.738 23.3864V22.5484L129.118 23.9454C122.626 26.4244 121.075 27.6234 121.075 30.5754C121.075 32.7344 123.509 34.4514 125.673 34.4514Z" fill="white"/>
</svg>
