<svg width="143" height="48" viewBox="0 0 143 48" fill="none" xmlns="http://www.w3.org/2000/svg">
<path d="M133.296 26.215L131.369 22.99L131.073 23.086L131.375 30.918C131.381 31.262 130.888 31.882 130.579 31.913C129.582 32.014 128.554 31.962 127.558 31.822C127.32 31.788 126.993 31.186 126.992 30.845L127.03 17.402C127.033 16.559 127.378 16.394 128.23 16.26C130.86 15.847 132.49 16.905 133.608 19.208C134.343 20.723 135.276 22.143 136.474 23.568L136.502 18.962C136.56 18.08 136.67 16.663 137.157 16.463C138.119 16.068 139.368 16.276 140.476 16.415C140.705 16.444 140.984 17.261 140.987 17.716L140.939 31.022C140.934 31.355 140.511 31.859 140.174 31.98C138.319 32.648 136.379 31.848 135.423 30.111L133.296 26.215ZM82.592 31.857L78.564 31.991C77.372 32.007 77.27 31.046 77.231 30.27L77.216 24.946L77.447 17.882C77.396 16.533 77.963 16 79.06 16L86.374 16.267C88.167 16.412 89.862 19.741 89.209 21.885C88.854 23.051 88.854 23.943 89.372 25.135C91.167 29.271 87.567 32.855 84.084 31.741C83.67 31.609 83.166 31.762 82.592 31.857ZM85.473 26.341C84.389 24.839 83.008 26.147 81.701 25.773L81.724 27.874C81.749 28.108 82.071 28.521 82.197 28.5C83.266 28.318 84.341 28.115 85.362 27.764C85.564 27.695 85.54 26.964 85.473 26.341ZM83.694 19.325C81.619 19.3 81.49 19.477 81.943 21.848C82.421 21.848 82.941 21.942 83.406 21.824C83.958 21.683 84.741 21.49 84.93 21.087C85.299 20.299 84.857 19.629 83.694 19.325ZM93.346 23.58L93.316 18.089C93.301 16.961 93.939 16.348 94.991 16.313L100.781 16.303L103.829 16.312C105.636 16.354 105.029 17.896 105.136 18.771C105.223 19.483 104.851 20.406 103.641 20.377C102.121 20.34 100.59 20.594 99.076 20.502C97.502 20.406 97.168 21.036 97.564 22.455L101.056 22.443C102.95 22.339 103.41 22.786 103.246 24.73L103.173 25.341C103.154 25.437 103.081 25.523 102.952 25.765L98.83 25.962C97.471 26.015 97.223 26.776 97.59 28.083L103.72 28.06C104.762 28.021 105.181 28.403 105.036 29.388C104.89 30.381 105.631 31.939 103.805 32.001C100.67 32.107 97.528 32.08 94.393 31.987C93.989 31.975 93.451 31.296 93.257 30.812C93.063 30.328 93.22 29.699 93.226 29.134L93.346 23.58ZM115.055 16.2C115.532 16.181 115.927 16.292 116.232 16.173C117.42 15.712 117.93 16.374 118.298 17.322L121.752 26.243L123.452 30.219C123.978 31.536 123.592 31.831 122.194 31.797C120.567 31.757 119.262 31.538 118.822 29.672C118.768 29.446 118.17 29.257 117.805 29.216C117.091 29.137 116.36 29.22 115.643 29.154C114.218 29.023 113.231 29.291 112.806 30.956C112.46 32.315 109.955 32.439 108.464 31.292L113.451 18.25C113.749 17.497 114.428 16.895 115.055 16.198V16.2ZM116.004 22.178L115.012 25.499H117.285C116.913 24.32 116.579 23.262 116.004 22.178ZM38.78 24.742L38.831 30.352C38.923 31.479 38.512 31.767 37.535 31.766C34.379 31.764 34.65 31.679 34.698 29.202C34.773 25.355 34.745 21.505 34.705 17.657C34.695 16.658 35.158 16.424 36.03 16.352C38.117 16.18 39.793 16.624 40.818 18.71C41.63 20.364 42.667 21.907 43.787 23.811C43.921 21.445 43.927 19.437 44.178 17.46C44.423 15.531 46.011 16.568 47 16.494C47.418 16.463 48.272 17.121 48.277 17.475C48.338 22.023 48.283 26.573 48.248 31.123C48.247 31.278 48.137 31.433 48.036 31.7C46.882 31.7 45.685 31.834 44.545 31.639C44.032 31.552 43.51 30.88 43.2 30.351C41.803 27.969 40.481 25.542 38.788 23.178L38.781 24.743L38.78 24.742ZM59.841 31.38L53.975 31.742C52.702 31.797 52.157 31.118 52.139 29.842L51.885 18.164C51.848 16.762 52.473 16.138 53.956 16.2L58.615 16.406C63.048 16.561 66.542 21.335 65.26 25.628C64.446 28.356 62.911 30.534 59.84 31.381L59.841 31.38ZM60.503 26.314C61.897 25.069 61.938 23.561 61.182 22.022C60.399 20.428 58.717 20.46 57.268 20.165C57.086 20.128 56.591 20.631 56.584 20.893C56.528 23.125 56.552 25.358 56.552 27.876C57.956 27.366 59.138 26.937 60.503 26.315V26.314ZM26.842 28.098L29.05 28.008C30.468 27.831 31.071 28.294 31.037 29.844C31.002 31.455 30.386 31.949 28.829 31.902C26.119 31.82 23.401 31.991 20.693 31.885C20.235 31.867 19.439 31.002 19.428 30.514C19.332 26.436 19.352 22.355 19.41 18.275C19.426 17.127 20.113 16.429 21.339 16.436C24.102 16.452 26.866 16.546 29.626 16.469C31.12 16.427 31.018 17.459 30.957 18.283C30.893 19.146 31.365 20.471 29.592 20.444C27.725 20.416 25.854 20.603 23.858 20.702C23.026 22.155 23.173 22.453 25.034 22.539C25.878 22.578 26.766 22.714 27.561 22.514C28.767 22.212 29.083 22.711 29.167 23.752C29.255 24.838 29.321 25.865 27.791 25.871L23.982 25.872C23.302 27.935 23.328 27.973 25.144 28.02C25.654 28.033 26.163 28.069 26.841 28.096L26.842 28.098ZM5.804 29.612L1 16.909C2.871 15.398 5.16 16.031 5.9 18.299L8.279 25.487L10.42 19.113C11.614 15.666 12.125 15.441 15.803 16.708L11.86 27.26C11.563 28.057 11.364 28.901 10.982 29.653C10.481 30.639 10.314 31.827 8.614 31.837C6.937 31.846 6.289 31.07 5.804 29.612ZM73.379 26.614L73.492 30.941C73.477 31.231 72.798 31.638 72.372 31.721C71.718 31.849 70.978 31.878 70.35 31.691C69.912 31.561 69.29 31.006 69.283 30.63L69.205 17.759C69.193 16.103 70.35 16.401 71.336 16.408C72.273 16.416 73.321 16.169 73.297 17.754L73.379 26.614Z" fill="white"/>
</svg>
