<svg width="144" height="48" viewBox="0 0 144 48" fill="none" xmlns="http://www.w3.org/2000/svg">
<path d="M45.871 22.835V17.28L46.234 18.263L39.888 7.879H41.576L47.153 17.003H46.255L51.832 7.879H53.413L47.067 18.263L47.43 17.28V22.835H45.871ZM61.683 22.963C59.774 22.963 58.271 22.415 57.175 21.318C56.079 20.221 55.53 18.597 55.53 16.446V7.878H57.111V16.382C57.111 18.148 57.51 19.452 58.308 20.292C59.106 21.132 60.231 21.553 61.684 21.553C63.151 21.553 64.284 21.133 65.081 20.292C65.878 19.451 66.278 18.148 66.278 16.382V7.878H67.816V16.446C67.816 18.597 67.268 20.221 66.171 21.318C65.088 22.415 63.592 22.963 61.683 22.963ZM72.58 22.835V7.878H73.883L84.203 20.869H83.519V7.878H85.079V22.835H83.776L73.477 9.844H74.161V22.835H72.58ZM96.5 22.963C95.375 22.963 94.328 22.778 93.359 22.408C92.405 22.023 91.571 21.489 90.859 20.806C90.1636 20.1117 89.6055 19.2923 89.214 18.391C88.829 17.465 88.637 16.454 88.637 15.357C88.637 14.26 88.829 13.256 89.214 12.344C89.5986 11.4392 90.1575 10.6189 90.859 9.93C91.5739 9.23024 92.4248 8.68465 93.359 8.327C94.313 7.942 95.36 7.75 96.5 7.75C97.625 7.75 98.665 7.942 99.62 8.327C100.574 8.697 101.401 9.224 102.099 9.908C102.811 10.592 103.359 11.397 103.744 12.323C104.143 13.249 104.342 14.26 104.342 15.357C104.342 16.454 104.143 17.465 103.744 18.391C103.359 19.317 102.811 20.122 102.099 20.806C101.387 21.4989 100.544 22.0435 99.62 22.408C98.666 22.778 97.626 22.963 96.5 22.963ZM96.5 21.553C97.397 21.553 98.224 21.403 98.979 21.104C99.748 20.791 100.411 20.356 100.966 19.801C101.536 19.231 101.978 18.576 102.291 17.835C102.604 17.08 102.761 16.254 102.761 15.356C102.761 14.458 102.604 13.64 102.291 12.899C101.978 12.144 101.536 11.489 100.966 10.933C100.406 10.3601 99.7278 9.91551 98.979 9.63C98.224 9.317 97.398 9.16 96.5 9.16C95.602 9.16 94.769 9.317 94 9.63C93.2466 9.91907 92.5622 10.363 91.991 10.933C91.4287 11.4984 90.9791 12.1656 90.666 12.899C90.353 13.64 90.196 14.459 90.196 15.356C90.196 16.239 90.353 17.058 90.666 17.813C90.994 18.568 91.435 19.23 91.991 19.8C92.5695 20.361 93.2519 20.8036 94 21.103C94.769 21.402 95.603 21.552 96.5 21.552V21.553ZM12.625 42.187V27.23H19.078C20.745 27.23 22.034 27.565 22.945 28.234C23.871 28.903 24.334 29.851 24.334 31.076C24.334 31.888 24.142 32.572 23.757 33.127C23.3792 33.6892 22.8443 34.1278 22.219 34.388C21.5521 34.6781 20.8312 34.8236 20.104 34.815L20.467 34.302C21.421 34.302 22.24 34.452 22.924 34.751C23.622 35.036 24.163 35.47 24.548 36.054C24.933 36.624 25.125 37.336 25.125 38.191C25.125 39.459 24.655 40.442 23.715 41.14C22.789 41.838 21.386 42.187 19.506 42.187H12.626H12.625ZM14.206 40.884H19.484C20.794 40.884 21.799 40.663 22.497 40.222C23.195 39.766 23.544 39.047 23.544 38.064C23.544 37.095 23.195 36.39 22.497 35.949C21.799 35.493 20.795 35.265 19.484 35.265H14.035V33.962H18.971C20.168 33.962 21.093 33.734 21.749 33.278C22.418 32.822 22.753 32.145 22.753 31.248C22.753 30.336 22.418 29.66 21.749 29.218C21.094 28.762 20.168 28.534 18.971 28.534H14.206V40.884ZM35.272 42.316C34.147 42.316 33.1 42.131 32.131 41.76C31.2022 41.3916 30.3534 40.8473 29.631 40.157C28.9356 39.4627 28.3775 38.6433 27.986 37.742C27.601 36.816 27.409 35.805 27.409 34.708C27.409 33.611 27.601 32.607 27.986 31.695C28.3705 30.7898 28.9294 29.9692 29.631 29.28C30.3458 28.5804 31.1967 28.0351 32.131 27.678C33.085 27.293 34.132 27.101 35.272 27.101C36.397 27.101 37.437 27.293 38.392 27.678C39.346 28.048 40.173 28.575 40.871 29.259C41.5816 29.9402 42.142 30.7625 42.516 31.673C42.915 32.599 43.114 33.61 43.114 34.707C43.114 35.804 42.915 36.815 42.516 37.741C42.131 38.667 41.583 39.472 40.871 40.156C40.1589 40.8491 39.3163 41.3939 38.392 41.759C37.438 42.129 36.398 42.316 35.272 42.316ZM35.272 40.906C36.169 40.906 36.996 40.756 37.751 40.457C38.4942 40.1607 39.17 39.7175 39.738 39.154C40.308 38.584 40.749 37.929 41.063 37.188C41.376 36.433 41.533 35.607 41.533 34.709C41.533 33.811 41.376 32.992 41.063 32.252C40.7604 31.513 40.3094 30.8438 39.738 30.286C39.182 29.716 38.52 29.282 37.751 28.983C36.996 28.67 36.17 28.513 35.272 28.513C34.374 28.513 33.541 28.67 32.772 28.983C32.0186 29.2721 31.3342 29.716 30.763 30.286C30.2007 30.8514 29.7511 31.5186 29.438 32.252C29.125 32.993 28.968 33.812 28.968 34.709C28.968 35.592 29.125 36.411 29.438 37.166C29.766 37.921 30.207 38.583 30.763 39.153C31.3415 39.714 32.0239 40.1566 32.772 40.456C33.541 40.755 34.374 40.905 35.272 40.905V40.906ZM49.355 42.188V28.598H44.099V27.231H56.193V28.598H50.937V42.188H49.355ZM55.574 42.188L62.411 27.231H63.971L70.808 42.188H69.143L62.861 28.15H63.502L57.22 42.188H55.574ZM58.266 38.192L58.736 36.91H67.432L67.902 38.192H58.266ZM73.283 42.188V27.23H74.586L84.906 40.221H84.222V27.23H85.782V42.187H84.479L74.181 29.195H74.865V42.186H73.284L73.283 42.188ZM90.665 42.188V27.23H92.246V42.187L90.665 42.188ZM94.72 42.188L101.558 27.231H103.118L109.955 42.188H108.288L102.007 28.15H102.648L96.366 42.188H94.72ZM97.412 38.192L97.882 36.91H106.578L107.048 38.192H97.413H97.412ZM112.428 42.188V27.23H114.01V40.82H122.385V42.187L112.428 42.188ZM128.968 42.316C127.877 42.3195 126.794 42.1389 125.763 41.782C124.751 41.412 123.968 40.942 123.412 40.372L124.032 39.154C124.559 39.667 125.264 40.101 126.147 40.457C127.048 40.7995 128.004 40.9734 128.968 40.97C129.908 40.97 130.67 40.856 131.254 40.628C131.852 40.386 132.287 40.065 132.557 39.667C132.837 39.2823 132.987 38.818 132.985 38.342C132.985 37.758 132.814 37.288 132.472 36.932C132.144 36.576 131.71 36.298 131.169 36.099C130.627 35.885 130.029 35.7 129.374 35.543L127.408 35.052C126.753 34.867 126.147 34.625 125.592 34.325C125.05 34.026 124.609 33.634 124.267 33.15C123.939 32.651 123.775 32.003 123.775 31.206C123.775 30.465 123.968 29.789 124.352 29.176C124.751 28.549 125.357 28.051 126.169 27.68C126.981 27.295 128.02 27.103 129.288 27.103C130.134 27.1037 130.976 27.2259 131.788 27.466C132.614 27.694 133.327 28.014 133.925 28.428L133.391 29.689C132.762 29.2672 132.069 28.9498 131.339 28.749C130.665 28.5551 129.968 28.4545 129.267 28.45C128.369 28.45 127.629 28.571 127.045 28.813C126.461 29.055 126.026 29.383 125.741 29.796C125.471 30.195 125.335 30.651 125.335 31.163C125.335 31.747 125.499 32.217 125.827 32.573C126.169 32.929 126.61 33.207 127.152 33.406C127.707 33.605 128.312 33.783 128.968 33.94L130.912 34.453C131.567 34.638 132.166 34.88 132.707 35.18C133.24 35.445 133.696 35.8423 134.032 36.334C134.374 36.818 134.545 37.452 134.545 38.236C134.547 38.9565 134.339 39.6618 133.946 40.266C133.547 40.879 132.935 41.377 132.109 41.762C131.297 42.132 130.25 42.318 128.968 42.318V42.316Z" fill="white"/>
</svg>
